%TF.GenerationSoftware,KiCad,Pcbnew,(6.0.9)*%
%TF.CreationDate,2023-11-19T16:38:05-08:00*%
%TF.ProjectId,IMX283_MIPI_Camera_v2,494d5832-3833-45f4-9d49-50495f43616d,rev?*%
%TF.SameCoordinates,Original*%
%TF.FileFunction,Copper,L2,Inr*%
%TF.FilePolarity,Positive*%
%FSLAX46Y46*%
G04 Gerber Fmt 4.6, Leading zero omitted, Abs format (unit mm)*
G04 Created by KiCad (PCBNEW (6.0.9)) date 2023-11-19 16:38:05*
%MOMM*%
%LPD*%
G01*
G04 APERTURE LIST*
%TA.AperFunction,ViaPad*%
%ADD10C,0.450000*%
%TD*%
G04 APERTURE END LIST*
D10*
X33400000Y-29000000D03*
X33400000Y-27800000D03*
X29100000Y-35700000D03*
X28340000Y-33560000D03*
X26600000Y-30700000D03*
X29200000Y-31200000D03*
X29200000Y-29000000D03*
X28600000Y-28300000D03*
X28600000Y-31200000D03*
X21550000Y-30550000D03*
X22750000Y-32950000D03*
X23000000Y-30500000D03*
X12500000Y-23037500D03*
X26600000Y-8237500D03*
X8000000Y-537500D03*
X23800000Y-16237500D03*
X22200000Y-16237500D03*
X30300000Y-14937500D03*
X9500000Y-14037500D03*
X36000000Y-17737500D03*
X4800000Y-3937500D03*
X36000000Y-19137500D03*
X21500000Y-18537500D03*
X17400000Y-5275000D03*
X6600000Y-5500000D03*
X22200000Y-14737500D03*
X23600000Y-21550000D03*
X33800000Y-11637500D03*
X18500000Y-12537500D03*
X29200000Y-17237500D03*
X12500000Y-11037500D03*
X34850000Y-11187500D03*
X26600000Y-4037500D03*
X21500000Y-23037500D03*
X36000000Y-13237500D03*
X20000000Y-11037500D03*
X23700000Y-19237500D03*
X25700000Y-14000000D03*
X23600000Y-10137500D03*
X15900000Y-1037500D03*
X25125000Y-7450000D03*
X10300000Y-8737500D03*
X6500000Y862500D03*
X32200000Y-14737500D03*
X36000000Y-11737500D03*
X29650000Y-10487500D03*
X23000000Y-18537500D03*
X20000000Y-25387500D03*
X22200000Y-11737500D03*
X16200000Y-6837500D03*
X22200000Y-10400000D03*
X16775000Y-1150000D03*
X9500000Y-18537500D03*
X9500000Y-15537500D03*
X7325000Y450000D03*
X23850000Y-20750000D03*
X23500000Y-4437500D03*
X7400000Y-5937500D03*
X23700000Y-17737500D03*
X6500000Y-37500D03*
X13990000Y-3750000D03*
X36000000Y-16237500D03*
X30000000Y-15437500D03*
X28950000Y-11187500D03*
X21600000Y-14037500D03*
X18500637Y-22987082D03*
X23000000Y-21537500D03*
X9500000Y-12437500D03*
X37575000Y-31150000D03*
X36000000Y-20737500D03*
X8000000Y-2737500D03*
X36400000Y-31737500D03*
X21500000Y-11037500D03*
X27000000Y-20000000D03*
X17000000Y-23037500D03*
X25000000Y-937500D03*
X33697667Y-20650347D03*
X25850000Y-1250000D03*
X33700000Y-19437500D03*
X9280000Y-20000000D03*
X23700000Y-11837500D03*
X20900000Y-25550000D03*
X11000000Y-10937500D03*
X25850000Y-437500D03*
X25950000Y-7037500D03*
X35125000Y-31125000D03*
X16800000Y-437500D03*
X36000000Y-14737500D03*
X18566666Y-34237500D03*
X21500000Y-20037500D03*
X11000000Y-23037500D03*
X18150000Y-30600000D03*
X6600000Y-6337500D03*
X32900000Y-6600000D03*
X17400000Y-4237500D03*
X25125000Y-6700000D03*
X17000000Y-11037500D03*
X32200000Y-16237500D03*
X26600000Y-3100000D03*
X23650000Y-22350000D03*
X11750000Y-7637500D03*
X26800000Y-17437500D03*
X16200000Y-7500000D03*
X25250000Y-22050000D03*
X20650000Y-30830000D03*
X22125000Y-25550000D03*
X14700000Y-29600000D03*
X18500000Y-11037500D03*
X25950000Y-8637500D03*
X20000000Y-23037500D03*
X23800000Y-14737500D03*
X9180000Y-21500000D03*
X16900000Y-7500000D03*
X21500000Y-24537500D03*
X17000000Y-24500000D03*
X14400000Y-7637500D03*
X18100000Y-8137500D03*
X20000000Y-24500000D03*
X12500000Y-24380000D03*
X19300000Y-8137500D03*
X18700000Y-8137500D03*
X18700000Y-7500000D03*
X18500000Y-14000000D03*
X20000000Y-18537500D03*
X20000000Y-20000000D03*
X20000000Y-14000000D03*
X21500000Y-9537500D03*
X12500000Y-9500000D03*
X18700000Y-6837500D03*
X23000000Y-20000000D03*
X17000000Y-9500000D03*
X20000000Y-9500000D03*
X18100000Y-7500000D03*
X18100000Y-6837500D03*
X13990000Y-4850000D03*
X8220000Y-21500000D03*
X8320000Y-20000000D03*
X9300000Y-5737500D03*
X12500000Y-21620000D03*
X9300000Y-6337500D03*
X8000000Y-16937500D03*
X8700000Y-6337500D03*
X11000000Y-24280000D03*
X8000000Y-14037500D03*
X8700000Y-5737500D03*
X11000000Y-9500000D03*
X8005000Y-12500000D03*
X8900000Y-7737500D03*
X18500000Y-21537500D03*
X28000000Y-7137500D03*
X29500000Y-6937500D03*
X27300000Y-7137500D03*
X23000000Y-23037500D03*
X27300000Y-6537500D03*
X13250000Y-31477500D03*
X20650000Y-29870000D03*
X10500000Y-31477500D03*
X28000000Y-6537500D03*
X20000000Y-32775000D03*
X20000000Y-28300000D03*
X11000000Y-12500000D03*
X11000000Y-14000000D03*
X11000000Y-15437500D03*
X9500000Y-17037500D03*
X21300000Y-32350000D03*
X15900000Y-32687500D03*
X18600000Y-26200000D03*
X21400000Y-21227500D03*
X20000000Y-21500000D03*
X17000000Y-21500000D03*
X15500637Y-22987082D03*
X14000000Y-22937500D03*
X23200000Y-11037500D03*
X29768281Y-16046161D03*
X24500000Y-17037500D03*
X30933411Y-15162500D03*
X24500000Y-19937500D03*
X24500000Y-21500000D03*
X29308661Y-16505781D03*
X26000000Y-17037500D03*
X30933411Y-15812500D03*
X26000000Y-19937500D03*
X26000000Y-21500000D03*
X12187500Y-2137500D03*
X24475000Y-2125000D03*
X7050000Y-1600000D03*
X16400000Y-4850000D03*
X29100000Y-3537500D03*
%TA.AperFunction,Conductor*%
G36*
X32739196Y2298678D02*
G01*
X32769636Y2245955D01*
X32759064Y2186000D01*
X32729678Y2155356D01*
X32527337Y2026947D01*
X32284906Y1826390D01*
X32069522Y1597030D01*
X31884584Y1342484D01*
X31883243Y1340045D01*
X31883240Y1340040D01*
X31791696Y1173522D01*
X31733006Y1066766D01*
X31731978Y1064169D01*
X31731974Y1064161D01*
X31661716Y886708D01*
X31617181Y774225D01*
X31538934Y469473D01*
X31499500Y157318D01*
X31499500Y-157318D01*
X31538934Y-469473D01*
X31617181Y-774225D01*
X31618212Y-776829D01*
X31731974Y-1064161D01*
X31731978Y-1064169D01*
X31733006Y-1066766D01*
X31734357Y-1069223D01*
X31843556Y-1267854D01*
X31884584Y-1342484D01*
X32069522Y-1597030D01*
X32179782Y-1714445D01*
X32262167Y-1802175D01*
X32284906Y-1826390D01*
X32527337Y-2026947D01*
X32792993Y-2195537D01*
X33077685Y-2329503D01*
X33080336Y-2330364D01*
X33080335Y-2330364D01*
X33374267Y-2425869D01*
X33374272Y-2425870D01*
X33376921Y-2426731D01*
X33536362Y-2457146D01*
X33683242Y-2485165D01*
X33683246Y-2485165D01*
X33685985Y-2485688D01*
X33688776Y-2485864D01*
X33688779Y-2485864D01*
X33768154Y-2490858D01*
X33921417Y-2500500D01*
X34078583Y-2500500D01*
X34231846Y-2490858D01*
X34311221Y-2485864D01*
X34311224Y-2485864D01*
X34314015Y-2485688D01*
X34316754Y-2485165D01*
X34316758Y-2485165D01*
X34463638Y-2457146D01*
X34623079Y-2426731D01*
X34625728Y-2425870D01*
X34625733Y-2425869D01*
X34919665Y-2330364D01*
X34919664Y-2330364D01*
X34922315Y-2329503D01*
X35207007Y-2195537D01*
X35472663Y-2026947D01*
X35715094Y-1826390D01*
X35737834Y-1802175D01*
X35820218Y-1714445D01*
X35930478Y-1597030D01*
X36115416Y-1342484D01*
X36156445Y-1267854D01*
X36265643Y-1069223D01*
X36266994Y-1066766D01*
X36268022Y-1064169D01*
X36268026Y-1064161D01*
X36381788Y-776829D01*
X36382819Y-774225D01*
X36461066Y-469473D01*
X36500500Y-157318D01*
X36500500Y157318D01*
X36461066Y469473D01*
X36382819Y774225D01*
X36338284Y886708D01*
X36268026Y1064161D01*
X36268022Y1064169D01*
X36266994Y1066766D01*
X36208304Y1173522D01*
X36116760Y1340040D01*
X36116757Y1340045D01*
X36115416Y1342484D01*
X35930478Y1597030D01*
X35715094Y1826390D01*
X35472663Y2026947D01*
X35270322Y2155356D01*
X35233178Y2203589D01*
X35235727Y2264415D01*
X35276779Y2309372D01*
X35318012Y2319500D01*
X39269391Y2319500D01*
X39289334Y2317236D01*
X39299677Y2314858D01*
X39309451Y2317070D01*
X39319475Y2317052D01*
X39319475Y2317031D01*
X39328582Y2317771D01*
X39574222Y2302912D01*
X39584879Y2301618D01*
X39849801Y2253070D01*
X39860230Y2250499D01*
X40117370Y2170370D01*
X40127410Y2166563D01*
X40152313Y2155355D01*
X40373013Y2056025D01*
X40382529Y2051031D01*
X40536199Y1958135D01*
X40613028Y1911691D01*
X40621868Y1905588D01*
X40833869Y1739496D01*
X40841914Y1732370D01*
X41032370Y1541914D01*
X41039496Y1533869D01*
X41205588Y1321868D01*
X41211694Y1313023D01*
X41351031Y1082529D01*
X41356025Y1073013D01*
X41466561Y827415D01*
X41470372Y817366D01*
X41550499Y560231D01*
X41553070Y549801D01*
X41567791Y469473D01*
X41601617Y284886D01*
X41602913Y274217D01*
X41617743Y29049D01*
X41617001Y20115D01*
X41617122Y20115D01*
X41617104Y10091D01*
X41614858Y323D01*
X41617070Y-9452D01*
X41617070Y-9456D01*
X41617305Y-10492D01*
X41619500Y-30134D01*
X41619500Y-33969391D01*
X41617236Y-33989334D01*
X41614858Y-33999677D01*
X41617070Y-34009451D01*
X41617052Y-34019475D01*
X41617031Y-34019475D01*
X41617771Y-34028584D01*
X41602913Y-34274217D01*
X41601618Y-34284879D01*
X41567293Y-34472186D01*
X41553071Y-34549796D01*
X41550499Y-34560231D01*
X41470372Y-34817366D01*
X41466561Y-34827415D01*
X41356025Y-35073013D01*
X41351031Y-35082529D01*
X41211694Y-35313023D01*
X41205588Y-35321868D01*
X41039496Y-35533869D01*
X41032370Y-35541914D01*
X40841914Y-35732370D01*
X40833869Y-35739496D01*
X40621868Y-35905588D01*
X40613028Y-35911691D01*
X40536199Y-35958135D01*
X40382529Y-36051031D01*
X40373013Y-36056025D01*
X40210488Y-36129172D01*
X40127410Y-36166563D01*
X40117370Y-36170370D01*
X39874813Y-36245955D01*
X39860231Y-36250499D01*
X39849801Y-36253070D01*
X39584879Y-36301618D01*
X39574222Y-36302912D01*
X39368977Y-36315328D01*
X39329049Y-36317743D01*
X39320115Y-36317001D01*
X39320115Y-36317122D01*
X39310091Y-36317104D01*
X39300323Y-36314858D01*
X39290548Y-36317070D01*
X39290544Y-36317070D01*
X39289508Y-36317305D01*
X39269866Y-36319500D01*
X35318012Y-36319500D01*
X35260804Y-36298678D01*
X35230364Y-36245955D01*
X35240936Y-36186000D01*
X35270322Y-36155356D01*
X35472663Y-36026947D01*
X35715094Y-35826390D01*
X35930478Y-35597030D01*
X36115416Y-35342484D01*
X36131613Y-35313023D01*
X36260859Y-35077925D01*
X36266994Y-35066766D01*
X36268022Y-35064169D01*
X36268026Y-35064161D01*
X36381788Y-34776829D01*
X36382819Y-34774225D01*
X36461066Y-34469473D01*
X36500500Y-34157318D01*
X36500500Y-33842682D01*
X36461066Y-33530527D01*
X36382819Y-33225775D01*
X36326334Y-33083110D01*
X36268026Y-32935839D01*
X36268022Y-32935831D01*
X36266994Y-32933234D01*
X36180004Y-32775000D01*
X36116760Y-32659960D01*
X36116757Y-32659955D01*
X36115416Y-32657516D01*
X35930478Y-32402970D01*
X35715094Y-32173610D01*
X35472663Y-31973053D01*
X35302052Y-31864780D01*
X35209371Y-31805963D01*
X35209368Y-31805961D01*
X35207007Y-31804463D01*
X34922315Y-31670497D01*
X34888628Y-31659552D01*
X34625733Y-31574131D01*
X34625728Y-31574130D01*
X34623079Y-31573269D01*
X34424180Y-31535327D01*
X34316758Y-31514835D01*
X34316754Y-31514835D01*
X34314015Y-31514312D01*
X34311224Y-31514136D01*
X34311221Y-31514136D01*
X34231846Y-31509142D01*
X34078583Y-31499500D01*
X33921417Y-31499500D01*
X33768154Y-31509142D01*
X33688779Y-31514136D01*
X33688776Y-31514136D01*
X33685985Y-31514312D01*
X33683246Y-31514835D01*
X33683242Y-31514835D01*
X33575820Y-31535327D01*
X33376921Y-31573269D01*
X33374272Y-31574130D01*
X33374267Y-31574131D01*
X33111372Y-31659552D01*
X33077685Y-31670497D01*
X32792993Y-31804463D01*
X32790632Y-31805961D01*
X32790629Y-31805963D01*
X32697948Y-31864780D01*
X32527337Y-31973053D01*
X32284906Y-32173610D01*
X32069522Y-32402970D01*
X31884584Y-32657516D01*
X31883243Y-32659955D01*
X31883240Y-32659960D01*
X31819996Y-32775000D01*
X31733006Y-32933234D01*
X31731978Y-32935831D01*
X31731974Y-32935839D01*
X31673666Y-33083110D01*
X31617181Y-33225775D01*
X31538934Y-33530527D01*
X31499500Y-33842682D01*
X31499500Y-34157318D01*
X31538934Y-34469473D01*
X31617181Y-34774225D01*
X31618212Y-34776829D01*
X31731974Y-35064161D01*
X31731978Y-35064169D01*
X31733006Y-35066766D01*
X31739141Y-35077925D01*
X31868388Y-35313023D01*
X31884584Y-35342484D01*
X32069522Y-35597030D01*
X32284906Y-35826390D01*
X32527337Y-36026947D01*
X32729678Y-36155356D01*
X32766822Y-36203589D01*
X32764273Y-36264415D01*
X32723221Y-36309372D01*
X32681988Y-36319500D01*
X1318012Y-36319500D01*
X1260804Y-36298678D01*
X1230364Y-36245955D01*
X1240936Y-36186000D01*
X1270322Y-36155356D01*
X1472663Y-36026947D01*
X1715094Y-35826390D01*
X1930478Y-35597030D01*
X2115416Y-35342484D01*
X2131613Y-35313023D01*
X2260859Y-35077925D01*
X2266994Y-35066766D01*
X2268022Y-35064169D01*
X2268026Y-35064161D01*
X2381788Y-34776829D01*
X2382819Y-34774225D01*
X2461066Y-34469473D01*
X2500500Y-34157318D01*
X2500500Y-33842682D01*
X2461066Y-33530527D01*
X2382819Y-33225775D01*
X2326334Y-33083110D01*
X2268026Y-32935839D01*
X2268022Y-32935831D01*
X2266994Y-32933234D01*
X2180004Y-32775000D01*
X2131900Y-32687500D01*
X15489445Y-32687500D01*
X15509539Y-32814368D01*
X15517531Y-32830053D01*
X15564675Y-32922580D01*
X15564677Y-32922583D01*
X15567854Y-32928818D01*
X15658682Y-33019646D01*
X15664917Y-33022823D01*
X15664920Y-33022825D01*
X15717604Y-33049668D01*
X15773132Y-33077961D01*
X15900000Y-33098055D01*
X16026868Y-33077961D01*
X16082396Y-33049668D01*
X16135080Y-33022825D01*
X16135083Y-33022823D01*
X16141318Y-33019646D01*
X16232146Y-32928818D01*
X16235323Y-32922583D01*
X16235325Y-32922580D01*
X16282469Y-32830053D01*
X16290461Y-32814368D01*
X16296696Y-32775000D01*
X19589445Y-32775000D01*
X19609539Y-32901868D01*
X19634063Y-32950000D01*
X19664675Y-33010080D01*
X19664677Y-33010083D01*
X19667854Y-33016318D01*
X19758682Y-33107146D01*
X19764917Y-33110323D01*
X19764920Y-33110325D01*
X19817605Y-33137168D01*
X19873132Y-33165461D01*
X20000000Y-33185555D01*
X20126868Y-33165461D01*
X20182395Y-33137168D01*
X20235080Y-33110325D01*
X20235083Y-33110323D01*
X20241318Y-33107146D01*
X20332146Y-33016318D01*
X20335323Y-33010083D01*
X20335325Y-33010080D01*
X20365937Y-32950000D01*
X22339445Y-32950000D01*
X22359539Y-33076868D01*
X22376586Y-33110325D01*
X22414675Y-33185080D01*
X22414677Y-33185083D01*
X22417854Y-33191318D01*
X22508682Y-33282146D01*
X22514917Y-33285323D01*
X22514920Y-33285325D01*
X22567605Y-33312168D01*
X22623132Y-33340461D01*
X22750000Y-33360555D01*
X22876868Y-33340461D01*
X22932395Y-33312168D01*
X22985080Y-33285325D01*
X22985083Y-33285323D01*
X22991318Y-33282146D01*
X23082146Y-33191318D01*
X23085323Y-33185083D01*
X23085325Y-33185080D01*
X23123414Y-33110325D01*
X23140461Y-33076868D01*
X23160555Y-32950000D01*
X23140461Y-32823132D01*
X23098338Y-32740461D01*
X23085325Y-32714920D01*
X23085323Y-32714917D01*
X23082146Y-32708682D01*
X22991318Y-32617854D01*
X22985083Y-32614677D01*
X22985080Y-32614675D01*
X22892596Y-32567553D01*
X22876868Y-32559539D01*
X22750000Y-32539445D01*
X22623132Y-32559539D01*
X22607404Y-32567553D01*
X22514920Y-32614675D01*
X22514917Y-32614677D01*
X22508682Y-32617854D01*
X22417854Y-32708682D01*
X22414677Y-32714917D01*
X22414675Y-32714920D01*
X22401662Y-32740461D01*
X22359539Y-32823132D01*
X22339445Y-32950000D01*
X20365937Y-32950000D01*
X20390461Y-32901868D01*
X20410555Y-32775000D01*
X20390461Y-32648132D01*
X20345321Y-32559539D01*
X20335325Y-32539920D01*
X20335323Y-32539917D01*
X20332146Y-32533682D01*
X20241318Y-32442854D01*
X20235083Y-32439677D01*
X20235080Y-32439675D01*
X20182395Y-32412832D01*
X20126868Y-32384539D01*
X20000000Y-32364445D01*
X19873132Y-32384539D01*
X19817605Y-32412832D01*
X19764920Y-32439675D01*
X19764917Y-32439677D01*
X19758682Y-32442854D01*
X19667854Y-32533682D01*
X19664677Y-32539917D01*
X19664675Y-32539920D01*
X19654679Y-32559539D01*
X19609539Y-32648132D01*
X19589445Y-32775000D01*
X16296696Y-32775000D01*
X16310555Y-32687500D01*
X16290461Y-32560632D01*
X16250962Y-32483110D01*
X16235325Y-32452420D01*
X16235323Y-32452417D01*
X16232146Y-32446182D01*
X16141318Y-32355354D01*
X16135083Y-32352177D01*
X16135080Y-32352175D01*
X16130811Y-32350000D01*
X20889445Y-32350000D01*
X20909539Y-32476868D01*
X20935965Y-32528732D01*
X20964675Y-32585080D01*
X20964677Y-32585083D01*
X20967854Y-32591318D01*
X21058682Y-32682146D01*
X21064917Y-32685323D01*
X21064920Y-32685325D01*
X21101047Y-32703732D01*
X21173132Y-32740461D01*
X21300000Y-32760555D01*
X21426868Y-32740461D01*
X21498953Y-32703732D01*
X21535080Y-32685325D01*
X21535083Y-32685323D01*
X21541318Y-32682146D01*
X21632146Y-32591318D01*
X21635323Y-32585083D01*
X21635325Y-32585080D01*
X21664035Y-32528732D01*
X21690461Y-32476868D01*
X21710555Y-32350000D01*
X21690461Y-32223132D01*
X21662168Y-32167605D01*
X21635325Y-32114920D01*
X21635323Y-32114917D01*
X21632146Y-32108682D01*
X21541318Y-32017854D01*
X21535083Y-32014677D01*
X21535080Y-32014675D01*
X21456890Y-31974836D01*
X21426868Y-31959539D01*
X21300000Y-31939445D01*
X21173132Y-31959539D01*
X21143110Y-31974836D01*
X21064920Y-32014675D01*
X21064917Y-32014677D01*
X21058682Y-32017854D01*
X20967854Y-32108682D01*
X20964677Y-32114917D01*
X20964675Y-32114920D01*
X20937832Y-32167604D01*
X20909539Y-32223132D01*
X20889445Y-32350000D01*
X16130811Y-32350000D01*
X16082395Y-32325332D01*
X16026868Y-32297039D01*
X15900000Y-32276945D01*
X15773132Y-32297039D01*
X15717605Y-32325332D01*
X15664920Y-32352175D01*
X15664917Y-32352177D01*
X15658682Y-32355354D01*
X15567854Y-32446182D01*
X15564677Y-32452417D01*
X15564675Y-32452420D01*
X15549038Y-32483110D01*
X15509539Y-32560632D01*
X15489445Y-32687500D01*
X2131900Y-32687500D01*
X2116760Y-32659960D01*
X2116757Y-32659955D01*
X2115416Y-32657516D01*
X1930478Y-32402970D01*
X1715094Y-32173610D01*
X1472663Y-31973053D01*
X1302052Y-31864780D01*
X1209371Y-31805963D01*
X1209368Y-31805961D01*
X1207007Y-31804463D01*
X922315Y-31670497D01*
X888628Y-31659552D01*
X625733Y-31574131D01*
X625728Y-31574130D01*
X623079Y-31573269D01*
X424180Y-31535327D01*
X316758Y-31514835D01*
X316754Y-31514835D01*
X314015Y-31514312D01*
X311224Y-31514136D01*
X311221Y-31514136D01*
X231846Y-31509142D01*
X78583Y-31499500D01*
X-78583Y-31499500D01*
X-231846Y-31509142D01*
X-311221Y-31514136D01*
X-311224Y-31514136D01*
X-314015Y-31514312D01*
X-316754Y-31514835D01*
X-316758Y-31514835D01*
X-424180Y-31535327D01*
X-623079Y-31573269D01*
X-625728Y-31574130D01*
X-625733Y-31574131D01*
X-888628Y-31659552D01*
X-922315Y-31670497D01*
X-1207007Y-31804463D01*
X-1209368Y-31805961D01*
X-1209371Y-31805963D01*
X-1302052Y-31864780D01*
X-1472663Y-31973053D01*
X-1715094Y-32173610D01*
X-1930478Y-32402970D01*
X-2115416Y-32657516D01*
X-2143545Y-32708682D01*
X-2152509Y-32724988D01*
X-2198315Y-32765089D01*
X-2259182Y-32766364D01*
X-2306627Y-32728216D01*
X-2319500Y-32682112D01*
X-2319500Y-31477500D01*
X10089445Y-31477500D01*
X10109539Y-31604368D01*
X10137832Y-31659895D01*
X10164675Y-31712580D01*
X10164677Y-31712583D01*
X10167854Y-31718818D01*
X10258682Y-31809646D01*
X10264917Y-31812823D01*
X10264920Y-31812825D01*
X10317604Y-31839668D01*
X10373132Y-31867961D01*
X10500000Y-31888055D01*
X10626868Y-31867961D01*
X10682395Y-31839668D01*
X10735080Y-31812825D01*
X10735083Y-31812823D01*
X10741318Y-31809646D01*
X10832146Y-31718818D01*
X10835323Y-31712583D01*
X10835325Y-31712580D01*
X10862168Y-31659896D01*
X10890461Y-31604368D01*
X10910555Y-31477500D01*
X12839445Y-31477500D01*
X12859539Y-31604368D01*
X12887832Y-31659895D01*
X12914675Y-31712580D01*
X12914677Y-31712583D01*
X12917854Y-31718818D01*
X13008682Y-31809646D01*
X13014917Y-31812823D01*
X13014920Y-31812825D01*
X13067604Y-31839668D01*
X13123132Y-31867961D01*
X13250000Y-31888055D01*
X13376868Y-31867961D01*
X13432395Y-31839668D01*
X13485080Y-31812825D01*
X13485083Y-31812823D01*
X13491318Y-31809646D01*
X13582146Y-31718818D01*
X13585323Y-31712583D01*
X13585325Y-31712580D01*
X13612168Y-31659896D01*
X13640461Y-31604368D01*
X13660555Y-31477500D01*
X13640461Y-31350632D01*
X13612168Y-31295105D01*
X13585325Y-31242420D01*
X13585323Y-31242417D01*
X13582146Y-31236182D01*
X13545964Y-31200000D01*
X28189445Y-31200000D01*
X28209539Y-31326868D01*
X28225174Y-31357553D01*
X28264675Y-31435080D01*
X28264677Y-31435083D01*
X28267854Y-31441318D01*
X28358682Y-31532146D01*
X28364917Y-31535323D01*
X28364920Y-31535325D01*
X28417604Y-31562168D01*
X28473132Y-31590461D01*
X28600000Y-31610555D01*
X28726868Y-31590461D01*
X28784093Y-31561303D01*
X28835076Y-31535327D01*
X28835079Y-31535325D01*
X28841318Y-31532146D01*
X28846272Y-31527192D01*
X28847687Y-31526164D01*
X28906208Y-31509384D01*
X28952313Y-31526164D01*
X28953728Y-31527192D01*
X28958682Y-31532146D01*
X28964921Y-31535325D01*
X28964924Y-31535327D01*
X29015907Y-31561304D01*
X29073132Y-31590461D01*
X29200000Y-31610555D01*
X29326868Y-31590461D01*
X29382396Y-31562168D01*
X29435080Y-31535325D01*
X29435083Y-31535323D01*
X29441318Y-31532146D01*
X29532146Y-31441318D01*
X29535323Y-31435083D01*
X29535325Y-31435080D01*
X29574826Y-31357553D01*
X29590461Y-31326868D01*
X29610555Y-31200000D01*
X29590461Y-31073132D01*
X29562168Y-31017604D01*
X29535325Y-30964920D01*
X29535323Y-30964917D01*
X29532146Y-30958682D01*
X29441318Y-30867854D01*
X29435083Y-30864677D01*
X29435080Y-30864675D01*
X29371237Y-30832146D01*
X29326868Y-30809539D01*
X29200000Y-30789445D01*
X29073132Y-30809539D01*
X29028763Y-30832146D01*
X28964924Y-30864673D01*
X28964921Y-30864675D01*
X28958682Y-30867854D01*
X28953728Y-30872808D01*
X28952313Y-30873836D01*
X28893792Y-30890616D01*
X28847687Y-30873836D01*
X28846272Y-30872808D01*
X28841318Y-30867854D01*
X28835079Y-30864675D01*
X28835076Y-30864673D01*
X28771237Y-30832146D01*
X28726868Y-30809539D01*
X28600000Y-30789445D01*
X28473132Y-30809539D01*
X28428763Y-30832146D01*
X28364920Y-30864675D01*
X28364917Y-30864677D01*
X28358682Y-30867854D01*
X28267854Y-30958682D01*
X28264677Y-30964917D01*
X28264675Y-30964920D01*
X28237832Y-31017604D01*
X28209539Y-31073132D01*
X28189445Y-31200000D01*
X13545964Y-31200000D01*
X13491318Y-31145354D01*
X13485083Y-31142177D01*
X13485080Y-31142175D01*
X13432395Y-31115332D01*
X13376868Y-31087039D01*
X13250000Y-31066945D01*
X13123132Y-31087039D01*
X13067605Y-31115332D01*
X13014920Y-31142175D01*
X13014917Y-31142177D01*
X13008682Y-31145354D01*
X12917854Y-31236182D01*
X12914677Y-31242417D01*
X12914675Y-31242420D01*
X12887832Y-31295105D01*
X12859539Y-31350632D01*
X12839445Y-31477500D01*
X10910555Y-31477500D01*
X10890461Y-31350632D01*
X10862168Y-31295105D01*
X10835325Y-31242420D01*
X10835323Y-31242417D01*
X10832146Y-31236182D01*
X10741318Y-31145354D01*
X10735083Y-31142177D01*
X10735080Y-31142175D01*
X10682395Y-31115332D01*
X10626868Y-31087039D01*
X10500000Y-31066945D01*
X10373132Y-31087039D01*
X10317605Y-31115332D01*
X10264920Y-31142175D01*
X10264917Y-31142177D01*
X10258682Y-31145354D01*
X10167854Y-31236182D01*
X10164677Y-31242417D01*
X10164675Y-31242420D01*
X10137832Y-31295105D01*
X10109539Y-31350632D01*
X10089445Y-31477500D01*
X-2319500Y-31477500D01*
X-2319500Y-30550000D01*
X21139445Y-30550000D01*
X21159539Y-30676868D01*
X21187832Y-30732396D01*
X21214675Y-30785080D01*
X21214677Y-30785083D01*
X21217854Y-30791318D01*
X21308682Y-30882146D01*
X21314917Y-30885323D01*
X21314920Y-30885325D01*
X21362287Y-30909459D01*
X21423132Y-30940461D01*
X21550000Y-30960555D01*
X21676868Y-30940461D01*
X21737713Y-30909459D01*
X21785080Y-30885325D01*
X21785083Y-30885323D01*
X21791318Y-30882146D01*
X21882146Y-30791318D01*
X21885323Y-30785083D01*
X21885325Y-30785080D01*
X21912168Y-30732396D01*
X21940461Y-30676868D01*
X21960555Y-30550000D01*
X21952636Y-30500000D01*
X22589445Y-30500000D01*
X22609539Y-30626868D01*
X22631489Y-30669947D01*
X22664675Y-30735080D01*
X22664677Y-30735083D01*
X22667854Y-30741318D01*
X22758682Y-30832146D01*
X22764917Y-30835323D01*
X22764920Y-30835325D01*
X22817604Y-30862168D01*
X22873132Y-30890461D01*
X23000000Y-30910555D01*
X23126868Y-30890461D01*
X23182395Y-30862168D01*
X23235080Y-30835325D01*
X23235083Y-30835323D01*
X23241318Y-30832146D01*
X23332146Y-30741318D01*
X23335323Y-30735083D01*
X23335325Y-30735080D01*
X23368511Y-30669947D01*
X23390461Y-30626868D01*
X23410555Y-30500000D01*
X23390461Y-30373132D01*
X23343291Y-30280555D01*
X23335325Y-30264920D01*
X23335323Y-30264917D01*
X23332146Y-30258682D01*
X23241318Y-30167854D01*
X23235083Y-30164677D01*
X23235080Y-30164675D01*
X23140074Y-30116268D01*
X23126868Y-30109539D01*
X23000000Y-30089445D01*
X22873132Y-30109539D01*
X22859926Y-30116268D01*
X22764920Y-30164675D01*
X22764917Y-30164677D01*
X22758682Y-30167854D01*
X22667854Y-30258682D01*
X22664677Y-30264917D01*
X22664675Y-30264920D01*
X22656709Y-30280555D01*
X22609539Y-30373132D01*
X22589445Y-30500000D01*
X21952636Y-30500000D01*
X21940461Y-30423132D01*
X21911804Y-30366890D01*
X21885325Y-30314920D01*
X21885323Y-30314917D01*
X21882146Y-30308682D01*
X21791318Y-30217854D01*
X21785083Y-30214677D01*
X21785080Y-30214675D01*
X21732395Y-30187832D01*
X21676868Y-30159539D01*
X21550000Y-30139445D01*
X21423132Y-30159539D01*
X21367605Y-30187832D01*
X21314920Y-30214675D01*
X21314917Y-30214677D01*
X21308682Y-30217854D01*
X21217854Y-30308682D01*
X21214677Y-30314917D01*
X21214675Y-30314920D01*
X21188196Y-30366890D01*
X21159539Y-30423132D01*
X21139445Y-30550000D01*
X-2319500Y-30550000D01*
X-2319500Y-29870000D01*
X20239445Y-29870000D01*
X20259539Y-29996868D01*
X20287832Y-30052395D01*
X20314675Y-30105080D01*
X20314677Y-30105083D01*
X20317854Y-30111318D01*
X20408682Y-30202146D01*
X20414917Y-30205323D01*
X20414920Y-30205325D01*
X20467605Y-30232168D01*
X20523132Y-30260461D01*
X20650000Y-30280555D01*
X20776868Y-30260461D01*
X20832396Y-30232168D01*
X20885080Y-30205325D01*
X20885083Y-30205323D01*
X20891318Y-30202146D01*
X20982146Y-30111318D01*
X20985323Y-30105083D01*
X20985325Y-30105080D01*
X21012168Y-30052396D01*
X21040461Y-29996868D01*
X21060555Y-29870000D01*
X21040461Y-29743132D01*
X21012168Y-29687605D01*
X20985325Y-29634920D01*
X20985323Y-29634917D01*
X20982146Y-29628682D01*
X20891318Y-29537854D01*
X20885083Y-29534677D01*
X20885080Y-29534675D01*
X20832396Y-29507832D01*
X20776868Y-29479539D01*
X20650000Y-29459445D01*
X20523132Y-29479539D01*
X20467604Y-29507832D01*
X20414920Y-29534675D01*
X20414917Y-29534677D01*
X20408682Y-29537854D01*
X20317854Y-29628682D01*
X20314677Y-29634917D01*
X20314675Y-29634920D01*
X20287832Y-29687604D01*
X20259539Y-29743132D01*
X20239445Y-29870000D01*
X-2319500Y-29870000D01*
X-2319500Y-28300000D01*
X19589445Y-28300000D01*
X19609539Y-28426868D01*
X19637832Y-28482396D01*
X19664675Y-28535080D01*
X19664677Y-28535083D01*
X19667854Y-28541318D01*
X19758682Y-28632146D01*
X19764917Y-28635323D01*
X19764920Y-28635325D01*
X19817605Y-28662168D01*
X19873132Y-28690461D01*
X20000000Y-28710555D01*
X20126868Y-28690461D01*
X20182395Y-28662168D01*
X20235080Y-28635325D01*
X20235083Y-28635323D01*
X20241318Y-28632146D01*
X20332146Y-28541318D01*
X20335323Y-28535083D01*
X20335325Y-28535080D01*
X20362168Y-28482396D01*
X20390461Y-28426868D01*
X20410555Y-28300000D01*
X28189445Y-28300000D01*
X28209539Y-28426868D01*
X28237832Y-28482396D01*
X28264675Y-28535080D01*
X28264677Y-28535083D01*
X28267854Y-28541318D01*
X28358682Y-28632146D01*
X28364917Y-28635323D01*
X28364920Y-28635325D01*
X28417605Y-28662168D01*
X28473132Y-28690461D01*
X28600000Y-28710555D01*
X28726868Y-28690461D01*
X28733110Y-28687280D01*
X28733838Y-28687044D01*
X28794681Y-28689170D01*
X28839922Y-28729908D01*
X28848394Y-28790195D01*
X28840639Y-28812094D01*
X28809539Y-28873132D01*
X28789445Y-29000000D01*
X28809539Y-29126868D01*
X28837832Y-29182396D01*
X28864675Y-29235080D01*
X28864677Y-29235083D01*
X28867854Y-29241318D01*
X28958682Y-29332146D01*
X28964917Y-29335323D01*
X28964920Y-29335325D01*
X29017605Y-29362168D01*
X29073132Y-29390461D01*
X29200000Y-29410555D01*
X29326868Y-29390461D01*
X29382396Y-29362168D01*
X29435080Y-29335325D01*
X29435083Y-29335323D01*
X29441318Y-29332146D01*
X29532146Y-29241318D01*
X29535323Y-29235083D01*
X29535325Y-29235080D01*
X29562168Y-29182396D01*
X29590461Y-29126868D01*
X29610555Y-29000000D01*
X32989445Y-29000000D01*
X33009539Y-29126868D01*
X33037832Y-29182396D01*
X33064675Y-29235080D01*
X33064677Y-29235083D01*
X33067854Y-29241318D01*
X33158682Y-29332146D01*
X33164917Y-29335323D01*
X33164920Y-29335325D01*
X33217605Y-29362168D01*
X33273132Y-29390461D01*
X33400000Y-29410555D01*
X33526868Y-29390461D01*
X33582396Y-29362168D01*
X33635080Y-29335325D01*
X33635083Y-29335323D01*
X33641318Y-29332146D01*
X33732146Y-29241318D01*
X33735323Y-29235083D01*
X33735325Y-29235080D01*
X33762168Y-29182396D01*
X33790461Y-29126868D01*
X33810555Y-29000000D01*
X33790461Y-28873132D01*
X33748203Y-28790195D01*
X33735325Y-28764920D01*
X33735323Y-28764917D01*
X33732146Y-28758682D01*
X33641318Y-28667854D01*
X33635083Y-28664677D01*
X33635080Y-28664675D01*
X33571237Y-28632146D01*
X33526868Y-28609539D01*
X33400000Y-28589445D01*
X33273132Y-28609539D01*
X33228763Y-28632146D01*
X33164920Y-28664675D01*
X33164917Y-28664677D01*
X33158682Y-28667854D01*
X33067854Y-28758682D01*
X33064677Y-28764917D01*
X33064675Y-28764920D01*
X33051797Y-28790195D01*
X33009539Y-28873132D01*
X32989445Y-29000000D01*
X29610555Y-29000000D01*
X29590461Y-28873132D01*
X29548203Y-28790195D01*
X29535325Y-28764920D01*
X29535323Y-28764917D01*
X29532146Y-28758682D01*
X29441318Y-28667854D01*
X29435083Y-28664677D01*
X29435080Y-28664675D01*
X29371237Y-28632146D01*
X29326868Y-28609539D01*
X29200000Y-28589445D01*
X29073132Y-28609539D01*
X29066890Y-28612720D01*
X29066162Y-28612956D01*
X29005319Y-28610830D01*
X28960078Y-28570092D01*
X28951606Y-28509805D01*
X28959361Y-28487906D01*
X28987280Y-28433111D01*
X28990461Y-28426868D01*
X29010555Y-28300000D01*
X28990461Y-28173132D01*
X28962168Y-28117605D01*
X28935325Y-28064920D01*
X28935323Y-28064917D01*
X28932146Y-28058682D01*
X28841318Y-27967854D01*
X28835083Y-27964677D01*
X28835080Y-27964675D01*
X28760878Y-27926868D01*
X28726868Y-27909539D01*
X28600000Y-27889445D01*
X28473132Y-27909539D01*
X28439122Y-27926868D01*
X28364920Y-27964675D01*
X28364917Y-27964677D01*
X28358682Y-27967854D01*
X28267854Y-28058682D01*
X28264677Y-28064917D01*
X28264675Y-28064920D01*
X28237832Y-28117604D01*
X28209539Y-28173132D01*
X28189445Y-28300000D01*
X20410555Y-28300000D01*
X20390461Y-28173132D01*
X20362168Y-28117605D01*
X20335325Y-28064920D01*
X20335323Y-28064917D01*
X20332146Y-28058682D01*
X20241318Y-27967854D01*
X20235083Y-27964677D01*
X20235080Y-27964675D01*
X20160878Y-27926868D01*
X20126868Y-27909539D01*
X20000000Y-27889445D01*
X19873132Y-27909539D01*
X19839122Y-27926868D01*
X19764920Y-27964675D01*
X19764917Y-27964677D01*
X19758682Y-27967854D01*
X19667854Y-28058682D01*
X19664677Y-28064917D01*
X19664675Y-28064920D01*
X19637832Y-28117604D01*
X19609539Y-28173132D01*
X19589445Y-28300000D01*
X-2319500Y-28300000D01*
X-2319500Y-27800000D01*
X32989445Y-27800000D01*
X33009539Y-27926868D01*
X33037832Y-27982395D01*
X33064675Y-28035080D01*
X33064677Y-28035083D01*
X33067854Y-28041318D01*
X33158682Y-28132146D01*
X33164917Y-28135323D01*
X33164920Y-28135325D01*
X33217604Y-28162168D01*
X33273132Y-28190461D01*
X33400000Y-28210555D01*
X33526868Y-28190461D01*
X33582396Y-28162168D01*
X33635080Y-28135325D01*
X33635083Y-28135323D01*
X33641318Y-28132146D01*
X33732146Y-28041318D01*
X33735323Y-28035083D01*
X33735325Y-28035080D01*
X33762168Y-27982395D01*
X33790461Y-27926868D01*
X33810555Y-27800000D01*
X33790461Y-27673132D01*
X33762168Y-27617604D01*
X33735325Y-27564920D01*
X33735323Y-27564917D01*
X33732146Y-27558682D01*
X33641318Y-27467854D01*
X33635083Y-27464677D01*
X33635080Y-27464675D01*
X33582396Y-27437832D01*
X33526868Y-27409539D01*
X33400000Y-27389445D01*
X33273132Y-27409539D01*
X33217604Y-27437832D01*
X33164920Y-27464675D01*
X33164917Y-27464677D01*
X33158682Y-27467854D01*
X33067854Y-27558682D01*
X33064677Y-27564917D01*
X33064675Y-27564920D01*
X33037832Y-27617604D01*
X33009539Y-27673132D01*
X32989445Y-27800000D01*
X-2319500Y-27800000D01*
X-2319500Y-26200000D01*
X18189445Y-26200000D01*
X18209539Y-26326868D01*
X18237832Y-26382395D01*
X18264675Y-26435080D01*
X18264677Y-26435083D01*
X18267854Y-26441318D01*
X18358682Y-26532146D01*
X18364917Y-26535323D01*
X18364920Y-26535325D01*
X18417605Y-26562168D01*
X18473132Y-26590461D01*
X18600000Y-26610555D01*
X18726868Y-26590461D01*
X18782395Y-26562168D01*
X18835080Y-26535325D01*
X18835083Y-26535323D01*
X18841318Y-26532146D01*
X18932146Y-26441318D01*
X18935323Y-26435083D01*
X18935325Y-26435080D01*
X18962168Y-26382395D01*
X18990461Y-26326868D01*
X19010555Y-26200000D01*
X18990461Y-26073132D01*
X18962168Y-26017605D01*
X18935325Y-25964920D01*
X18935323Y-25964917D01*
X18932146Y-25958682D01*
X18841318Y-25867854D01*
X18835083Y-25864677D01*
X18835080Y-25864675D01*
X18782396Y-25837832D01*
X18726868Y-25809539D01*
X18600000Y-25789445D01*
X18473132Y-25809539D01*
X18417604Y-25837832D01*
X18364920Y-25864675D01*
X18364917Y-25864677D01*
X18358682Y-25867854D01*
X18267854Y-25958682D01*
X18264677Y-25964917D01*
X18264675Y-25964920D01*
X18237832Y-26017604D01*
X18209539Y-26073132D01*
X18189445Y-26200000D01*
X-2319500Y-26200000D01*
X-2319500Y-24280000D01*
X10589445Y-24280000D01*
X10609539Y-24406868D01*
X10637832Y-24462395D01*
X10664675Y-24515080D01*
X10664677Y-24515083D01*
X10667854Y-24521318D01*
X10758682Y-24612146D01*
X10764917Y-24615323D01*
X10764920Y-24615325D01*
X10799826Y-24633110D01*
X10873132Y-24670461D01*
X11000000Y-24690555D01*
X11126868Y-24670461D01*
X11200174Y-24633110D01*
X11235080Y-24615325D01*
X11235083Y-24615323D01*
X11241318Y-24612146D01*
X11332146Y-24521318D01*
X11335323Y-24515083D01*
X11335325Y-24515080D01*
X11362168Y-24462396D01*
X11390461Y-24406868D01*
X11394716Y-24380000D01*
X12089445Y-24380000D01*
X12109539Y-24506868D01*
X12116902Y-24521318D01*
X12164675Y-24615080D01*
X12164677Y-24615083D01*
X12167854Y-24621318D01*
X12258682Y-24712146D01*
X12264917Y-24715323D01*
X12264920Y-24715325D01*
X12315935Y-24741318D01*
X12373132Y-24770461D01*
X12500000Y-24790555D01*
X12626868Y-24770461D01*
X12684065Y-24741318D01*
X12735080Y-24715325D01*
X12735083Y-24715323D01*
X12741318Y-24712146D01*
X12832146Y-24621318D01*
X12835323Y-24615083D01*
X12835325Y-24615080D01*
X12883098Y-24521318D01*
X12890461Y-24506868D01*
X12891549Y-24500000D01*
X16589445Y-24500000D01*
X16609539Y-24626868D01*
X16625120Y-24657447D01*
X16664675Y-24735080D01*
X16664677Y-24735083D01*
X16667854Y-24741318D01*
X16758682Y-24832146D01*
X16764917Y-24835323D01*
X16764920Y-24835325D01*
X16817604Y-24862168D01*
X16873132Y-24890461D01*
X17000000Y-24910555D01*
X17126868Y-24890461D01*
X17182396Y-24862168D01*
X17235080Y-24835325D01*
X17235083Y-24835323D01*
X17241318Y-24832146D01*
X17332146Y-24741318D01*
X17335323Y-24735083D01*
X17335325Y-24735080D01*
X17374880Y-24657447D01*
X17390461Y-24626868D01*
X17410555Y-24500000D01*
X19589445Y-24500000D01*
X19609539Y-24626868D01*
X19625120Y-24657447D01*
X19664675Y-24735080D01*
X19664677Y-24735083D01*
X19667854Y-24741318D01*
X19758682Y-24832146D01*
X19764917Y-24835323D01*
X19764920Y-24835325D01*
X19817604Y-24862168D01*
X19873132Y-24890461D01*
X20000000Y-24910555D01*
X20126868Y-24890461D01*
X20182396Y-24862168D01*
X20235080Y-24835325D01*
X20235083Y-24835323D01*
X20241318Y-24832146D01*
X20332146Y-24741318D01*
X20335323Y-24735083D01*
X20335325Y-24735080D01*
X20374880Y-24657447D01*
X20390461Y-24626868D01*
X20404616Y-24537500D01*
X21089445Y-24537500D01*
X21109539Y-24664368D01*
X21122882Y-24690555D01*
X21164675Y-24772580D01*
X21164677Y-24772583D01*
X21167854Y-24778818D01*
X21258682Y-24869646D01*
X21264917Y-24872823D01*
X21264920Y-24872825D01*
X21301685Y-24891557D01*
X21373132Y-24927961D01*
X21500000Y-24948055D01*
X21626868Y-24927961D01*
X21698315Y-24891557D01*
X21735080Y-24872825D01*
X21735083Y-24872823D01*
X21741318Y-24869646D01*
X21832146Y-24778818D01*
X21835323Y-24772583D01*
X21835325Y-24772580D01*
X21877118Y-24690555D01*
X21890461Y-24664368D01*
X21910555Y-24537500D01*
X21890461Y-24410632D01*
X21862168Y-24355104D01*
X21835325Y-24302420D01*
X21835323Y-24302417D01*
X21832146Y-24296182D01*
X21741318Y-24205354D01*
X21735083Y-24202177D01*
X21735080Y-24202175D01*
X21667720Y-24167854D01*
X21626868Y-24147039D01*
X21500000Y-24126945D01*
X21373132Y-24147039D01*
X21332280Y-24167854D01*
X21264920Y-24202175D01*
X21264917Y-24202177D01*
X21258682Y-24205354D01*
X21167854Y-24296182D01*
X21164677Y-24302417D01*
X21164675Y-24302420D01*
X21137832Y-24355105D01*
X21109539Y-24410632D01*
X21089445Y-24537500D01*
X20404616Y-24537500D01*
X20410555Y-24500000D01*
X20390461Y-24373132D01*
X20343008Y-24280000D01*
X20335325Y-24264920D01*
X20335323Y-24264917D01*
X20332146Y-24258682D01*
X20241318Y-24167854D01*
X20235083Y-24164677D01*
X20235080Y-24164675D01*
X20182396Y-24137832D01*
X20126868Y-24109539D01*
X20000000Y-24089445D01*
X19873132Y-24109539D01*
X19817604Y-24137832D01*
X19764920Y-24164675D01*
X19764917Y-24164677D01*
X19758682Y-24167854D01*
X19667854Y-24258682D01*
X19664677Y-24264917D01*
X19664675Y-24264920D01*
X19656992Y-24280000D01*
X19609539Y-24373132D01*
X19589445Y-24500000D01*
X17410555Y-24500000D01*
X17390461Y-24373132D01*
X17343008Y-24280000D01*
X17335325Y-24264920D01*
X17335323Y-24264917D01*
X17332146Y-24258682D01*
X17241318Y-24167854D01*
X17235083Y-24164677D01*
X17235080Y-24164675D01*
X17182396Y-24137832D01*
X17126868Y-24109539D01*
X17000000Y-24089445D01*
X16873132Y-24109539D01*
X16817604Y-24137832D01*
X16764920Y-24164675D01*
X16764917Y-24164677D01*
X16758682Y-24167854D01*
X16667854Y-24258682D01*
X16664677Y-24264917D01*
X16664675Y-24264920D01*
X16656992Y-24280000D01*
X16609539Y-24373132D01*
X16589445Y-24500000D01*
X12891549Y-24500000D01*
X12910555Y-24380000D01*
X12890461Y-24253132D01*
X12838025Y-24150220D01*
X12835325Y-24144920D01*
X12835323Y-24144917D01*
X12832146Y-24138682D01*
X12741318Y-24047854D01*
X12735083Y-24044677D01*
X12735080Y-24044675D01*
X12682395Y-24017832D01*
X12626868Y-23989539D01*
X12500000Y-23969445D01*
X12373132Y-23989539D01*
X12317605Y-24017832D01*
X12264920Y-24044675D01*
X12264917Y-24044677D01*
X12258682Y-24047854D01*
X12167854Y-24138682D01*
X12164677Y-24144917D01*
X12164675Y-24144920D01*
X12161975Y-24150220D01*
X12109539Y-24253132D01*
X12089445Y-24380000D01*
X11394716Y-24380000D01*
X11410555Y-24280000D01*
X11390461Y-24153132D01*
X11358011Y-24089445D01*
X11335325Y-24044920D01*
X11335323Y-24044917D01*
X11332146Y-24038682D01*
X11241318Y-23947854D01*
X11235083Y-23944677D01*
X11235080Y-23944675D01*
X11182396Y-23917832D01*
X11126868Y-23889539D01*
X11000000Y-23869445D01*
X10873132Y-23889539D01*
X10817604Y-23917832D01*
X10764920Y-23944675D01*
X10764917Y-23944677D01*
X10758682Y-23947854D01*
X10667854Y-24038682D01*
X10664677Y-24044917D01*
X10664675Y-24044920D01*
X10641989Y-24089445D01*
X10609539Y-24153132D01*
X10589445Y-24280000D01*
X-2319500Y-24280000D01*
X-2319500Y-22937500D01*
X13589445Y-22937500D01*
X13609539Y-23064368D01*
X13631276Y-23107029D01*
X13664675Y-23172580D01*
X13664677Y-23172583D01*
X13667854Y-23178818D01*
X13758682Y-23269646D01*
X13764917Y-23272823D01*
X13764920Y-23272825D01*
X13817605Y-23299668D01*
X13873132Y-23327961D01*
X14000000Y-23348055D01*
X14126868Y-23327961D01*
X14182395Y-23299668D01*
X14235080Y-23272825D01*
X14235083Y-23272823D01*
X14241318Y-23269646D01*
X14332146Y-23178818D01*
X14335323Y-23172583D01*
X14335325Y-23172580D01*
X14368724Y-23107029D01*
X14390461Y-23064368D01*
X14402702Y-22987082D01*
X15090082Y-22987082D01*
X15110176Y-23113950D01*
X15132339Y-23157447D01*
X15165312Y-23222162D01*
X15165314Y-23222165D01*
X15168491Y-23228400D01*
X15259319Y-23319228D01*
X15265554Y-23322405D01*
X15265557Y-23322407D01*
X15313744Y-23346959D01*
X15373769Y-23377543D01*
X15500637Y-23397637D01*
X15627505Y-23377543D01*
X15687530Y-23346959D01*
X15735717Y-23322407D01*
X15735720Y-23322405D01*
X15741955Y-23319228D01*
X15832783Y-23228400D01*
X15835960Y-23222165D01*
X15835962Y-23222162D01*
X15868935Y-23157447D01*
X15891098Y-23113950D01*
X15903207Y-23037500D01*
X22589445Y-23037500D01*
X22609539Y-23164368D01*
X22616902Y-23178818D01*
X22664675Y-23272580D01*
X22664677Y-23272583D01*
X22667854Y-23278818D01*
X22758682Y-23369646D01*
X22764917Y-23372823D01*
X22764920Y-23372825D01*
X22813618Y-23397637D01*
X22873132Y-23427961D01*
X23000000Y-23448055D01*
X23126868Y-23427961D01*
X23186382Y-23397637D01*
X23235080Y-23372825D01*
X23235083Y-23372823D01*
X23241318Y-23369646D01*
X23332146Y-23278818D01*
X23335323Y-23272583D01*
X23335325Y-23272580D01*
X23383098Y-23178818D01*
X23390461Y-23164368D01*
X23410555Y-23037500D01*
X23390461Y-22910632D01*
X23339509Y-22810632D01*
X23335325Y-22802420D01*
X23335323Y-22802417D01*
X23332146Y-22796182D01*
X23241318Y-22705354D01*
X23235083Y-22702177D01*
X23235080Y-22702175D01*
X23182396Y-22675332D01*
X23126868Y-22647039D01*
X23000000Y-22626945D01*
X22873132Y-22647039D01*
X22817604Y-22675332D01*
X22764920Y-22702175D01*
X22764917Y-22702177D01*
X22758682Y-22705354D01*
X22667854Y-22796182D01*
X22664677Y-22802417D01*
X22664675Y-22802420D01*
X22660491Y-22810632D01*
X22609539Y-22910632D01*
X22589445Y-23037500D01*
X15903207Y-23037500D01*
X15911192Y-22987082D01*
X15891098Y-22860214D01*
X15855950Y-22791232D01*
X15835962Y-22752002D01*
X15835960Y-22751999D01*
X15832783Y-22745764D01*
X15741955Y-22654936D01*
X15735720Y-22651759D01*
X15735717Y-22651757D01*
X15654359Y-22610304D01*
X15627505Y-22596621D01*
X15500637Y-22576527D01*
X15373769Y-22596621D01*
X15346915Y-22610304D01*
X15265557Y-22651757D01*
X15265554Y-22651759D01*
X15259319Y-22654936D01*
X15168491Y-22745764D01*
X15165314Y-22751999D01*
X15165312Y-22752002D01*
X15145324Y-22791232D01*
X15110176Y-22860214D01*
X15090082Y-22987082D01*
X14402702Y-22987082D01*
X14410555Y-22937500D01*
X14390461Y-22810632D01*
X14354887Y-22740814D01*
X14335325Y-22702420D01*
X14335323Y-22702417D01*
X14332146Y-22696182D01*
X14241318Y-22605354D01*
X14235083Y-22602177D01*
X14235080Y-22602175D01*
X14182396Y-22575332D01*
X14126868Y-22547039D01*
X14000000Y-22526945D01*
X13873132Y-22547039D01*
X13817604Y-22575332D01*
X13764920Y-22602175D01*
X13764917Y-22602177D01*
X13758682Y-22605354D01*
X13667854Y-22696182D01*
X13664677Y-22702417D01*
X13664675Y-22702420D01*
X13645113Y-22740814D01*
X13609539Y-22810632D01*
X13589445Y-22937500D01*
X-2319500Y-22937500D01*
X-2319500Y-21500000D01*
X7809445Y-21500000D01*
X7829539Y-21626868D01*
X7845120Y-21657447D01*
X7884675Y-21735080D01*
X7884677Y-21735083D01*
X7887854Y-21741318D01*
X7978682Y-21832146D01*
X7984917Y-21835323D01*
X7984920Y-21835325D01*
X8035935Y-21861318D01*
X8093132Y-21890461D01*
X8220000Y-21910555D01*
X8346868Y-21890461D01*
X8404065Y-21861318D01*
X8455080Y-21835325D01*
X8455083Y-21835323D01*
X8461318Y-21832146D01*
X8552146Y-21741318D01*
X8555323Y-21735083D01*
X8555325Y-21735080D01*
X8594880Y-21657447D01*
X8610461Y-21626868D01*
X8611549Y-21620000D01*
X12089445Y-21620000D01*
X12109539Y-21746868D01*
X12137832Y-21802396D01*
X12164675Y-21855080D01*
X12164677Y-21855083D01*
X12167854Y-21861318D01*
X12258682Y-21952146D01*
X12264917Y-21955323D01*
X12264920Y-21955325D01*
X12317605Y-21982168D01*
X12373132Y-22010461D01*
X12500000Y-22030555D01*
X12626868Y-22010461D01*
X12682395Y-21982168D01*
X12735080Y-21955325D01*
X12735083Y-21955323D01*
X12741318Y-21952146D01*
X12832146Y-21861318D01*
X12835323Y-21855083D01*
X12835325Y-21855080D01*
X12862168Y-21802395D01*
X12890461Y-21746868D01*
X12910555Y-21620000D01*
X12891549Y-21500000D01*
X16589445Y-21500000D01*
X16609539Y-21626868D01*
X16625120Y-21657447D01*
X16664675Y-21735080D01*
X16664677Y-21735083D01*
X16667854Y-21741318D01*
X16758682Y-21832146D01*
X16764917Y-21835323D01*
X16764920Y-21835325D01*
X16815935Y-21861318D01*
X16873132Y-21890461D01*
X17000000Y-21910555D01*
X17126868Y-21890461D01*
X17184065Y-21861318D01*
X17235080Y-21835325D01*
X17235083Y-21835323D01*
X17241318Y-21832146D01*
X17332146Y-21741318D01*
X17335323Y-21735083D01*
X17335325Y-21735080D01*
X17374880Y-21657447D01*
X17390461Y-21626868D01*
X17404616Y-21537500D01*
X18089445Y-21537500D01*
X18109539Y-21664368D01*
X18137832Y-21719896D01*
X18164675Y-21772580D01*
X18164677Y-21772583D01*
X18167854Y-21778818D01*
X18258682Y-21869646D01*
X18264917Y-21872823D01*
X18264920Y-21872825D01*
X18301685Y-21891557D01*
X18373132Y-21927961D01*
X18500000Y-21948055D01*
X18626868Y-21927961D01*
X18698315Y-21891557D01*
X18735080Y-21872825D01*
X18735083Y-21872823D01*
X18741318Y-21869646D01*
X18832146Y-21778818D01*
X18835323Y-21772583D01*
X18835325Y-21772580D01*
X18862168Y-21719896D01*
X18890461Y-21664368D01*
X18910555Y-21537500D01*
X18904616Y-21500000D01*
X19589445Y-21500000D01*
X19609539Y-21626868D01*
X19625120Y-21657447D01*
X19664675Y-21735080D01*
X19664677Y-21735083D01*
X19667854Y-21741318D01*
X19758682Y-21832146D01*
X19764917Y-21835323D01*
X19764920Y-21835325D01*
X19815935Y-21861318D01*
X19873132Y-21890461D01*
X20000000Y-21910555D01*
X20126868Y-21890461D01*
X20184065Y-21861318D01*
X20235080Y-21835325D01*
X20235083Y-21835323D01*
X20241318Y-21832146D01*
X20332146Y-21741318D01*
X20335323Y-21735083D01*
X20335325Y-21735080D01*
X20374880Y-21657447D01*
X20390461Y-21626868D01*
X20410555Y-21500000D01*
X20390461Y-21373132D01*
X20345390Y-21284675D01*
X20335325Y-21264920D01*
X20335323Y-21264917D01*
X20332146Y-21258682D01*
X20300964Y-21227500D01*
X20989445Y-21227500D01*
X21009539Y-21354368D01*
X21021928Y-21378682D01*
X21064675Y-21462580D01*
X21064677Y-21462583D01*
X21067854Y-21468818D01*
X21158682Y-21559646D01*
X21164917Y-21562823D01*
X21164920Y-21562825D01*
X21217604Y-21589668D01*
X21273132Y-21617961D01*
X21400000Y-21638055D01*
X21526868Y-21617961D01*
X21582396Y-21589668D01*
X21635080Y-21562825D01*
X21635083Y-21562823D01*
X21641318Y-21559646D01*
X21700964Y-21500000D01*
X24089445Y-21500000D01*
X24109539Y-21626868D01*
X24125120Y-21657447D01*
X24164675Y-21735080D01*
X24164677Y-21735083D01*
X24167854Y-21741318D01*
X24258682Y-21832146D01*
X24264917Y-21835323D01*
X24264920Y-21835325D01*
X24315935Y-21861318D01*
X24373132Y-21890461D01*
X24500000Y-21910555D01*
X24626868Y-21890461D01*
X24684065Y-21861318D01*
X24735080Y-21835325D01*
X24735083Y-21835323D01*
X24741318Y-21832146D01*
X24832146Y-21741318D01*
X24835323Y-21735083D01*
X24835325Y-21735080D01*
X24874880Y-21657447D01*
X24890461Y-21626868D01*
X24910555Y-21500000D01*
X25589445Y-21500000D01*
X25609539Y-21626868D01*
X25625120Y-21657447D01*
X25664675Y-21735080D01*
X25664677Y-21735083D01*
X25667854Y-21741318D01*
X25758682Y-21832146D01*
X25764917Y-21835323D01*
X25764920Y-21835325D01*
X25815935Y-21861318D01*
X25873132Y-21890461D01*
X26000000Y-21910555D01*
X26126868Y-21890461D01*
X26184065Y-21861318D01*
X26235080Y-21835325D01*
X26235083Y-21835323D01*
X26241318Y-21832146D01*
X26332146Y-21741318D01*
X26335323Y-21735083D01*
X26335325Y-21735080D01*
X26374880Y-21657447D01*
X26390461Y-21626868D01*
X26410555Y-21500000D01*
X26390461Y-21373132D01*
X26345390Y-21284675D01*
X26335325Y-21264920D01*
X26335323Y-21264917D01*
X26332146Y-21258682D01*
X26241318Y-21167854D01*
X26235083Y-21164677D01*
X26235080Y-21164675D01*
X26161029Y-21126945D01*
X26126868Y-21109539D01*
X26000000Y-21089445D01*
X25873132Y-21109539D01*
X25838971Y-21126945D01*
X25764920Y-21164675D01*
X25764917Y-21164677D01*
X25758682Y-21167854D01*
X25667854Y-21258682D01*
X25664677Y-21264917D01*
X25664675Y-21264920D01*
X25654610Y-21284675D01*
X25609539Y-21373132D01*
X25589445Y-21500000D01*
X24910555Y-21500000D01*
X24890461Y-21373132D01*
X24845390Y-21284675D01*
X24835325Y-21264920D01*
X24835323Y-21264917D01*
X24832146Y-21258682D01*
X24741318Y-21167854D01*
X24735083Y-21164677D01*
X24735080Y-21164675D01*
X24661029Y-21126945D01*
X24626868Y-21109539D01*
X24500000Y-21089445D01*
X24373132Y-21109539D01*
X24338971Y-21126945D01*
X24264920Y-21164675D01*
X24264917Y-21164677D01*
X24258682Y-21167854D01*
X24167854Y-21258682D01*
X24164677Y-21264917D01*
X24164675Y-21264920D01*
X24154610Y-21284675D01*
X24109539Y-21373132D01*
X24089445Y-21500000D01*
X21700964Y-21500000D01*
X21732146Y-21468818D01*
X21735323Y-21462583D01*
X21735325Y-21462580D01*
X21778072Y-21378682D01*
X21790461Y-21354368D01*
X21810555Y-21227500D01*
X21790461Y-21100632D01*
X21762168Y-21045104D01*
X21735325Y-20992420D01*
X21735323Y-20992417D01*
X21732146Y-20986182D01*
X21641318Y-20895354D01*
X21635083Y-20892177D01*
X21635080Y-20892175D01*
X21582396Y-20865332D01*
X21526868Y-20837039D01*
X21400000Y-20816945D01*
X21273132Y-20837039D01*
X21217604Y-20865332D01*
X21164920Y-20892175D01*
X21164917Y-20892177D01*
X21158682Y-20895354D01*
X21067854Y-20986182D01*
X21064677Y-20992417D01*
X21064675Y-20992420D01*
X21037832Y-21045104D01*
X21009539Y-21100632D01*
X20989445Y-21227500D01*
X20300964Y-21227500D01*
X20241318Y-21167854D01*
X20235083Y-21164677D01*
X20235080Y-21164675D01*
X20161029Y-21126945D01*
X20126868Y-21109539D01*
X20000000Y-21089445D01*
X19873132Y-21109539D01*
X19838971Y-21126945D01*
X19764920Y-21164675D01*
X19764917Y-21164677D01*
X19758682Y-21167854D01*
X19667854Y-21258682D01*
X19664677Y-21264917D01*
X19664675Y-21264920D01*
X19654610Y-21284675D01*
X19609539Y-21373132D01*
X19589445Y-21500000D01*
X18904616Y-21500000D01*
X18890461Y-21410632D01*
X18858267Y-21347447D01*
X18835325Y-21302420D01*
X18835323Y-21302417D01*
X18832146Y-21296182D01*
X18741318Y-21205354D01*
X18735083Y-21202177D01*
X18735080Y-21202175D01*
X18667720Y-21167854D01*
X18626868Y-21147039D01*
X18500000Y-21126945D01*
X18373132Y-21147039D01*
X18332280Y-21167854D01*
X18264920Y-21202175D01*
X18264917Y-21202177D01*
X18258682Y-21205354D01*
X18167854Y-21296182D01*
X18164677Y-21302417D01*
X18164675Y-21302420D01*
X18141733Y-21347447D01*
X18109539Y-21410632D01*
X18089445Y-21537500D01*
X17404616Y-21537500D01*
X17410555Y-21500000D01*
X17390461Y-21373132D01*
X17345390Y-21284675D01*
X17335325Y-21264920D01*
X17335323Y-21264917D01*
X17332146Y-21258682D01*
X17241318Y-21167854D01*
X17235083Y-21164677D01*
X17235080Y-21164675D01*
X17161029Y-21126945D01*
X17126868Y-21109539D01*
X17000000Y-21089445D01*
X16873132Y-21109539D01*
X16838971Y-21126945D01*
X16764920Y-21164675D01*
X16764917Y-21164677D01*
X16758682Y-21167854D01*
X16667854Y-21258682D01*
X16664677Y-21264917D01*
X16664675Y-21264920D01*
X16654610Y-21284675D01*
X16609539Y-21373132D01*
X16589445Y-21500000D01*
X12891549Y-21500000D01*
X12890461Y-21493132D01*
X12851952Y-21417553D01*
X12835325Y-21384920D01*
X12835323Y-21384917D01*
X12832146Y-21378682D01*
X12741318Y-21287854D01*
X12735083Y-21284677D01*
X12735080Y-21284675D01*
X12682395Y-21257832D01*
X12626868Y-21229539D01*
X12500000Y-21209445D01*
X12373132Y-21229539D01*
X12317605Y-21257832D01*
X12264920Y-21284675D01*
X12264917Y-21284677D01*
X12258682Y-21287854D01*
X12167854Y-21378682D01*
X12164677Y-21384917D01*
X12164675Y-21384920D01*
X12148048Y-21417553D01*
X12109539Y-21493132D01*
X12089445Y-21620000D01*
X8611549Y-21620000D01*
X8630555Y-21500000D01*
X8610461Y-21373132D01*
X8565390Y-21284675D01*
X8555325Y-21264920D01*
X8555323Y-21264917D01*
X8552146Y-21258682D01*
X8461318Y-21167854D01*
X8455083Y-21164677D01*
X8455080Y-21164675D01*
X8381029Y-21126945D01*
X8346868Y-21109539D01*
X8220000Y-21089445D01*
X8093132Y-21109539D01*
X8058971Y-21126945D01*
X7984920Y-21164675D01*
X7984917Y-21164677D01*
X7978682Y-21167854D01*
X7887854Y-21258682D01*
X7884677Y-21264917D01*
X7884675Y-21264920D01*
X7874610Y-21284675D01*
X7829539Y-21373132D01*
X7809445Y-21500000D01*
X-2319500Y-21500000D01*
X-2319500Y-20000000D01*
X7909445Y-20000000D01*
X7929539Y-20126868D01*
X7952830Y-20172580D01*
X7984675Y-20235080D01*
X7984677Y-20235083D01*
X7987854Y-20241318D01*
X8078682Y-20332146D01*
X8084917Y-20335323D01*
X8084920Y-20335325D01*
X8107754Y-20346959D01*
X8193132Y-20390461D01*
X8320000Y-20410555D01*
X8446868Y-20390461D01*
X8532246Y-20346959D01*
X8555080Y-20335325D01*
X8555083Y-20335323D01*
X8561318Y-20332146D01*
X8652146Y-20241318D01*
X8655323Y-20235083D01*
X8655325Y-20235080D01*
X8687170Y-20172580D01*
X8710461Y-20126868D01*
X8730555Y-20000000D01*
X19589445Y-20000000D01*
X19609539Y-20126868D01*
X19632830Y-20172580D01*
X19664675Y-20235080D01*
X19664677Y-20235083D01*
X19667854Y-20241318D01*
X19758682Y-20332146D01*
X19764917Y-20335323D01*
X19764920Y-20335325D01*
X19787754Y-20346959D01*
X19873132Y-20390461D01*
X20000000Y-20410555D01*
X20126868Y-20390461D01*
X20212246Y-20346959D01*
X20235080Y-20335325D01*
X20235083Y-20335323D01*
X20241318Y-20332146D01*
X20332146Y-20241318D01*
X20335323Y-20235083D01*
X20335325Y-20235080D01*
X20367170Y-20172580D01*
X20390461Y-20126868D01*
X20410555Y-20000000D01*
X22589445Y-20000000D01*
X22609539Y-20126868D01*
X22632830Y-20172580D01*
X22664675Y-20235080D01*
X22664677Y-20235083D01*
X22667854Y-20241318D01*
X22758682Y-20332146D01*
X22764917Y-20335323D01*
X22764920Y-20335325D01*
X22787754Y-20346959D01*
X22873132Y-20390461D01*
X23000000Y-20410555D01*
X23126868Y-20390461D01*
X23212246Y-20346959D01*
X23235080Y-20335325D01*
X23235083Y-20335323D01*
X23241318Y-20332146D01*
X23332146Y-20241318D01*
X23335323Y-20235083D01*
X23335325Y-20235080D01*
X23367170Y-20172580D01*
X23390461Y-20126868D01*
X23410555Y-20000000D01*
X23400656Y-19937500D01*
X24089445Y-19937500D01*
X24109539Y-20064368D01*
X24137832Y-20119895D01*
X24164675Y-20172580D01*
X24164677Y-20172583D01*
X24167854Y-20178818D01*
X24258682Y-20269646D01*
X24264917Y-20272823D01*
X24264920Y-20272825D01*
X24317605Y-20299668D01*
X24373132Y-20327961D01*
X24500000Y-20348055D01*
X24626868Y-20327961D01*
X24682395Y-20299668D01*
X24735080Y-20272825D01*
X24735083Y-20272823D01*
X24741318Y-20269646D01*
X24832146Y-20178818D01*
X24835323Y-20172583D01*
X24835325Y-20172580D01*
X24862168Y-20119895D01*
X24890461Y-20064368D01*
X24910555Y-19937500D01*
X25589445Y-19937500D01*
X25609539Y-20064368D01*
X25637832Y-20119895D01*
X25664675Y-20172580D01*
X25664677Y-20172583D01*
X25667854Y-20178818D01*
X25758682Y-20269646D01*
X25764917Y-20272823D01*
X25764920Y-20272825D01*
X25817605Y-20299668D01*
X25873132Y-20327961D01*
X26000000Y-20348055D01*
X26126868Y-20327961D01*
X26182395Y-20299668D01*
X26235080Y-20272825D01*
X26235083Y-20272823D01*
X26241318Y-20269646D01*
X26332146Y-20178818D01*
X26335323Y-20172583D01*
X26335325Y-20172580D01*
X26362168Y-20119895D01*
X26390461Y-20064368D01*
X26410555Y-19937500D01*
X26390461Y-19810632D01*
X26361469Y-19753732D01*
X26335325Y-19702420D01*
X26335323Y-19702417D01*
X26332146Y-19696182D01*
X26241318Y-19605354D01*
X26235083Y-19602177D01*
X26235080Y-19602175D01*
X26182395Y-19575332D01*
X26126868Y-19547039D01*
X26000000Y-19526945D01*
X25873132Y-19547039D01*
X25817605Y-19575332D01*
X25764920Y-19602175D01*
X25764917Y-19602177D01*
X25758682Y-19605354D01*
X25667854Y-19696182D01*
X25664677Y-19702417D01*
X25664675Y-19702420D01*
X25638531Y-19753732D01*
X25609539Y-19810632D01*
X25589445Y-19937500D01*
X24910555Y-19937500D01*
X24890461Y-19810632D01*
X24861469Y-19753732D01*
X24835325Y-19702420D01*
X24835323Y-19702417D01*
X24832146Y-19696182D01*
X24741318Y-19605354D01*
X24735083Y-19602177D01*
X24735080Y-19602175D01*
X24682395Y-19575332D01*
X24626868Y-19547039D01*
X24500000Y-19526945D01*
X24373132Y-19547039D01*
X24317605Y-19575332D01*
X24264920Y-19602175D01*
X24264917Y-19602177D01*
X24258682Y-19605354D01*
X24167854Y-19696182D01*
X24164677Y-19702417D01*
X24164675Y-19702420D01*
X24138531Y-19753732D01*
X24109539Y-19810632D01*
X24089445Y-19937500D01*
X23400656Y-19937500D01*
X23390461Y-19873132D01*
X23355435Y-19804390D01*
X23335325Y-19764920D01*
X23335323Y-19764917D01*
X23332146Y-19758682D01*
X23241318Y-19667854D01*
X23235083Y-19664677D01*
X23235080Y-19664675D01*
X23182395Y-19637832D01*
X23126868Y-19609539D01*
X23000000Y-19589445D01*
X22873132Y-19609539D01*
X22817605Y-19637832D01*
X22764920Y-19664675D01*
X22764917Y-19664677D01*
X22758682Y-19667854D01*
X22667854Y-19758682D01*
X22664677Y-19764917D01*
X22664675Y-19764920D01*
X22644565Y-19804390D01*
X22609539Y-19873132D01*
X22589445Y-20000000D01*
X20410555Y-20000000D01*
X20390461Y-19873132D01*
X20355435Y-19804390D01*
X20335325Y-19764920D01*
X20335323Y-19764917D01*
X20332146Y-19758682D01*
X20241318Y-19667854D01*
X20235083Y-19664677D01*
X20235080Y-19664675D01*
X20182395Y-19637832D01*
X20126868Y-19609539D01*
X20000000Y-19589445D01*
X19873132Y-19609539D01*
X19817605Y-19637832D01*
X19764920Y-19664675D01*
X19764917Y-19664677D01*
X19758682Y-19667854D01*
X19667854Y-19758682D01*
X19664677Y-19764917D01*
X19664675Y-19764920D01*
X19644565Y-19804390D01*
X19609539Y-19873132D01*
X19589445Y-20000000D01*
X8730555Y-20000000D01*
X8710461Y-19873132D01*
X8675435Y-19804390D01*
X8655325Y-19764920D01*
X8655323Y-19764917D01*
X8652146Y-19758682D01*
X8561318Y-19667854D01*
X8555083Y-19664677D01*
X8555080Y-19664675D01*
X8502395Y-19637832D01*
X8446868Y-19609539D01*
X8320000Y-19589445D01*
X8193132Y-19609539D01*
X8137605Y-19637832D01*
X8084920Y-19664675D01*
X8084917Y-19664677D01*
X8078682Y-19667854D01*
X7987854Y-19758682D01*
X7984677Y-19764917D01*
X7984675Y-19764920D01*
X7964565Y-19804390D01*
X7929539Y-19873132D01*
X7909445Y-20000000D01*
X-2319500Y-20000000D01*
X-2319500Y-18499677D01*
X14814858Y-18499677D01*
X14815455Y-18502314D01*
X14832364Y-18652384D01*
X14834013Y-18657096D01*
X14834013Y-18657097D01*
X14844755Y-18687797D01*
X14883011Y-18797126D01*
X14964597Y-18926970D01*
X15073030Y-19035403D01*
X15202874Y-19116989D01*
X15347616Y-19167636D01*
X15450362Y-19179213D01*
X15453392Y-19179860D01*
X15453768Y-19180062D01*
X15457235Y-19180500D01*
X15460028Y-19180500D01*
X15461823Y-19180613D01*
X15466197Y-19180997D01*
X15494186Y-19184151D01*
X15494192Y-19184151D01*
X15495930Y-19184347D01*
X15499354Y-19185141D01*
X15500000Y-19185142D01*
X15510580Y-19182729D01*
X15530371Y-19180500D01*
X18469149Y-19180500D01*
X18489244Y-19182798D01*
X18494446Y-19184004D01*
X18494451Y-19184005D01*
X18499354Y-19185141D01*
X18500000Y-19185142D01*
X18502911Y-19184478D01*
X18652384Y-19167636D01*
X18797126Y-19116989D01*
X18926970Y-19035403D01*
X19035403Y-18926970D01*
X19116989Y-18797126D01*
X19155245Y-18687797D01*
X19165987Y-18657097D01*
X19165987Y-18657096D01*
X19167636Y-18652384D01*
X19179213Y-18549637D01*
X19179860Y-18546608D01*
X19180062Y-18546232D01*
X19180500Y-18542765D01*
X19180500Y-18539972D01*
X19180613Y-18538177D01*
X19180672Y-18537500D01*
X19589445Y-18537500D01*
X19609539Y-18664368D01*
X19621477Y-18687797D01*
X19664675Y-18772580D01*
X19664677Y-18772583D01*
X19667854Y-18778818D01*
X19758682Y-18869646D01*
X19764917Y-18872823D01*
X19764920Y-18872825D01*
X19817604Y-18899668D01*
X19873132Y-18927961D01*
X20000000Y-18948055D01*
X20126868Y-18927961D01*
X20182396Y-18899668D01*
X20235080Y-18872825D01*
X20235083Y-18872823D01*
X20241318Y-18869646D01*
X20332146Y-18778818D01*
X20335323Y-18772583D01*
X20335325Y-18772580D01*
X20378523Y-18687797D01*
X20390461Y-18664368D01*
X20410555Y-18537500D01*
X20390461Y-18410632D01*
X20362168Y-18355104D01*
X20335325Y-18302420D01*
X20335323Y-18302417D01*
X20332146Y-18296182D01*
X20241318Y-18205354D01*
X20235083Y-18202177D01*
X20235080Y-18202175D01*
X20182395Y-18175332D01*
X20126868Y-18147039D01*
X20000000Y-18126945D01*
X19873132Y-18147039D01*
X19817605Y-18175332D01*
X19764920Y-18202175D01*
X19764917Y-18202177D01*
X19758682Y-18205354D01*
X19667854Y-18296182D01*
X19664677Y-18302417D01*
X19664675Y-18302420D01*
X19637832Y-18355105D01*
X19609539Y-18410632D01*
X19589445Y-18537500D01*
X19180672Y-18537500D01*
X19180997Y-18533803D01*
X19184151Y-18505814D01*
X19184151Y-18505808D01*
X19184347Y-18504070D01*
X19185141Y-18500646D01*
X19185142Y-18500000D01*
X19182729Y-18489420D01*
X19180500Y-18469629D01*
X19180500Y-17037500D01*
X24089445Y-17037500D01*
X24109539Y-17164368D01*
X24116902Y-17178818D01*
X24164675Y-17272580D01*
X24164677Y-17272583D01*
X24167854Y-17278818D01*
X24258682Y-17369646D01*
X24264917Y-17372823D01*
X24264920Y-17372825D01*
X24317604Y-17399668D01*
X24373132Y-17427961D01*
X24500000Y-17448055D01*
X24626868Y-17427961D01*
X24682396Y-17399668D01*
X24735080Y-17372825D01*
X24735083Y-17372823D01*
X24741318Y-17369646D01*
X24832146Y-17278818D01*
X24835323Y-17272583D01*
X24835325Y-17272580D01*
X24883098Y-17178818D01*
X24890461Y-17164368D01*
X24910555Y-17037500D01*
X25589445Y-17037500D01*
X25609539Y-17164368D01*
X25616902Y-17178818D01*
X25664675Y-17272580D01*
X25664677Y-17272583D01*
X25667854Y-17278818D01*
X25758682Y-17369646D01*
X25764917Y-17372823D01*
X25764920Y-17372825D01*
X25817604Y-17399668D01*
X25873132Y-17427961D01*
X26000000Y-17448055D01*
X26126868Y-17427961D01*
X26182396Y-17399668D01*
X26235080Y-17372825D01*
X26235083Y-17372823D01*
X26241318Y-17369646D01*
X26332146Y-17278818D01*
X26335323Y-17272583D01*
X26335325Y-17272580D01*
X26383098Y-17178818D01*
X26390461Y-17164368D01*
X26410555Y-17037500D01*
X26390461Y-16910632D01*
X26339509Y-16810632D01*
X26335325Y-16802420D01*
X26335323Y-16802417D01*
X26332146Y-16796182D01*
X26241318Y-16705354D01*
X26235083Y-16702177D01*
X26235080Y-16702175D01*
X26182395Y-16675332D01*
X26126868Y-16647039D01*
X26000000Y-16626945D01*
X25873132Y-16647039D01*
X25817604Y-16675332D01*
X25764920Y-16702175D01*
X25764917Y-16702177D01*
X25758682Y-16705354D01*
X25667854Y-16796182D01*
X25664677Y-16802417D01*
X25664675Y-16802420D01*
X25660491Y-16810632D01*
X25609539Y-16910632D01*
X25589445Y-17037500D01*
X24910555Y-17037500D01*
X24890461Y-16910632D01*
X24839509Y-16810632D01*
X24835325Y-16802420D01*
X24835323Y-16802417D01*
X24832146Y-16796182D01*
X24741318Y-16705354D01*
X24735083Y-16702177D01*
X24735080Y-16702175D01*
X24682395Y-16675332D01*
X24626868Y-16647039D01*
X24500000Y-16626945D01*
X24373132Y-16647039D01*
X24317604Y-16675332D01*
X24264920Y-16702175D01*
X24264917Y-16702177D01*
X24258682Y-16705354D01*
X24167854Y-16796182D01*
X24164677Y-16802417D01*
X24164675Y-16802420D01*
X24160491Y-16810632D01*
X24109539Y-16910632D01*
X24089445Y-17037500D01*
X19180500Y-17037500D01*
X19180500Y-16505781D01*
X28898106Y-16505781D01*
X28918200Y-16632649D01*
X28927153Y-16650220D01*
X28973336Y-16740861D01*
X28973338Y-16740864D01*
X28976515Y-16747099D01*
X29067343Y-16837927D01*
X29073578Y-16841104D01*
X29073581Y-16841106D01*
X29126265Y-16867949D01*
X29181793Y-16896242D01*
X29308661Y-16916336D01*
X29435529Y-16896242D01*
X29491056Y-16867949D01*
X29543741Y-16841106D01*
X29543744Y-16841104D01*
X29549979Y-16837927D01*
X29640807Y-16747099D01*
X29643984Y-16740864D01*
X29643986Y-16740861D01*
X29690169Y-16650220D01*
X29699122Y-16632649D01*
X29715809Y-16527291D01*
X29745324Y-16474044D01*
X29789791Y-16453309D01*
X29895149Y-16436622D01*
X29950676Y-16408329D01*
X30003361Y-16381486D01*
X30003364Y-16381484D01*
X30009599Y-16378307D01*
X30100427Y-16287479D01*
X30103604Y-16281244D01*
X30103606Y-16281241D01*
X30143491Y-16202961D01*
X30158742Y-16173029D01*
X30178836Y-16046161D01*
X30158742Y-15919293D01*
X30112765Y-15829057D01*
X30104329Y-15812500D01*
X30522856Y-15812500D01*
X30542950Y-15939368D01*
X30571243Y-15994895D01*
X30598086Y-16047580D01*
X30598088Y-16047583D01*
X30601265Y-16053818D01*
X30692093Y-16144646D01*
X30698328Y-16147823D01*
X30698331Y-16147825D01*
X30742748Y-16170456D01*
X30806543Y-16202961D01*
X30933411Y-16223055D01*
X31060279Y-16202961D01*
X31124074Y-16170456D01*
X31168491Y-16147825D01*
X31168494Y-16147823D01*
X31174729Y-16144646D01*
X31265557Y-16053818D01*
X31268734Y-16047583D01*
X31268736Y-16047580D01*
X31295579Y-15994896D01*
X31323872Y-15939368D01*
X31343966Y-15812500D01*
X31323872Y-15685632D01*
X31295579Y-15630105D01*
X31268736Y-15577420D01*
X31268734Y-15577417D01*
X31265557Y-15571182D01*
X31244808Y-15550433D01*
X31219080Y-15495257D01*
X31234836Y-15436452D01*
X31244808Y-15424567D01*
X31265557Y-15403818D01*
X31268734Y-15397583D01*
X31268736Y-15397580D01*
X31313037Y-15310632D01*
X31323872Y-15289368D01*
X31343966Y-15162500D01*
X31323872Y-15035632D01*
X31286324Y-14961939D01*
X31268736Y-14927420D01*
X31268734Y-14927417D01*
X31265557Y-14921182D01*
X31174729Y-14830354D01*
X31168494Y-14827177D01*
X31168491Y-14827175D01*
X31115806Y-14800332D01*
X31060279Y-14772039D01*
X30933411Y-14751945D01*
X30806543Y-14772039D01*
X30751016Y-14800332D01*
X30698331Y-14827175D01*
X30698328Y-14827177D01*
X30692093Y-14830354D01*
X30601265Y-14921182D01*
X30598088Y-14927417D01*
X30598086Y-14927420D01*
X30580498Y-14961939D01*
X30542950Y-15035632D01*
X30522856Y-15162500D01*
X30542950Y-15289368D01*
X30553785Y-15310632D01*
X30598086Y-15397580D01*
X30598088Y-15397583D01*
X30601265Y-15403818D01*
X30622014Y-15424567D01*
X30647742Y-15479743D01*
X30631986Y-15538548D01*
X30622014Y-15550433D01*
X30601265Y-15571182D01*
X30598088Y-15577417D01*
X30598086Y-15577420D01*
X30571243Y-15630105D01*
X30542950Y-15685632D01*
X30522856Y-15812500D01*
X30104329Y-15812500D01*
X30103606Y-15811081D01*
X30103604Y-15811078D01*
X30100427Y-15804843D01*
X30009599Y-15714015D01*
X30003364Y-15710838D01*
X30003361Y-15710836D01*
X29940521Y-15678818D01*
X29895149Y-15655700D01*
X29768281Y-15635606D01*
X29641413Y-15655700D01*
X29596041Y-15678818D01*
X29533201Y-15710836D01*
X29533198Y-15710838D01*
X29526963Y-15714015D01*
X29436135Y-15804843D01*
X29432958Y-15811078D01*
X29432956Y-15811081D01*
X29423797Y-15829057D01*
X29377820Y-15919293D01*
X29373652Y-15945610D01*
X29361133Y-16024651D01*
X29331618Y-16077898D01*
X29287151Y-16098633D01*
X29181793Y-16115320D01*
X29133952Y-16139696D01*
X29073581Y-16170456D01*
X29073578Y-16170458D01*
X29067343Y-16173635D01*
X28976515Y-16264463D01*
X28973338Y-16270698D01*
X28973336Y-16270701D01*
X28946493Y-16323385D01*
X28918200Y-16378913D01*
X28898106Y-16505781D01*
X19180500Y-16505781D01*
X19180500Y-15530851D01*
X19182798Y-15510756D01*
X19184004Y-15505554D01*
X19184005Y-15505549D01*
X19185141Y-15500646D01*
X19185142Y-15500000D01*
X19184478Y-15497089D01*
X19167636Y-15347616D01*
X19149439Y-15295610D01*
X19118637Y-15207584D01*
X19116989Y-15202874D01*
X19035403Y-15073030D01*
X18926970Y-14964597D01*
X18797126Y-14883011D01*
X18652384Y-14832364D01*
X18549637Y-14820787D01*
X18546608Y-14820140D01*
X18546232Y-14819938D01*
X18542765Y-14819500D01*
X18539972Y-14819500D01*
X18538177Y-14819387D01*
X18533803Y-14819003D01*
X18505814Y-14815849D01*
X18505808Y-14815849D01*
X18504070Y-14815653D01*
X18500646Y-14814859D01*
X18500000Y-14814858D01*
X18489420Y-14817271D01*
X18469629Y-14819500D01*
X15530851Y-14819500D01*
X15510756Y-14817202D01*
X15505554Y-14815996D01*
X15505549Y-14815995D01*
X15500646Y-14814859D01*
X15500000Y-14814858D01*
X15497089Y-14815522D01*
X15347616Y-14832364D01*
X15202874Y-14883011D01*
X15073030Y-14964597D01*
X14964597Y-15073030D01*
X14883011Y-15202874D01*
X14881363Y-15207584D01*
X14850562Y-15295610D01*
X14832364Y-15347616D01*
X14822236Y-15437500D01*
X14820787Y-15450364D01*
X14820140Y-15453392D01*
X14819938Y-15453768D01*
X14819500Y-15457235D01*
X14819500Y-15460030D01*
X14819388Y-15461810D01*
X14819006Y-15466171D01*
X14815588Y-15496502D01*
X14814858Y-15499677D01*
X14817070Y-15509452D01*
X14817070Y-15509454D01*
X14817305Y-15510492D01*
X14819500Y-15530134D01*
X14819500Y-18469391D01*
X14817236Y-18489334D01*
X14814858Y-18499677D01*
X-2319500Y-18499677D01*
X-2319500Y-16937500D01*
X7589445Y-16937500D01*
X7609539Y-17064368D01*
X7637832Y-17119895D01*
X7664675Y-17172580D01*
X7664677Y-17172583D01*
X7667854Y-17178818D01*
X7758682Y-17269646D01*
X7764917Y-17272823D01*
X7764920Y-17272825D01*
X7817605Y-17299668D01*
X7873132Y-17327961D01*
X8000000Y-17348055D01*
X8126868Y-17327961D01*
X8182395Y-17299668D01*
X8235080Y-17272825D01*
X8235083Y-17272823D01*
X8241318Y-17269646D01*
X8332146Y-17178818D01*
X8335323Y-17172583D01*
X8335325Y-17172580D01*
X8362168Y-17119895D01*
X8390461Y-17064368D01*
X8394716Y-17037500D01*
X9089445Y-17037500D01*
X9109539Y-17164368D01*
X9116902Y-17178818D01*
X9164675Y-17272580D01*
X9164677Y-17272583D01*
X9167854Y-17278818D01*
X9258682Y-17369646D01*
X9264917Y-17372823D01*
X9264920Y-17372825D01*
X9317604Y-17399668D01*
X9373132Y-17427961D01*
X9500000Y-17448055D01*
X9626868Y-17427961D01*
X9682396Y-17399668D01*
X9735080Y-17372825D01*
X9735083Y-17372823D01*
X9741318Y-17369646D01*
X9832146Y-17278818D01*
X9835323Y-17272583D01*
X9835325Y-17272580D01*
X9883098Y-17178818D01*
X9890461Y-17164368D01*
X9910555Y-17037500D01*
X9890461Y-16910632D01*
X9839509Y-16810632D01*
X9835325Y-16802420D01*
X9835323Y-16802417D01*
X9832146Y-16796182D01*
X9741318Y-16705354D01*
X9735083Y-16702177D01*
X9735080Y-16702175D01*
X9682395Y-16675332D01*
X9626868Y-16647039D01*
X9500000Y-16626945D01*
X9373132Y-16647039D01*
X9317604Y-16675332D01*
X9264920Y-16702175D01*
X9264917Y-16702177D01*
X9258682Y-16705354D01*
X9167854Y-16796182D01*
X9164677Y-16802417D01*
X9164675Y-16802420D01*
X9160491Y-16810632D01*
X9109539Y-16910632D01*
X9089445Y-17037500D01*
X8394716Y-17037500D01*
X8410555Y-16937500D01*
X8390461Y-16810632D01*
X8360612Y-16752049D01*
X8335325Y-16702420D01*
X8335323Y-16702417D01*
X8332146Y-16696182D01*
X8241318Y-16605354D01*
X8235083Y-16602177D01*
X8235080Y-16602175D01*
X8182396Y-16575332D01*
X8126868Y-16547039D01*
X8000000Y-16526945D01*
X7873132Y-16547039D01*
X7817604Y-16575332D01*
X7764920Y-16602175D01*
X7764917Y-16602177D01*
X7758682Y-16605354D01*
X7667854Y-16696182D01*
X7664677Y-16702417D01*
X7664675Y-16702420D01*
X7639388Y-16752049D01*
X7609539Y-16810632D01*
X7589445Y-16937500D01*
X-2319500Y-16937500D01*
X-2319500Y-15437500D01*
X10589445Y-15437500D01*
X10609539Y-15564368D01*
X10637832Y-15619896D01*
X10664675Y-15672580D01*
X10664677Y-15672583D01*
X10667854Y-15678818D01*
X10758682Y-15769646D01*
X10764917Y-15772823D01*
X10764920Y-15772825D01*
X10817605Y-15799668D01*
X10873132Y-15827961D01*
X11000000Y-15848055D01*
X11126868Y-15827961D01*
X11182396Y-15799668D01*
X11235080Y-15772825D01*
X11235083Y-15772823D01*
X11241318Y-15769646D01*
X11332146Y-15678818D01*
X11335323Y-15672583D01*
X11335325Y-15672580D01*
X11362168Y-15619896D01*
X11390461Y-15564368D01*
X11410555Y-15437500D01*
X11390461Y-15310632D01*
X11335556Y-15202874D01*
X11335325Y-15202420D01*
X11335323Y-15202417D01*
X11332146Y-15196182D01*
X11241318Y-15105354D01*
X11235083Y-15102177D01*
X11235080Y-15102175D01*
X11170944Y-15069497D01*
X11126868Y-15047039D01*
X11000000Y-15026945D01*
X10873132Y-15047039D01*
X10829056Y-15069497D01*
X10764920Y-15102175D01*
X10764917Y-15102177D01*
X10758682Y-15105354D01*
X10667854Y-15196182D01*
X10664677Y-15202417D01*
X10664675Y-15202420D01*
X10664444Y-15202874D01*
X10609539Y-15310632D01*
X10589445Y-15437500D01*
X-2319500Y-15437500D01*
X-2319500Y-14037500D01*
X7589445Y-14037500D01*
X7609539Y-14164368D01*
X7637832Y-14219895D01*
X7664675Y-14272580D01*
X7664677Y-14272583D01*
X7667854Y-14278818D01*
X7758682Y-14369646D01*
X7764917Y-14372823D01*
X7764920Y-14372825D01*
X7801685Y-14391557D01*
X7873132Y-14427961D01*
X8000000Y-14448055D01*
X8126868Y-14427961D01*
X8198315Y-14391557D01*
X8235080Y-14372825D01*
X8235083Y-14372823D01*
X8241318Y-14369646D01*
X8332146Y-14278818D01*
X8335323Y-14272583D01*
X8335325Y-14272580D01*
X8362168Y-14219895D01*
X8390461Y-14164368D01*
X8410555Y-14037500D01*
X8404616Y-14000000D01*
X10589445Y-14000000D01*
X10609539Y-14126868D01*
X10625120Y-14157447D01*
X10664675Y-14235080D01*
X10664677Y-14235083D01*
X10667854Y-14241318D01*
X10758682Y-14332146D01*
X10764917Y-14335323D01*
X10764920Y-14335325D01*
X10817605Y-14362168D01*
X10873132Y-14390461D01*
X11000000Y-14410555D01*
X11126868Y-14390461D01*
X11182396Y-14362168D01*
X11235080Y-14335325D01*
X11235083Y-14335323D01*
X11241318Y-14332146D01*
X11332146Y-14241318D01*
X11335323Y-14235083D01*
X11335325Y-14235080D01*
X11374880Y-14157447D01*
X11390461Y-14126868D01*
X11410555Y-14000000D01*
X18089445Y-14000000D01*
X18109539Y-14126868D01*
X18125120Y-14157447D01*
X18164675Y-14235080D01*
X18164677Y-14235083D01*
X18167854Y-14241318D01*
X18258682Y-14332146D01*
X18264917Y-14335323D01*
X18264920Y-14335325D01*
X18317605Y-14362168D01*
X18373132Y-14390461D01*
X18500000Y-14410555D01*
X18626868Y-14390461D01*
X18682396Y-14362168D01*
X18735080Y-14335325D01*
X18735083Y-14335323D01*
X18741318Y-14332146D01*
X18832146Y-14241318D01*
X18835323Y-14235083D01*
X18835325Y-14235080D01*
X18874880Y-14157447D01*
X18890461Y-14126868D01*
X18910555Y-14000000D01*
X19589445Y-14000000D01*
X19609539Y-14126868D01*
X19625120Y-14157447D01*
X19664675Y-14235080D01*
X19664677Y-14235083D01*
X19667854Y-14241318D01*
X19758682Y-14332146D01*
X19764917Y-14335323D01*
X19764920Y-14335325D01*
X19817605Y-14362168D01*
X19873132Y-14390461D01*
X20000000Y-14410555D01*
X20126868Y-14390461D01*
X20182396Y-14362168D01*
X20235080Y-14335325D01*
X20235083Y-14335323D01*
X20241318Y-14332146D01*
X20332146Y-14241318D01*
X20335323Y-14235083D01*
X20335325Y-14235080D01*
X20374880Y-14157447D01*
X20390461Y-14126868D01*
X20410555Y-14000000D01*
X20390461Y-13873132D01*
X20348731Y-13791232D01*
X20335325Y-13764920D01*
X20335323Y-13764917D01*
X20332146Y-13758682D01*
X20241318Y-13667854D01*
X20235083Y-13664677D01*
X20235080Y-13664675D01*
X20161029Y-13626945D01*
X20126868Y-13609539D01*
X20000000Y-13589445D01*
X19873132Y-13609539D01*
X19838971Y-13626945D01*
X19764920Y-13664675D01*
X19764917Y-13664677D01*
X19758682Y-13667854D01*
X19667854Y-13758682D01*
X19664677Y-13764917D01*
X19664675Y-13764920D01*
X19651269Y-13791232D01*
X19609539Y-13873132D01*
X19589445Y-14000000D01*
X18910555Y-14000000D01*
X18890461Y-13873132D01*
X18848731Y-13791232D01*
X18835325Y-13764920D01*
X18835323Y-13764917D01*
X18832146Y-13758682D01*
X18741318Y-13667854D01*
X18735083Y-13664677D01*
X18735080Y-13664675D01*
X18661029Y-13626945D01*
X18626868Y-13609539D01*
X18500000Y-13589445D01*
X18373132Y-13609539D01*
X18338971Y-13626945D01*
X18264920Y-13664675D01*
X18264917Y-13664677D01*
X18258682Y-13667854D01*
X18167854Y-13758682D01*
X18164677Y-13764917D01*
X18164675Y-13764920D01*
X18151269Y-13791232D01*
X18109539Y-13873132D01*
X18089445Y-14000000D01*
X11410555Y-14000000D01*
X11390461Y-13873132D01*
X11348731Y-13791232D01*
X11335325Y-13764920D01*
X11335323Y-13764917D01*
X11332146Y-13758682D01*
X11241318Y-13667854D01*
X11235083Y-13664677D01*
X11235080Y-13664675D01*
X11161029Y-13626945D01*
X11126868Y-13609539D01*
X11000000Y-13589445D01*
X10873132Y-13609539D01*
X10838971Y-13626945D01*
X10764920Y-13664675D01*
X10764917Y-13664677D01*
X10758682Y-13667854D01*
X10667854Y-13758682D01*
X10664677Y-13764917D01*
X10664675Y-13764920D01*
X10651269Y-13791232D01*
X10609539Y-13873132D01*
X10589445Y-14000000D01*
X8404616Y-14000000D01*
X8390461Y-13910632D01*
X8362168Y-13855105D01*
X8335325Y-13802420D01*
X8335323Y-13802417D01*
X8332146Y-13796182D01*
X8241318Y-13705354D01*
X8235083Y-13702177D01*
X8235080Y-13702175D01*
X8167720Y-13667854D01*
X8126868Y-13647039D01*
X8000000Y-13626945D01*
X7873132Y-13647039D01*
X7832280Y-13667854D01*
X7764920Y-13702175D01*
X7764917Y-13702177D01*
X7758682Y-13705354D01*
X7667854Y-13796182D01*
X7664677Y-13802417D01*
X7664675Y-13802420D01*
X7637832Y-13855104D01*
X7609539Y-13910632D01*
X7589445Y-14037500D01*
X-2319500Y-14037500D01*
X-2319500Y-12500000D01*
X7594445Y-12500000D01*
X7614539Y-12626868D01*
X7642832Y-12682395D01*
X7669675Y-12735080D01*
X7669677Y-12735083D01*
X7672854Y-12741318D01*
X7763682Y-12832146D01*
X7769917Y-12835323D01*
X7769920Y-12835325D01*
X7822604Y-12862168D01*
X7878132Y-12890461D01*
X8005000Y-12910555D01*
X8131868Y-12890461D01*
X8187396Y-12862168D01*
X8240080Y-12835325D01*
X8240083Y-12835323D01*
X8246318Y-12832146D01*
X8337146Y-12741318D01*
X8340323Y-12735083D01*
X8340325Y-12735080D01*
X8367168Y-12682395D01*
X8395461Y-12626868D01*
X8415555Y-12500000D01*
X10589445Y-12500000D01*
X10609539Y-12626868D01*
X10637832Y-12682395D01*
X10664675Y-12735080D01*
X10664677Y-12735083D01*
X10667854Y-12741318D01*
X10758682Y-12832146D01*
X10764917Y-12835323D01*
X10764920Y-12835325D01*
X10817604Y-12862168D01*
X10873132Y-12890461D01*
X11000000Y-12910555D01*
X11126868Y-12890461D01*
X11182396Y-12862168D01*
X11235080Y-12835325D01*
X11235083Y-12835323D01*
X11241318Y-12832146D01*
X11332146Y-12741318D01*
X11335323Y-12735083D01*
X11335325Y-12735080D01*
X11362168Y-12682395D01*
X11390461Y-12626868D01*
X11410555Y-12500000D01*
X11390461Y-12373132D01*
X11362168Y-12317604D01*
X11335325Y-12264920D01*
X11335323Y-12264917D01*
X11332146Y-12258682D01*
X11241318Y-12167854D01*
X11235083Y-12164677D01*
X11235080Y-12164675D01*
X11182396Y-12137832D01*
X11126868Y-12109539D01*
X11000000Y-12089445D01*
X10873132Y-12109539D01*
X10817605Y-12137832D01*
X10764920Y-12164675D01*
X10764917Y-12164677D01*
X10758682Y-12167854D01*
X10667854Y-12258682D01*
X10664677Y-12264917D01*
X10664675Y-12264920D01*
X10637832Y-12317605D01*
X10609539Y-12373132D01*
X10589445Y-12500000D01*
X8415555Y-12500000D01*
X8395461Y-12373132D01*
X8367168Y-12317604D01*
X8340325Y-12264920D01*
X8340323Y-12264917D01*
X8337146Y-12258682D01*
X8246318Y-12167854D01*
X8240083Y-12164677D01*
X8240080Y-12164675D01*
X8187396Y-12137832D01*
X8131868Y-12109539D01*
X8005000Y-12089445D01*
X7878132Y-12109539D01*
X7822604Y-12137832D01*
X7769920Y-12164675D01*
X7769917Y-12164677D01*
X7763682Y-12167854D01*
X7672854Y-12258682D01*
X7669677Y-12264917D01*
X7669675Y-12264920D01*
X7642832Y-12317604D01*
X7614539Y-12373132D01*
X7594445Y-12500000D01*
X-2319500Y-12500000D01*
X-2319500Y-11037500D01*
X22789445Y-11037500D01*
X22809539Y-11164368D01*
X22837832Y-11219895D01*
X22864675Y-11272580D01*
X22864677Y-11272583D01*
X22867854Y-11278818D01*
X22958682Y-11369646D01*
X22964917Y-11372823D01*
X22964920Y-11372825D01*
X23017605Y-11399668D01*
X23073132Y-11427961D01*
X23200000Y-11448055D01*
X23326868Y-11427961D01*
X23382396Y-11399668D01*
X23435080Y-11372825D01*
X23435083Y-11372823D01*
X23441318Y-11369646D01*
X23532146Y-11278818D01*
X23535323Y-11272583D01*
X23535325Y-11272580D01*
X23562168Y-11219895D01*
X23590461Y-11164368D01*
X23610555Y-11037500D01*
X23590461Y-10910632D01*
X23562168Y-10855104D01*
X23535325Y-10802420D01*
X23535323Y-10802417D01*
X23532146Y-10796182D01*
X23441318Y-10705354D01*
X23435083Y-10702177D01*
X23435080Y-10702175D01*
X23382395Y-10675332D01*
X23326868Y-10647039D01*
X23200000Y-10626945D01*
X23073132Y-10647039D01*
X23017605Y-10675332D01*
X22964920Y-10702175D01*
X22964917Y-10702177D01*
X22958682Y-10705354D01*
X22867854Y-10796182D01*
X22864677Y-10802417D01*
X22864675Y-10802420D01*
X22837832Y-10855104D01*
X22809539Y-10910632D01*
X22789445Y-11037500D01*
X-2319500Y-11037500D01*
X-2319500Y-9500000D01*
X10589445Y-9500000D01*
X10609539Y-9626868D01*
X10625120Y-9657447D01*
X10664675Y-9735080D01*
X10664677Y-9735083D01*
X10667854Y-9741318D01*
X10758682Y-9832146D01*
X10764917Y-9835323D01*
X10764920Y-9835325D01*
X10817604Y-9862168D01*
X10873132Y-9890461D01*
X11000000Y-9910555D01*
X11126868Y-9890461D01*
X11182396Y-9862168D01*
X11235080Y-9835325D01*
X11235083Y-9835323D01*
X11241318Y-9832146D01*
X11332146Y-9741318D01*
X11335323Y-9735083D01*
X11335325Y-9735080D01*
X11374880Y-9657447D01*
X11390461Y-9626868D01*
X11410555Y-9500000D01*
X12089445Y-9500000D01*
X12109539Y-9626868D01*
X12125120Y-9657447D01*
X12164675Y-9735080D01*
X12164677Y-9735083D01*
X12167854Y-9741318D01*
X12258682Y-9832146D01*
X12264917Y-9835323D01*
X12264920Y-9835325D01*
X12317604Y-9862168D01*
X12373132Y-9890461D01*
X12500000Y-9910555D01*
X12626868Y-9890461D01*
X12682396Y-9862168D01*
X12735080Y-9835325D01*
X12735083Y-9835323D01*
X12741318Y-9832146D01*
X12832146Y-9741318D01*
X12835323Y-9735083D01*
X12835325Y-9735080D01*
X12874880Y-9657447D01*
X12890461Y-9626868D01*
X12910555Y-9500000D01*
X16589445Y-9500000D01*
X16609539Y-9626868D01*
X16625120Y-9657447D01*
X16664675Y-9735080D01*
X16664677Y-9735083D01*
X16667854Y-9741318D01*
X16758682Y-9832146D01*
X16764917Y-9835323D01*
X16764920Y-9835325D01*
X16817604Y-9862168D01*
X16873132Y-9890461D01*
X17000000Y-9910555D01*
X17126868Y-9890461D01*
X17182396Y-9862168D01*
X17235080Y-9835325D01*
X17235083Y-9835323D01*
X17241318Y-9832146D01*
X17332146Y-9741318D01*
X17335323Y-9735083D01*
X17335325Y-9735080D01*
X17374880Y-9657447D01*
X17390461Y-9626868D01*
X17410555Y-9500000D01*
X19589445Y-9500000D01*
X19609539Y-9626868D01*
X19625120Y-9657447D01*
X19664675Y-9735080D01*
X19664677Y-9735083D01*
X19667854Y-9741318D01*
X19758682Y-9832146D01*
X19764917Y-9835323D01*
X19764920Y-9835325D01*
X19817604Y-9862168D01*
X19873132Y-9890461D01*
X20000000Y-9910555D01*
X20126868Y-9890461D01*
X20182396Y-9862168D01*
X20235080Y-9835325D01*
X20235083Y-9835323D01*
X20241318Y-9832146D01*
X20332146Y-9741318D01*
X20335323Y-9735083D01*
X20335325Y-9735080D01*
X20374880Y-9657447D01*
X20390461Y-9626868D01*
X20404616Y-9537500D01*
X21089445Y-9537500D01*
X21109539Y-9664368D01*
X21137832Y-9719895D01*
X21164675Y-9772580D01*
X21164677Y-9772583D01*
X21167854Y-9778818D01*
X21258682Y-9869646D01*
X21264917Y-9872823D01*
X21264920Y-9872825D01*
X21301685Y-9891557D01*
X21373132Y-9927961D01*
X21500000Y-9948055D01*
X21626868Y-9927961D01*
X21698315Y-9891557D01*
X21735080Y-9872825D01*
X21735083Y-9872823D01*
X21741318Y-9869646D01*
X21832146Y-9778818D01*
X21835323Y-9772583D01*
X21835325Y-9772580D01*
X21862168Y-9719895D01*
X21890461Y-9664368D01*
X21910555Y-9537500D01*
X21890461Y-9410632D01*
X21862168Y-9355105D01*
X21835325Y-9302420D01*
X21835323Y-9302417D01*
X21832146Y-9296182D01*
X21741318Y-9205354D01*
X21735083Y-9202177D01*
X21735080Y-9202175D01*
X21667720Y-9167854D01*
X21626868Y-9147039D01*
X21500000Y-9126945D01*
X21373132Y-9147039D01*
X21332280Y-9167854D01*
X21264920Y-9202175D01*
X21264917Y-9202177D01*
X21258682Y-9205354D01*
X21167854Y-9296182D01*
X21164677Y-9302417D01*
X21164675Y-9302420D01*
X21137832Y-9355105D01*
X21109539Y-9410632D01*
X21089445Y-9537500D01*
X20404616Y-9537500D01*
X20410555Y-9500000D01*
X20390461Y-9373132D01*
X20348731Y-9291232D01*
X20335325Y-9264920D01*
X20335323Y-9264917D01*
X20332146Y-9258682D01*
X20241318Y-9167854D01*
X20235083Y-9164677D01*
X20235080Y-9164675D01*
X20161029Y-9126945D01*
X20126868Y-9109539D01*
X20000000Y-9089445D01*
X19873132Y-9109539D01*
X19838971Y-9126945D01*
X19764920Y-9164675D01*
X19764917Y-9164677D01*
X19758682Y-9167854D01*
X19667854Y-9258682D01*
X19664677Y-9264917D01*
X19664675Y-9264920D01*
X19651269Y-9291232D01*
X19609539Y-9373132D01*
X19589445Y-9500000D01*
X17410555Y-9500000D01*
X17390461Y-9373132D01*
X17348731Y-9291232D01*
X17335325Y-9264920D01*
X17335323Y-9264917D01*
X17332146Y-9258682D01*
X17241318Y-9167854D01*
X17235083Y-9164677D01*
X17235080Y-9164675D01*
X17161029Y-9126945D01*
X17126868Y-9109539D01*
X17000000Y-9089445D01*
X16873132Y-9109539D01*
X16838971Y-9126945D01*
X16764920Y-9164675D01*
X16764917Y-9164677D01*
X16758682Y-9167854D01*
X16667854Y-9258682D01*
X16664677Y-9264917D01*
X16664675Y-9264920D01*
X16651269Y-9291232D01*
X16609539Y-9373132D01*
X16589445Y-9500000D01*
X12910555Y-9500000D01*
X12890461Y-9373132D01*
X12848731Y-9291232D01*
X12835325Y-9264920D01*
X12835323Y-9264917D01*
X12832146Y-9258682D01*
X12741318Y-9167854D01*
X12735083Y-9164677D01*
X12735080Y-9164675D01*
X12661029Y-9126945D01*
X12626868Y-9109539D01*
X12500000Y-9089445D01*
X12373132Y-9109539D01*
X12338971Y-9126945D01*
X12264920Y-9164675D01*
X12264917Y-9164677D01*
X12258682Y-9167854D01*
X12167854Y-9258682D01*
X12164677Y-9264917D01*
X12164675Y-9264920D01*
X12151269Y-9291232D01*
X12109539Y-9373132D01*
X12089445Y-9500000D01*
X11410555Y-9500000D01*
X11390461Y-9373132D01*
X11348731Y-9291232D01*
X11335325Y-9264920D01*
X11335323Y-9264917D01*
X11332146Y-9258682D01*
X11241318Y-9167854D01*
X11235083Y-9164677D01*
X11235080Y-9164675D01*
X11161029Y-9126945D01*
X11126868Y-9109539D01*
X11000000Y-9089445D01*
X10873132Y-9109539D01*
X10838971Y-9126945D01*
X10764920Y-9164675D01*
X10764917Y-9164677D01*
X10758682Y-9167854D01*
X10667854Y-9258682D01*
X10664677Y-9264917D01*
X10664675Y-9264920D01*
X10651269Y-9291232D01*
X10609539Y-9373132D01*
X10589445Y-9500000D01*
X-2319500Y-9500000D01*
X-2319500Y-7737500D01*
X8489445Y-7737500D01*
X8509539Y-7864368D01*
X8537832Y-7919896D01*
X8564675Y-7972580D01*
X8564677Y-7972583D01*
X8567854Y-7978818D01*
X8658682Y-8069646D01*
X8664917Y-8072823D01*
X8664920Y-8072825D01*
X8717604Y-8099668D01*
X8773132Y-8127961D01*
X8900000Y-8148055D01*
X8966641Y-8137500D01*
X17689445Y-8137500D01*
X17709539Y-8264368D01*
X17737832Y-8319895D01*
X17764675Y-8372580D01*
X17764677Y-8372583D01*
X17767854Y-8378818D01*
X17858682Y-8469646D01*
X17864917Y-8472823D01*
X17864920Y-8472825D01*
X17917605Y-8499668D01*
X17973132Y-8527961D01*
X18100000Y-8548055D01*
X18226868Y-8527961D01*
X18284093Y-8498804D01*
X18335076Y-8472827D01*
X18335079Y-8472825D01*
X18341318Y-8469646D01*
X18346272Y-8464692D01*
X18347687Y-8463664D01*
X18406208Y-8446884D01*
X18452313Y-8463664D01*
X18453728Y-8464692D01*
X18458682Y-8469646D01*
X18464921Y-8472825D01*
X18464924Y-8472827D01*
X18515907Y-8498804D01*
X18573132Y-8527961D01*
X18700000Y-8548055D01*
X18826868Y-8527961D01*
X18884093Y-8498804D01*
X18935076Y-8472827D01*
X18935079Y-8472825D01*
X18941318Y-8469646D01*
X18946272Y-8464692D01*
X18947687Y-8463664D01*
X19006208Y-8446884D01*
X19052313Y-8463664D01*
X19053728Y-8464692D01*
X19058682Y-8469646D01*
X19064921Y-8472825D01*
X19064924Y-8472827D01*
X19115907Y-8498804D01*
X19173132Y-8527961D01*
X19300000Y-8548055D01*
X19426868Y-8527961D01*
X19482395Y-8499668D01*
X19535080Y-8472825D01*
X19535083Y-8472823D01*
X19541318Y-8469646D01*
X19632146Y-8378818D01*
X19635323Y-8372583D01*
X19635325Y-8372580D01*
X19662168Y-8319895D01*
X19690461Y-8264368D01*
X19710555Y-8137500D01*
X19690461Y-8010632D01*
X19662168Y-7955104D01*
X19635325Y-7902420D01*
X19635323Y-7902417D01*
X19632146Y-7896182D01*
X19541318Y-7805354D01*
X19535083Y-7802177D01*
X19535080Y-7802175D01*
X19460878Y-7764368D01*
X19426868Y-7747039D01*
X19300000Y-7726945D01*
X19187043Y-7744836D01*
X19127283Y-7733220D01*
X19088970Y-7685908D01*
X19088487Y-7630741D01*
X19090461Y-7626868D01*
X19110555Y-7500000D01*
X19090461Y-7373132D01*
X19058449Y-7310304D01*
X19035325Y-7264920D01*
X19035323Y-7264917D01*
X19032146Y-7258682D01*
X19005147Y-7231683D01*
X18979419Y-7176507D01*
X18989870Y-7137500D01*
X26889445Y-7137500D01*
X26909539Y-7264368D01*
X26937832Y-7319896D01*
X26964675Y-7372580D01*
X26964677Y-7372583D01*
X26967854Y-7378818D01*
X27058682Y-7469646D01*
X27064917Y-7472823D01*
X27064920Y-7472825D01*
X27101047Y-7491232D01*
X27173132Y-7527961D01*
X27300000Y-7548055D01*
X27426868Y-7527961D01*
X27498953Y-7491232D01*
X27535080Y-7472825D01*
X27535083Y-7472823D01*
X27541318Y-7469646D01*
X27587067Y-7423897D01*
X27642243Y-7398169D01*
X27701048Y-7413925D01*
X27712933Y-7423897D01*
X27758682Y-7469646D01*
X27764917Y-7472823D01*
X27764920Y-7472825D01*
X27801047Y-7491232D01*
X27873132Y-7527961D01*
X28000000Y-7548055D01*
X28126868Y-7527961D01*
X28198953Y-7491232D01*
X28235080Y-7472825D01*
X28235083Y-7472823D01*
X28241318Y-7469646D01*
X28332146Y-7378818D01*
X28335323Y-7372583D01*
X28335325Y-7372580D01*
X28362168Y-7319896D01*
X28390461Y-7264368D01*
X28410555Y-7137500D01*
X28390461Y-7010632D01*
X28361303Y-6953407D01*
X28353198Y-6937500D01*
X29089445Y-6937500D01*
X29109539Y-7064368D01*
X29116902Y-7078818D01*
X29164675Y-7172580D01*
X29164677Y-7172583D01*
X29167854Y-7178818D01*
X29258682Y-7269646D01*
X29264917Y-7272823D01*
X29264920Y-7272825D01*
X29317605Y-7299668D01*
X29373132Y-7327961D01*
X29500000Y-7348055D01*
X29626868Y-7327961D01*
X29682396Y-7299668D01*
X29735080Y-7272825D01*
X29735083Y-7272823D01*
X29741318Y-7269646D01*
X29832146Y-7178818D01*
X29835323Y-7172583D01*
X29835325Y-7172580D01*
X29883098Y-7078818D01*
X29890461Y-7064368D01*
X29910555Y-6937500D01*
X29890461Y-6810632D01*
X29848338Y-6727961D01*
X29835325Y-6702420D01*
X29835323Y-6702417D01*
X29832146Y-6696182D01*
X29741318Y-6605354D01*
X29735083Y-6602177D01*
X29735080Y-6602175D01*
X29676995Y-6572580D01*
X29626868Y-6547039D01*
X29520416Y-6530179D01*
X29506920Y-6528041D01*
X29500000Y-6526945D01*
X29493080Y-6528041D01*
X29479584Y-6530179D01*
X29373132Y-6547039D01*
X29323005Y-6572580D01*
X29264920Y-6602175D01*
X29264917Y-6602177D01*
X29258682Y-6605354D01*
X29167854Y-6696182D01*
X29164677Y-6702417D01*
X29164675Y-6702420D01*
X29151662Y-6727961D01*
X29109539Y-6810632D01*
X29089445Y-6937500D01*
X28353198Y-6937500D01*
X28335327Y-6902424D01*
X28335325Y-6902421D01*
X28332146Y-6896182D01*
X28327192Y-6891228D01*
X28326164Y-6889813D01*
X28309384Y-6831292D01*
X28326164Y-6785187D01*
X28327192Y-6783772D01*
X28332146Y-6778818D01*
X28335325Y-6772579D01*
X28335327Y-6772576D01*
X28370069Y-6704390D01*
X28390461Y-6664368D01*
X28410555Y-6537500D01*
X28390461Y-6410632D01*
X28362168Y-6355104D01*
X28335325Y-6302420D01*
X28335323Y-6302417D01*
X28332146Y-6296182D01*
X28241318Y-6205354D01*
X28235083Y-6202177D01*
X28235080Y-6202175D01*
X28182395Y-6175332D01*
X28126868Y-6147039D01*
X28000000Y-6126945D01*
X27873132Y-6147039D01*
X27817605Y-6175332D01*
X27764920Y-6202175D01*
X27764917Y-6202177D01*
X27758682Y-6205354D01*
X27712933Y-6251103D01*
X27657757Y-6276831D01*
X27598952Y-6261075D01*
X27587067Y-6251103D01*
X27541318Y-6205354D01*
X27535083Y-6202177D01*
X27535080Y-6202175D01*
X27482395Y-6175332D01*
X27426868Y-6147039D01*
X27300000Y-6126945D01*
X27173132Y-6147039D01*
X27117605Y-6175332D01*
X27064920Y-6202175D01*
X27064917Y-6202177D01*
X27058682Y-6205354D01*
X26967854Y-6296182D01*
X26964677Y-6302417D01*
X26964675Y-6302420D01*
X26937832Y-6355104D01*
X26909539Y-6410632D01*
X26889445Y-6537500D01*
X26909539Y-6664368D01*
X26929931Y-6704390D01*
X26964673Y-6772576D01*
X26964675Y-6772579D01*
X26967854Y-6778818D01*
X26972808Y-6783772D01*
X26973836Y-6785187D01*
X26990616Y-6843708D01*
X26973836Y-6889813D01*
X26972808Y-6891228D01*
X26967854Y-6896182D01*
X26964675Y-6902421D01*
X26964673Y-6902424D01*
X26938697Y-6953407D01*
X26909539Y-7010632D01*
X26889445Y-7137500D01*
X18989870Y-7137500D01*
X18995175Y-7117702D01*
X19005147Y-7105817D01*
X19032146Y-7078818D01*
X19035323Y-7072583D01*
X19035325Y-7072580D01*
X19070069Y-7004390D01*
X19090461Y-6964368D01*
X19110555Y-6837500D01*
X19090461Y-6710632D01*
X19039678Y-6610964D01*
X19035325Y-6602420D01*
X19035323Y-6602417D01*
X19032146Y-6596182D01*
X18941318Y-6505354D01*
X18935083Y-6502177D01*
X18935080Y-6502175D01*
X18860878Y-6464368D01*
X18826868Y-6447039D01*
X18700000Y-6426945D01*
X18573132Y-6447039D01*
X18539122Y-6464368D01*
X18464924Y-6502173D01*
X18464921Y-6502175D01*
X18458682Y-6505354D01*
X18453728Y-6510308D01*
X18452313Y-6511336D01*
X18393792Y-6528116D01*
X18347687Y-6511336D01*
X18346272Y-6510308D01*
X18341318Y-6505354D01*
X18335079Y-6502175D01*
X18335076Y-6502173D01*
X18260878Y-6464368D01*
X18226868Y-6447039D01*
X18100000Y-6426945D01*
X17973132Y-6447039D01*
X17939122Y-6464368D01*
X17864920Y-6502175D01*
X17864917Y-6502177D01*
X17858682Y-6505354D01*
X17767854Y-6596182D01*
X17764677Y-6602417D01*
X17764675Y-6602420D01*
X17760322Y-6610964D01*
X17709539Y-6710632D01*
X17689445Y-6837500D01*
X17709539Y-6964368D01*
X17729931Y-7004390D01*
X17764675Y-7072580D01*
X17764677Y-7072583D01*
X17767854Y-7078818D01*
X17794853Y-7105817D01*
X17820581Y-7160993D01*
X17804825Y-7219798D01*
X17794853Y-7231683D01*
X17767854Y-7258682D01*
X17764677Y-7264917D01*
X17764675Y-7264920D01*
X17741551Y-7310304D01*
X17709539Y-7373132D01*
X17689445Y-7500000D01*
X17709539Y-7626868D01*
X17737832Y-7682396D01*
X17764675Y-7735080D01*
X17764677Y-7735083D01*
X17767854Y-7741318D01*
X17782353Y-7755817D01*
X17808081Y-7810993D01*
X17792325Y-7869798D01*
X17782353Y-7881683D01*
X17767854Y-7896182D01*
X17764677Y-7902417D01*
X17764675Y-7902420D01*
X17737832Y-7955105D01*
X17709539Y-8010632D01*
X17689445Y-8137500D01*
X8966641Y-8137500D01*
X9026868Y-8127961D01*
X9082396Y-8099668D01*
X9135080Y-8072825D01*
X9135083Y-8072823D01*
X9141318Y-8069646D01*
X9232146Y-7978818D01*
X9235323Y-7972583D01*
X9235325Y-7972580D01*
X9262168Y-7919896D01*
X9290461Y-7864368D01*
X9310555Y-7737500D01*
X9294716Y-7637500D01*
X13989445Y-7637500D01*
X14009539Y-7764368D01*
X14033296Y-7810993D01*
X14064675Y-7872580D01*
X14064677Y-7872583D01*
X14067854Y-7878818D01*
X14158682Y-7969646D01*
X14164917Y-7972823D01*
X14164920Y-7972825D01*
X14217604Y-7999668D01*
X14273132Y-8027961D01*
X14400000Y-8048055D01*
X14526868Y-8027961D01*
X14582396Y-7999668D01*
X14635080Y-7972825D01*
X14635083Y-7972823D01*
X14641318Y-7969646D01*
X14732146Y-7878818D01*
X14735323Y-7872583D01*
X14735325Y-7872580D01*
X14766704Y-7810993D01*
X14790461Y-7764368D01*
X14810555Y-7637500D01*
X14790461Y-7510632D01*
X14762168Y-7455104D01*
X14735325Y-7402420D01*
X14735323Y-7402417D01*
X14732146Y-7396182D01*
X14641318Y-7305354D01*
X14635083Y-7302177D01*
X14635080Y-7302175D01*
X14571237Y-7269646D01*
X14526868Y-7247039D01*
X14400000Y-7226945D01*
X14273132Y-7247039D01*
X14228763Y-7269646D01*
X14164920Y-7302175D01*
X14164917Y-7302177D01*
X14158682Y-7305354D01*
X14067854Y-7396182D01*
X14064677Y-7402417D01*
X14064675Y-7402420D01*
X14037832Y-7455105D01*
X14009539Y-7510632D01*
X13989445Y-7637500D01*
X9294716Y-7637500D01*
X9290461Y-7610632D01*
X9248338Y-7527961D01*
X9235325Y-7502420D01*
X9235323Y-7502417D01*
X9232146Y-7496182D01*
X9141318Y-7405354D01*
X9135083Y-7402177D01*
X9135080Y-7402175D01*
X9082396Y-7375332D01*
X9026868Y-7347039D01*
X8900000Y-7326945D01*
X8773132Y-7347039D01*
X8717605Y-7375332D01*
X8664920Y-7402175D01*
X8664917Y-7402177D01*
X8658682Y-7405354D01*
X8567854Y-7496182D01*
X8564677Y-7502417D01*
X8564675Y-7502420D01*
X8551662Y-7527961D01*
X8509539Y-7610632D01*
X8489445Y-7737500D01*
X-2319500Y-7737500D01*
X-2319500Y-6337500D01*
X8289445Y-6337500D01*
X8309539Y-6464368D01*
X8333470Y-6511336D01*
X8364675Y-6572580D01*
X8364677Y-6572583D01*
X8367854Y-6578818D01*
X8458682Y-6669646D01*
X8464917Y-6672823D01*
X8464920Y-6672825D01*
X8501047Y-6691232D01*
X8573132Y-6727961D01*
X8700000Y-6748055D01*
X8826868Y-6727961D01*
X8898953Y-6691232D01*
X8935076Y-6672827D01*
X8935079Y-6672825D01*
X8941318Y-6669646D01*
X8946272Y-6664692D01*
X8947687Y-6663664D01*
X9006208Y-6646884D01*
X9052313Y-6663664D01*
X9053728Y-6664692D01*
X9058682Y-6669646D01*
X9064921Y-6672825D01*
X9064924Y-6672827D01*
X9101047Y-6691232D01*
X9173132Y-6727961D01*
X9300000Y-6748055D01*
X9426868Y-6727961D01*
X9498953Y-6691232D01*
X9535080Y-6672825D01*
X9535083Y-6672823D01*
X9541318Y-6669646D01*
X9632146Y-6578818D01*
X9635323Y-6572583D01*
X9635325Y-6572580D01*
X9666530Y-6511336D01*
X9690461Y-6464368D01*
X9710555Y-6337500D01*
X9690461Y-6210632D01*
X9648379Y-6128041D01*
X9635327Y-6102424D01*
X9635325Y-6102421D01*
X9632146Y-6096182D01*
X9627192Y-6091228D01*
X9626164Y-6089813D01*
X9609384Y-6031292D01*
X9626164Y-5985187D01*
X9627192Y-5983772D01*
X9632146Y-5978818D01*
X9635325Y-5972579D01*
X9635327Y-5972576D01*
X9661304Y-5921593D01*
X9690461Y-5864368D01*
X9710555Y-5737500D01*
X9690461Y-5610632D01*
X9662168Y-5555105D01*
X9635325Y-5502420D01*
X9635323Y-5502417D01*
X9632146Y-5496182D01*
X9541318Y-5405354D01*
X9535083Y-5402177D01*
X9535080Y-5402175D01*
X9482395Y-5375332D01*
X9426868Y-5347039D01*
X9300000Y-5326945D01*
X9173132Y-5347039D01*
X9115907Y-5376197D01*
X9064924Y-5402173D01*
X9064921Y-5402175D01*
X9058682Y-5405354D01*
X9053728Y-5410308D01*
X9052313Y-5411336D01*
X8993792Y-5428116D01*
X8947687Y-5411336D01*
X8946272Y-5410308D01*
X8941318Y-5405354D01*
X8935079Y-5402175D01*
X8935076Y-5402173D01*
X8884093Y-5376197D01*
X8826868Y-5347039D01*
X8700000Y-5326945D01*
X8573132Y-5347039D01*
X8517605Y-5375332D01*
X8464920Y-5402175D01*
X8464917Y-5402177D01*
X8458682Y-5405354D01*
X8367854Y-5496182D01*
X8364677Y-5502417D01*
X8364675Y-5502420D01*
X8337832Y-5555105D01*
X8309539Y-5610632D01*
X8289445Y-5737500D01*
X8309539Y-5864368D01*
X8338696Y-5921593D01*
X8364673Y-5972576D01*
X8364675Y-5972579D01*
X8367854Y-5978818D01*
X8372808Y-5983772D01*
X8373836Y-5985187D01*
X8390616Y-6043708D01*
X8373836Y-6089813D01*
X8372808Y-6091228D01*
X8367854Y-6096182D01*
X8364675Y-6102421D01*
X8364673Y-6102424D01*
X8351621Y-6128041D01*
X8309539Y-6210632D01*
X8289445Y-6337500D01*
X-2319500Y-6337500D01*
X-2319500Y-4850000D01*
X13579445Y-4850000D01*
X13599539Y-4976868D01*
X13627832Y-5032396D01*
X13654675Y-5085080D01*
X13654677Y-5085083D01*
X13657854Y-5091318D01*
X13748682Y-5182146D01*
X13754917Y-5185323D01*
X13754920Y-5185325D01*
X13807604Y-5212168D01*
X13863132Y-5240461D01*
X13990000Y-5260555D01*
X14116868Y-5240461D01*
X14172396Y-5212168D01*
X14225080Y-5185325D01*
X14225083Y-5185323D01*
X14231318Y-5182146D01*
X14322146Y-5091318D01*
X14325323Y-5085083D01*
X14325325Y-5085080D01*
X14352168Y-5032396D01*
X14380461Y-4976868D01*
X14400555Y-4850000D01*
X15989445Y-4850000D01*
X16009539Y-4976868D01*
X16037832Y-5032396D01*
X16064675Y-5085080D01*
X16064677Y-5085083D01*
X16067854Y-5091318D01*
X16158682Y-5182146D01*
X16164917Y-5185323D01*
X16164920Y-5185325D01*
X16217604Y-5212168D01*
X16273132Y-5240461D01*
X16400000Y-5260555D01*
X16526868Y-5240461D01*
X16582396Y-5212168D01*
X16635080Y-5185325D01*
X16635083Y-5185323D01*
X16641318Y-5182146D01*
X16732146Y-5091318D01*
X16735323Y-5085083D01*
X16735325Y-5085080D01*
X16762168Y-5032396D01*
X16790461Y-4976868D01*
X16810555Y-4850000D01*
X16790461Y-4723132D01*
X16762168Y-4667604D01*
X16735325Y-4614920D01*
X16735323Y-4614917D01*
X16732146Y-4608682D01*
X16641318Y-4517854D01*
X16635083Y-4514677D01*
X16635080Y-4514675D01*
X16582396Y-4487832D01*
X16526868Y-4459539D01*
X16400000Y-4439445D01*
X16273132Y-4459539D01*
X16217604Y-4487832D01*
X16164920Y-4514675D01*
X16164917Y-4514677D01*
X16158682Y-4517854D01*
X16067854Y-4608682D01*
X16064677Y-4614917D01*
X16064675Y-4614920D01*
X16037832Y-4667604D01*
X16009539Y-4723132D01*
X15989445Y-4850000D01*
X14400555Y-4850000D01*
X14380461Y-4723132D01*
X14352168Y-4667604D01*
X14325325Y-4614920D01*
X14325323Y-4614917D01*
X14322146Y-4608682D01*
X14231318Y-4517854D01*
X14225083Y-4514677D01*
X14225080Y-4514675D01*
X14172396Y-4487832D01*
X14116868Y-4459539D01*
X13990000Y-4439445D01*
X13863132Y-4459539D01*
X13807604Y-4487832D01*
X13754920Y-4514675D01*
X13754917Y-4514677D01*
X13748682Y-4517854D01*
X13657854Y-4608682D01*
X13654677Y-4614917D01*
X13654675Y-4614920D01*
X13627832Y-4667604D01*
X13599539Y-4723132D01*
X13579445Y-4850000D01*
X-2319500Y-4850000D01*
X-2319500Y-3537500D01*
X28689445Y-3537500D01*
X28709539Y-3664368D01*
X28737832Y-3719896D01*
X28764675Y-3772580D01*
X28764677Y-3772583D01*
X28767854Y-3778818D01*
X28858682Y-3869646D01*
X28864917Y-3872823D01*
X28864920Y-3872825D01*
X28917605Y-3899668D01*
X28973132Y-3927961D01*
X29100000Y-3948055D01*
X29226868Y-3927961D01*
X29282395Y-3899668D01*
X29335080Y-3872825D01*
X29335083Y-3872823D01*
X29341318Y-3869646D01*
X29432146Y-3778818D01*
X29435323Y-3772583D01*
X29435325Y-3772580D01*
X29462168Y-3719896D01*
X29490461Y-3664368D01*
X29510555Y-3537500D01*
X29490461Y-3410632D01*
X29462168Y-3355104D01*
X29435325Y-3302420D01*
X29435323Y-3302417D01*
X29432146Y-3296182D01*
X29341318Y-3205354D01*
X29335083Y-3202177D01*
X29335080Y-3202175D01*
X29282396Y-3175332D01*
X29226868Y-3147039D01*
X29100000Y-3126945D01*
X28973132Y-3147039D01*
X28917604Y-3175332D01*
X28864920Y-3202175D01*
X28864917Y-3202177D01*
X28858682Y-3205354D01*
X28767854Y-3296182D01*
X28764677Y-3302417D01*
X28764675Y-3302420D01*
X28737832Y-3355104D01*
X28709539Y-3410632D01*
X28689445Y-3537500D01*
X-2319500Y-3537500D01*
X-2319500Y-1317888D01*
X-2298678Y-1260680D01*
X-2245955Y-1230240D01*
X-2186000Y-1240812D01*
X-2152510Y-1275011D01*
X-2115416Y-1342484D01*
X-1930478Y-1597030D01*
X-1820218Y-1714445D01*
X-1737833Y-1802175D01*
X-1715094Y-1826390D01*
X-1472663Y-2026947D01*
X-1207007Y-2195537D01*
X-922315Y-2329503D01*
X-919664Y-2330364D01*
X-919665Y-2330364D01*
X-625733Y-2425869D01*
X-625728Y-2425870D01*
X-623079Y-2426731D01*
X-463638Y-2457146D01*
X-316758Y-2485165D01*
X-316754Y-2485165D01*
X-314015Y-2485688D01*
X-311224Y-2485864D01*
X-311221Y-2485864D01*
X-231846Y-2490858D01*
X-78583Y-2500500D01*
X78583Y-2500500D01*
X231846Y-2490858D01*
X311221Y-2485864D01*
X311224Y-2485864D01*
X314015Y-2485688D01*
X316754Y-2485165D01*
X316758Y-2485165D01*
X463638Y-2457146D01*
X623079Y-2426731D01*
X625728Y-2425870D01*
X625733Y-2425869D01*
X919665Y-2330364D01*
X919664Y-2330364D01*
X922315Y-2329503D01*
X1207007Y-2195537D01*
X1298459Y-2137500D01*
X11776945Y-2137500D01*
X11797039Y-2264368D01*
X11825332Y-2319895D01*
X11852175Y-2372580D01*
X11852177Y-2372583D01*
X11855354Y-2378818D01*
X11946182Y-2469646D01*
X11952417Y-2472823D01*
X11952420Y-2472825D01*
X12005105Y-2499668D01*
X12060632Y-2527961D01*
X12187500Y-2548055D01*
X12314368Y-2527961D01*
X12369896Y-2499668D01*
X12422580Y-2472825D01*
X12422583Y-2472823D01*
X12428818Y-2469646D01*
X12519646Y-2378818D01*
X12522823Y-2372583D01*
X12522825Y-2372580D01*
X12549668Y-2319895D01*
X12577961Y-2264368D01*
X12598055Y-2137500D01*
X12596075Y-2125000D01*
X24064445Y-2125000D01*
X24084539Y-2251868D01*
X24112832Y-2307396D01*
X24139675Y-2360080D01*
X24139677Y-2360083D01*
X24142854Y-2366318D01*
X24233682Y-2457146D01*
X24239917Y-2460323D01*
X24239920Y-2460325D01*
X24289699Y-2485688D01*
X24348132Y-2515461D01*
X24475000Y-2535555D01*
X24601868Y-2515461D01*
X24660301Y-2485688D01*
X24710080Y-2460325D01*
X24710083Y-2460323D01*
X24716318Y-2457146D01*
X24807146Y-2366318D01*
X24810323Y-2360083D01*
X24810325Y-2360080D01*
X24837168Y-2307396D01*
X24865461Y-2251868D01*
X24885555Y-2125000D01*
X24865461Y-1998132D01*
X24831840Y-1932146D01*
X24810325Y-1889920D01*
X24810323Y-1889917D01*
X24807146Y-1883682D01*
X24716318Y-1792854D01*
X24710083Y-1789677D01*
X24710080Y-1789675D01*
X24657395Y-1762832D01*
X24601868Y-1734539D01*
X24475000Y-1714445D01*
X24348132Y-1734539D01*
X24292605Y-1762832D01*
X24239920Y-1789675D01*
X24239917Y-1789677D01*
X24233682Y-1792854D01*
X24142854Y-1883682D01*
X24139677Y-1889917D01*
X24139675Y-1889920D01*
X24118160Y-1932146D01*
X24084539Y-1998132D01*
X24064445Y-2125000D01*
X12596075Y-2125000D01*
X12577961Y-2010632D01*
X12549668Y-1955105D01*
X12522825Y-1902420D01*
X12522823Y-1902417D01*
X12519646Y-1896182D01*
X12428818Y-1805354D01*
X12422583Y-1802177D01*
X12422580Y-1802175D01*
X12369896Y-1775332D01*
X12314368Y-1747039D01*
X12187500Y-1726945D01*
X12060632Y-1747039D01*
X12005104Y-1775332D01*
X11952420Y-1802175D01*
X11952417Y-1802177D01*
X11946182Y-1805354D01*
X11855354Y-1896182D01*
X11852177Y-1902417D01*
X11852175Y-1902420D01*
X11825332Y-1955105D01*
X11797039Y-2010632D01*
X11776945Y-2137500D01*
X1298459Y-2137500D01*
X1472663Y-2026947D01*
X1715094Y-1826390D01*
X1737834Y-1802175D01*
X1820218Y-1714445D01*
X1927689Y-1600000D01*
X6639445Y-1600000D01*
X6659539Y-1726868D01*
X6687832Y-1782396D01*
X6714675Y-1835080D01*
X6714677Y-1835083D01*
X6717854Y-1841318D01*
X6808682Y-1932146D01*
X6814917Y-1935323D01*
X6814920Y-1935325D01*
X6867604Y-1962168D01*
X6923132Y-1990461D01*
X7050000Y-2010555D01*
X7176868Y-1990461D01*
X7232396Y-1962168D01*
X7285080Y-1935325D01*
X7285083Y-1935323D01*
X7291318Y-1932146D01*
X7382146Y-1841318D01*
X7385323Y-1835083D01*
X7385325Y-1835080D01*
X7412168Y-1782396D01*
X7440461Y-1726868D01*
X7460555Y-1600000D01*
X7440461Y-1473132D01*
X7412168Y-1417604D01*
X7385325Y-1364920D01*
X7385323Y-1364917D01*
X7382146Y-1358682D01*
X7291318Y-1267854D01*
X7285083Y-1264677D01*
X7285080Y-1264675D01*
X7217496Y-1230240D01*
X7176868Y-1209539D01*
X7050000Y-1189445D01*
X6923132Y-1209539D01*
X6882504Y-1230240D01*
X6814920Y-1264675D01*
X6814917Y-1264677D01*
X6808682Y-1267854D01*
X6717854Y-1358682D01*
X6714677Y-1364917D01*
X6714675Y-1364920D01*
X6687832Y-1417604D01*
X6659539Y-1473132D01*
X6639445Y-1600000D01*
X1927689Y-1600000D01*
X1930478Y-1597030D01*
X2115416Y-1342484D01*
X2156445Y-1267854D01*
X2265643Y-1069223D01*
X2266994Y-1066766D01*
X2268022Y-1064169D01*
X2268026Y-1064161D01*
X2381788Y-776829D01*
X2382819Y-774225D01*
X2461066Y-469473D01*
X2500500Y-157318D01*
X2500500Y157318D01*
X2461066Y469473D01*
X2382819Y774225D01*
X2338284Y886708D01*
X2268026Y1064161D01*
X2268022Y1064169D01*
X2266994Y1066766D01*
X2208304Y1173522D01*
X2116760Y1340040D01*
X2116757Y1340045D01*
X2115416Y1342484D01*
X1930478Y1597030D01*
X1715094Y1826390D01*
X1472663Y2026947D01*
X1270322Y2155356D01*
X1233178Y2203589D01*
X1235727Y2264415D01*
X1276779Y2309372D01*
X1318012Y2319500D01*
X32681988Y2319500D01*
X32739196Y2298678D01*
G37*
%TD.AperFunction*%
M02*
