%TF.GenerationSoftware,KiCad,Pcbnew,(6.0.9)*%
%TF.CreationDate,2023-03-19T17:38:48-07:00*%
%TF.ProjectId,OneInchEye,4f6e6549-6e63-4684-9579-652e6b696361,rev?*%
%TF.SameCoordinates,Original*%
%TF.FileFunction,Legend,Bot*%
%TF.FilePolarity,Positive*%
%FSLAX46Y46*%
G04 Gerber Fmt 4.6, Leading zero omitted, Abs format (unit mm)*
G04 Created by KiCad (PCBNEW (6.0.9)) date 2023-03-19 17:38:48*
%MOMM*%
%LPD*%
G01*
G04 APERTURE LIST*
%ADD10C,0.125000*%
%ADD11C,0.200000*%
G04 APERTURE END LIST*
D10*
X147280952Y-103026190D02*
X147280952Y-103430952D01*
X147257142Y-103478571D01*
X147233333Y-103502380D01*
X147185714Y-103526190D01*
X147090476Y-103526190D01*
X147042857Y-103502380D01*
X147019047Y-103478571D01*
X146995238Y-103430952D01*
X146995238Y-103026190D01*
X146804761Y-103026190D02*
X146495238Y-103026190D01*
X146661904Y-103216666D01*
X146590476Y-103216666D01*
X146542857Y-103240476D01*
X146519047Y-103264285D01*
X146495238Y-103311904D01*
X146495238Y-103430952D01*
X146519047Y-103478571D01*
X146542857Y-103502380D01*
X146590476Y-103526190D01*
X146733333Y-103526190D01*
X146780952Y-103502380D01*
X146804761Y-103478571D01*
X135495238Y-111088690D02*
X135780952Y-111088690D01*
X135638095Y-111088690D02*
X135638095Y-110588690D01*
X135685714Y-110660119D01*
X135733333Y-110707738D01*
X135780952Y-110731547D01*
X135019047Y-111088690D02*
X135304761Y-111088690D01*
X135161904Y-111088690D02*
X135161904Y-110588690D01*
X135209523Y-110660119D01*
X135257142Y-110707738D01*
X135304761Y-110731547D01*
X156042857Y-94088690D02*
X156042857Y-93588690D01*
X155757142Y-94088690D01*
X155757142Y-93588690D01*
X138019047Y-93945833D02*
X137780952Y-93945833D01*
X138066666Y-94088690D02*
X137900000Y-93588690D01*
X137733333Y-94088690D01*
X135757142Y-96088690D02*
X136042857Y-96088690D01*
X135900000Y-96088690D02*
X135900000Y-95588690D01*
X135947619Y-95660119D01*
X135995238Y-95707738D01*
X136042857Y-95731547D01*
D11*
X156750000Y-95112500D02*
X137050000Y-95112500D01*
X137050000Y-95112500D02*
X137050000Y-111612500D01*
X137050000Y-111612500D02*
X156750000Y-111612500D01*
X156750000Y-111612500D02*
X156750000Y-95112500D01*
M02*
