G04 #@! TF.GenerationSoftware,KiCad,Pcbnew,8.0.4*
G04 #@! TF.CreationDate,2025-07-27T14:59:45-07:00*
G04 #@! TF.ProjectId,IMX283_MIPI_Camera_v2,494d5832-3833-45f4-9d49-50495f43616d,rev?*
G04 #@! TF.SameCoordinates,Original*
G04 #@! TF.FileFunction,Soldermask,Bot*
G04 #@! TF.FilePolarity,Negative*
%FSLAX46Y46*%
G04 Gerber Fmt 4.6, Leading zero omitted, Abs format (unit mm)*
G04 Created by KiCad (PCBNEW 8.0.4) date 2025-07-27 14:59:45*
%MOMM*%
%LPD*%
G01*
G04 APERTURE LIST*
%ADD10C,4.600000*%
%ADD11C,0.900000*%
%ADD12R,2.400000X2.400000*%
G04 APERTURE END LIST*
D10*
G04 #@! TO.C,H1*
X130600000Y-82600000D03*
G04 #@! TD*
G04 #@! TO.C,H4*
X164600000Y-82600000D03*
G04 #@! TD*
G04 #@! TO.C,H3*
X164600000Y-116600000D03*
G04 #@! TD*
G04 #@! TO.C,H2*
X130600000Y-116600000D03*
G04 #@! TD*
D11*
G04 #@! TO.C,U3*
X138600000Y-95100000D03*
X138600000Y-96600000D03*
X138600637Y-98087082D03*
X138600000Y-99600000D03*
X138600000Y-101100000D03*
X138600000Y-102600000D03*
X138600000Y-104100000D03*
X140100000Y-95100000D03*
X140100000Y-96600000D03*
X140100637Y-98087082D03*
X140100000Y-99600000D03*
X140100000Y-101100000D03*
X140100000Y-102600000D03*
X140100000Y-104100000D03*
X141600000Y-92100000D03*
X141600000Y-93600000D03*
X141600000Y-95100000D03*
X141600000Y-96600000D03*
X141600637Y-98087082D03*
X141600000Y-99600000D03*
X141600000Y-101100000D03*
X141600000Y-102600000D03*
X141600000Y-104100000D03*
X141600637Y-105587082D03*
X141600000Y-107100000D03*
X143100000Y-92100000D03*
X143100000Y-93600000D03*
X143100000Y-95100000D03*
X143100000Y-96600000D03*
X143100637Y-98087082D03*
X143100000Y-99600000D03*
X143100000Y-101100000D03*
X143100000Y-102600000D03*
X143100000Y-104100000D03*
X143100637Y-105587082D03*
X143100000Y-107100000D03*
X144600000Y-92100000D03*
X144600000Y-93600000D03*
X144600000Y-95100000D03*
X144600000Y-96600000D03*
X144600637Y-98087082D03*
X144600000Y-99600000D03*
X144600000Y-101100000D03*
X144600000Y-102600000D03*
X144600000Y-104100000D03*
X144600637Y-105587082D03*
X144600000Y-107100000D03*
X146100000Y-92100000D03*
X146100000Y-93600000D03*
X146100000Y-95100000D03*
X146100000Y-96600000D03*
X146100000Y-102600000D03*
X146100000Y-104100000D03*
X146100637Y-105587082D03*
X146100000Y-107100000D03*
X147600000Y-92100000D03*
X147600000Y-93600000D03*
X147600000Y-95100000D03*
X147600000Y-96600000D03*
X147600000Y-102600000D03*
X147600000Y-104100000D03*
X147600637Y-105587082D03*
X147600000Y-107100000D03*
X149100000Y-92100000D03*
X149100000Y-93600000D03*
X149100000Y-95100000D03*
X149100000Y-96600000D03*
X149100000Y-102600000D03*
X149100000Y-104100000D03*
X149100637Y-105587082D03*
X149100000Y-107100000D03*
X150600000Y-92100000D03*
X150600000Y-93600000D03*
X150600000Y-95100000D03*
X150600000Y-96600000D03*
X150600637Y-98087082D03*
X150600000Y-99600000D03*
X150600000Y-101100000D03*
X150600000Y-102600000D03*
X150600000Y-104100000D03*
X150600637Y-105587082D03*
X150600000Y-107100000D03*
X152100000Y-92100000D03*
X152100000Y-93600000D03*
X152100000Y-95100000D03*
X152100000Y-96600000D03*
X152100637Y-98087082D03*
X152100000Y-99600000D03*
X152100000Y-101100000D03*
X152100000Y-102600000D03*
X152100000Y-104100000D03*
X152100637Y-105587082D03*
X152100000Y-107100000D03*
X153600000Y-92100000D03*
X153600000Y-93600000D03*
X153600000Y-95100000D03*
X153600000Y-96600000D03*
X153600637Y-98087082D03*
X153600000Y-99600000D03*
X153600000Y-101100000D03*
X153600000Y-102600000D03*
X153600000Y-104100000D03*
X153600637Y-105587082D03*
X153600000Y-107100000D03*
X155100000Y-95100000D03*
X155100000Y-96600000D03*
X155100637Y-98087082D03*
X155100000Y-99600000D03*
X155100000Y-101100000D03*
X155100000Y-102600000D03*
X155100000Y-104100000D03*
X156600000Y-95100000D03*
X156600000Y-96600000D03*
X156600637Y-98087082D03*
X156600000Y-99600000D03*
X156600000Y-101100000D03*
X156600000Y-102600000D03*
X156600000Y-104100000D03*
D12*
X155850000Y-106350000D03*
X155850000Y-92850000D03*
X139350000Y-106350000D03*
G36*
X140550000Y-93570000D02*
G01*
X140070000Y-94050000D01*
X138150000Y-94050000D01*
X138150000Y-91650000D01*
X140550000Y-91650000D01*
X140550000Y-93570000D01*
G37*
G04 #@! TD*
M02*
