M48
; DRILL file {KiCad (6.0.9)} date Sun Nov 19 16:38:13 2023
; FORMAT={-:-/ absolute / inch / decimal}
; #@! TF.CreationDate,2023-11-19T16:38:13-08:00
; #@! TF.GenerationSoftware,Kicad,Pcbnew,(6.0.9)
; #@! TF.FileFunction,Plated,1,4,PTH
FMAT,2
INCH
; #@! TA.AperFunction,Plated,PTH,ViaDrill
T1C0.0079
; #@! TA.AperFunction,Plated,PTH,ViaDrill
T2C0.0118
%
G90
G05
T1
X0.8957Y-1.2972
X0.9055Y-1.2008
X1.126Y-1.1142
X1.126Y-1.2283
X1.1496Y-1.1417
X1.1496Y-1.2283
X1.315Y-1.0945
X1.315Y-1.1417
T2
X0.189Y-0.155
X0.2559Y0.034
X0.2559Y-0.0015
X0.2598Y-0.2165
X0.2598Y-0.2495
X0.2776Y-0.063
X0.2884Y0.0177
X0.2913Y-0.2338
X0.315Y-0.0212
X0.315Y-0.1078
X0.315Y-0.5527
X0.315Y-0.6668
X0.3152Y-0.4921
X0.3236Y-0.8465
X0.3276Y-0.7874
X0.3425Y-0.2259
X0.3425Y-0.2495
X0.3504Y-0.3046
X0.3614Y-0.8465
X0.3654Y-0.7874
X0.3661Y-0.2259
X0.3661Y-0.2495
X0.374Y-0.4897
X0.374Y-0.5527
X0.374Y-0.6117
X0.374Y-0.6708
X0.374Y-0.7298
X0.4055Y-0.344
X0.4134Y-1.2393
X0.4331Y-0.374
X0.4331Y-0.4306
X0.4331Y-0.4921
X0.4331Y-0.5512
X0.4331Y-0.6078
X0.4331Y-0.907
X0.4331Y-0.9559
X0.4626Y-0.3007
X0.4798Y-0.0842
X0.4921Y-0.374
X0.4921Y-0.4345
X0.4921Y-0.8512
X0.4921Y-0.907
X0.4921Y-0.9598
X0.5217Y-1.2393
X0.5508Y-0.1476
X0.5508Y-0.1909
X0.5512Y-0.9031
X0.5669Y-0.3007
X0.5787Y-1.1654
X0.6103Y-0.905
X0.626Y-0.0408
X0.626Y-1.2869
X0.6378Y-0.2692
X0.6378Y-0.2953
X0.6457Y-0.1909
X0.6604Y-0.0453
X0.6614Y-0.0172
X0.6654Y-0.2953
X0.6693Y-0.374
X0.6693Y-0.4345
X0.6693Y-0.8465
X0.6693Y-0.907
X0.6693Y-0.9646
X0.685Y-0.1668
X0.685Y-0.2077
X0.7126Y-0.2692
X0.7126Y-0.2953
X0.7126Y-0.3204
X0.7146Y-1.2047
X0.7283Y-0.4345
X0.7283Y-0.4936
X0.7283Y-0.5512
X0.7283Y-0.8479
X0.7284Y-0.905
X0.731Y-1.3479
X0.7323Y-1.0315
X0.7362Y-0.2692
X0.7362Y-0.2953
X0.7362Y-0.3204
X0.7598Y-0.3204
X0.7874Y-0.374
X0.7874Y-0.4345
X0.7874Y-0.5512
X0.7874Y-0.7298
X0.7874Y-0.7874
X0.7874Y-0.8465
X0.7874Y-0.907
X0.7874Y-0.9646
X0.7874Y-0.9995
X0.7874Y-1.1142
X0.7874Y-1.2904
X0.813Y-1.176
X0.813Y-1.2138
X0.8228Y-1.0059
X0.8386Y-1.2736
X0.8425Y-0.8357
X0.8465Y-0.3755
X0.8465Y-0.4345
X0.8465Y-0.7298
X0.8465Y-0.7889
X0.8465Y-0.907
X0.8465Y-0.966
X0.8484Y-1.2028
X0.8504Y-0.5527
X0.8711Y-1.0059
X0.874Y-0.4094
X0.874Y-0.4621
X0.874Y-0.5802
X0.874Y-0.6393
X0.9055Y-0.7298
X0.9055Y-0.7874
X0.9055Y-0.8479
X0.9055Y-0.907
X0.9134Y-0.4345
X0.9252Y-0.1747
X0.9291Y-0.3991
X0.9291Y-0.8484
X0.9311Y-0.8799
X0.9331Y-0.466
X0.9331Y-0.6983
X0.9331Y-0.7574
X0.937Y-0.5802
X0.937Y-0.6393
X0.939Y-0.8169
X0.9636Y-0.0837
X0.9646Y-0.6708
X0.9646Y-0.7849
X0.9646Y-0.8465
X0.9843Y-0.0369
X0.9892Y-0.2638
X0.9892Y-0.2933
X0.9941Y-0.8681
X1.0118Y-0.5512
X1.0177Y-0.0172
X1.0177Y-0.0492
X1.0217Y-0.2771
X1.0217Y-0.3401
X1.0236Y-0.6708
X1.0236Y-0.7849
X1.0236Y-0.8465
X1.0472Y-0.122
X1.0472Y-0.159
X1.0472Y-0.3243
X1.0472Y-1.2087
X1.0551Y-0.6865
X1.063Y-0.7874
X1.0748Y-0.2574
X1.0748Y-0.281
X1.1024Y-0.2574
X1.1024Y-0.281
X1.1157Y-1.3213
X1.1398Y-0.4405
X1.1457Y-0.1393
X1.1457Y-1.4055
X1.1496Y-0.6786
X1.1539Y-0.6498
X1.1614Y-0.2731
X1.1673Y-0.4129
X1.172Y-0.6317
X1.1811Y-0.6078
X1.1929Y-0.5881
X1.2179Y-0.5969
X1.2179Y-0.6225
X1.2677Y-0.5802
X1.2677Y-0.6393
X1.2953Y-0.2598
X1.3267Y-0.813
X1.3268Y-0.7653
X1.3307Y-0.4582
X1.372Y-0.4405
X1.3829Y-1.2254
X1.4173Y-0.4621
X1.4173Y-0.5212
X1.4173Y-0.5802
X1.4173Y-0.6393
X1.4173Y-0.6983
X1.4173Y-0.7534
X1.4173Y-0.8164
X1.4331Y-1.2495
X1.4793Y-1.2264
T0
M30
