%TF.GenerationSoftware,KiCad,Pcbnew,(6.0.9)*%
%TF.CreationDate,2023-03-19T17:38:48-07:00*%
%TF.ProjectId,OneInchEye,4f6e6549-6e63-4684-9579-652e6b696361,rev?*%
%TF.SameCoordinates,Original*%
%TF.FileFunction,Paste,Bot*%
%TF.FilePolarity,Positive*%
%FSLAX46Y46*%
G04 Gerber Fmt 4.6, Leading zero omitted, Abs format (unit mm)*
G04 Created by KiCad (PCBNEW (6.0.9)) date 2023-03-19 17:38:48*
%MOMM*%
%LPD*%
G01*
G04 APERTURE LIST*
%ADD10C,0.900000*%
%ADD11R,2.400000X2.400000*%
G04 APERTURE END LIST*
D10*
X137900000Y-98862500D03*
X137900000Y-100362500D03*
X137900637Y-101849582D03*
X137900000Y-103362500D03*
X137900000Y-104862500D03*
X137900000Y-106362500D03*
X137900000Y-107862500D03*
X139400000Y-98862500D03*
X139400000Y-100362500D03*
X139400637Y-101849582D03*
X139400000Y-103362500D03*
X139400000Y-104862500D03*
X139400000Y-106362500D03*
X139400000Y-107862500D03*
X140900000Y-95862500D03*
X140900000Y-97362500D03*
X140900000Y-98862500D03*
X140900000Y-100362500D03*
X140900637Y-101849582D03*
X140900000Y-103362500D03*
X140900000Y-104862500D03*
X140900000Y-106362500D03*
X140900000Y-107862500D03*
X140900637Y-109349582D03*
X140900000Y-110862500D03*
X142400000Y-95862500D03*
X142400000Y-97362500D03*
X142400000Y-98862500D03*
X142400000Y-100362500D03*
X142400637Y-101849582D03*
X142400000Y-103362500D03*
X142400000Y-104862500D03*
X142400000Y-106362500D03*
X142400000Y-107862500D03*
X142400637Y-109349582D03*
X142400000Y-110862500D03*
X143900000Y-95862500D03*
X143900000Y-97362500D03*
X143900000Y-98862500D03*
X143900000Y-100362500D03*
X143900637Y-101849582D03*
X143900000Y-103362500D03*
X143900000Y-104862500D03*
X143900000Y-106362500D03*
X143900000Y-107862500D03*
X143900637Y-109349582D03*
X143900000Y-110862500D03*
X145400000Y-95862500D03*
X145400000Y-97362500D03*
X145400000Y-98862500D03*
X145400000Y-100362500D03*
X145400000Y-106362500D03*
X145400000Y-107862500D03*
X145400637Y-109349582D03*
X145400000Y-110862500D03*
X146900000Y-95862500D03*
X146900000Y-97362500D03*
X146900000Y-98862500D03*
X146900000Y-100362500D03*
X146900000Y-106362500D03*
X146900000Y-107862500D03*
X146900637Y-109349582D03*
X146900000Y-110862500D03*
X148400000Y-95862500D03*
X148400000Y-97362500D03*
X148400000Y-98862500D03*
X148400000Y-100362500D03*
X148400000Y-106362500D03*
X148400000Y-107862500D03*
X148400637Y-109349582D03*
X148400000Y-110862500D03*
X149900000Y-95862500D03*
X149900000Y-97362500D03*
X149900000Y-98862500D03*
X149900000Y-100362500D03*
X149900637Y-101849582D03*
X149900000Y-103362500D03*
X149900000Y-104862500D03*
X149900000Y-106362500D03*
X149900000Y-107862500D03*
X149900637Y-109349582D03*
X149900000Y-110862500D03*
X151400000Y-95862500D03*
X151400000Y-97362500D03*
X151400000Y-98862500D03*
X151400000Y-100362500D03*
X151400637Y-101849582D03*
X151400000Y-103362500D03*
X151400000Y-104862500D03*
X151400000Y-106362500D03*
X151400000Y-107862500D03*
X151400637Y-109349582D03*
X151400000Y-110862500D03*
X152900000Y-95862500D03*
X152900000Y-97362500D03*
X152900000Y-98862500D03*
X152900000Y-100362500D03*
X152900637Y-101849582D03*
X152900000Y-103362500D03*
X152900000Y-104862500D03*
X152900000Y-106362500D03*
X152900000Y-107862500D03*
X152900637Y-109349582D03*
X152900000Y-110862500D03*
X154400000Y-98862500D03*
X154400000Y-100362500D03*
X154400637Y-101849582D03*
X154400000Y-103362500D03*
X154400000Y-104862500D03*
X154400000Y-106362500D03*
X154400000Y-107862500D03*
X155900000Y-98862500D03*
X155900000Y-100362500D03*
X155900637Y-101849582D03*
X155900000Y-103362500D03*
X155900000Y-104862500D03*
X155900000Y-106362500D03*
X155900000Y-107862500D03*
D11*
X155150000Y-96612500D03*
X138650000Y-110112500D03*
X155150000Y-110112500D03*
X138650000Y-96612500D03*
M02*
