G04 #@! TF.GenerationSoftware,KiCad,Pcbnew,8.0.4*
G04 #@! TF.CreationDate,2024-09-15T19:00:34-07:00*
G04 #@! TF.ProjectId,IMX283_MIPI_Camera_v2,494d5832-3833-45f4-9d49-50495f43616d,rev?*
G04 #@! TF.SameCoordinates,Original*
G04 #@! TF.FileFunction,Copper,L2,Inr*
G04 #@! TF.FilePolarity,Positive*
%FSLAX46Y46*%
G04 Gerber Fmt 4.6, Leading zero omitted, Abs format (unit mm)*
G04 Created by KiCad (PCBNEW 8.0.4) date 2024-09-15 19:00:34*
%MOMM*%
%LPD*%
G01*
G04 APERTURE LIST*
G04 #@! TA.AperFunction,ViaPad*
%ADD10C,0.450000*%
G04 #@! TD*
G04 #@! TA.AperFunction,ViaPad*
%ADD11C,0.500000*%
G04 #@! TD*
G04 APERTURE END LIST*
D10*
G04 #@! TO.N,GND*
X133700000Y-117600000D03*
X128700000Y-85700000D03*
X138700000Y-118500000D03*
D11*
X143100637Y-105587082D03*
D10*
X145700000Y-118500000D03*
X157700000Y-118500000D03*
X155550000Y-89450000D03*
X146750000Y-83400000D03*
D11*
X141600637Y-105587082D03*
D10*
X151700000Y-80800000D03*
X154350000Y-98850000D03*
X149700000Y-80800000D03*
X138300000Y-83300000D03*
X138300000Y-89450000D03*
X128700000Y-99700000D03*
X128700000Y-90700000D03*
X153700000Y-118500000D03*
X160350000Y-110000000D03*
X152850000Y-98850000D03*
X134950000Y-115900000D03*
X166600000Y-100337500D03*
X135400000Y-87600000D03*
X166600000Y-101800000D03*
X148000000Y-87600000D03*
X138300000Y-84000000D03*
X137450000Y-90250000D03*
X159400000Y-86725000D03*
X128700000Y-91700000D03*
X128700000Y-98700000D03*
X164000000Y-98850000D03*
X129700000Y-85700000D03*
X151700000Y-118500000D03*
X133700000Y-80800000D03*
X159700000Y-118500000D03*
X128700000Y-104700000D03*
X134950000Y-115100000D03*
X142700000Y-80800000D03*
X159000000Y-116200000D03*
X150700000Y-80800000D03*
X164000000Y-103350000D03*
X154700000Y-118500000D03*
X147800000Y-89400000D03*
X136700000Y-118500000D03*
X158250000Y-100600000D03*
D11*
X152100637Y-105617000D03*
D10*
X166600000Y-95837500D03*
X137500000Y-84000000D03*
X152700000Y-80800000D03*
X152700000Y-118500000D03*
D11*
X152100000Y-101100000D03*
D10*
X154350000Y-101837500D03*
X154250000Y-93000000D03*
X155700000Y-118500000D03*
D11*
X152100000Y-96600000D03*
D10*
X154875000Y-90675000D03*
X153700000Y-80800000D03*
X140550000Y-91200000D03*
X143650000Y-116750000D03*
X137900000Y-116700000D03*
X164000000Y-97350000D03*
X128700000Y-87700000D03*
X128700000Y-93700000D03*
X136700000Y-80800000D03*
X137700000Y-80800000D03*
X164800000Y-113350000D03*
X128700000Y-95700000D03*
X166600000Y-94337500D03*
X147600000Y-84100000D03*
X161600000Y-93350000D03*
D11*
X153600000Y-101137500D03*
D10*
X150600000Y-108020000D03*
X157200000Y-85400000D03*
X155850000Y-104700000D03*
X155700000Y-80800000D03*
X161700000Y-105850000D03*
X132620000Y-113300000D03*
X152900000Y-94300000D03*
D11*
X150600000Y-93600000D03*
D10*
X131700000Y-85700000D03*
X140700000Y-116700000D03*
X137450000Y-89450000D03*
X134300000Y-109700000D03*
D11*
X147600637Y-105587082D03*
D10*
X152900000Y-93000000D03*
X137900000Y-115900000D03*
X138300000Y-90250000D03*
X161700000Y-80800000D03*
X128700000Y-89700000D03*
D11*
X140100000Y-101100000D03*
D10*
X156600000Y-96375000D03*
D11*
X140100000Y-104100000D03*
D10*
X128700000Y-100700000D03*
X148000000Y-88300000D03*
X155850000Y-100325000D03*
X147000000Y-90200000D03*
D11*
X143100000Y-93600000D03*
D10*
X143700000Y-118500000D03*
X143700000Y-80800000D03*
X130500000Y-110500000D03*
X133577500Y-108922500D03*
X143650000Y-115950000D03*
X154350000Y-103350000D03*
X144700000Y-118500000D03*
X155850000Y-103000000D03*
X150700000Y-118500000D03*
X153300000Y-87000000D03*
X160700000Y-118500000D03*
X154350000Y-100337500D03*
X128700000Y-109700000D03*
X148700000Y-80800000D03*
X140700000Y-80800000D03*
X144590000Y-86300000D03*
X154850000Y-89850000D03*
X166600000Y-98837500D03*
X134950000Y-116700000D03*
X156050000Y-84200000D03*
X133700000Y-116700000D03*
X159700000Y-80800000D03*
X146750000Y-84100000D03*
X128700000Y-111700000D03*
X128700000Y-105700000D03*
X128700000Y-107700000D03*
X128700000Y-86700000D03*
X140700000Y-115100000D03*
D11*
X149100637Y-105587082D03*
D10*
X157220000Y-113300000D03*
D11*
X140100000Y-96600000D03*
X153600000Y-104100000D03*
X140100000Y-95100000D03*
D10*
X137700000Y-118500000D03*
X160300000Y-86725000D03*
X140700000Y-115900000D03*
D11*
X152100000Y-102600000D03*
D10*
X147700000Y-80800000D03*
X131250000Y-108900000D03*
X132620000Y-112300000D03*
X166600000Y-103337500D03*
X156900000Y-84200000D03*
X133700000Y-82700000D03*
X135700000Y-80800000D03*
X128700000Y-96700000D03*
D11*
X149100000Y-95100000D03*
D10*
X129700000Y-113700000D03*
X128700000Y-88700000D03*
X166150000Y-93350000D03*
X146700000Y-80800000D03*
X160300000Y-117700000D03*
D11*
X150600637Y-105587082D03*
D10*
X133700000Y-83700000D03*
X149700000Y-118500000D03*
X133700000Y-115700000D03*
X130500000Y-109700000D03*
X128700000Y-106700000D03*
X128700000Y-101700000D03*
D11*
X140100637Y-98087082D03*
D10*
X158250000Y-98850000D03*
X141700000Y-80800000D03*
X144700000Y-80800000D03*
X128700000Y-102700000D03*
X134700000Y-80800000D03*
X166000000Y-105850000D03*
X164000000Y-101850000D03*
X154700000Y-80800000D03*
X133700000Y-118500000D03*
X158700000Y-80800000D03*
X154250000Y-94300000D03*
X151525001Y-108300001D03*
D11*
X141600000Y-93600000D03*
D10*
X157700000Y-80800000D03*
X160300000Y-85925000D03*
X128700000Y-110700000D03*
X147800000Y-90200000D03*
X130700000Y-113700000D03*
X166600000Y-97337500D03*
X149166666Y-117200000D03*
X128700000Y-113700000D03*
D11*
X152100000Y-93600000D03*
D10*
X137900000Y-115100000D03*
X147600000Y-83400000D03*
X159100000Y-98850000D03*
X134700000Y-118500000D03*
X145700000Y-80800000D03*
X156700000Y-118500000D03*
X148750000Y-113200000D03*
X128700000Y-103700000D03*
X135700000Y-118500000D03*
X138600000Y-86050000D03*
X132700000Y-84700000D03*
D11*
X140100000Y-102600000D03*
D10*
X131700000Y-113700000D03*
X142700000Y-118500000D03*
X157200000Y-86100000D03*
X146700000Y-118500000D03*
X139700000Y-80800000D03*
D11*
X147600000Y-93600000D03*
D10*
X161750000Y-109000000D03*
X161700000Y-118500000D03*
X132700000Y-114700000D03*
X156900000Y-83500000D03*
X154350000Y-104750000D03*
X141700000Y-118500000D03*
X130700000Y-85700000D03*
X143650000Y-115150000D03*
X164000000Y-95850000D03*
X128700000Y-92700000D03*
X139700000Y-118500000D03*
X147700000Y-118500000D03*
X130767500Y-112300000D03*
X164850000Y-107700000D03*
X156700000Y-80800000D03*
X151250000Y-113430000D03*
X140700000Y-118500000D03*
X153474999Y-108300001D03*
X147000000Y-89400000D03*
X158350000Y-111900000D03*
X156050000Y-83500000D03*
X159400000Y-85925000D03*
X145300000Y-112200000D03*
X133700000Y-81700000D03*
X137500000Y-83300000D03*
D11*
X149100000Y-93637500D03*
D10*
X128700000Y-97700000D03*
X158700000Y-118500000D03*
X164000000Y-94350000D03*
X158250000Y-97050000D03*
X154000000Y-90700000D03*
X128700000Y-108700000D03*
X164000000Y-100350000D03*
X128700000Y-112700000D03*
X148700000Y-118500000D03*
X138700000Y-80800000D03*
X128700000Y-94700000D03*
X138600000Y-85300000D03*
X162750000Y-109000000D03*
X160700000Y-80800000D03*
D11*
G04 #@! TO.N,+1V2*
X150600000Y-107100000D03*
X143100000Y-107100000D03*
D10*
X144000000Y-90200000D03*
X148700000Y-90737500D03*
D11*
X150600000Y-102600000D03*
X150600000Y-92100000D03*
D10*
X149300000Y-90737500D03*
X149300000Y-90100000D03*
D11*
X147600000Y-92100000D03*
X149100000Y-96600000D03*
X152100000Y-107100000D03*
X150600000Y-96600000D03*
X147600000Y-107100000D03*
X143100000Y-92100000D03*
X150600000Y-101100000D03*
X152100000Y-92100000D03*
D10*
X149300000Y-89437500D03*
D11*
X153600000Y-102600000D03*
D10*
X148700000Y-90100000D03*
X148700000Y-89437500D03*
X144590000Y-87450000D03*
G04 #@! TO.N,+2V9*
X139200000Y-89400000D03*
D11*
X138600000Y-104100000D03*
D10*
X139900000Y-89400000D03*
D11*
X143100000Y-104100000D03*
D10*
X139900000Y-90200000D03*
D11*
X138600000Y-99600000D03*
X138600000Y-102600000D03*
D10*
X139200000Y-90200000D03*
D11*
X138600000Y-96600000D03*
X141600000Y-92100000D03*
X138600000Y-95100000D03*
D10*
X141600000Y-90200000D03*
D11*
X141600000Y-107100000D03*
G04 #@! TO.N,+1V8*
X149100000Y-104100000D03*
D10*
X159350000Y-87775000D03*
X133580000Y-112300000D03*
X160250000Y-88525000D03*
X159800000Y-90150000D03*
X146000000Y-112600000D03*
D11*
X153600637Y-105587082D03*
D10*
X159350000Y-88525000D03*
X141190000Y-112700000D03*
X151250000Y-112470000D03*
X137410000Y-112700000D03*
X131700000Y-112300000D03*
X132912500Y-108500000D03*
X133580000Y-113300000D03*
X160249815Y-87774772D03*
G04 #@! TO.N,+3V3*
X147112500Y-81800000D03*
X147712500Y-82400000D03*
X162750000Y-110000000D03*
X161750000Y-110000000D03*
X156812500Y-82500000D03*
X147112500Y-82400000D03*
X164600000Y-104850000D03*
X137650000Y-82337500D03*
X145300000Y-113700000D03*
X156212500Y-82500000D03*
X137650000Y-81737500D03*
X138250000Y-82337500D03*
X147712500Y-81800000D03*
X156212500Y-81900000D03*
X153300000Y-83600000D03*
X144050000Y-82010000D03*
X149850000Y-114800000D03*
X138250000Y-81737500D03*
X156812500Y-81900000D03*
X165250000Y-104850000D03*
X165900000Y-104850000D03*
X158180000Y-113300000D03*
X150600000Y-110900000D03*
D11*
G04 #@! TO.N,Net-(C28-Pad1)*
X141600000Y-95100000D03*
G04 #@! TO.N,Net-(C29-Pad1)*
X141600000Y-96600000D03*
G04 #@! TO.N,Net-(C31-Pad1)*
X141600637Y-98087082D03*
G04 #@! TO.N,Net-(C32-Pad1)*
X140100000Y-99600000D03*
D10*
G04 #@! TO.N,SCL_3V3*
X159200000Y-110700000D03*
X159200000Y-111750000D03*
G04 #@! TO.N,SDA_3V3*
X159800000Y-111200000D03*
X153650000Y-113000000D03*
X159750000Y-112300000D03*
X152000000Y-114950000D03*
X152150000Y-113050000D03*
G04 #@! TO.N,RST_1V8*
X146500000Y-115287500D03*
X149200000Y-108800000D03*
X152100000Y-103690000D03*
G04 #@! TO.N,SCL_1V8*
X132412500Y-107600000D03*
D11*
X150600000Y-104100000D03*
D10*
X148750000Y-111950000D03*
D11*
G04 #@! TO.N,SDA_1V8*
X147600000Y-104100000D03*
D10*
X148025000Y-111925000D03*
X131912500Y-108100000D03*
D11*
G04 #@! TO.N,XHS*
X146100637Y-105587082D03*
G04 #@! TO.N,XVS*
X144600637Y-105587082D03*
G04 #@! TO.N,CLOCK*
X153600000Y-93600000D03*
D10*
G04 #@! TO.N,CAM_D2_N*
X158700000Y-99511500D03*
G04 #@! TO.N,CAM_D0_N*
X155500000Y-99600000D03*
G04 #@! TO.N,CAM_CLK_N*
X158700000Y-97611500D03*
G04 #@! TO.N,CAM_D1_N*
X155500000Y-102400000D03*
G04 #@! TO.N,CAM_D3_N*
X155550000Y-104100000D03*
G04 #@! TO.N,CAM_D2_P*
X158700000Y-100088500D03*
G04 #@! TO.N,CAM_D0_P*
X156200000Y-99600000D03*
G04 #@! TO.N,CAM_CLK_P*
X158700000Y-98188500D03*
G04 #@! TO.N,CAM_D1_P*
X156200000Y-102400000D03*
G04 #@! TO.N,CAM_D3_P*
X156150000Y-104100000D03*
G04 #@! TO.N,CAM_EN*
X142000000Y-84800000D03*
X156250000Y-84800000D03*
X137650000Y-84850000D03*
X147000000Y-87450000D03*
X160950000Y-84800000D03*
G04 #@! TO.N,Net-(J1-Pad6)*
X163400000Y-102350000D03*
X163000000Y-89525000D03*
G04 #@! TD*
G04 #@! TA.AperFunction,Conductor*
G04 #@! TO.N,GND*
G36*
X163707109Y-80120822D02*
G01*
X163737549Y-80173545D01*
X163726977Y-80233500D01*
X163680341Y-80272633D01*
X163679324Y-80272995D01*
X163654121Y-80281814D01*
X163641586Y-80286201D01*
X163388552Y-80408055D01*
X163388548Y-80408058D01*
X163150756Y-80557473D01*
X162931178Y-80732581D01*
X162732581Y-80931178D01*
X162557473Y-81150756D01*
X162408058Y-81388548D01*
X162408055Y-81388552D01*
X162286201Y-81641586D01*
X162286199Y-81641592D01*
X162195778Y-81900002D01*
X162193439Y-81906686D01*
X162130943Y-82180500D01*
X162099500Y-82459568D01*
X162099500Y-82740431D01*
X162130943Y-83019499D01*
X162130944Y-83019506D01*
X162130945Y-83019509D01*
X162193440Y-83293318D01*
X162272640Y-83519658D01*
X162286201Y-83558413D01*
X162408055Y-83811447D01*
X162408058Y-83811451D01*
X162557473Y-84049243D01*
X162557477Y-84049248D01*
X162732584Y-84268825D01*
X162931175Y-84467416D01*
X163045619Y-84558682D01*
X163150756Y-84642526D01*
X163388548Y-84791941D01*
X163388552Y-84791944D01*
X163591206Y-84889536D01*
X163641592Y-84913801D01*
X163906682Y-85006560D01*
X164180491Y-85069055D01*
X164459575Y-85100500D01*
X164740425Y-85100500D01*
X165019509Y-85069055D01*
X165293318Y-85006560D01*
X165558408Y-84913801D01*
X165811445Y-84791945D01*
X166049248Y-84642523D01*
X166268825Y-84467416D01*
X166467416Y-84268825D01*
X166642523Y-84049248D01*
X166791945Y-83811445D01*
X166913801Y-83558408D01*
X166926994Y-83520703D01*
X166965542Y-83473583D01*
X167025360Y-83462264D01*
X167078459Y-83492044D01*
X167099993Y-83548988D01*
X167100000Y-83550098D01*
X167100000Y-115649901D01*
X167079178Y-115707109D01*
X167026455Y-115737549D01*
X166966500Y-115726977D01*
X166927367Y-115680341D01*
X166926994Y-115679296D01*
X166926527Y-115677961D01*
X166913801Y-115641592D01*
X166791945Y-115388555D01*
X166791944Y-115388552D01*
X166791941Y-115388548D01*
X166642526Y-115150756D01*
X166555252Y-115041318D01*
X166467416Y-114931175D01*
X166268825Y-114732584D01*
X166049248Y-114557477D01*
X166049243Y-114557473D01*
X165811451Y-114408058D01*
X165811447Y-114408055D01*
X165558413Y-114286201D01*
X165558409Y-114286199D01*
X165558408Y-114286199D01*
X165293318Y-114193440D01*
X165019509Y-114130945D01*
X165019506Y-114130944D01*
X165019499Y-114130943D01*
X164740431Y-114099500D01*
X164740425Y-114099500D01*
X164459575Y-114099500D01*
X164459568Y-114099500D01*
X164180500Y-114130943D01*
X164180491Y-114130944D01*
X164180491Y-114130945D01*
X163906682Y-114193440D01*
X163694425Y-114267711D01*
X163641586Y-114286201D01*
X163388552Y-114408055D01*
X163388548Y-114408058D01*
X163150756Y-114557473D01*
X162931178Y-114732581D01*
X162732581Y-114931178D01*
X162557473Y-115150756D01*
X162408058Y-115388548D01*
X162408055Y-115388552D01*
X162286201Y-115641586D01*
X162282903Y-115651010D01*
X162256322Y-115726977D01*
X162193439Y-115906686D01*
X162130943Y-116180500D01*
X162099500Y-116459568D01*
X162099500Y-116740431D01*
X162130943Y-117019499D01*
X162130944Y-117019506D01*
X162130945Y-117019509D01*
X162193440Y-117293318D01*
X162286199Y-117558408D01*
X162286201Y-117558413D01*
X162408055Y-117811447D01*
X162408058Y-117811451D01*
X162557473Y-118049243D01*
X162557477Y-118049248D01*
X162732584Y-118268825D01*
X162931175Y-118467416D01*
X162931178Y-118467418D01*
X163150756Y-118642526D01*
X163388548Y-118791941D01*
X163388552Y-118791944D01*
X163591206Y-118889536D01*
X163641592Y-118913801D01*
X163679296Y-118926994D01*
X163726417Y-118965543D01*
X163737735Y-119025361D01*
X163707955Y-119078460D01*
X163651010Y-119099993D01*
X163649901Y-119100000D01*
X131550099Y-119100000D01*
X131492891Y-119079178D01*
X131462451Y-119026455D01*
X131473023Y-118966500D01*
X131519659Y-118927367D01*
X131520675Y-118927004D01*
X131558408Y-118913801D01*
X131811445Y-118791945D01*
X132049248Y-118642523D01*
X132268825Y-118467416D01*
X132467416Y-118268825D01*
X132642523Y-118049248D01*
X132791945Y-117811445D01*
X132913801Y-117558408D01*
X133006560Y-117293318D01*
X133069055Y-117019509D01*
X133100500Y-116740425D01*
X133100500Y-116459575D01*
X133069055Y-116180491D01*
X133006560Y-115906682D01*
X132913801Y-115641592D01*
X132791945Y-115388555D01*
X132791944Y-115388552D01*
X132791941Y-115388548D01*
X132728446Y-115287497D01*
X146089445Y-115287497D01*
X146089445Y-115287502D01*
X146109537Y-115414364D01*
X146109538Y-115414366D01*
X146109538Y-115414367D01*
X146109539Y-115414368D01*
X146167854Y-115528818D01*
X146258682Y-115619646D01*
X146373132Y-115677961D01*
X146373133Y-115677961D01*
X146373135Y-115677962D01*
X146499998Y-115698055D01*
X146500000Y-115698055D01*
X146500002Y-115698055D01*
X146626864Y-115677962D01*
X146626865Y-115677961D01*
X146626868Y-115677961D01*
X146741318Y-115619646D01*
X146832146Y-115528818D01*
X146890461Y-115414368D01*
X146894550Y-115388555D01*
X146910555Y-115287502D01*
X146910555Y-115287497D01*
X146890462Y-115160635D01*
X146890461Y-115160633D01*
X146890461Y-115160632D01*
X146832146Y-115046182D01*
X146741318Y-114955354D01*
X146626868Y-114897039D01*
X146626867Y-114897038D01*
X146626866Y-114897038D01*
X146626864Y-114897037D01*
X146500002Y-114876945D01*
X146499998Y-114876945D01*
X146373135Y-114897037D01*
X146373133Y-114897038D01*
X146258683Y-114955353D01*
X146167853Y-115046183D01*
X146109538Y-115160633D01*
X146109537Y-115160635D01*
X146089445Y-115287497D01*
X132728446Y-115287497D01*
X132642526Y-115150756D01*
X132555252Y-115041318D01*
X132467416Y-114931175D01*
X132336238Y-114799997D01*
X149439445Y-114799997D01*
X149439445Y-114800002D01*
X149459537Y-114926864D01*
X149459538Y-114926866D01*
X149459538Y-114926867D01*
X149459539Y-114926868D01*
X149517854Y-115041318D01*
X149608682Y-115132146D01*
X149723132Y-115190461D01*
X149723133Y-115190461D01*
X149723135Y-115190462D01*
X149849998Y-115210555D01*
X149850000Y-115210555D01*
X149850002Y-115210555D01*
X149976864Y-115190462D01*
X149976865Y-115190461D01*
X149976868Y-115190461D01*
X150091318Y-115132146D01*
X150182146Y-115041318D01*
X150228676Y-114949997D01*
X151589445Y-114949997D01*
X151589445Y-114950002D01*
X151609537Y-115076864D01*
X151609538Y-115076866D01*
X151609538Y-115076867D01*
X151609539Y-115076868D01*
X151667854Y-115191318D01*
X151758682Y-115282146D01*
X151873132Y-115340461D01*
X151873133Y-115340461D01*
X151873135Y-115340462D01*
X151999998Y-115360555D01*
X152000000Y-115360555D01*
X152000002Y-115360555D01*
X152126864Y-115340462D01*
X152126865Y-115340461D01*
X152126868Y-115340461D01*
X152241318Y-115282146D01*
X152332146Y-115191318D01*
X152390461Y-115076868D01*
X152395322Y-115046182D01*
X152410555Y-114950002D01*
X152410555Y-114949997D01*
X152390462Y-114823135D01*
X152390461Y-114823133D01*
X152390461Y-114823132D01*
X152332146Y-114708682D01*
X152241318Y-114617854D01*
X152126868Y-114559539D01*
X152126867Y-114559538D01*
X152126866Y-114559538D01*
X152126864Y-114559537D01*
X152000002Y-114539445D01*
X151999998Y-114539445D01*
X151873135Y-114559537D01*
X151873133Y-114559538D01*
X151758683Y-114617853D01*
X151667853Y-114708683D01*
X151609538Y-114823133D01*
X151609537Y-114823135D01*
X151589445Y-114949997D01*
X150228676Y-114949997D01*
X150240461Y-114926868D01*
X150245186Y-114897039D01*
X150260555Y-114800002D01*
X150260555Y-114799997D01*
X150240462Y-114673135D01*
X150240461Y-114673133D01*
X150240461Y-114673132D01*
X150182146Y-114558682D01*
X150091318Y-114467854D01*
X149976868Y-114409539D01*
X149976867Y-114409538D01*
X149976866Y-114409538D01*
X149976864Y-114409537D01*
X149850002Y-114389445D01*
X149849998Y-114389445D01*
X149723135Y-114409537D01*
X149723133Y-114409538D01*
X149608683Y-114467853D01*
X149517853Y-114558683D01*
X149459538Y-114673133D01*
X149459537Y-114673135D01*
X149439445Y-114799997D01*
X132336238Y-114799997D01*
X132268825Y-114732584D01*
X132049248Y-114557477D01*
X132049243Y-114557473D01*
X131811451Y-114408058D01*
X131811447Y-114408055D01*
X131558413Y-114286201D01*
X131558409Y-114286199D01*
X131558408Y-114286199D01*
X131293318Y-114193440D01*
X131019509Y-114130945D01*
X131019506Y-114130944D01*
X131019499Y-114130943D01*
X130740431Y-114099500D01*
X130740425Y-114099500D01*
X130459575Y-114099500D01*
X130459568Y-114099500D01*
X130180500Y-114130943D01*
X130180491Y-114130944D01*
X130180491Y-114130945D01*
X129906682Y-114193440D01*
X129694425Y-114267711D01*
X129641586Y-114286201D01*
X129388552Y-114408055D01*
X129388548Y-114408058D01*
X129150756Y-114557473D01*
X128931178Y-114732581D01*
X128732581Y-114931178D01*
X128557473Y-115150756D01*
X128408058Y-115388548D01*
X128408055Y-115388552D01*
X128286201Y-115641586D01*
X128273006Y-115679296D01*
X128234457Y-115726417D01*
X128174639Y-115737735D01*
X128121540Y-115707955D01*
X128100007Y-115651010D01*
X128100000Y-115649901D01*
X128100000Y-113299997D01*
X133169445Y-113299997D01*
X133169445Y-113300002D01*
X133189537Y-113426864D01*
X133189538Y-113426866D01*
X133189538Y-113426867D01*
X133189539Y-113426868D01*
X133247854Y-113541318D01*
X133338682Y-113632146D01*
X133453132Y-113690461D01*
X133453133Y-113690461D01*
X133453135Y-113690462D01*
X133579998Y-113710555D01*
X133580000Y-113710555D01*
X133580002Y-113710555D01*
X133646662Y-113699997D01*
X144889445Y-113699997D01*
X144889445Y-113700002D01*
X144909537Y-113826864D01*
X144909538Y-113826866D01*
X144909538Y-113826867D01*
X144909539Y-113826868D01*
X144967854Y-113941318D01*
X145058682Y-114032146D01*
X145173132Y-114090461D01*
X145173133Y-114090461D01*
X145173135Y-114090462D01*
X145299998Y-114110555D01*
X145300000Y-114110555D01*
X145300002Y-114110555D01*
X145426864Y-114090462D01*
X145426865Y-114090461D01*
X145426868Y-114090461D01*
X145541318Y-114032146D01*
X145632146Y-113941318D01*
X145690461Y-113826868D01*
X145708884Y-113710555D01*
X145710555Y-113700002D01*
X145710555Y-113699997D01*
X145690462Y-113573135D01*
X145690461Y-113573133D01*
X145690461Y-113573132D01*
X145632146Y-113458682D01*
X145541318Y-113367854D01*
X145426868Y-113309539D01*
X145426867Y-113309538D01*
X145426866Y-113309538D01*
X145426864Y-113309537D01*
X145300002Y-113289445D01*
X145299998Y-113289445D01*
X145173135Y-113309537D01*
X145173133Y-113309538D01*
X145058683Y-113367853D01*
X144967853Y-113458683D01*
X144909538Y-113573133D01*
X144909537Y-113573135D01*
X144889445Y-113699997D01*
X133646662Y-113699997D01*
X133706864Y-113690462D01*
X133706865Y-113690461D01*
X133706868Y-113690461D01*
X133821318Y-113632146D01*
X133912146Y-113541318D01*
X133970461Y-113426868D01*
X133976228Y-113390462D01*
X133990555Y-113300002D01*
X133990555Y-113299997D01*
X133970462Y-113173135D01*
X133970461Y-113173133D01*
X133970461Y-113173132D01*
X133912146Y-113058682D01*
X133821318Y-112967854D01*
X133706868Y-112909539D01*
X133706867Y-112909538D01*
X133706866Y-112909538D01*
X133706864Y-112909537D01*
X133580002Y-112889445D01*
X133579998Y-112889445D01*
X133453135Y-112909537D01*
X133453133Y-112909538D01*
X133338683Y-112967853D01*
X133247853Y-113058683D01*
X133189538Y-113173133D01*
X133189537Y-113173135D01*
X133169445Y-113299997D01*
X128100000Y-113299997D01*
X128100000Y-112299997D01*
X131289445Y-112299997D01*
X131289445Y-112300002D01*
X131309537Y-112426864D01*
X131309538Y-112426866D01*
X131309538Y-112426867D01*
X131309539Y-112426868D01*
X131367854Y-112541318D01*
X131458682Y-112632146D01*
X131573132Y-112690461D01*
X131573133Y-112690461D01*
X131573135Y-112690462D01*
X131699998Y-112710555D01*
X131700000Y-112710555D01*
X131700002Y-112710555D01*
X131826864Y-112690462D01*
X131826865Y-112690461D01*
X131826868Y-112690461D01*
X131941318Y-112632146D01*
X132032146Y-112541318D01*
X132090461Y-112426868D01*
X132101261Y-112358683D01*
X132110555Y-112300002D01*
X132110555Y-112299997D01*
X133169445Y-112299997D01*
X133169445Y-112300002D01*
X133189537Y-112426864D01*
X133189538Y-112426866D01*
X133189538Y-112426867D01*
X133189539Y-112426868D01*
X133247854Y-112541318D01*
X133338682Y-112632146D01*
X133453132Y-112690461D01*
X133453133Y-112690461D01*
X133453135Y-112690462D01*
X133579998Y-112710555D01*
X133580000Y-112710555D01*
X133580002Y-112710555D01*
X133646662Y-112699997D01*
X136999445Y-112699997D01*
X136999445Y-112700002D01*
X137019537Y-112826864D01*
X137019538Y-112826866D01*
X137019538Y-112826867D01*
X137019539Y-112826868D01*
X137077854Y-112941318D01*
X137168682Y-113032146D01*
X137283132Y-113090461D01*
X137283133Y-113090461D01*
X137283135Y-113090462D01*
X137409998Y-113110555D01*
X137410000Y-113110555D01*
X137410002Y-113110555D01*
X137536864Y-113090462D01*
X137536865Y-113090461D01*
X137536868Y-113090461D01*
X137651318Y-113032146D01*
X137742146Y-112941318D01*
X137800461Y-112826868D01*
X137803342Y-112808683D01*
X137820555Y-112700002D01*
X137820555Y-112699997D01*
X140779445Y-112699997D01*
X140779445Y-112700002D01*
X140799537Y-112826864D01*
X140799538Y-112826866D01*
X140799538Y-112826867D01*
X140799539Y-112826868D01*
X140857854Y-112941318D01*
X140948682Y-113032146D01*
X141063132Y-113090461D01*
X141063133Y-113090461D01*
X141063135Y-113090462D01*
X141189998Y-113110555D01*
X141190000Y-113110555D01*
X141190002Y-113110555D01*
X141316864Y-113090462D01*
X141316865Y-113090461D01*
X141316868Y-113090461D01*
X141396283Y-113049997D01*
X151739445Y-113049997D01*
X151739445Y-113050002D01*
X151759537Y-113176864D01*
X151759538Y-113176866D01*
X151759538Y-113176867D01*
X151759539Y-113176868D01*
X151817854Y-113291318D01*
X151908682Y-113382146D01*
X152023132Y-113440461D01*
X152023133Y-113440461D01*
X152023135Y-113440462D01*
X152149998Y-113460555D01*
X152150000Y-113460555D01*
X152150002Y-113460555D01*
X152276864Y-113440462D01*
X152276865Y-113440461D01*
X152276868Y-113440461D01*
X152391318Y-113382146D01*
X152482146Y-113291318D01*
X152540461Y-113176868D01*
X152541053Y-113173135D01*
X152560555Y-113050002D01*
X152560555Y-113049997D01*
X152552636Y-112999997D01*
X153239445Y-112999997D01*
X153239445Y-113000002D01*
X153259537Y-113126864D01*
X153259538Y-113126866D01*
X153259538Y-113126867D01*
X153259539Y-113126868D01*
X153317854Y-113241318D01*
X153408682Y-113332146D01*
X153523132Y-113390461D01*
X153523133Y-113390461D01*
X153523135Y-113390462D01*
X153649998Y-113410555D01*
X153650000Y-113410555D01*
X153650002Y-113410555D01*
X153776864Y-113390462D01*
X153776865Y-113390461D01*
X153776868Y-113390461D01*
X153891318Y-113332146D01*
X153923467Y-113299997D01*
X157769445Y-113299997D01*
X157769445Y-113300002D01*
X157789537Y-113426864D01*
X157789538Y-113426866D01*
X157789538Y-113426867D01*
X157789539Y-113426868D01*
X157847854Y-113541318D01*
X157938682Y-113632146D01*
X158053132Y-113690461D01*
X158053133Y-113690461D01*
X158053135Y-113690462D01*
X158179998Y-113710555D01*
X158180000Y-113710555D01*
X158180002Y-113710555D01*
X158306864Y-113690462D01*
X158306865Y-113690461D01*
X158306868Y-113690461D01*
X158421318Y-113632146D01*
X158512146Y-113541318D01*
X158570461Y-113426868D01*
X158576228Y-113390462D01*
X158590555Y-113300002D01*
X158590555Y-113299997D01*
X158570462Y-113173135D01*
X158570461Y-113173133D01*
X158570461Y-113173132D01*
X158512146Y-113058682D01*
X158421318Y-112967854D01*
X158306868Y-112909539D01*
X158306867Y-112909538D01*
X158306866Y-112909538D01*
X158306864Y-112909537D01*
X158180002Y-112889445D01*
X158179998Y-112889445D01*
X158053135Y-112909537D01*
X158053133Y-112909538D01*
X157938683Y-112967853D01*
X157847853Y-113058683D01*
X157789538Y-113173133D01*
X157789537Y-113173135D01*
X157769445Y-113299997D01*
X153923467Y-113299997D01*
X153982146Y-113241318D01*
X154040461Y-113126868D01*
X154046228Y-113090462D01*
X154060555Y-113000002D01*
X154060555Y-112999997D01*
X154040462Y-112873135D01*
X154040461Y-112873133D01*
X154040461Y-112873132D01*
X153982146Y-112758682D01*
X153891318Y-112667854D01*
X153776868Y-112609539D01*
X153776867Y-112609538D01*
X153776866Y-112609538D01*
X153776864Y-112609537D01*
X153650002Y-112589445D01*
X153649998Y-112589445D01*
X153523135Y-112609537D01*
X153523133Y-112609538D01*
X153408683Y-112667853D01*
X153317853Y-112758683D01*
X153259538Y-112873133D01*
X153259537Y-112873135D01*
X153239445Y-112999997D01*
X152552636Y-112999997D01*
X152540462Y-112923135D01*
X152540461Y-112923133D01*
X152540461Y-112923132D01*
X152482146Y-112808682D01*
X152391318Y-112717854D01*
X152276868Y-112659539D01*
X152276867Y-112659538D01*
X152276866Y-112659538D01*
X152276864Y-112659537D01*
X152150002Y-112639445D01*
X152149998Y-112639445D01*
X152023135Y-112659537D01*
X152023133Y-112659538D01*
X151908683Y-112717853D01*
X151817853Y-112808683D01*
X151759538Y-112923133D01*
X151759537Y-112923135D01*
X151739445Y-113049997D01*
X141396283Y-113049997D01*
X141431318Y-113032146D01*
X141522146Y-112941318D01*
X141580461Y-112826868D01*
X141583342Y-112808683D01*
X141600555Y-112700002D01*
X141600555Y-112699997D01*
X141584717Y-112599997D01*
X145589445Y-112599997D01*
X145589445Y-112600002D01*
X145609537Y-112726864D01*
X145609538Y-112726866D01*
X145609538Y-112726867D01*
X145609539Y-112726868D01*
X145667854Y-112841318D01*
X145758682Y-112932146D01*
X145873132Y-112990461D01*
X145873133Y-112990461D01*
X145873135Y-112990462D01*
X145999998Y-113010555D01*
X146000000Y-113010555D01*
X146000002Y-113010555D01*
X146126864Y-112990462D01*
X146126865Y-112990461D01*
X146126868Y-112990461D01*
X146241318Y-112932146D01*
X146332146Y-112841318D01*
X146390461Y-112726868D01*
X146392925Y-112711316D01*
X146410555Y-112600002D01*
X146410555Y-112599997D01*
X146390462Y-112473135D01*
X146390461Y-112473133D01*
X146390461Y-112473132D01*
X146388864Y-112469997D01*
X150839445Y-112469997D01*
X150839445Y-112470002D01*
X150859537Y-112596864D01*
X150859538Y-112596866D01*
X150859538Y-112596867D01*
X150859539Y-112596868D01*
X150917854Y-112711318D01*
X151008682Y-112802146D01*
X151123132Y-112860461D01*
X151123133Y-112860461D01*
X151123135Y-112860462D01*
X151249998Y-112880555D01*
X151250000Y-112880555D01*
X151250002Y-112880555D01*
X151376864Y-112860462D01*
X151376865Y-112860461D01*
X151376868Y-112860461D01*
X151491318Y-112802146D01*
X151582146Y-112711318D01*
X151640461Y-112596868D01*
X151644221Y-112573133D01*
X151660555Y-112470002D01*
X151660555Y-112469997D01*
X151640462Y-112343135D01*
X151640461Y-112343133D01*
X151640461Y-112343132D01*
X151582146Y-112228682D01*
X151491318Y-112137854D01*
X151376868Y-112079539D01*
X151376867Y-112079538D01*
X151376866Y-112079538D01*
X151376864Y-112079537D01*
X151250002Y-112059445D01*
X151249998Y-112059445D01*
X151123135Y-112079537D01*
X151123133Y-112079538D01*
X151008683Y-112137853D01*
X150917853Y-112228683D01*
X150859538Y-112343133D01*
X150859537Y-112343135D01*
X150839445Y-112469997D01*
X146388864Y-112469997D01*
X146332146Y-112358682D01*
X146241318Y-112267854D01*
X146126868Y-112209539D01*
X146126867Y-112209538D01*
X146126866Y-112209538D01*
X146126864Y-112209537D01*
X146000002Y-112189445D01*
X145999998Y-112189445D01*
X145873135Y-112209537D01*
X145873133Y-112209538D01*
X145758683Y-112267853D01*
X145667853Y-112358683D01*
X145609538Y-112473133D01*
X145609537Y-112473135D01*
X145589445Y-112599997D01*
X141584717Y-112599997D01*
X141580462Y-112573135D01*
X141580461Y-112573133D01*
X141580461Y-112573132D01*
X141522146Y-112458682D01*
X141431318Y-112367854D01*
X141316868Y-112309539D01*
X141316867Y-112309538D01*
X141316866Y-112309538D01*
X141316864Y-112309537D01*
X141190002Y-112289445D01*
X141189998Y-112289445D01*
X141063135Y-112309537D01*
X141063133Y-112309538D01*
X140948683Y-112367853D01*
X140857853Y-112458683D01*
X140799538Y-112573133D01*
X140799537Y-112573135D01*
X140779445Y-112699997D01*
X137820555Y-112699997D01*
X137800462Y-112573135D01*
X137800461Y-112573133D01*
X137800461Y-112573132D01*
X137742146Y-112458682D01*
X137651318Y-112367854D01*
X137536868Y-112309539D01*
X137536867Y-112309538D01*
X137536866Y-112309538D01*
X137536864Y-112309537D01*
X137410002Y-112289445D01*
X137409998Y-112289445D01*
X137283135Y-112309537D01*
X137283133Y-112309538D01*
X137168683Y-112367853D01*
X137077853Y-112458683D01*
X137019538Y-112573133D01*
X137019537Y-112573135D01*
X136999445Y-112699997D01*
X133646662Y-112699997D01*
X133706864Y-112690462D01*
X133706865Y-112690461D01*
X133706868Y-112690461D01*
X133821318Y-112632146D01*
X133912146Y-112541318D01*
X133970461Y-112426868D01*
X133981261Y-112358683D01*
X133990555Y-112300002D01*
X133990555Y-112299997D01*
X133970462Y-112173135D01*
X133970461Y-112173133D01*
X133970461Y-112173132D01*
X133912146Y-112058682D01*
X133821318Y-111967854D01*
X133737206Y-111924997D01*
X147614445Y-111924997D01*
X147614445Y-111925002D01*
X147634537Y-112051864D01*
X147634538Y-112051866D01*
X147634538Y-112051867D01*
X147634539Y-112051868D01*
X147692854Y-112166318D01*
X147783682Y-112257146D01*
X147898132Y-112315461D01*
X147898133Y-112315461D01*
X147898135Y-112315462D01*
X148024998Y-112335555D01*
X148025000Y-112335555D01*
X148025002Y-112335555D01*
X148151864Y-112315462D01*
X148151865Y-112315461D01*
X148151868Y-112315461D01*
X148266318Y-112257146D01*
X148312068Y-112211395D01*
X148367243Y-112185668D01*
X148426048Y-112201424D01*
X148437926Y-112211390D01*
X148508682Y-112282146D01*
X148623132Y-112340461D01*
X148623133Y-112340461D01*
X148623135Y-112340462D01*
X148749998Y-112360555D01*
X148750000Y-112360555D01*
X148750002Y-112360555D01*
X148876864Y-112340462D01*
X148876865Y-112340461D01*
X148876868Y-112340461D01*
X148991318Y-112282146D01*
X149082146Y-112191318D01*
X149140461Y-112076868D01*
X149143342Y-112058683D01*
X149160555Y-111950002D01*
X149160555Y-111949997D01*
X149140462Y-111823135D01*
X149140461Y-111823133D01*
X149140461Y-111823132D01*
X149082146Y-111708682D01*
X148991318Y-111617854D01*
X148876868Y-111559539D01*
X148876867Y-111559538D01*
X148876866Y-111559538D01*
X148876864Y-111559537D01*
X148750002Y-111539445D01*
X148749998Y-111539445D01*
X148623135Y-111559537D01*
X148623133Y-111559538D01*
X148508683Y-111617853D01*
X148508682Y-111617853D01*
X148508682Y-111617854D01*
X148462931Y-111663604D01*
X148407757Y-111689332D01*
X148348952Y-111673576D01*
X148337073Y-111663609D01*
X148266318Y-111592854D01*
X148151868Y-111534539D01*
X148151867Y-111534538D01*
X148151866Y-111534538D01*
X148151864Y-111534537D01*
X148025002Y-111514445D01*
X148024998Y-111514445D01*
X147898135Y-111534537D01*
X147898133Y-111534538D01*
X147783683Y-111592853D01*
X147692853Y-111683683D01*
X147634538Y-111798133D01*
X147634537Y-111798135D01*
X147614445Y-111924997D01*
X133737206Y-111924997D01*
X133706868Y-111909539D01*
X133706867Y-111909538D01*
X133706866Y-111909538D01*
X133706864Y-111909537D01*
X133580002Y-111889445D01*
X133579998Y-111889445D01*
X133453135Y-111909537D01*
X133453133Y-111909538D01*
X133338683Y-111967853D01*
X133247853Y-112058683D01*
X133189538Y-112173133D01*
X133189537Y-112173135D01*
X133169445Y-112299997D01*
X132110555Y-112299997D01*
X132090462Y-112173135D01*
X132090461Y-112173133D01*
X132090461Y-112173132D01*
X132032146Y-112058682D01*
X131941318Y-111967854D01*
X131826868Y-111909539D01*
X131826867Y-111909538D01*
X131826866Y-111909538D01*
X131826864Y-111909537D01*
X131700002Y-111889445D01*
X131699998Y-111889445D01*
X131573135Y-111909537D01*
X131573133Y-111909538D01*
X131458683Y-111967853D01*
X131367853Y-112058683D01*
X131309538Y-112173133D01*
X131309537Y-112173135D01*
X131289445Y-112299997D01*
X128100000Y-112299997D01*
X128100000Y-110899997D01*
X150189445Y-110899997D01*
X150189445Y-110900002D01*
X150209537Y-111026864D01*
X150209538Y-111026866D01*
X150209538Y-111026867D01*
X150209539Y-111026868D01*
X150267854Y-111141318D01*
X150358682Y-111232146D01*
X150473132Y-111290461D01*
X150473133Y-111290461D01*
X150473135Y-111290462D01*
X150599998Y-111310555D01*
X150600000Y-111310555D01*
X150600002Y-111310555D01*
X150726864Y-111290462D01*
X150726865Y-111290461D01*
X150726868Y-111290461D01*
X150841318Y-111232146D01*
X150932146Y-111141318D01*
X150990461Y-111026868D01*
X151001261Y-110958683D01*
X151010555Y-110900002D01*
X151010555Y-110899997D01*
X150990462Y-110773135D01*
X150990461Y-110773133D01*
X150990461Y-110773132D01*
X150953197Y-110699997D01*
X158789445Y-110699997D01*
X158789445Y-110700002D01*
X158809537Y-110826864D01*
X158809538Y-110826866D01*
X158809538Y-110826867D01*
X158809539Y-110826868D01*
X158867854Y-110941318D01*
X158958682Y-111032146D01*
X159073132Y-111090461D01*
X159073133Y-111090461D01*
X159073135Y-111090462D01*
X159199998Y-111110555D01*
X159200000Y-111110555D01*
X159200001Y-111110555D01*
X159231335Y-111105591D01*
X159287860Y-111096639D01*
X159347621Y-111108255D01*
X159385934Y-111155567D01*
X159389211Y-111192996D01*
X159389445Y-111192996D01*
X159389445Y-111195670D01*
X159389689Y-111198457D01*
X159389445Y-111199998D01*
X159389445Y-111200002D01*
X159397810Y-111252820D01*
X159386193Y-111312581D01*
X159338881Y-111350893D01*
X159295984Y-111354646D01*
X159200002Y-111339445D01*
X159199998Y-111339445D01*
X159073135Y-111359537D01*
X159073133Y-111359538D01*
X158958683Y-111417853D01*
X158867853Y-111508683D01*
X158809538Y-111623133D01*
X158809537Y-111623135D01*
X158789445Y-111749997D01*
X158789445Y-111750002D01*
X158809537Y-111876864D01*
X158809538Y-111876866D01*
X158809538Y-111876867D01*
X158809539Y-111876868D01*
X158867854Y-111991318D01*
X158958682Y-112082146D01*
X159073132Y-112140461D01*
X159073133Y-112140461D01*
X159073135Y-112140462D01*
X159199998Y-112160555D01*
X159199999Y-112160555D01*
X159199999Y-112160554D01*
X159200000Y-112160555D01*
X159244698Y-112153475D01*
X159304457Y-112165090D01*
X159342771Y-112212402D01*
X159346524Y-112255301D01*
X159339445Y-112299997D01*
X159339445Y-112300002D01*
X159359537Y-112426864D01*
X159359538Y-112426866D01*
X159359538Y-112426867D01*
X159359539Y-112426868D01*
X159417854Y-112541318D01*
X159508682Y-112632146D01*
X159623132Y-112690461D01*
X159623133Y-112690461D01*
X159623135Y-112690462D01*
X159749998Y-112710555D01*
X159750000Y-112710555D01*
X159750002Y-112710555D01*
X159876864Y-112690462D01*
X159876865Y-112690461D01*
X159876868Y-112690461D01*
X159991318Y-112632146D01*
X160082146Y-112541318D01*
X160140461Y-112426868D01*
X160151261Y-112358683D01*
X160160555Y-112300002D01*
X160160555Y-112299997D01*
X160140462Y-112173135D01*
X160140461Y-112173133D01*
X160140461Y-112173132D01*
X160082146Y-112058682D01*
X159991318Y-111967854D01*
X159876868Y-111909539D01*
X159876867Y-111909538D01*
X159876866Y-111909538D01*
X159876864Y-111909537D01*
X159750002Y-111889445D01*
X159749998Y-111889445D01*
X159705301Y-111896524D01*
X159645540Y-111884908D01*
X159607228Y-111837595D01*
X159603475Y-111794699D01*
X159610555Y-111750000D01*
X159602189Y-111697179D01*
X159613805Y-111637419D01*
X159661117Y-111599106D01*
X159704015Y-111595353D01*
X159799998Y-111610555D01*
X159800000Y-111610555D01*
X159800002Y-111610555D01*
X159926864Y-111590462D01*
X159926865Y-111590461D01*
X159926868Y-111590461D01*
X160041318Y-111532146D01*
X160132146Y-111441318D01*
X160190461Y-111326868D01*
X160196228Y-111290462D01*
X160210555Y-111200002D01*
X160210555Y-111199997D01*
X160190462Y-111073135D01*
X160190461Y-111073133D01*
X160190461Y-111073132D01*
X160132146Y-110958682D01*
X160041318Y-110867854D01*
X159926868Y-110809539D01*
X159926867Y-110809538D01*
X159926866Y-110809538D01*
X159926864Y-110809537D01*
X159800002Y-110789445D01*
X159799998Y-110789445D01*
X159712138Y-110803360D01*
X159652377Y-110791744D01*
X159614065Y-110744431D01*
X159610791Y-110707004D01*
X159610555Y-110707004D01*
X159610555Y-110704307D01*
X159610312Y-110701532D01*
X159610555Y-110700000D01*
X159600508Y-110636566D01*
X159590462Y-110573135D01*
X159590461Y-110573133D01*
X159590461Y-110573132D01*
X159532146Y-110458682D01*
X159441318Y-110367854D01*
X159326868Y-110309539D01*
X159326867Y-110309538D01*
X159326866Y-110309538D01*
X159326864Y-110309537D01*
X159200002Y-110289445D01*
X159199998Y-110289445D01*
X159073135Y-110309537D01*
X159073133Y-110309538D01*
X158958683Y-110367853D01*
X158867853Y-110458683D01*
X158809538Y-110573133D01*
X158809537Y-110573135D01*
X158789445Y-110699997D01*
X150953197Y-110699997D01*
X150932146Y-110658682D01*
X150841318Y-110567854D01*
X150726868Y-110509539D01*
X150726867Y-110509538D01*
X150726866Y-110509538D01*
X150726864Y-110509537D01*
X150600002Y-110489445D01*
X150599998Y-110489445D01*
X150473135Y-110509537D01*
X150473133Y-110509538D01*
X150358683Y-110567853D01*
X150267853Y-110658683D01*
X150209538Y-110773133D01*
X150209537Y-110773135D01*
X150189445Y-110899997D01*
X128100000Y-110899997D01*
X128100000Y-109999997D01*
X161339445Y-109999997D01*
X161339445Y-110000002D01*
X161359537Y-110126864D01*
X161359538Y-110126866D01*
X161359538Y-110126867D01*
X161359539Y-110126868D01*
X161417854Y-110241318D01*
X161508682Y-110332146D01*
X161623132Y-110390461D01*
X161623133Y-110390461D01*
X161623135Y-110390462D01*
X161749998Y-110410555D01*
X161750000Y-110410555D01*
X161750002Y-110410555D01*
X161876864Y-110390462D01*
X161876865Y-110390461D01*
X161876868Y-110390461D01*
X161991318Y-110332146D01*
X162082146Y-110241318D01*
X162140461Y-110126868D01*
X162160555Y-110000000D01*
X162160555Y-109999997D01*
X162339445Y-109999997D01*
X162339445Y-110000002D01*
X162359537Y-110126864D01*
X162359538Y-110126866D01*
X162359538Y-110126867D01*
X162359539Y-110126868D01*
X162417854Y-110241318D01*
X162508682Y-110332146D01*
X162623132Y-110390461D01*
X162623133Y-110390461D01*
X162623135Y-110390462D01*
X162749998Y-110410555D01*
X162750000Y-110410555D01*
X162750002Y-110410555D01*
X162876864Y-110390462D01*
X162876865Y-110390461D01*
X162876868Y-110390461D01*
X162991318Y-110332146D01*
X163082146Y-110241318D01*
X163140461Y-110126868D01*
X163160555Y-110000000D01*
X163160555Y-109999997D01*
X163140462Y-109873135D01*
X163140461Y-109873133D01*
X163140461Y-109873132D01*
X163082146Y-109758682D01*
X162991318Y-109667854D01*
X162876868Y-109609539D01*
X162876867Y-109609538D01*
X162876866Y-109609538D01*
X162876864Y-109609537D01*
X162750002Y-109589445D01*
X162749998Y-109589445D01*
X162623135Y-109609537D01*
X162623133Y-109609538D01*
X162508683Y-109667853D01*
X162417853Y-109758683D01*
X162359538Y-109873133D01*
X162359537Y-109873135D01*
X162339445Y-109999997D01*
X162160555Y-109999997D01*
X162140462Y-109873135D01*
X162140461Y-109873133D01*
X162140461Y-109873132D01*
X162082146Y-109758682D01*
X161991318Y-109667854D01*
X161876868Y-109609539D01*
X161876867Y-109609538D01*
X161876866Y-109609538D01*
X161876864Y-109609537D01*
X161750002Y-109589445D01*
X161749998Y-109589445D01*
X161623135Y-109609537D01*
X161623133Y-109609538D01*
X161508683Y-109667853D01*
X161417853Y-109758683D01*
X161359538Y-109873133D01*
X161359537Y-109873135D01*
X161339445Y-109999997D01*
X128100000Y-109999997D01*
X128100000Y-108099997D01*
X131501945Y-108099997D01*
X131501945Y-108100002D01*
X131522037Y-108226864D01*
X131522038Y-108226866D01*
X131522038Y-108226867D01*
X131522039Y-108226868D01*
X131580354Y-108341318D01*
X131671182Y-108432146D01*
X131785632Y-108490461D01*
X131785633Y-108490461D01*
X131785635Y-108490462D01*
X131912498Y-108510555D01*
X131912500Y-108510555D01*
X131912502Y-108510555D01*
X131979162Y-108499997D01*
X132501945Y-108499997D01*
X132501945Y-108500002D01*
X132522037Y-108626864D01*
X132522038Y-108626866D01*
X132522038Y-108626867D01*
X132522039Y-108626868D01*
X132580354Y-108741318D01*
X132671182Y-108832146D01*
X132785632Y-108890461D01*
X132785633Y-108890461D01*
X132785635Y-108890462D01*
X132912498Y-108910555D01*
X132912500Y-108910555D01*
X132912502Y-108910555D01*
X133039364Y-108890462D01*
X133039365Y-108890461D01*
X133039368Y-108890461D01*
X133153818Y-108832146D01*
X133185967Y-108799997D01*
X148789445Y-108799997D01*
X148789445Y-108800002D01*
X148809537Y-108926864D01*
X148809538Y-108926866D01*
X148809538Y-108926867D01*
X148809539Y-108926868D01*
X148867854Y-109041318D01*
X148958682Y-109132146D01*
X149073132Y-109190461D01*
X149073133Y-109190461D01*
X149073135Y-109190462D01*
X149199998Y-109210555D01*
X149200000Y-109210555D01*
X149200002Y-109210555D01*
X149326864Y-109190462D01*
X149326865Y-109190461D01*
X149326868Y-109190461D01*
X149441318Y-109132146D01*
X149532146Y-109041318D01*
X149590461Y-108926868D01*
X149596228Y-108890462D01*
X149610555Y-108800002D01*
X149610555Y-108799997D01*
X149590462Y-108673135D01*
X149590461Y-108673133D01*
X149590461Y-108673132D01*
X149532146Y-108558682D01*
X149441318Y-108467854D01*
X149326868Y-108409539D01*
X149326867Y-108409538D01*
X149326866Y-108409538D01*
X149326864Y-108409537D01*
X149200002Y-108389445D01*
X149199998Y-108389445D01*
X149073135Y-108409537D01*
X149073133Y-108409538D01*
X148958683Y-108467853D01*
X148867853Y-108558683D01*
X148809538Y-108673133D01*
X148809537Y-108673135D01*
X148789445Y-108799997D01*
X133185967Y-108799997D01*
X133244646Y-108741318D01*
X133302961Y-108626868D01*
X133313761Y-108558683D01*
X133323055Y-108500002D01*
X133323055Y-108499997D01*
X133302962Y-108373135D01*
X133302961Y-108373133D01*
X133302961Y-108373132D01*
X133244646Y-108258682D01*
X133153818Y-108167854D01*
X133039368Y-108109539D01*
X133039367Y-108109538D01*
X133039366Y-108109538D01*
X133039364Y-108109537D01*
X132912502Y-108089445D01*
X132912498Y-108089445D01*
X132785635Y-108109537D01*
X132785633Y-108109538D01*
X132671183Y-108167853D01*
X132580353Y-108258683D01*
X132522038Y-108373133D01*
X132522037Y-108373135D01*
X132501945Y-108499997D01*
X131979162Y-108499997D01*
X132039364Y-108490462D01*
X132039365Y-108490461D01*
X132039368Y-108490461D01*
X132153818Y-108432146D01*
X132244646Y-108341318D01*
X132302961Y-108226868D01*
X132321545Y-108109538D01*
X132323055Y-108100002D01*
X132323055Y-108099555D01*
X132323180Y-108099210D01*
X132324151Y-108093082D01*
X132325342Y-108093270D01*
X132343877Y-108042347D01*
X132396600Y-108011907D01*
X132412055Y-108010555D01*
X132412502Y-108010555D01*
X132539364Y-107990462D01*
X132539365Y-107990461D01*
X132539368Y-107990461D01*
X132653818Y-107932146D01*
X132744646Y-107841318D01*
X132802961Y-107726868D01*
X132806223Y-107706277D01*
X132823055Y-107600002D01*
X132823055Y-107599997D01*
X132802962Y-107473135D01*
X132802961Y-107473133D01*
X132802961Y-107473132D01*
X132744646Y-107358682D01*
X132653818Y-107267854D01*
X132539368Y-107209539D01*
X132539367Y-107209538D01*
X132539366Y-107209538D01*
X132539364Y-107209537D01*
X132412502Y-107189445D01*
X132412498Y-107189445D01*
X132285635Y-107209537D01*
X132285633Y-107209538D01*
X132171183Y-107267853D01*
X132080353Y-107358683D01*
X132022038Y-107473133D01*
X132022037Y-107473135D01*
X132001945Y-107599997D01*
X132001945Y-107600445D01*
X132001819Y-107600790D01*
X132000849Y-107606917D01*
X131999658Y-107606728D01*
X131981123Y-107657653D01*
X131928400Y-107688093D01*
X131912945Y-107689445D01*
X131912497Y-107689445D01*
X131785635Y-107709537D01*
X131785633Y-107709538D01*
X131671183Y-107767853D01*
X131580353Y-107858683D01*
X131522038Y-107973133D01*
X131522037Y-107973135D01*
X131501945Y-108099997D01*
X128100000Y-108099997D01*
X128100000Y-107099998D01*
X141165073Y-107099998D01*
X141165073Y-107100001D01*
X141182691Y-107222535D01*
X141234114Y-107335136D01*
X141234115Y-107335137D01*
X141234116Y-107335139D01*
X141315183Y-107428696D01*
X141419325Y-107495624D01*
X141538103Y-107530500D01*
X141538106Y-107530500D01*
X141661894Y-107530500D01*
X141661897Y-107530500D01*
X141780675Y-107495624D01*
X141884817Y-107428696D01*
X141965884Y-107335139D01*
X142017309Y-107222533D01*
X142034927Y-107100000D01*
X142034927Y-107099998D01*
X142665073Y-107099998D01*
X142665073Y-107100001D01*
X142682691Y-107222535D01*
X142734114Y-107335136D01*
X142734115Y-107335137D01*
X142734116Y-107335139D01*
X142815183Y-107428696D01*
X142919325Y-107495624D01*
X143038103Y-107530500D01*
X143038106Y-107530500D01*
X143161894Y-107530500D01*
X143161897Y-107530500D01*
X143280675Y-107495624D01*
X143384817Y-107428696D01*
X143465884Y-107335139D01*
X143517309Y-107222533D01*
X143534927Y-107100000D01*
X143534927Y-107099998D01*
X147165073Y-107099998D01*
X147165073Y-107100001D01*
X147182691Y-107222535D01*
X147234114Y-107335136D01*
X147234115Y-107335137D01*
X147234116Y-107335139D01*
X147315183Y-107428696D01*
X147419325Y-107495624D01*
X147538103Y-107530500D01*
X147538106Y-107530500D01*
X147661894Y-107530500D01*
X147661897Y-107530500D01*
X147780675Y-107495624D01*
X147884817Y-107428696D01*
X147965884Y-107335139D01*
X148017309Y-107222533D01*
X148034927Y-107100000D01*
X148034927Y-107099998D01*
X150165073Y-107099998D01*
X150165073Y-107100001D01*
X150182691Y-107222535D01*
X150234114Y-107335136D01*
X150234115Y-107335137D01*
X150234116Y-107335139D01*
X150315183Y-107428696D01*
X150419325Y-107495624D01*
X150538103Y-107530500D01*
X150538106Y-107530500D01*
X150661894Y-107530500D01*
X150661897Y-107530500D01*
X150780675Y-107495624D01*
X150884817Y-107428696D01*
X150965884Y-107335139D01*
X151017309Y-107222533D01*
X151034927Y-107100000D01*
X151034927Y-107099998D01*
X151665073Y-107099998D01*
X151665073Y-107100001D01*
X151682691Y-107222535D01*
X151734114Y-107335136D01*
X151734115Y-107335137D01*
X151734116Y-107335139D01*
X151815183Y-107428696D01*
X151919325Y-107495624D01*
X152038103Y-107530500D01*
X152038106Y-107530500D01*
X152161894Y-107530500D01*
X152161897Y-107530500D01*
X152280675Y-107495624D01*
X152384817Y-107428696D01*
X152465884Y-107335139D01*
X152517309Y-107222533D01*
X152534927Y-107100000D01*
X152517309Y-106977467D01*
X152465884Y-106864861D01*
X152384817Y-106771304D01*
X152280675Y-106704376D01*
X152280673Y-106704375D01*
X152280671Y-106704374D01*
X152161898Y-106669500D01*
X152161897Y-106669500D01*
X152038103Y-106669500D01*
X152038101Y-106669500D01*
X151919328Y-106704374D01*
X151815184Y-106771303D01*
X151734114Y-106864863D01*
X151682691Y-106977464D01*
X151665073Y-107099998D01*
X151034927Y-107099998D01*
X151017309Y-106977467D01*
X150965884Y-106864861D01*
X150884817Y-106771304D01*
X150780675Y-106704376D01*
X150780673Y-106704375D01*
X150780671Y-106704374D01*
X150661898Y-106669500D01*
X150661897Y-106669500D01*
X150538103Y-106669500D01*
X150538101Y-106669500D01*
X150419328Y-106704374D01*
X150315184Y-106771303D01*
X150234114Y-106864863D01*
X150182691Y-106977464D01*
X150165073Y-107099998D01*
X148034927Y-107099998D01*
X148017309Y-106977467D01*
X147965884Y-106864861D01*
X147884817Y-106771304D01*
X147780675Y-106704376D01*
X147780673Y-106704375D01*
X147780671Y-106704374D01*
X147661898Y-106669500D01*
X147661897Y-106669500D01*
X147538103Y-106669500D01*
X147538101Y-106669500D01*
X147419328Y-106704374D01*
X147315184Y-106771303D01*
X147234114Y-106864863D01*
X147182691Y-106977464D01*
X147165073Y-107099998D01*
X143534927Y-107099998D01*
X143517309Y-106977467D01*
X143465884Y-106864861D01*
X143384817Y-106771304D01*
X143280675Y-106704376D01*
X143280673Y-106704375D01*
X143280671Y-106704374D01*
X143161898Y-106669500D01*
X143161897Y-106669500D01*
X143038103Y-106669500D01*
X143038101Y-106669500D01*
X142919328Y-106704374D01*
X142815184Y-106771303D01*
X142734114Y-106864863D01*
X142682691Y-106977464D01*
X142665073Y-107099998D01*
X142034927Y-107099998D01*
X142017309Y-106977467D01*
X141965884Y-106864861D01*
X141884817Y-106771304D01*
X141780675Y-106704376D01*
X141780673Y-106704375D01*
X141780671Y-106704374D01*
X141661898Y-106669500D01*
X141661897Y-106669500D01*
X141538103Y-106669500D01*
X141538101Y-106669500D01*
X141419328Y-106704374D01*
X141315184Y-106771303D01*
X141234114Y-106864863D01*
X141182691Y-106977464D01*
X141165073Y-107099998D01*
X128100000Y-107099998D01*
X128100000Y-105587080D01*
X144165710Y-105587080D01*
X144165710Y-105587083D01*
X144183328Y-105709617D01*
X144234751Y-105822218D01*
X144234752Y-105822219D01*
X144234753Y-105822221D01*
X144315820Y-105915778D01*
X144419962Y-105982706D01*
X144538740Y-106017582D01*
X144538743Y-106017582D01*
X144662531Y-106017582D01*
X144662534Y-106017582D01*
X144781312Y-105982706D01*
X144885454Y-105915778D01*
X144966521Y-105822221D01*
X145017946Y-105709615D01*
X145035564Y-105587082D01*
X145035564Y-105587080D01*
X145665710Y-105587080D01*
X145665710Y-105587083D01*
X145683328Y-105709617D01*
X145734751Y-105822218D01*
X145734752Y-105822219D01*
X145734753Y-105822221D01*
X145815820Y-105915778D01*
X145919962Y-105982706D01*
X146038740Y-106017582D01*
X146038743Y-106017582D01*
X146162531Y-106017582D01*
X146162534Y-106017582D01*
X146281312Y-105982706D01*
X146385454Y-105915778D01*
X146466521Y-105822221D01*
X146517946Y-105709615D01*
X146535564Y-105587082D01*
X146535564Y-105587080D01*
X153165710Y-105587080D01*
X153165710Y-105587083D01*
X153183328Y-105709617D01*
X153234751Y-105822218D01*
X153234752Y-105822219D01*
X153234753Y-105822221D01*
X153315820Y-105915778D01*
X153419962Y-105982706D01*
X153538740Y-106017582D01*
X153538743Y-106017582D01*
X153662531Y-106017582D01*
X153662534Y-106017582D01*
X153781312Y-105982706D01*
X153885454Y-105915778D01*
X153966521Y-105822221D01*
X154017946Y-105709615D01*
X154035564Y-105587082D01*
X154017946Y-105464549D01*
X153966521Y-105351943D01*
X153885454Y-105258386D01*
X153781312Y-105191458D01*
X153781310Y-105191457D01*
X153781308Y-105191456D01*
X153662535Y-105156582D01*
X153662534Y-105156582D01*
X153538740Y-105156582D01*
X153538738Y-105156582D01*
X153419965Y-105191456D01*
X153315821Y-105258385D01*
X153234751Y-105351945D01*
X153183328Y-105464546D01*
X153165710Y-105587080D01*
X146535564Y-105587080D01*
X146517946Y-105464549D01*
X146466521Y-105351943D01*
X146385454Y-105258386D01*
X146281312Y-105191458D01*
X146281310Y-105191457D01*
X146281308Y-105191456D01*
X146162535Y-105156582D01*
X146162534Y-105156582D01*
X146038740Y-105156582D01*
X146038738Y-105156582D01*
X145919965Y-105191456D01*
X145815821Y-105258385D01*
X145734751Y-105351945D01*
X145683328Y-105464546D01*
X145665710Y-105587080D01*
X145035564Y-105587080D01*
X145017946Y-105464549D01*
X144966521Y-105351943D01*
X144885454Y-105258386D01*
X144781312Y-105191458D01*
X144781310Y-105191457D01*
X144781308Y-105191456D01*
X144662535Y-105156582D01*
X144662534Y-105156582D01*
X144538740Y-105156582D01*
X144538738Y-105156582D01*
X144419965Y-105191456D01*
X144315821Y-105258385D01*
X144234751Y-105351945D01*
X144183328Y-105464546D01*
X144165710Y-105587080D01*
X128100000Y-105587080D01*
X128100000Y-104849997D01*
X164189445Y-104849997D01*
X164189445Y-104850002D01*
X164209537Y-104976864D01*
X164209538Y-104976866D01*
X164209538Y-104976867D01*
X164209539Y-104976868D01*
X164267854Y-105091318D01*
X164358682Y-105182146D01*
X164473132Y-105240461D01*
X164473133Y-105240461D01*
X164473135Y-105240462D01*
X164599998Y-105260555D01*
X164600000Y-105260555D01*
X164600002Y-105260555D01*
X164726864Y-105240462D01*
X164726865Y-105240461D01*
X164726868Y-105240461D01*
X164841318Y-105182146D01*
X164862068Y-105161395D01*
X164917243Y-105135668D01*
X164976048Y-105151424D01*
X164987926Y-105161390D01*
X165008682Y-105182146D01*
X165123132Y-105240461D01*
X165123133Y-105240461D01*
X165123135Y-105240462D01*
X165249998Y-105260555D01*
X165250000Y-105260555D01*
X165250002Y-105260555D01*
X165376864Y-105240462D01*
X165376865Y-105240461D01*
X165376868Y-105240461D01*
X165491318Y-105182146D01*
X165512068Y-105161395D01*
X165567243Y-105135668D01*
X165626048Y-105151424D01*
X165637926Y-105161390D01*
X165658682Y-105182146D01*
X165773132Y-105240461D01*
X165773133Y-105240461D01*
X165773135Y-105240462D01*
X165899998Y-105260555D01*
X165900000Y-105260555D01*
X165900002Y-105260555D01*
X166026864Y-105240462D01*
X166026865Y-105240461D01*
X166026868Y-105240461D01*
X166141318Y-105182146D01*
X166232146Y-105091318D01*
X166290461Y-104976868D01*
X166310555Y-104850000D01*
X166310555Y-104849997D01*
X166290462Y-104723135D01*
X166290461Y-104723133D01*
X166290461Y-104723132D01*
X166232146Y-104608682D01*
X166141318Y-104517854D01*
X166026868Y-104459539D01*
X166026867Y-104459538D01*
X166026866Y-104459538D01*
X166026864Y-104459537D01*
X165900002Y-104439445D01*
X165899998Y-104439445D01*
X165773135Y-104459537D01*
X165773133Y-104459538D01*
X165658681Y-104517854D01*
X165637931Y-104538604D01*
X165582755Y-104564331D01*
X165523950Y-104548574D01*
X165512069Y-104538604D01*
X165491318Y-104517854D01*
X165376866Y-104459538D01*
X165376864Y-104459537D01*
X165250002Y-104439445D01*
X165249998Y-104439445D01*
X165123135Y-104459537D01*
X165123133Y-104459538D01*
X165008681Y-104517854D01*
X164987931Y-104538604D01*
X164932755Y-104564331D01*
X164873950Y-104548574D01*
X164862069Y-104538604D01*
X164841318Y-104517854D01*
X164726866Y-104459538D01*
X164726864Y-104459537D01*
X164600002Y-104439445D01*
X164599998Y-104439445D01*
X164473135Y-104459537D01*
X164473133Y-104459538D01*
X164358683Y-104517853D01*
X164267853Y-104608683D01*
X164209538Y-104723133D01*
X164209537Y-104723135D01*
X164189445Y-104849997D01*
X128100000Y-104849997D01*
X128100000Y-104099998D01*
X138165073Y-104099998D01*
X138165073Y-104100001D01*
X138182691Y-104222535D01*
X138234114Y-104335136D01*
X138234115Y-104335137D01*
X138234116Y-104335139D01*
X138315183Y-104428696D01*
X138419325Y-104495624D01*
X138538103Y-104530500D01*
X138538106Y-104530500D01*
X138661894Y-104530500D01*
X138661897Y-104530500D01*
X138780675Y-104495624D01*
X138884817Y-104428696D01*
X138965884Y-104335139D01*
X139017309Y-104222533D01*
X139034927Y-104100000D01*
X139034927Y-104099998D01*
X142665073Y-104099998D01*
X142665073Y-104100001D01*
X142682691Y-104222535D01*
X142734114Y-104335136D01*
X142734115Y-104335137D01*
X142734116Y-104335139D01*
X142815183Y-104428696D01*
X142919325Y-104495624D01*
X143038103Y-104530500D01*
X143038106Y-104530500D01*
X143161894Y-104530500D01*
X143161897Y-104530500D01*
X143280675Y-104495624D01*
X143384817Y-104428696D01*
X143465884Y-104335139D01*
X143517309Y-104222533D01*
X143534927Y-104100000D01*
X143534927Y-104099998D01*
X147165073Y-104099998D01*
X147165073Y-104100001D01*
X147182691Y-104222535D01*
X147234114Y-104335136D01*
X147234115Y-104335137D01*
X147234116Y-104335139D01*
X147315183Y-104428696D01*
X147419325Y-104495624D01*
X147538103Y-104530500D01*
X147538106Y-104530500D01*
X147661894Y-104530500D01*
X147661897Y-104530500D01*
X147780675Y-104495624D01*
X147884817Y-104428696D01*
X147965884Y-104335139D01*
X148017309Y-104222533D01*
X148034927Y-104100000D01*
X148034927Y-104099998D01*
X148665073Y-104099998D01*
X148665073Y-104100001D01*
X148682691Y-104222535D01*
X148734114Y-104335136D01*
X148734115Y-104335137D01*
X148734116Y-104335139D01*
X148815183Y-104428696D01*
X148919325Y-104495624D01*
X149038103Y-104530500D01*
X149038106Y-104530500D01*
X149161894Y-104530500D01*
X149161897Y-104530500D01*
X149280675Y-104495624D01*
X149384817Y-104428696D01*
X149465884Y-104335139D01*
X149517309Y-104222533D01*
X149534927Y-104100000D01*
X149534927Y-104099998D01*
X150165073Y-104099998D01*
X150165073Y-104100001D01*
X150182691Y-104222535D01*
X150234114Y-104335136D01*
X150234115Y-104335137D01*
X150234116Y-104335139D01*
X150315183Y-104428696D01*
X150419325Y-104495624D01*
X150538103Y-104530500D01*
X150538106Y-104530500D01*
X150661894Y-104530500D01*
X150661897Y-104530500D01*
X150780675Y-104495624D01*
X150884817Y-104428696D01*
X150965884Y-104335139D01*
X151017309Y-104222533D01*
X151034927Y-104100000D01*
X151017309Y-103977467D01*
X151015329Y-103973132D01*
X150965885Y-103864863D01*
X150965884Y-103864862D01*
X150965884Y-103864861D01*
X150884817Y-103771304D01*
X150780675Y-103704376D01*
X150780673Y-103704375D01*
X150780671Y-103704374D01*
X150731706Y-103689997D01*
X151689445Y-103689997D01*
X151689445Y-103690002D01*
X151709537Y-103816864D01*
X151709538Y-103816866D01*
X151709538Y-103816867D01*
X151709539Y-103816868D01*
X151767854Y-103931318D01*
X151858682Y-104022146D01*
X151973132Y-104080461D01*
X151973133Y-104080461D01*
X151973135Y-104080462D01*
X152099998Y-104100555D01*
X152100000Y-104100555D01*
X152100002Y-104100555D01*
X152103525Y-104099997D01*
X155139445Y-104099997D01*
X155139445Y-104100002D01*
X155159537Y-104226864D01*
X155159538Y-104226866D01*
X155159538Y-104226867D01*
X155159539Y-104226868D01*
X155217854Y-104341318D01*
X155308682Y-104432146D01*
X155423132Y-104490461D01*
X155423133Y-104490461D01*
X155423135Y-104490462D01*
X155549998Y-104510555D01*
X155550000Y-104510555D01*
X155550002Y-104510555D01*
X155676864Y-104490462D01*
X155676865Y-104490461D01*
X155676868Y-104490461D01*
X155791318Y-104432146D01*
X155791321Y-104432143D01*
X155796984Y-104428030D01*
X155799014Y-104430824D01*
X155842243Y-104410668D01*
X155901048Y-104426424D01*
X155902995Y-104428058D01*
X155903016Y-104428030D01*
X155908678Y-104432143D01*
X155908680Y-104432144D01*
X155908682Y-104432146D01*
X156023132Y-104490461D01*
X156023133Y-104490461D01*
X156023135Y-104490462D01*
X156149998Y-104510555D01*
X156150000Y-104510555D01*
X156150002Y-104510555D01*
X156276864Y-104490462D01*
X156276865Y-104490461D01*
X156276868Y-104490461D01*
X156391318Y-104432146D01*
X156482146Y-104341318D01*
X156540461Y-104226868D01*
X156541148Y-104222535D01*
X156560555Y-104100002D01*
X156560555Y-104099997D01*
X156540462Y-103973135D01*
X156540461Y-103973133D01*
X156540461Y-103973132D01*
X156482146Y-103858682D01*
X156391318Y-103767854D01*
X156276868Y-103709539D01*
X156276867Y-103709538D01*
X156276866Y-103709538D01*
X156276864Y-103709537D01*
X156150002Y-103689445D01*
X156149998Y-103689445D01*
X156023135Y-103709537D01*
X156023133Y-103709538D01*
X155908678Y-103767856D01*
X155903016Y-103771970D01*
X155900991Y-103769184D01*
X155857694Y-103789337D01*
X155798900Y-103773538D01*
X155797001Y-103771945D01*
X155796984Y-103771970D01*
X155791321Y-103767856D01*
X155791318Y-103767854D01*
X155676868Y-103709539D01*
X155676867Y-103709538D01*
X155676866Y-103709538D01*
X155676864Y-103709537D01*
X155550002Y-103689445D01*
X155549998Y-103689445D01*
X155423135Y-103709537D01*
X155423133Y-103709538D01*
X155308683Y-103767853D01*
X155217853Y-103858683D01*
X155159538Y-103973133D01*
X155159537Y-103973135D01*
X155139445Y-104099997D01*
X152103525Y-104099997D01*
X152226864Y-104080462D01*
X152226865Y-104080461D01*
X152226868Y-104080461D01*
X152341318Y-104022146D01*
X152432146Y-103931318D01*
X152490461Y-103816868D01*
X152494822Y-103789337D01*
X152510555Y-103690002D01*
X152510555Y-103689997D01*
X152490462Y-103563135D01*
X152490461Y-103563133D01*
X152490461Y-103563132D01*
X152432146Y-103448682D01*
X152341318Y-103357854D01*
X152226868Y-103299539D01*
X152226867Y-103299538D01*
X152226866Y-103299538D01*
X152226864Y-103299537D01*
X152100002Y-103279445D01*
X152099998Y-103279445D01*
X151973135Y-103299537D01*
X151973133Y-103299538D01*
X151858683Y-103357853D01*
X151767853Y-103448683D01*
X151709538Y-103563133D01*
X151709537Y-103563135D01*
X151689445Y-103689997D01*
X150731706Y-103689997D01*
X150661898Y-103669500D01*
X150661897Y-103669500D01*
X150538103Y-103669500D01*
X150538101Y-103669500D01*
X150419328Y-103704374D01*
X150315184Y-103771303D01*
X150234114Y-103864863D01*
X150182691Y-103977464D01*
X150165073Y-104099998D01*
X149534927Y-104099998D01*
X149517309Y-103977467D01*
X149515329Y-103973132D01*
X149465885Y-103864863D01*
X149465884Y-103864862D01*
X149465884Y-103864861D01*
X149384817Y-103771304D01*
X149280675Y-103704376D01*
X149280673Y-103704375D01*
X149280671Y-103704374D01*
X149161898Y-103669500D01*
X149161897Y-103669500D01*
X149038103Y-103669500D01*
X149038101Y-103669500D01*
X148919328Y-103704374D01*
X148815184Y-103771303D01*
X148734114Y-103864863D01*
X148682691Y-103977464D01*
X148665073Y-104099998D01*
X148034927Y-104099998D01*
X148017309Y-103977467D01*
X148015329Y-103973132D01*
X147965885Y-103864863D01*
X147965884Y-103864862D01*
X147965884Y-103864861D01*
X147884817Y-103771304D01*
X147780675Y-103704376D01*
X147780673Y-103704375D01*
X147780671Y-103704374D01*
X147661898Y-103669500D01*
X147661897Y-103669500D01*
X147538103Y-103669500D01*
X147538101Y-103669500D01*
X147419328Y-103704374D01*
X147315184Y-103771303D01*
X147234114Y-103864863D01*
X147182691Y-103977464D01*
X147165073Y-104099998D01*
X143534927Y-104099998D01*
X143517309Y-103977467D01*
X143515329Y-103973132D01*
X143465885Y-103864863D01*
X143465884Y-103864862D01*
X143465884Y-103864861D01*
X143384817Y-103771304D01*
X143280675Y-103704376D01*
X143280673Y-103704375D01*
X143280671Y-103704374D01*
X143161898Y-103669500D01*
X143161897Y-103669500D01*
X143038103Y-103669500D01*
X143038101Y-103669500D01*
X142919328Y-103704374D01*
X142815184Y-103771303D01*
X142734114Y-103864863D01*
X142682691Y-103977464D01*
X142665073Y-104099998D01*
X139034927Y-104099998D01*
X139017309Y-103977467D01*
X139015329Y-103973132D01*
X138965885Y-103864863D01*
X138965884Y-103864862D01*
X138965884Y-103864861D01*
X138884817Y-103771304D01*
X138780675Y-103704376D01*
X138780673Y-103704375D01*
X138780671Y-103704374D01*
X138661898Y-103669500D01*
X138661897Y-103669500D01*
X138538103Y-103669500D01*
X138538101Y-103669500D01*
X138419328Y-103704374D01*
X138315184Y-103771303D01*
X138234114Y-103864863D01*
X138182691Y-103977464D01*
X138165073Y-104099998D01*
X128100000Y-104099998D01*
X128100000Y-102599998D01*
X138165073Y-102599998D01*
X138165073Y-102600001D01*
X138182691Y-102722535D01*
X138234114Y-102835136D01*
X138234115Y-102835137D01*
X138234116Y-102835139D01*
X138315183Y-102928696D01*
X138419325Y-102995624D01*
X138538103Y-103030500D01*
X138538106Y-103030500D01*
X138661894Y-103030500D01*
X138661897Y-103030500D01*
X138780675Y-102995624D01*
X138884817Y-102928696D01*
X138965884Y-102835139D01*
X139017309Y-102722533D01*
X139031968Y-102620577D01*
X139034927Y-102600001D01*
X139034927Y-102599998D01*
X150165073Y-102599998D01*
X150165073Y-102600001D01*
X150182691Y-102722535D01*
X150234114Y-102835136D01*
X150234115Y-102835137D01*
X150234116Y-102835139D01*
X150315183Y-102928696D01*
X150419325Y-102995624D01*
X150538103Y-103030500D01*
X150538106Y-103030500D01*
X150661894Y-103030500D01*
X150661897Y-103030500D01*
X150780675Y-102995624D01*
X150884817Y-102928696D01*
X150965884Y-102835139D01*
X151017309Y-102722533D01*
X151031968Y-102620577D01*
X151034927Y-102600001D01*
X151034927Y-102599998D01*
X153165073Y-102599998D01*
X153165073Y-102600001D01*
X153182691Y-102722535D01*
X153234114Y-102835136D01*
X153234115Y-102835137D01*
X153234116Y-102835139D01*
X153315183Y-102928696D01*
X153419325Y-102995624D01*
X153538103Y-103030500D01*
X153538106Y-103030500D01*
X153661894Y-103030500D01*
X153661897Y-103030500D01*
X153780675Y-102995624D01*
X153884817Y-102928696D01*
X153965884Y-102835139D01*
X154017309Y-102722533D01*
X154031968Y-102620577D01*
X154034927Y-102600001D01*
X154034927Y-102599998D01*
X154024412Y-102526868D01*
X154017309Y-102477467D01*
X154017035Y-102476868D01*
X153981930Y-102399997D01*
X155089445Y-102399997D01*
X155089445Y-102400002D01*
X155109537Y-102526864D01*
X155109538Y-102526866D01*
X155109538Y-102526867D01*
X155109539Y-102526868D01*
X155167854Y-102641318D01*
X155258682Y-102732146D01*
X155373132Y-102790461D01*
X155373133Y-102790461D01*
X155373135Y-102790462D01*
X155499998Y-102810555D01*
X155500000Y-102810555D01*
X155500002Y-102810555D01*
X155626864Y-102790462D01*
X155626865Y-102790461D01*
X155626868Y-102790461D01*
X155741318Y-102732146D01*
X155787068Y-102686395D01*
X155842243Y-102660668D01*
X155901048Y-102676424D01*
X155912926Y-102686390D01*
X155958682Y-102732146D01*
X156073132Y-102790461D01*
X156073133Y-102790461D01*
X156073135Y-102790462D01*
X156199998Y-102810555D01*
X156200000Y-102810555D01*
X156200002Y-102810555D01*
X156326864Y-102790462D01*
X156326865Y-102790461D01*
X156326868Y-102790461D01*
X156441318Y-102732146D01*
X156532146Y-102641318D01*
X156590461Y-102526868D01*
X156598286Y-102477467D01*
X156610555Y-102400002D01*
X156610555Y-102399997D01*
X156602636Y-102349997D01*
X162989445Y-102349997D01*
X162989445Y-102350002D01*
X163009537Y-102476864D01*
X163009538Y-102476866D01*
X163009538Y-102476867D01*
X163009539Y-102476868D01*
X163067854Y-102591318D01*
X163158682Y-102682146D01*
X163273132Y-102740461D01*
X163273133Y-102740461D01*
X163273135Y-102740462D01*
X163399998Y-102760555D01*
X163400000Y-102760555D01*
X163400002Y-102760555D01*
X163526864Y-102740462D01*
X163526865Y-102740461D01*
X163526868Y-102740461D01*
X163641318Y-102682146D01*
X163732146Y-102591318D01*
X163790461Y-102476868D01*
X163802636Y-102400002D01*
X163810555Y-102350002D01*
X163810555Y-102349997D01*
X163790462Y-102223135D01*
X163790461Y-102223133D01*
X163790461Y-102223132D01*
X163732146Y-102108682D01*
X163641318Y-102017854D01*
X163526868Y-101959539D01*
X163526867Y-101959538D01*
X163526866Y-101959538D01*
X163526864Y-101959537D01*
X163400002Y-101939445D01*
X163399998Y-101939445D01*
X163273135Y-101959537D01*
X163273133Y-101959538D01*
X163158683Y-102017853D01*
X163067853Y-102108683D01*
X163009538Y-102223133D01*
X163009537Y-102223135D01*
X162989445Y-102349997D01*
X156602636Y-102349997D01*
X156590462Y-102273135D01*
X156590461Y-102273133D01*
X156590461Y-102273132D01*
X156532146Y-102158682D01*
X156441318Y-102067854D01*
X156326868Y-102009539D01*
X156326867Y-102009538D01*
X156326866Y-102009538D01*
X156326864Y-102009537D01*
X156200002Y-101989445D01*
X156199998Y-101989445D01*
X156073135Y-102009537D01*
X156073133Y-102009538D01*
X155958683Y-102067853D01*
X155958682Y-102067853D01*
X155958682Y-102067854D01*
X155912931Y-102113604D01*
X155857757Y-102139332D01*
X155798952Y-102123576D01*
X155787073Y-102113609D01*
X155741318Y-102067854D01*
X155626868Y-102009539D01*
X155626867Y-102009538D01*
X155626866Y-102009538D01*
X155626864Y-102009537D01*
X155500002Y-101989445D01*
X155499998Y-101989445D01*
X155373135Y-102009537D01*
X155373133Y-102009538D01*
X155258683Y-102067853D01*
X155167853Y-102158683D01*
X155109538Y-102273133D01*
X155109537Y-102273135D01*
X155089445Y-102399997D01*
X153981930Y-102399997D01*
X153965885Y-102364863D01*
X153965884Y-102364862D01*
X153965884Y-102364861D01*
X153884817Y-102271304D01*
X153780675Y-102204376D01*
X153780673Y-102204375D01*
X153780671Y-102204374D01*
X153661898Y-102169500D01*
X153661897Y-102169500D01*
X153538103Y-102169500D01*
X153538101Y-102169500D01*
X153419328Y-102204374D01*
X153315184Y-102271303D01*
X153315183Y-102271303D01*
X153315183Y-102271304D01*
X153288160Y-102302489D01*
X153234114Y-102364863D01*
X153182691Y-102477464D01*
X153165073Y-102599998D01*
X151034927Y-102599998D01*
X151024412Y-102526868D01*
X151017309Y-102477467D01*
X151017035Y-102476868D01*
X150965885Y-102364863D01*
X150965884Y-102364862D01*
X150965884Y-102364861D01*
X150884817Y-102271304D01*
X150780675Y-102204376D01*
X150780673Y-102204375D01*
X150780671Y-102204374D01*
X150661898Y-102169500D01*
X150661897Y-102169500D01*
X150538103Y-102169500D01*
X150538101Y-102169500D01*
X150419328Y-102204374D01*
X150315184Y-102271303D01*
X150315183Y-102271303D01*
X150315183Y-102271304D01*
X150288160Y-102302489D01*
X150234114Y-102364863D01*
X150182691Y-102477464D01*
X150165073Y-102599998D01*
X139034927Y-102599998D01*
X139024412Y-102526868D01*
X139017309Y-102477467D01*
X139017035Y-102476868D01*
X138965885Y-102364863D01*
X138965884Y-102364862D01*
X138965884Y-102364861D01*
X138884817Y-102271304D01*
X138780675Y-102204376D01*
X138780673Y-102204375D01*
X138780671Y-102204374D01*
X138661898Y-102169500D01*
X138661897Y-102169500D01*
X138538103Y-102169500D01*
X138538101Y-102169500D01*
X138419328Y-102204374D01*
X138315184Y-102271303D01*
X138315183Y-102271303D01*
X138315183Y-102271304D01*
X138288160Y-102302489D01*
X138234114Y-102364863D01*
X138182691Y-102477464D01*
X138165073Y-102599998D01*
X128100000Y-102599998D01*
X128100000Y-99599998D01*
X138165073Y-99599998D01*
X138165073Y-99600001D01*
X138182691Y-99722535D01*
X138234114Y-99835136D01*
X138234115Y-99835137D01*
X138234116Y-99835139D01*
X138315183Y-99928696D01*
X138419325Y-99995624D01*
X138538103Y-100030500D01*
X138538106Y-100030500D01*
X138661894Y-100030500D01*
X138661897Y-100030500D01*
X138780675Y-99995624D01*
X138884817Y-99928696D01*
X138965884Y-99835139D01*
X139017309Y-99722533D01*
X139034927Y-99600000D01*
X139034927Y-99599998D01*
X139665073Y-99599998D01*
X139665073Y-99600001D01*
X139682691Y-99722535D01*
X139734114Y-99835136D01*
X139734115Y-99835137D01*
X139734116Y-99835139D01*
X139815183Y-99928696D01*
X139919325Y-99995624D01*
X140038103Y-100030500D01*
X140038106Y-100030500D01*
X140161894Y-100030500D01*
X140161897Y-100030500D01*
X140280675Y-99995624D01*
X140384817Y-99928696D01*
X140465884Y-99835139D01*
X140517309Y-99722533D01*
X140534927Y-99600000D01*
X140517309Y-99477467D01*
X140515329Y-99473132D01*
X140465885Y-99364863D01*
X140465884Y-99364862D01*
X140465884Y-99364861D01*
X140384817Y-99271304D01*
X140280675Y-99204376D01*
X140280673Y-99204375D01*
X140280671Y-99204374D01*
X140161898Y-99169500D01*
X140161897Y-99169500D01*
X140038103Y-99169500D01*
X140038101Y-99169500D01*
X139919328Y-99204374D01*
X139815184Y-99271303D01*
X139734114Y-99364863D01*
X139682691Y-99477464D01*
X139665073Y-99599998D01*
X139034927Y-99599998D01*
X139017309Y-99477467D01*
X139015329Y-99473132D01*
X138965885Y-99364863D01*
X138965884Y-99364862D01*
X138965884Y-99364861D01*
X138884817Y-99271304D01*
X138780675Y-99204376D01*
X138780673Y-99204375D01*
X138780671Y-99204374D01*
X138661898Y-99169500D01*
X138661897Y-99169500D01*
X138538103Y-99169500D01*
X138538101Y-99169500D01*
X138419328Y-99204374D01*
X138315184Y-99271303D01*
X138234114Y-99364863D01*
X138182691Y-99477464D01*
X138165073Y-99599998D01*
X128100000Y-99599998D01*
X128100000Y-98087080D01*
X141165710Y-98087080D01*
X141165710Y-98087083D01*
X141183328Y-98209617D01*
X141234751Y-98322218D01*
X141234752Y-98322219D01*
X141234753Y-98322221D01*
X141315820Y-98415778D01*
X141419962Y-98482706D01*
X141538740Y-98517582D01*
X141538743Y-98517582D01*
X141662531Y-98517582D01*
X141662534Y-98517582D01*
X141781312Y-98482706D01*
X141885454Y-98415778D01*
X141966521Y-98322221D01*
X142017946Y-98209615D01*
X142033705Y-98100010D01*
X145600000Y-98100010D01*
X145600000Y-101099989D01*
X145602139Y-101165550D01*
X145636065Y-101292161D01*
X145636068Y-101292169D01*
X145701608Y-101405689D01*
X145701610Y-101405691D01*
X145701612Y-101405694D01*
X145794306Y-101498388D01*
X145794308Y-101498389D01*
X145794310Y-101498391D01*
X145849925Y-101530500D01*
X145907833Y-101563933D01*
X145971144Y-101580897D01*
X146034450Y-101597860D01*
X146034451Y-101597860D01*
X146034455Y-101597861D01*
X146100000Y-101600000D01*
X149099989Y-101600000D01*
X149100000Y-101600000D01*
X149165545Y-101597861D01*
X149165548Y-101597860D01*
X149165550Y-101597860D01*
X149210951Y-101585694D01*
X149292167Y-101563933D01*
X149405694Y-101498388D01*
X149498388Y-101405694D01*
X149563933Y-101292167D01*
X149597861Y-101165545D01*
X149600000Y-101100000D01*
X149600000Y-101099998D01*
X150165073Y-101099998D01*
X150165073Y-101100001D01*
X150182691Y-101222535D01*
X150234114Y-101335136D01*
X150234115Y-101335137D01*
X150234116Y-101335139D01*
X150315183Y-101428696D01*
X150419325Y-101495624D01*
X150419327Y-101495624D01*
X150419328Y-101495625D01*
X150445930Y-101503435D01*
X150538103Y-101530500D01*
X150538106Y-101530500D01*
X150661894Y-101530500D01*
X150661897Y-101530500D01*
X150780675Y-101495624D01*
X150884817Y-101428696D01*
X150965884Y-101335139D01*
X151017309Y-101222533D01*
X151034927Y-101100000D01*
X151034925Y-101099989D01*
X151029009Y-101058844D01*
X151017309Y-100977467D01*
X150965884Y-100864861D01*
X150884817Y-100771304D01*
X150780675Y-100704376D01*
X150780673Y-100704375D01*
X150780671Y-100704374D01*
X150661898Y-100669500D01*
X150661897Y-100669500D01*
X150538103Y-100669500D01*
X150538101Y-100669500D01*
X150419328Y-100704374D01*
X150315184Y-100771303D01*
X150234114Y-100864863D01*
X150182691Y-100977464D01*
X150165073Y-101099998D01*
X149600000Y-101099998D01*
X149600000Y-99599997D01*
X155089445Y-99599997D01*
X155089445Y-99600002D01*
X155109537Y-99726864D01*
X155109538Y-99726866D01*
X155109538Y-99726867D01*
X155109539Y-99726868D01*
X155167854Y-99841318D01*
X155258682Y-99932146D01*
X155373132Y-99990461D01*
X155373133Y-99990461D01*
X155373135Y-99990462D01*
X155499998Y-100010555D01*
X155500000Y-100010555D01*
X155500002Y-100010555D01*
X155626864Y-99990462D01*
X155626865Y-99990461D01*
X155626868Y-99990461D01*
X155741318Y-99932146D01*
X155787068Y-99886395D01*
X155842243Y-99860668D01*
X155901048Y-99876424D01*
X155912926Y-99886390D01*
X155958682Y-99932146D01*
X156073132Y-99990461D01*
X156073133Y-99990461D01*
X156073135Y-99990462D01*
X156199998Y-100010555D01*
X156200000Y-100010555D01*
X156200002Y-100010555D01*
X156326864Y-99990462D01*
X156326865Y-99990461D01*
X156326868Y-99990461D01*
X156441318Y-99932146D01*
X156532146Y-99841318D01*
X156590461Y-99726868D01*
X156591148Y-99722535D01*
X156610555Y-99600002D01*
X156610555Y-99599997D01*
X156596538Y-99511497D01*
X158289445Y-99511497D01*
X158289445Y-99511502D01*
X158309537Y-99638364D01*
X158309538Y-99638366D01*
X158371034Y-99759059D01*
X158367859Y-99760676D01*
X158380903Y-99806255D01*
X158368709Y-99839756D01*
X158371034Y-99840941D01*
X158309538Y-99961633D01*
X158309537Y-99961635D01*
X158289445Y-100088497D01*
X158289445Y-100088502D01*
X158309537Y-100215364D01*
X158309538Y-100215366D01*
X158309538Y-100215367D01*
X158309539Y-100215368D01*
X158367854Y-100329818D01*
X158458682Y-100420646D01*
X158573132Y-100478961D01*
X158573133Y-100478961D01*
X158573135Y-100478962D01*
X158699998Y-100499055D01*
X158700000Y-100499055D01*
X158700002Y-100499055D01*
X158826864Y-100478962D01*
X158826865Y-100478961D01*
X158826868Y-100478961D01*
X158941318Y-100420646D01*
X159032146Y-100329818D01*
X159090461Y-100215368D01*
X159110555Y-100088500D01*
X159095845Y-99995624D01*
X159090462Y-99961635D01*
X159090461Y-99961633D01*
X159090461Y-99961632D01*
X159032146Y-99847182D01*
X159032145Y-99847181D01*
X159028966Y-99840941D01*
X159032158Y-99839314D01*
X159019088Y-99793854D01*
X159031316Y-99760256D01*
X159028966Y-99759059D01*
X159047577Y-99722533D01*
X159090461Y-99638368D01*
X159096539Y-99599998D01*
X159110555Y-99511502D01*
X159110555Y-99511497D01*
X159090462Y-99384635D01*
X159090461Y-99384633D01*
X159090461Y-99384632D01*
X159032146Y-99270182D01*
X158941318Y-99179354D01*
X158826868Y-99121039D01*
X158826867Y-99121038D01*
X158826866Y-99121038D01*
X158826864Y-99121037D01*
X158700002Y-99100945D01*
X158699998Y-99100945D01*
X158573135Y-99121037D01*
X158573133Y-99121038D01*
X158458683Y-99179353D01*
X158367853Y-99270183D01*
X158309538Y-99384633D01*
X158309537Y-99384635D01*
X158289445Y-99511497D01*
X156596538Y-99511497D01*
X156590462Y-99473135D01*
X156590461Y-99473133D01*
X156590461Y-99473132D01*
X156532146Y-99358682D01*
X156441318Y-99267854D01*
X156326868Y-99209539D01*
X156326867Y-99209538D01*
X156326866Y-99209538D01*
X156326864Y-99209537D01*
X156200002Y-99189445D01*
X156199998Y-99189445D01*
X156073135Y-99209537D01*
X156073133Y-99209538D01*
X155958683Y-99267853D01*
X155958682Y-99267853D01*
X155958682Y-99267854D01*
X155912931Y-99313604D01*
X155857757Y-99339332D01*
X155798952Y-99323576D01*
X155787073Y-99313609D01*
X155741318Y-99267854D01*
X155626868Y-99209539D01*
X155626867Y-99209538D01*
X155626866Y-99209538D01*
X155626864Y-99209537D01*
X155500002Y-99189445D01*
X155499998Y-99189445D01*
X155373135Y-99209537D01*
X155373133Y-99209538D01*
X155258683Y-99267853D01*
X155167853Y-99358683D01*
X155109538Y-99473133D01*
X155109537Y-99473135D01*
X155089445Y-99599997D01*
X149600000Y-99599997D01*
X149600000Y-98100000D01*
X149597861Y-98034455D01*
X149597860Y-98034451D01*
X149597860Y-98034449D01*
X149563934Y-97907838D01*
X149563933Y-97907833D01*
X149531666Y-97851945D01*
X149498391Y-97794310D01*
X149498389Y-97794308D01*
X149498388Y-97794306D01*
X149405694Y-97701612D01*
X149405691Y-97701610D01*
X149405689Y-97701608D01*
X149292169Y-97636068D01*
X149292168Y-97636067D01*
X149292167Y-97636067D01*
X149292164Y-97636066D01*
X149292161Y-97636065D01*
X149200473Y-97611497D01*
X158289445Y-97611497D01*
X158289445Y-97611502D01*
X158309537Y-97738364D01*
X158309538Y-97738366D01*
X158371034Y-97859059D01*
X158367859Y-97860676D01*
X158380903Y-97906255D01*
X158368709Y-97939756D01*
X158371034Y-97940941D01*
X158309538Y-98061633D01*
X158309537Y-98061635D01*
X158289445Y-98188497D01*
X158289445Y-98188502D01*
X158309537Y-98315364D01*
X158309538Y-98315366D01*
X158309538Y-98315367D01*
X158309539Y-98315368D01*
X158367854Y-98429818D01*
X158458682Y-98520646D01*
X158573132Y-98578961D01*
X158573133Y-98578961D01*
X158573135Y-98578962D01*
X158699998Y-98599055D01*
X158700000Y-98599055D01*
X158700002Y-98599055D01*
X158826864Y-98578962D01*
X158826865Y-98578961D01*
X158826868Y-98578961D01*
X158941318Y-98520646D01*
X159032146Y-98429818D01*
X159090461Y-98315368D01*
X159107211Y-98209617D01*
X159110555Y-98188502D01*
X159110555Y-98188497D01*
X159090462Y-98061635D01*
X159090461Y-98061633D01*
X159090461Y-98061632D01*
X159032146Y-97947182D01*
X159032145Y-97947181D01*
X159028966Y-97940941D01*
X159032158Y-97939314D01*
X159019088Y-97893854D01*
X159031316Y-97860256D01*
X159028966Y-97859059D01*
X159061959Y-97794306D01*
X159090461Y-97738368D01*
X159096284Y-97701608D01*
X159110555Y-97611502D01*
X159110555Y-97611497D01*
X159090462Y-97484635D01*
X159090461Y-97484633D01*
X159090461Y-97484632D01*
X159032146Y-97370182D01*
X158941318Y-97279354D01*
X158826868Y-97221039D01*
X158826867Y-97221038D01*
X158826866Y-97221038D01*
X158826864Y-97221037D01*
X158700002Y-97200945D01*
X158699998Y-97200945D01*
X158573135Y-97221037D01*
X158573133Y-97221038D01*
X158458683Y-97279353D01*
X158367853Y-97370183D01*
X158309538Y-97484633D01*
X158309537Y-97484635D01*
X158289445Y-97611497D01*
X149200473Y-97611497D01*
X149165549Y-97602139D01*
X149165550Y-97602139D01*
X149145062Y-97601470D01*
X149100000Y-97600000D01*
X149099989Y-97600000D01*
X146100011Y-97600000D01*
X146100000Y-97600000D01*
X146057588Y-97601384D01*
X146034449Y-97602139D01*
X145907838Y-97636065D01*
X145907830Y-97636068D01*
X145794310Y-97701608D01*
X145701608Y-97794310D01*
X145636068Y-97907830D01*
X145636065Y-97907838D01*
X145602139Y-98034449D01*
X145600000Y-98100010D01*
X142033705Y-98100010D01*
X142035564Y-98087082D01*
X142017946Y-97964549D01*
X141966521Y-97851943D01*
X141885454Y-97758386D01*
X141781312Y-97691458D01*
X141781310Y-97691457D01*
X141781308Y-97691456D01*
X141662535Y-97656582D01*
X141662534Y-97656582D01*
X141538740Y-97656582D01*
X141538738Y-97656582D01*
X141419965Y-97691456D01*
X141315821Y-97758385D01*
X141234751Y-97851945D01*
X141183328Y-97964546D01*
X141165710Y-98087080D01*
X128100000Y-98087080D01*
X128100000Y-96599998D01*
X138165073Y-96599998D01*
X138165073Y-96600001D01*
X138182691Y-96722535D01*
X138234114Y-96835136D01*
X138234115Y-96835137D01*
X138234116Y-96835139D01*
X138315183Y-96928696D01*
X138419325Y-96995624D01*
X138538103Y-97030500D01*
X138538106Y-97030500D01*
X138661894Y-97030500D01*
X138661897Y-97030500D01*
X138780675Y-96995624D01*
X138884817Y-96928696D01*
X138965884Y-96835139D01*
X139017309Y-96722533D01*
X139034927Y-96600000D01*
X139034927Y-96599998D01*
X141165073Y-96599998D01*
X141165073Y-96600001D01*
X141182691Y-96722535D01*
X141234114Y-96835136D01*
X141234115Y-96835137D01*
X141234116Y-96835139D01*
X141315183Y-96928696D01*
X141419325Y-96995624D01*
X141538103Y-97030500D01*
X141538106Y-97030500D01*
X141661894Y-97030500D01*
X141661897Y-97030500D01*
X141780675Y-96995624D01*
X141884817Y-96928696D01*
X141965884Y-96835139D01*
X142017309Y-96722533D01*
X142034927Y-96600000D01*
X142034927Y-96599998D01*
X148665073Y-96599998D01*
X148665073Y-96600001D01*
X148682691Y-96722535D01*
X148734114Y-96835136D01*
X148734115Y-96835137D01*
X148734116Y-96835139D01*
X148815183Y-96928696D01*
X148919325Y-96995624D01*
X149038103Y-97030500D01*
X149038106Y-97030500D01*
X149161894Y-97030500D01*
X149161897Y-97030500D01*
X149280675Y-96995624D01*
X149384817Y-96928696D01*
X149465884Y-96835139D01*
X149517309Y-96722533D01*
X149534927Y-96600000D01*
X149534927Y-96599998D01*
X150165073Y-96599998D01*
X150165073Y-96600001D01*
X150182691Y-96722535D01*
X150234114Y-96835136D01*
X150234115Y-96835137D01*
X150234116Y-96835139D01*
X150315183Y-96928696D01*
X150419325Y-96995624D01*
X150538103Y-97030500D01*
X150538106Y-97030500D01*
X150661894Y-97030500D01*
X150661897Y-97030500D01*
X150780675Y-96995624D01*
X150884817Y-96928696D01*
X150965884Y-96835139D01*
X151017309Y-96722533D01*
X151034927Y-96600000D01*
X151017309Y-96477467D01*
X150965884Y-96364861D01*
X150884817Y-96271304D01*
X150780675Y-96204376D01*
X150780673Y-96204375D01*
X150780671Y-96204374D01*
X150661898Y-96169500D01*
X150661897Y-96169500D01*
X150538103Y-96169500D01*
X150538101Y-96169500D01*
X150419328Y-96204374D01*
X150315184Y-96271303D01*
X150234114Y-96364863D01*
X150182691Y-96477464D01*
X150165073Y-96599998D01*
X149534927Y-96599998D01*
X149517309Y-96477467D01*
X149465884Y-96364861D01*
X149384817Y-96271304D01*
X149280675Y-96204376D01*
X149280673Y-96204375D01*
X149280671Y-96204374D01*
X149161898Y-96169500D01*
X149161897Y-96169500D01*
X149038103Y-96169500D01*
X149038101Y-96169500D01*
X148919328Y-96204374D01*
X148815184Y-96271303D01*
X148734114Y-96364863D01*
X148682691Y-96477464D01*
X148665073Y-96599998D01*
X142034927Y-96599998D01*
X142017309Y-96477467D01*
X141965884Y-96364861D01*
X141884817Y-96271304D01*
X141780675Y-96204376D01*
X141780673Y-96204375D01*
X141780671Y-96204374D01*
X141661898Y-96169500D01*
X141661897Y-96169500D01*
X141538103Y-96169500D01*
X141538101Y-96169500D01*
X141419328Y-96204374D01*
X141315184Y-96271303D01*
X141234114Y-96364863D01*
X141182691Y-96477464D01*
X141165073Y-96599998D01*
X139034927Y-96599998D01*
X139017309Y-96477467D01*
X138965884Y-96364861D01*
X138884817Y-96271304D01*
X138780675Y-96204376D01*
X138780673Y-96204375D01*
X138780671Y-96204374D01*
X138661898Y-96169500D01*
X138661897Y-96169500D01*
X138538103Y-96169500D01*
X138538101Y-96169500D01*
X138419328Y-96204374D01*
X138315184Y-96271303D01*
X138234114Y-96364863D01*
X138182691Y-96477464D01*
X138165073Y-96599998D01*
X128100000Y-96599998D01*
X128100000Y-95099998D01*
X138165073Y-95099998D01*
X138165073Y-95100001D01*
X138182691Y-95222535D01*
X138234114Y-95335136D01*
X138234115Y-95335137D01*
X138234116Y-95335139D01*
X138315183Y-95428696D01*
X138419325Y-95495624D01*
X138538103Y-95530500D01*
X138538106Y-95530500D01*
X138661894Y-95530500D01*
X138661897Y-95530500D01*
X138780675Y-95495624D01*
X138884817Y-95428696D01*
X138965884Y-95335139D01*
X139017309Y-95222533D01*
X139034927Y-95100000D01*
X139034927Y-95099998D01*
X141165073Y-95099998D01*
X141165073Y-95100001D01*
X141182691Y-95222535D01*
X141234114Y-95335136D01*
X141234115Y-95335137D01*
X141234116Y-95335139D01*
X141315183Y-95428696D01*
X141419325Y-95495624D01*
X141538103Y-95530500D01*
X141538106Y-95530500D01*
X141661894Y-95530500D01*
X141661897Y-95530500D01*
X141780675Y-95495624D01*
X141884817Y-95428696D01*
X141965884Y-95335139D01*
X142017309Y-95222533D01*
X142034927Y-95100000D01*
X142017309Y-94977467D01*
X141965884Y-94864861D01*
X141884817Y-94771304D01*
X141780675Y-94704376D01*
X141780673Y-94704375D01*
X141780671Y-94704374D01*
X141661898Y-94669500D01*
X141661897Y-94669500D01*
X141538103Y-94669500D01*
X141538101Y-94669500D01*
X141419328Y-94704374D01*
X141315184Y-94771303D01*
X141234114Y-94864863D01*
X141182691Y-94977464D01*
X141165073Y-95099998D01*
X139034927Y-95099998D01*
X139017309Y-94977467D01*
X138965884Y-94864861D01*
X138884817Y-94771304D01*
X138780675Y-94704376D01*
X138780673Y-94704375D01*
X138780671Y-94704374D01*
X138661898Y-94669500D01*
X138661897Y-94669500D01*
X138538103Y-94669500D01*
X138538101Y-94669500D01*
X138419328Y-94704374D01*
X138315184Y-94771303D01*
X138234114Y-94864863D01*
X138182691Y-94977464D01*
X138165073Y-95099998D01*
X128100000Y-95099998D01*
X128100000Y-93599998D01*
X153165073Y-93599998D01*
X153165073Y-93600001D01*
X153182691Y-93722535D01*
X153234114Y-93835136D01*
X153234115Y-93835137D01*
X153234116Y-93835139D01*
X153315183Y-93928696D01*
X153419325Y-93995624D01*
X153538103Y-94030500D01*
X153538106Y-94030500D01*
X153661894Y-94030500D01*
X153661897Y-94030500D01*
X153780675Y-93995624D01*
X153884817Y-93928696D01*
X153965884Y-93835139D01*
X154017309Y-93722533D01*
X154034927Y-93600000D01*
X154017309Y-93477467D01*
X153965884Y-93364861D01*
X153884817Y-93271304D01*
X153780675Y-93204376D01*
X153780673Y-93204375D01*
X153780671Y-93204374D01*
X153661898Y-93169500D01*
X153661897Y-93169500D01*
X153538103Y-93169500D01*
X153538101Y-93169500D01*
X153419328Y-93204374D01*
X153315184Y-93271303D01*
X153234114Y-93364863D01*
X153182691Y-93477464D01*
X153165073Y-93599998D01*
X128100000Y-93599998D01*
X128100000Y-92099998D01*
X141165073Y-92099998D01*
X141165073Y-92100001D01*
X141182691Y-92222535D01*
X141234114Y-92335136D01*
X141234115Y-92335137D01*
X141234116Y-92335139D01*
X141315183Y-92428696D01*
X141419325Y-92495624D01*
X141538103Y-92530500D01*
X141538106Y-92530500D01*
X141661894Y-92530500D01*
X141661897Y-92530500D01*
X141780675Y-92495624D01*
X141884817Y-92428696D01*
X141965884Y-92335139D01*
X142017309Y-92222533D01*
X142034927Y-92100000D01*
X142034927Y-92099998D01*
X142665073Y-92099998D01*
X142665073Y-92100001D01*
X142682691Y-92222535D01*
X142734114Y-92335136D01*
X142734115Y-92335137D01*
X142734116Y-92335139D01*
X142815183Y-92428696D01*
X142919325Y-92495624D01*
X143038103Y-92530500D01*
X143038106Y-92530500D01*
X143161894Y-92530500D01*
X143161897Y-92530500D01*
X143280675Y-92495624D01*
X143384817Y-92428696D01*
X143465884Y-92335139D01*
X143517309Y-92222533D01*
X143534927Y-92100000D01*
X143534927Y-92099998D01*
X147165073Y-92099998D01*
X147165073Y-92100001D01*
X147182691Y-92222535D01*
X147234114Y-92335136D01*
X147234115Y-92335137D01*
X147234116Y-92335139D01*
X147315183Y-92428696D01*
X147419325Y-92495624D01*
X147538103Y-92530500D01*
X147538106Y-92530500D01*
X147661894Y-92530500D01*
X147661897Y-92530500D01*
X147780675Y-92495624D01*
X147884817Y-92428696D01*
X147965884Y-92335139D01*
X148017309Y-92222533D01*
X148034927Y-92100000D01*
X148034927Y-92099998D01*
X150165073Y-92099998D01*
X150165073Y-92100001D01*
X150182691Y-92222535D01*
X150234114Y-92335136D01*
X150234115Y-92335137D01*
X150234116Y-92335139D01*
X150315183Y-92428696D01*
X150419325Y-92495624D01*
X150538103Y-92530500D01*
X150538106Y-92530500D01*
X150661894Y-92530500D01*
X150661897Y-92530500D01*
X150780675Y-92495624D01*
X150884817Y-92428696D01*
X150965884Y-92335139D01*
X151017309Y-92222533D01*
X151034927Y-92100000D01*
X151034927Y-92099998D01*
X151665073Y-92099998D01*
X151665073Y-92100001D01*
X151682691Y-92222535D01*
X151734114Y-92335136D01*
X151734115Y-92335137D01*
X151734116Y-92335139D01*
X151815183Y-92428696D01*
X151919325Y-92495624D01*
X152038103Y-92530500D01*
X152038106Y-92530500D01*
X152161894Y-92530500D01*
X152161897Y-92530500D01*
X152280675Y-92495624D01*
X152384817Y-92428696D01*
X152465884Y-92335139D01*
X152517309Y-92222533D01*
X152534927Y-92100000D01*
X152517309Y-91977467D01*
X152465884Y-91864861D01*
X152384817Y-91771304D01*
X152280675Y-91704376D01*
X152280673Y-91704375D01*
X152280671Y-91704374D01*
X152161898Y-91669500D01*
X152161897Y-91669500D01*
X152038103Y-91669500D01*
X152038101Y-91669500D01*
X151919328Y-91704374D01*
X151815184Y-91771303D01*
X151734114Y-91864863D01*
X151682691Y-91977464D01*
X151665073Y-92099998D01*
X151034927Y-92099998D01*
X151017309Y-91977467D01*
X150965884Y-91864861D01*
X150884817Y-91771304D01*
X150780675Y-91704376D01*
X150780673Y-91704375D01*
X150780671Y-91704374D01*
X150661898Y-91669500D01*
X150661897Y-91669500D01*
X150538103Y-91669500D01*
X150538101Y-91669500D01*
X150419328Y-91704374D01*
X150315184Y-91771303D01*
X150234114Y-91864863D01*
X150182691Y-91977464D01*
X150165073Y-92099998D01*
X148034927Y-92099998D01*
X148017309Y-91977467D01*
X147965884Y-91864861D01*
X147884817Y-91771304D01*
X147780675Y-91704376D01*
X147780673Y-91704375D01*
X147780671Y-91704374D01*
X147661898Y-91669500D01*
X147661897Y-91669500D01*
X147538103Y-91669500D01*
X147538101Y-91669500D01*
X147419328Y-91704374D01*
X147315184Y-91771303D01*
X147234114Y-91864863D01*
X147182691Y-91977464D01*
X147165073Y-92099998D01*
X143534927Y-92099998D01*
X143517309Y-91977467D01*
X143465884Y-91864861D01*
X143384817Y-91771304D01*
X143280675Y-91704376D01*
X143280673Y-91704375D01*
X143280671Y-91704374D01*
X143161898Y-91669500D01*
X143161897Y-91669500D01*
X143038103Y-91669500D01*
X143038101Y-91669500D01*
X142919328Y-91704374D01*
X142815184Y-91771303D01*
X142734114Y-91864863D01*
X142682691Y-91977464D01*
X142665073Y-92099998D01*
X142034927Y-92099998D01*
X142017309Y-91977467D01*
X141965884Y-91864861D01*
X141884817Y-91771304D01*
X141780675Y-91704376D01*
X141780673Y-91704375D01*
X141780671Y-91704374D01*
X141661898Y-91669500D01*
X141661897Y-91669500D01*
X141538103Y-91669500D01*
X141538101Y-91669500D01*
X141419328Y-91704374D01*
X141315184Y-91771303D01*
X141234114Y-91864863D01*
X141182691Y-91977464D01*
X141165073Y-92099998D01*
X128100000Y-92099998D01*
X128100000Y-89399997D01*
X138789445Y-89399997D01*
X138789445Y-89400002D01*
X138809537Y-89526864D01*
X138809538Y-89526866D01*
X138809538Y-89526867D01*
X138809539Y-89526868D01*
X138867854Y-89641318D01*
X138958682Y-89732146D01*
X138958684Y-89732147D01*
X138963604Y-89737067D01*
X138989332Y-89792243D01*
X138973576Y-89851048D01*
X138963604Y-89862933D01*
X138958683Y-89867853D01*
X138958682Y-89867854D01*
X138911075Y-89915461D01*
X138867853Y-89958683D01*
X138809538Y-90073133D01*
X138809537Y-90073135D01*
X138789445Y-90199997D01*
X138789445Y-90200002D01*
X138809537Y-90326864D01*
X138809538Y-90326866D01*
X138809538Y-90326867D01*
X138809539Y-90326868D01*
X138867854Y-90441318D01*
X138958682Y-90532146D01*
X139073132Y-90590461D01*
X139073133Y-90590461D01*
X139073135Y-90590462D01*
X139199998Y-90610555D01*
X139200000Y-90610555D01*
X139200002Y-90610555D01*
X139326864Y-90590462D01*
X139326865Y-90590461D01*
X139326868Y-90590461D01*
X139441318Y-90532146D01*
X139487068Y-90486395D01*
X139542243Y-90460668D01*
X139601048Y-90476424D01*
X139612926Y-90486390D01*
X139658682Y-90532146D01*
X139773132Y-90590461D01*
X139773133Y-90590461D01*
X139773135Y-90590462D01*
X139899998Y-90610555D01*
X139900000Y-90610555D01*
X139900002Y-90610555D01*
X140026864Y-90590462D01*
X140026865Y-90590461D01*
X140026868Y-90590461D01*
X140141318Y-90532146D01*
X140232146Y-90441318D01*
X140290461Y-90326868D01*
X140298381Y-90276868D01*
X140310555Y-90200002D01*
X140310555Y-90199997D01*
X141189445Y-90199997D01*
X141189445Y-90200002D01*
X141209537Y-90326864D01*
X141209538Y-90326866D01*
X141209538Y-90326867D01*
X141209539Y-90326868D01*
X141267854Y-90441318D01*
X141358682Y-90532146D01*
X141473132Y-90590461D01*
X141473133Y-90590461D01*
X141473135Y-90590462D01*
X141599998Y-90610555D01*
X141600000Y-90610555D01*
X141600002Y-90610555D01*
X141726864Y-90590462D01*
X141726865Y-90590461D01*
X141726868Y-90590461D01*
X141841318Y-90532146D01*
X141932146Y-90441318D01*
X141990461Y-90326868D01*
X141998381Y-90276868D01*
X142010555Y-90200002D01*
X142010555Y-90199997D01*
X143589445Y-90199997D01*
X143589445Y-90200002D01*
X143609537Y-90326864D01*
X143609538Y-90326866D01*
X143609538Y-90326867D01*
X143609539Y-90326868D01*
X143667854Y-90441318D01*
X143758682Y-90532146D01*
X143873132Y-90590461D01*
X143873133Y-90590461D01*
X143873135Y-90590462D01*
X143999998Y-90610555D01*
X144000000Y-90610555D01*
X144000002Y-90610555D01*
X144126864Y-90590462D01*
X144126865Y-90590461D01*
X144126868Y-90590461D01*
X144241318Y-90532146D01*
X144332146Y-90441318D01*
X144390461Y-90326868D01*
X144398381Y-90276868D01*
X144410555Y-90200002D01*
X144410555Y-90199997D01*
X144390462Y-90073135D01*
X144390461Y-90073133D01*
X144390461Y-90073132D01*
X144332146Y-89958682D01*
X144241318Y-89867854D01*
X144126868Y-89809539D01*
X144126867Y-89809538D01*
X144126866Y-89809538D01*
X144126864Y-89809537D01*
X144000002Y-89789445D01*
X143999998Y-89789445D01*
X143873135Y-89809537D01*
X143873133Y-89809538D01*
X143758683Y-89867853D01*
X143667853Y-89958683D01*
X143609538Y-90073133D01*
X143609537Y-90073135D01*
X143589445Y-90199997D01*
X142010555Y-90199997D01*
X141990462Y-90073135D01*
X141990461Y-90073133D01*
X141990461Y-90073132D01*
X141932146Y-89958682D01*
X141841318Y-89867854D01*
X141726868Y-89809539D01*
X141726867Y-89809538D01*
X141726866Y-89809538D01*
X141726864Y-89809537D01*
X141600002Y-89789445D01*
X141599998Y-89789445D01*
X141473135Y-89809537D01*
X141473133Y-89809538D01*
X141358683Y-89867853D01*
X141267853Y-89958683D01*
X141209538Y-90073133D01*
X141209537Y-90073135D01*
X141189445Y-90199997D01*
X140310555Y-90199997D01*
X140290462Y-90073135D01*
X140290461Y-90073133D01*
X140290461Y-90073132D01*
X140232146Y-89958682D01*
X140141318Y-89867854D01*
X140141315Y-89867852D01*
X140136396Y-89862933D01*
X140110668Y-89807757D01*
X140126424Y-89748952D01*
X140136396Y-89737067D01*
X140141315Y-89732147D01*
X140141318Y-89732146D01*
X140232146Y-89641318D01*
X140290461Y-89526868D01*
X140290758Y-89524997D01*
X140304616Y-89437497D01*
X148289445Y-89437497D01*
X148289445Y-89437502D01*
X148309537Y-89564364D01*
X148309538Y-89564366D01*
X148367854Y-89678818D01*
X148394853Y-89705818D01*
X148420581Y-89760995D01*
X148404824Y-89819799D01*
X148394853Y-89831682D01*
X148367854Y-89858681D01*
X148309538Y-89973133D01*
X148309537Y-89973135D01*
X148289445Y-90099997D01*
X148289445Y-90100002D01*
X148309537Y-90226864D01*
X148309538Y-90226866D01*
X148367854Y-90341318D01*
X148382354Y-90355819D01*
X148408082Y-90410995D01*
X148392323Y-90469800D01*
X148382354Y-90481681D01*
X148367854Y-90496181D01*
X148309538Y-90610633D01*
X148309537Y-90610635D01*
X148289445Y-90737497D01*
X148289445Y-90737502D01*
X148309537Y-90864364D01*
X148309538Y-90864366D01*
X148309538Y-90864367D01*
X148309539Y-90864368D01*
X148367854Y-90978818D01*
X148458682Y-91069646D01*
X148573132Y-91127961D01*
X148573133Y-91127961D01*
X148573135Y-91127962D01*
X148699998Y-91148055D01*
X148700000Y-91148055D01*
X148700002Y-91148055D01*
X148826864Y-91127962D01*
X148826865Y-91127961D01*
X148826868Y-91127961D01*
X148941318Y-91069646D01*
X148941321Y-91069643D01*
X148946984Y-91065530D01*
X148949014Y-91068324D01*
X148992243Y-91048168D01*
X149051048Y-91063924D01*
X149052995Y-91065558D01*
X149053016Y-91065530D01*
X149058678Y-91069643D01*
X149058680Y-91069644D01*
X149058682Y-91069646D01*
X149173132Y-91127961D01*
X149173133Y-91127961D01*
X149173135Y-91127962D01*
X149299998Y-91148055D01*
X149300000Y-91148055D01*
X149300002Y-91148055D01*
X149426864Y-91127962D01*
X149426865Y-91127961D01*
X149426868Y-91127961D01*
X149541318Y-91069646D01*
X149632146Y-90978818D01*
X149690461Y-90864368D01*
X149710555Y-90737500D01*
X149710555Y-90737497D01*
X149690462Y-90610635D01*
X149690461Y-90610633D01*
X149690461Y-90610632D01*
X149632146Y-90496182D01*
X149617645Y-90481681D01*
X149591918Y-90426507D01*
X149607674Y-90367702D01*
X149617640Y-90355823D01*
X149632146Y-90341318D01*
X149690461Y-90226868D01*
X149694717Y-90200002D01*
X149702637Y-90149997D01*
X159389445Y-90149997D01*
X159389445Y-90150002D01*
X159409537Y-90276864D01*
X159409538Y-90276866D01*
X159409538Y-90276867D01*
X159409539Y-90276868D01*
X159467854Y-90391318D01*
X159558682Y-90482146D01*
X159673132Y-90540461D01*
X159673133Y-90540461D01*
X159673135Y-90540462D01*
X159799998Y-90560555D01*
X159800000Y-90560555D01*
X159800002Y-90560555D01*
X159926864Y-90540462D01*
X159926865Y-90540461D01*
X159926868Y-90540461D01*
X160041318Y-90482146D01*
X160132146Y-90391318D01*
X160190461Y-90276868D01*
X160198381Y-90226868D01*
X160210555Y-90150002D01*
X160210555Y-90149997D01*
X160190462Y-90023135D01*
X160190461Y-90023133D01*
X160190461Y-90023132D01*
X160132146Y-89908682D01*
X160041318Y-89817854D01*
X159926868Y-89759539D01*
X159926867Y-89759538D01*
X159926866Y-89759538D01*
X159926864Y-89759537D01*
X159800002Y-89739445D01*
X159799998Y-89739445D01*
X159673135Y-89759537D01*
X159673133Y-89759538D01*
X159558683Y-89817853D01*
X159467853Y-89908683D01*
X159409538Y-90023133D01*
X159409537Y-90023135D01*
X159389445Y-90149997D01*
X149702637Y-90149997D01*
X149710555Y-90100002D01*
X149710555Y-90099997D01*
X149690462Y-89973135D01*
X149690461Y-89973133D01*
X149690461Y-89973132D01*
X149632146Y-89858682D01*
X149605145Y-89831681D01*
X149579418Y-89776507D01*
X149595174Y-89717702D01*
X149605140Y-89705823D01*
X149632146Y-89678818D01*
X149690461Y-89564368D01*
X149696401Y-89526868D01*
X149696697Y-89524997D01*
X162589445Y-89524997D01*
X162589445Y-89525002D01*
X162609537Y-89651864D01*
X162609538Y-89651866D01*
X162609538Y-89651867D01*
X162609539Y-89651868D01*
X162667854Y-89766318D01*
X162758682Y-89857146D01*
X162873132Y-89915461D01*
X162873133Y-89915461D01*
X162873135Y-89915462D01*
X162999998Y-89935555D01*
X163000000Y-89935555D01*
X163000002Y-89935555D01*
X163126864Y-89915462D01*
X163126865Y-89915461D01*
X163126868Y-89915461D01*
X163241318Y-89857146D01*
X163332146Y-89766318D01*
X163390461Y-89651868D01*
X163392133Y-89641316D01*
X163410555Y-89525002D01*
X163410555Y-89524997D01*
X163390462Y-89398135D01*
X163390461Y-89398133D01*
X163390461Y-89398132D01*
X163332146Y-89283682D01*
X163241318Y-89192854D01*
X163126868Y-89134539D01*
X163126867Y-89134538D01*
X163126866Y-89134538D01*
X163126864Y-89134537D01*
X163000002Y-89114445D01*
X162999998Y-89114445D01*
X162873135Y-89134537D01*
X162873133Y-89134538D01*
X162758683Y-89192853D01*
X162667853Y-89283683D01*
X162609538Y-89398133D01*
X162609537Y-89398135D01*
X162589445Y-89524997D01*
X149696697Y-89524997D01*
X149710555Y-89437502D01*
X149710555Y-89437497D01*
X149690462Y-89310635D01*
X149690461Y-89310633D01*
X149690461Y-89310632D01*
X149632146Y-89196182D01*
X149541318Y-89105354D01*
X149426868Y-89047039D01*
X149426867Y-89047038D01*
X149426866Y-89047038D01*
X149426864Y-89047037D01*
X149300002Y-89026945D01*
X149299998Y-89026945D01*
X149173135Y-89047037D01*
X149173133Y-89047038D01*
X149058678Y-89105356D01*
X149053016Y-89109470D01*
X149050991Y-89106684D01*
X149007694Y-89126837D01*
X148948900Y-89111038D01*
X148947001Y-89109445D01*
X148946984Y-89109470D01*
X148941321Y-89105356D01*
X148941318Y-89105354D01*
X148826868Y-89047039D01*
X148826867Y-89047038D01*
X148826866Y-89047038D01*
X148826864Y-89047037D01*
X148700002Y-89026945D01*
X148699998Y-89026945D01*
X148573135Y-89047037D01*
X148573133Y-89047038D01*
X148458683Y-89105353D01*
X148367853Y-89196183D01*
X148309538Y-89310633D01*
X148309537Y-89310635D01*
X148289445Y-89437497D01*
X140304616Y-89437497D01*
X140310555Y-89400002D01*
X140310555Y-89399997D01*
X140290462Y-89273135D01*
X140290461Y-89273133D01*
X140290461Y-89273132D01*
X140232146Y-89158682D01*
X140141318Y-89067854D01*
X140026868Y-89009539D01*
X140026867Y-89009538D01*
X140026866Y-89009538D01*
X140026864Y-89009537D01*
X139900002Y-88989445D01*
X139899998Y-88989445D01*
X139773135Y-89009537D01*
X139773133Y-89009538D01*
X139658683Y-89067853D01*
X139658682Y-89067853D01*
X139658682Y-89067854D01*
X139612931Y-89113604D01*
X139557757Y-89139332D01*
X139498952Y-89123576D01*
X139487073Y-89113609D01*
X139441318Y-89067854D01*
X139326868Y-89009539D01*
X139326867Y-89009538D01*
X139326866Y-89009538D01*
X139326864Y-89009537D01*
X139200002Y-88989445D01*
X139199998Y-88989445D01*
X139073135Y-89009537D01*
X139073133Y-89009538D01*
X138958683Y-89067853D01*
X138867853Y-89158683D01*
X138809538Y-89273133D01*
X138809537Y-89273135D01*
X138789445Y-89399997D01*
X128100000Y-89399997D01*
X128100000Y-87449997D01*
X144179445Y-87449997D01*
X144179445Y-87450002D01*
X144199537Y-87576864D01*
X144199538Y-87576866D01*
X144199538Y-87576867D01*
X144199539Y-87576868D01*
X144257854Y-87691318D01*
X144348682Y-87782146D01*
X144463132Y-87840461D01*
X144463133Y-87840461D01*
X144463135Y-87840462D01*
X144589998Y-87860555D01*
X144590000Y-87860555D01*
X144590002Y-87860555D01*
X144716864Y-87840462D01*
X144716865Y-87840461D01*
X144716868Y-87840461D01*
X144831318Y-87782146D01*
X144922146Y-87691318D01*
X144980461Y-87576868D01*
X144987337Y-87533458D01*
X145000555Y-87450002D01*
X145000555Y-87449997D01*
X146589445Y-87449997D01*
X146589445Y-87450002D01*
X146609537Y-87576864D01*
X146609538Y-87576866D01*
X146609538Y-87576867D01*
X146609539Y-87576868D01*
X146667854Y-87691318D01*
X146758682Y-87782146D01*
X146873132Y-87840461D01*
X146873133Y-87840461D01*
X146873135Y-87840462D01*
X146999998Y-87860555D01*
X147000000Y-87860555D01*
X147000002Y-87860555D01*
X147126864Y-87840462D01*
X147126865Y-87840461D01*
X147126868Y-87840461D01*
X147241318Y-87782146D01*
X147248467Y-87774997D01*
X158939445Y-87774997D01*
X158939445Y-87775002D01*
X158959537Y-87901864D01*
X158959538Y-87901866D01*
X158959538Y-87901867D01*
X158959539Y-87901868D01*
X159017854Y-88016318D01*
X159088604Y-88087068D01*
X159114332Y-88142243D01*
X159098576Y-88201048D01*
X159088609Y-88212926D01*
X159017854Y-88283682D01*
X159017853Y-88283683D01*
X158959538Y-88398133D01*
X158959537Y-88398135D01*
X158939445Y-88524997D01*
X158939445Y-88525002D01*
X158959537Y-88651864D01*
X158959538Y-88651866D01*
X158959538Y-88651867D01*
X158959539Y-88651868D01*
X159017854Y-88766318D01*
X159108682Y-88857146D01*
X159223132Y-88915461D01*
X159223133Y-88915461D01*
X159223135Y-88915462D01*
X159349998Y-88935555D01*
X159350000Y-88935555D01*
X159350002Y-88935555D01*
X159476864Y-88915462D01*
X159476865Y-88915461D01*
X159476868Y-88915461D01*
X159591318Y-88857146D01*
X159682146Y-88766318D01*
X159720700Y-88690650D01*
X159765225Y-88649131D01*
X159826021Y-88645945D01*
X159874642Y-88682583D01*
X159879298Y-88690648D01*
X159917854Y-88766318D01*
X160008682Y-88857146D01*
X160123132Y-88915461D01*
X160123133Y-88915461D01*
X160123135Y-88915462D01*
X160249998Y-88935555D01*
X160250000Y-88935555D01*
X160250002Y-88935555D01*
X160376864Y-88915462D01*
X160376865Y-88915461D01*
X160376868Y-88915461D01*
X160491318Y-88857146D01*
X160582146Y-88766318D01*
X160640461Y-88651868D01*
X160660555Y-88525000D01*
X160641399Y-88404054D01*
X160640462Y-88398135D01*
X160640461Y-88398133D01*
X160640461Y-88398132D01*
X160582146Y-88283682D01*
X160511188Y-88212724D01*
X160485461Y-88157550D01*
X160501217Y-88098745D01*
X160511184Y-88086866D01*
X160581961Y-88016090D01*
X160640276Y-87901640D01*
X160641168Y-87896012D01*
X160660370Y-87774774D01*
X160660370Y-87774769D01*
X160640277Y-87647907D01*
X160640276Y-87647905D01*
X160640276Y-87647904D01*
X160581961Y-87533454D01*
X160491133Y-87442626D01*
X160376683Y-87384311D01*
X160376682Y-87384310D01*
X160376681Y-87384310D01*
X160376679Y-87384309D01*
X160249817Y-87364217D01*
X160249813Y-87364217D01*
X160122950Y-87384309D01*
X160122948Y-87384310D01*
X160008498Y-87442625D01*
X159917665Y-87533458D01*
X159879148Y-87609053D01*
X159834624Y-87650573D01*
X159773828Y-87653759D01*
X159725207Y-87617121D01*
X159720549Y-87609053D01*
X159704148Y-87576864D01*
X159682146Y-87533682D01*
X159591318Y-87442854D01*
X159476868Y-87384539D01*
X159476867Y-87384538D01*
X159476866Y-87384538D01*
X159476864Y-87384537D01*
X159350002Y-87364445D01*
X159349998Y-87364445D01*
X159223135Y-87384537D01*
X159223133Y-87384538D01*
X159108683Y-87442853D01*
X159017853Y-87533683D01*
X158959538Y-87648133D01*
X158959537Y-87648135D01*
X158939445Y-87774997D01*
X147248467Y-87774997D01*
X147332146Y-87691318D01*
X147390461Y-87576868D01*
X147397337Y-87533458D01*
X147410555Y-87450002D01*
X147410555Y-87449997D01*
X147390462Y-87323135D01*
X147390461Y-87323133D01*
X147390461Y-87323132D01*
X147332146Y-87208682D01*
X147241318Y-87117854D01*
X147126868Y-87059539D01*
X147126867Y-87059538D01*
X147126866Y-87059538D01*
X147126864Y-87059537D01*
X147000002Y-87039445D01*
X146999998Y-87039445D01*
X146873135Y-87059537D01*
X146873133Y-87059538D01*
X146758683Y-87117853D01*
X146667853Y-87208683D01*
X146609538Y-87323133D01*
X146609537Y-87323135D01*
X146589445Y-87449997D01*
X145000555Y-87449997D01*
X144980462Y-87323135D01*
X144980461Y-87323133D01*
X144980461Y-87323132D01*
X144922146Y-87208682D01*
X144831318Y-87117854D01*
X144716868Y-87059539D01*
X144716867Y-87059538D01*
X144716866Y-87059538D01*
X144716864Y-87059537D01*
X144590002Y-87039445D01*
X144589998Y-87039445D01*
X144463135Y-87059537D01*
X144463133Y-87059538D01*
X144348683Y-87117853D01*
X144257853Y-87208683D01*
X144199538Y-87323133D01*
X144199537Y-87323135D01*
X144179445Y-87449997D01*
X128100000Y-87449997D01*
X128100000Y-83550098D01*
X128120822Y-83492890D01*
X128173545Y-83462450D01*
X128233500Y-83473022D01*
X128272633Y-83519658D01*
X128273006Y-83520704D01*
X128286199Y-83558410D01*
X128408055Y-83811447D01*
X128408058Y-83811451D01*
X128557473Y-84049243D01*
X128557477Y-84049248D01*
X128732584Y-84268825D01*
X128931175Y-84467416D01*
X129045619Y-84558682D01*
X129150756Y-84642526D01*
X129388548Y-84791941D01*
X129388552Y-84791944D01*
X129591206Y-84889536D01*
X129641592Y-84913801D01*
X129906682Y-85006560D01*
X130180491Y-85069055D01*
X130459575Y-85100500D01*
X130740425Y-85100500D01*
X131019509Y-85069055D01*
X131293318Y-85006560D01*
X131558408Y-84913801D01*
X131690899Y-84849997D01*
X137239445Y-84849997D01*
X137239445Y-84850002D01*
X137259537Y-84976864D01*
X137259538Y-84976866D01*
X137259538Y-84976867D01*
X137259539Y-84976868D01*
X137317854Y-85091318D01*
X137408682Y-85182146D01*
X137523132Y-85240461D01*
X137523133Y-85240461D01*
X137523135Y-85240462D01*
X137649998Y-85260555D01*
X137650000Y-85260555D01*
X137650002Y-85260555D01*
X137776864Y-85240462D01*
X137776865Y-85240461D01*
X137776868Y-85240461D01*
X137891318Y-85182146D01*
X137982146Y-85091318D01*
X138040461Y-84976868D01*
X138048381Y-84926868D01*
X138060555Y-84850002D01*
X138060555Y-84849997D01*
X138052636Y-84799997D01*
X141589445Y-84799997D01*
X141589445Y-84800002D01*
X141609537Y-84926864D01*
X141609538Y-84926866D01*
X141609538Y-84926867D01*
X141609539Y-84926868D01*
X141667854Y-85041318D01*
X141758682Y-85132146D01*
X141873132Y-85190461D01*
X141873133Y-85190461D01*
X141873135Y-85190462D01*
X141999998Y-85210555D01*
X142000000Y-85210555D01*
X142000002Y-85210555D01*
X142126864Y-85190462D01*
X142126865Y-85190461D01*
X142126868Y-85190461D01*
X142241318Y-85132146D01*
X142332146Y-85041318D01*
X142390461Y-84926868D01*
X142402636Y-84850002D01*
X142410555Y-84800002D01*
X142410555Y-84799997D01*
X155839445Y-84799997D01*
X155839445Y-84800002D01*
X155859537Y-84926864D01*
X155859538Y-84926866D01*
X155859538Y-84926867D01*
X155859539Y-84926868D01*
X155917854Y-85041318D01*
X156008682Y-85132146D01*
X156123132Y-85190461D01*
X156123133Y-85190461D01*
X156123135Y-85190462D01*
X156249998Y-85210555D01*
X156250000Y-85210555D01*
X156250002Y-85210555D01*
X156376864Y-85190462D01*
X156376865Y-85190461D01*
X156376868Y-85190461D01*
X156491318Y-85132146D01*
X156582146Y-85041318D01*
X156640461Y-84926868D01*
X156652636Y-84850002D01*
X156660555Y-84800002D01*
X156660555Y-84799997D01*
X160539445Y-84799997D01*
X160539445Y-84800002D01*
X160559537Y-84926864D01*
X160559538Y-84926866D01*
X160559538Y-84926867D01*
X160559539Y-84926868D01*
X160617854Y-85041318D01*
X160708682Y-85132146D01*
X160823132Y-85190461D01*
X160823133Y-85190461D01*
X160823135Y-85190462D01*
X160949998Y-85210555D01*
X160950000Y-85210555D01*
X160950002Y-85210555D01*
X161076864Y-85190462D01*
X161076865Y-85190461D01*
X161076868Y-85190461D01*
X161191318Y-85132146D01*
X161282146Y-85041318D01*
X161340461Y-84926868D01*
X161352636Y-84850002D01*
X161360555Y-84800002D01*
X161360555Y-84799997D01*
X161340462Y-84673135D01*
X161340461Y-84673133D01*
X161340461Y-84673132D01*
X161282146Y-84558682D01*
X161191318Y-84467854D01*
X161076868Y-84409539D01*
X161076867Y-84409538D01*
X161076866Y-84409538D01*
X161076864Y-84409537D01*
X160950002Y-84389445D01*
X160949998Y-84389445D01*
X160823135Y-84409537D01*
X160823133Y-84409538D01*
X160708683Y-84467853D01*
X160617853Y-84558683D01*
X160559538Y-84673133D01*
X160559537Y-84673135D01*
X160539445Y-84799997D01*
X156660555Y-84799997D01*
X156640462Y-84673135D01*
X156640461Y-84673133D01*
X156640461Y-84673132D01*
X156582146Y-84558682D01*
X156491318Y-84467854D01*
X156376868Y-84409539D01*
X156376867Y-84409538D01*
X156376866Y-84409538D01*
X156376864Y-84409537D01*
X156250002Y-84389445D01*
X156249998Y-84389445D01*
X156123135Y-84409537D01*
X156123133Y-84409538D01*
X156008683Y-84467853D01*
X155917853Y-84558683D01*
X155859538Y-84673133D01*
X155859537Y-84673135D01*
X155839445Y-84799997D01*
X142410555Y-84799997D01*
X142390462Y-84673135D01*
X142390461Y-84673133D01*
X142390461Y-84673132D01*
X142332146Y-84558682D01*
X142241318Y-84467854D01*
X142126868Y-84409539D01*
X142126867Y-84409538D01*
X142126866Y-84409538D01*
X142126864Y-84409537D01*
X142000002Y-84389445D01*
X141999998Y-84389445D01*
X141873135Y-84409537D01*
X141873133Y-84409538D01*
X141758683Y-84467853D01*
X141667853Y-84558683D01*
X141609538Y-84673133D01*
X141609537Y-84673135D01*
X141589445Y-84799997D01*
X138052636Y-84799997D01*
X138040462Y-84723135D01*
X138040461Y-84723133D01*
X138040461Y-84723132D01*
X137982146Y-84608682D01*
X137891318Y-84517854D01*
X137776868Y-84459539D01*
X137776867Y-84459538D01*
X137776866Y-84459538D01*
X137776864Y-84459537D01*
X137650002Y-84439445D01*
X137649998Y-84439445D01*
X137523135Y-84459537D01*
X137523133Y-84459538D01*
X137408683Y-84517853D01*
X137317853Y-84608683D01*
X137259538Y-84723133D01*
X137259537Y-84723135D01*
X137239445Y-84849997D01*
X131690899Y-84849997D01*
X131811445Y-84791945D01*
X132049248Y-84642523D01*
X132268825Y-84467416D01*
X132467416Y-84268825D01*
X132642523Y-84049248D01*
X132791945Y-83811445D01*
X132893773Y-83599997D01*
X152889445Y-83599997D01*
X152889445Y-83600002D01*
X152909537Y-83726864D01*
X152909538Y-83726866D01*
X152909538Y-83726867D01*
X152909539Y-83726868D01*
X152967854Y-83841318D01*
X153058682Y-83932146D01*
X153173132Y-83990461D01*
X153173133Y-83990461D01*
X153173135Y-83990462D01*
X153299998Y-84010555D01*
X153300000Y-84010555D01*
X153300002Y-84010555D01*
X153426864Y-83990462D01*
X153426865Y-83990461D01*
X153426868Y-83990461D01*
X153541318Y-83932146D01*
X153632146Y-83841318D01*
X153690461Y-83726868D01*
X153710555Y-83600000D01*
X153710555Y-83599997D01*
X153690462Y-83473135D01*
X153690461Y-83473133D01*
X153690461Y-83473132D01*
X153632146Y-83358682D01*
X153541318Y-83267854D01*
X153426868Y-83209539D01*
X153426867Y-83209538D01*
X153426866Y-83209538D01*
X153426864Y-83209537D01*
X153300002Y-83189445D01*
X153299998Y-83189445D01*
X153173135Y-83209537D01*
X153173133Y-83209538D01*
X153058683Y-83267853D01*
X152967853Y-83358683D01*
X152909538Y-83473133D01*
X152909537Y-83473135D01*
X152889445Y-83599997D01*
X132893773Y-83599997D01*
X132913801Y-83558408D01*
X133006560Y-83293318D01*
X133069055Y-83019509D01*
X133100500Y-82740425D01*
X133100500Y-82459575D01*
X133069055Y-82180491D01*
X133006560Y-81906682D01*
X132947360Y-81737497D01*
X137239445Y-81737497D01*
X137239445Y-81737502D01*
X137259537Y-81864364D01*
X137259538Y-81864366D01*
X137259538Y-81864367D01*
X137259539Y-81864368D01*
X137291384Y-81926868D01*
X137317856Y-81978821D01*
X137321970Y-81984484D01*
X137319184Y-81986508D01*
X137339337Y-82029806D01*
X137323538Y-82088600D01*
X137321945Y-82090498D01*
X137321970Y-82090516D01*
X137317856Y-82096178D01*
X137259538Y-82210633D01*
X137259537Y-82210635D01*
X137239445Y-82337497D01*
X137239445Y-82337502D01*
X137259537Y-82464364D01*
X137259538Y-82464366D01*
X137259538Y-82464367D01*
X137259539Y-82464368D01*
X137317854Y-82578818D01*
X137408682Y-82669646D01*
X137523132Y-82727961D01*
X137523133Y-82727961D01*
X137523135Y-82727962D01*
X137649998Y-82748055D01*
X137650000Y-82748055D01*
X137650002Y-82748055D01*
X137776864Y-82727962D01*
X137776865Y-82727961D01*
X137776868Y-82727961D01*
X137891318Y-82669646D01*
X137891321Y-82669643D01*
X137896984Y-82665530D01*
X137899014Y-82668324D01*
X137942243Y-82648168D01*
X138001048Y-82663924D01*
X138002995Y-82665558D01*
X138003016Y-82665530D01*
X138008678Y-82669643D01*
X138008680Y-82669644D01*
X138008682Y-82669646D01*
X138123132Y-82727961D01*
X138123133Y-82727961D01*
X138123135Y-82727962D01*
X138249998Y-82748055D01*
X138250000Y-82748055D01*
X138250002Y-82748055D01*
X138376864Y-82727962D01*
X138376865Y-82727961D01*
X138376868Y-82727961D01*
X138491318Y-82669646D01*
X138582146Y-82578818D01*
X138640461Y-82464368D01*
X138641221Y-82459575D01*
X138660555Y-82337502D01*
X138660555Y-82337497D01*
X138640462Y-82210635D01*
X138640461Y-82210633D01*
X138640461Y-82210632D01*
X138582146Y-82096182D01*
X138582144Y-82096180D01*
X138582143Y-82096178D01*
X138578030Y-82090516D01*
X138580824Y-82088485D01*
X138560668Y-82045257D01*
X138570115Y-82009997D01*
X143639445Y-82009997D01*
X143639445Y-82010002D01*
X143659537Y-82136864D01*
X143659538Y-82136866D01*
X143659538Y-82136867D01*
X143659539Y-82136868D01*
X143717854Y-82251318D01*
X143808682Y-82342146D01*
X143923132Y-82400461D01*
X143923133Y-82400461D01*
X143923135Y-82400462D01*
X144049998Y-82420555D01*
X144050000Y-82420555D01*
X144050002Y-82420555D01*
X144176864Y-82400462D01*
X144176865Y-82400461D01*
X144176868Y-82400461D01*
X144291318Y-82342146D01*
X144382146Y-82251318D01*
X144440461Y-82136868D01*
X144442098Y-82126536D01*
X144460555Y-82010002D01*
X144460555Y-82009997D01*
X144440462Y-81883135D01*
X144440461Y-81883133D01*
X144440461Y-81883132D01*
X144398102Y-81799997D01*
X146701945Y-81799997D01*
X146701945Y-81800002D01*
X146722037Y-81926864D01*
X146722038Y-81926866D01*
X146722038Y-81926867D01*
X146722039Y-81926868D01*
X146774488Y-82029806D01*
X146780356Y-82041321D01*
X146784470Y-82046984D01*
X146781684Y-82049008D01*
X146801837Y-82092306D01*
X146786038Y-82151100D01*
X146784445Y-82152998D01*
X146784470Y-82153016D01*
X146780356Y-82158678D01*
X146722038Y-82273133D01*
X146722037Y-82273135D01*
X146701945Y-82399997D01*
X146701945Y-82400002D01*
X146722037Y-82526864D01*
X146722038Y-82526866D01*
X146722038Y-82526867D01*
X146722039Y-82526868D01*
X146780354Y-82641318D01*
X146871182Y-82732146D01*
X146985632Y-82790461D01*
X146985633Y-82790461D01*
X146985635Y-82790462D01*
X147112498Y-82810555D01*
X147112500Y-82810555D01*
X147112502Y-82810555D01*
X147239364Y-82790462D01*
X147239365Y-82790461D01*
X147239368Y-82790461D01*
X147353818Y-82732146D01*
X147353821Y-82732143D01*
X147359484Y-82728030D01*
X147361514Y-82730824D01*
X147404743Y-82710668D01*
X147463548Y-82726424D01*
X147465495Y-82728058D01*
X147465516Y-82728030D01*
X147471178Y-82732143D01*
X147471180Y-82732144D01*
X147471182Y-82732146D01*
X147585632Y-82790461D01*
X147585633Y-82790461D01*
X147585635Y-82790462D01*
X147712498Y-82810555D01*
X147712500Y-82810555D01*
X147712502Y-82810555D01*
X147839364Y-82790462D01*
X147839365Y-82790461D01*
X147839368Y-82790461D01*
X147953818Y-82732146D01*
X148044646Y-82641318D01*
X148102961Y-82526868D01*
X148107217Y-82500002D01*
X148123055Y-82400002D01*
X148123055Y-82399997D01*
X148102962Y-82273135D01*
X148102961Y-82273133D01*
X148102961Y-82273132D01*
X148044646Y-82158682D01*
X148044644Y-82158680D01*
X148044643Y-82158678D01*
X148040530Y-82153016D01*
X148043324Y-82150985D01*
X148023168Y-82107757D01*
X148038924Y-82048952D01*
X148040558Y-82047004D01*
X148040530Y-82046984D01*
X148044643Y-82041321D01*
X148044646Y-82041318D01*
X148102961Y-81926868D01*
X148106159Y-81906682D01*
X148107218Y-81899997D01*
X155801945Y-81899997D01*
X155801945Y-81900002D01*
X155822037Y-82026864D01*
X155822038Y-82026866D01*
X155822038Y-82026867D01*
X155822039Y-82026868D01*
X155872822Y-82126536D01*
X155880356Y-82141321D01*
X155884470Y-82146984D01*
X155881684Y-82149008D01*
X155901837Y-82192306D01*
X155886038Y-82251100D01*
X155884445Y-82252998D01*
X155884470Y-82253016D01*
X155880356Y-82258678D01*
X155822038Y-82373133D01*
X155822037Y-82373135D01*
X155801945Y-82499997D01*
X155801945Y-82500002D01*
X155822037Y-82626864D01*
X155822038Y-82626866D01*
X155822038Y-82626867D01*
X155822039Y-82626868D01*
X155880354Y-82741318D01*
X155971182Y-82832146D01*
X156085632Y-82890461D01*
X156085633Y-82890461D01*
X156085635Y-82890462D01*
X156212498Y-82910555D01*
X156212500Y-82910555D01*
X156212502Y-82910555D01*
X156339364Y-82890462D01*
X156339365Y-82890461D01*
X156339368Y-82890461D01*
X156453818Y-82832146D01*
X156453821Y-82832143D01*
X156459484Y-82828030D01*
X156461514Y-82830824D01*
X156504743Y-82810668D01*
X156563548Y-82826424D01*
X156565495Y-82828058D01*
X156565516Y-82828030D01*
X156571178Y-82832143D01*
X156571180Y-82832144D01*
X156571182Y-82832146D01*
X156685632Y-82890461D01*
X156685633Y-82890461D01*
X156685635Y-82890462D01*
X156812498Y-82910555D01*
X156812500Y-82910555D01*
X156812502Y-82910555D01*
X156939364Y-82890462D01*
X156939365Y-82890461D01*
X156939368Y-82890461D01*
X157053818Y-82832146D01*
X157144646Y-82741318D01*
X157202961Y-82626868D01*
X157210572Y-82578818D01*
X157223055Y-82500002D01*
X157223055Y-82499997D01*
X157202962Y-82373135D01*
X157202961Y-82373133D01*
X157202961Y-82373132D01*
X157144646Y-82258682D01*
X157144644Y-82258680D01*
X157144643Y-82258678D01*
X157140530Y-82253016D01*
X157143324Y-82250985D01*
X157123168Y-82207757D01*
X157138924Y-82148952D01*
X157140558Y-82147004D01*
X157140530Y-82146984D01*
X157144643Y-82141321D01*
X157144646Y-82141318D01*
X157202961Y-82026868D01*
X157205633Y-82010002D01*
X157223055Y-81900002D01*
X157223055Y-81899997D01*
X157202962Y-81773135D01*
X157202961Y-81773133D01*
X157202961Y-81773132D01*
X157144646Y-81658682D01*
X157053818Y-81567854D01*
X156939368Y-81509539D01*
X156939367Y-81509538D01*
X156939366Y-81509538D01*
X156939364Y-81509537D01*
X156812502Y-81489445D01*
X156812498Y-81489445D01*
X156685635Y-81509537D01*
X156685633Y-81509538D01*
X156571178Y-81567856D01*
X156565516Y-81571970D01*
X156563491Y-81569184D01*
X156520194Y-81589337D01*
X156461400Y-81573538D01*
X156459501Y-81571945D01*
X156459484Y-81571970D01*
X156453821Y-81567856D01*
X156453818Y-81567854D01*
X156339368Y-81509539D01*
X156339367Y-81509538D01*
X156339366Y-81509538D01*
X156339364Y-81509537D01*
X156212502Y-81489445D01*
X156212498Y-81489445D01*
X156085635Y-81509537D01*
X156085633Y-81509538D01*
X155971183Y-81567853D01*
X155880353Y-81658683D01*
X155822038Y-81773133D01*
X155822037Y-81773135D01*
X155801945Y-81899997D01*
X148107218Y-81899997D01*
X148123055Y-81800002D01*
X148123055Y-81799997D01*
X148102962Y-81673135D01*
X148102961Y-81673133D01*
X148102961Y-81673132D01*
X148044646Y-81558682D01*
X147953818Y-81467854D01*
X147839368Y-81409539D01*
X147839367Y-81409538D01*
X147839366Y-81409538D01*
X147839364Y-81409537D01*
X147712502Y-81389445D01*
X147712498Y-81389445D01*
X147585635Y-81409537D01*
X147585633Y-81409538D01*
X147471178Y-81467856D01*
X147465516Y-81471970D01*
X147463491Y-81469184D01*
X147420194Y-81489337D01*
X147361400Y-81473538D01*
X147359501Y-81471945D01*
X147359484Y-81471970D01*
X147353821Y-81467856D01*
X147353818Y-81467854D01*
X147239368Y-81409539D01*
X147239367Y-81409538D01*
X147239366Y-81409538D01*
X147239364Y-81409537D01*
X147112502Y-81389445D01*
X147112498Y-81389445D01*
X146985635Y-81409537D01*
X146985633Y-81409538D01*
X146871183Y-81467853D01*
X146780353Y-81558683D01*
X146722038Y-81673133D01*
X146722037Y-81673135D01*
X146701945Y-81799997D01*
X144398102Y-81799997D01*
X144382146Y-81768682D01*
X144291318Y-81677854D01*
X144176868Y-81619539D01*
X144176867Y-81619538D01*
X144176866Y-81619538D01*
X144176864Y-81619537D01*
X144050002Y-81599445D01*
X144049998Y-81599445D01*
X143923135Y-81619537D01*
X143923133Y-81619538D01*
X143808683Y-81677853D01*
X143717853Y-81768683D01*
X143659538Y-81883133D01*
X143659537Y-81883135D01*
X143639445Y-82009997D01*
X138570115Y-82009997D01*
X138576424Y-81986452D01*
X138578058Y-81984504D01*
X138578030Y-81984484D01*
X138582143Y-81978821D01*
X138582146Y-81978818D01*
X138640461Y-81864368D01*
X138650657Y-81799997D01*
X138660555Y-81737502D01*
X138660555Y-81737497D01*
X138640462Y-81610635D01*
X138640461Y-81610633D01*
X138640461Y-81610632D01*
X138582146Y-81496182D01*
X138491318Y-81405354D01*
X138376868Y-81347039D01*
X138376867Y-81347038D01*
X138376866Y-81347038D01*
X138376864Y-81347037D01*
X138250002Y-81326945D01*
X138249998Y-81326945D01*
X138123135Y-81347037D01*
X138123133Y-81347038D01*
X138008678Y-81405356D01*
X138003016Y-81409470D01*
X138000991Y-81406684D01*
X137957694Y-81426837D01*
X137898900Y-81411038D01*
X137897001Y-81409445D01*
X137896984Y-81409470D01*
X137891321Y-81405356D01*
X137891318Y-81405354D01*
X137776868Y-81347039D01*
X137776867Y-81347038D01*
X137776866Y-81347038D01*
X137776864Y-81347037D01*
X137650002Y-81326945D01*
X137649998Y-81326945D01*
X137523135Y-81347037D01*
X137523133Y-81347038D01*
X137408683Y-81405353D01*
X137317853Y-81496183D01*
X137259538Y-81610633D01*
X137259537Y-81610635D01*
X137239445Y-81737497D01*
X132947360Y-81737497D01*
X132913801Y-81641592D01*
X132843776Y-81496183D01*
X132791944Y-81388552D01*
X132791941Y-81388548D01*
X132642526Y-81150756D01*
X132467418Y-80931178D01*
X132467416Y-80931175D01*
X132268825Y-80732584D01*
X132049248Y-80557477D01*
X132049243Y-80557473D01*
X131811451Y-80408058D01*
X131811447Y-80408055D01*
X131558413Y-80286201D01*
X131558409Y-80286199D01*
X131558408Y-80286199D01*
X131520703Y-80273005D01*
X131473583Y-80234457D01*
X131462265Y-80174639D01*
X131492045Y-80121540D01*
X131548990Y-80100007D01*
X131550099Y-80100000D01*
X163649901Y-80100000D01*
X163707109Y-80120822D01*
G37*
G04 #@! TD.AperFunction*
G04 #@! TD*
M02*
