G04 #@! TF.GenerationSoftware,KiCad,Pcbnew,8.0.4*
G04 #@! TF.CreationDate,2025-07-27T14:59:45-07:00*
G04 #@! TF.ProjectId,IMX283_MIPI_Camera_v2,494d5832-3833-45f4-9d49-50495f43616d,rev?*
G04 #@! TF.SameCoordinates,Original*
G04 #@! TF.FileFunction,Paste,Top*
G04 #@! TF.FilePolarity,Positive*
%FSLAX46Y46*%
G04 Gerber Fmt 4.6, Leading zero omitted, Abs format (unit mm)*
G04 Created by KiCad (PCBNEW 8.0.4) date 2025-07-27 14:59:45*
%MOMM*%
%LPD*%
G01*
G04 APERTURE LIST*
%ADD10R,0.600000X0.300000*%
%ADD11R,0.300000X0.600000*%
%ADD12R,0.700000X0.300000*%
%ADD13R,1.800000X0.300000*%
%ADD14R,1.168400X0.254000*%
%ADD15R,0.600000X0.600000*%
%ADD16R,0.400000X0.400000*%
%ADD17R,0.650000X0.850000*%
%ADD18R,0.449999X0.299999*%
G04 APERTURE END LIST*
G04 #@! TO.C,U2*
G36*
G01*
X137935000Y-88640000D02*
X137365000Y-88640000D01*
G75*
G02*
X137245000Y-88520000I0J120000D01*
G01*
X137245000Y-88280000D01*
G75*
G02*
X137365000Y-88160000I120000J0D01*
G01*
X137935000Y-88160000D01*
G75*
G02*
X138055000Y-88280000I0J-120000D01*
G01*
X138055000Y-88520000D01*
G75*
G02*
X137935000Y-88640000I-120000J0D01*
G01*
G37*
G36*
G01*
X138935000Y-88640000D02*
X138365000Y-88640000D01*
G75*
G02*
X138245000Y-88520000I0J120000D01*
G01*
X138245000Y-88280000D01*
G75*
G02*
X138365000Y-88160000I120000J0D01*
G01*
X138935000Y-88160000D01*
G75*
G02*
X139055000Y-88280000I0J-120000D01*
G01*
X139055000Y-88520000D01*
G75*
G02*
X138935000Y-88640000I-120000J0D01*
G01*
G37*
G36*
G01*
X137935000Y-88040000D02*
X137365000Y-88040000D01*
G75*
G02*
X137245000Y-87920000I0J120000D01*
G01*
X137245000Y-87680000D01*
G75*
G02*
X137365000Y-87560000I120000J0D01*
G01*
X137935000Y-87560000D01*
G75*
G02*
X138055000Y-87680000I0J-120000D01*
G01*
X138055000Y-87920000D01*
G75*
G02*
X137935000Y-88040000I-120000J0D01*
G01*
G37*
G36*
G01*
X138935000Y-88040000D02*
X138365000Y-88040000D01*
G75*
G02*
X138245000Y-87920000I0J120000D01*
G01*
X138245000Y-87680000D01*
G75*
G02*
X138365000Y-87560000I120000J0D01*
G01*
X138935000Y-87560000D01*
G75*
G02*
X139055000Y-87680000I0J-120000D01*
G01*
X139055000Y-87920000D01*
G75*
G02*
X138935000Y-88040000I-120000J0D01*
G01*
G37*
G36*
G01*
X137212500Y-89725000D02*
X137087500Y-89725000D01*
G75*
G02*
X137025000Y-89662500I0J62500D01*
G01*
X137025000Y-88962500D01*
G75*
G02*
X137087500Y-88900000I62500J0D01*
G01*
X137212500Y-88900000D01*
G75*
G02*
X137275000Y-88962500I0J-62500D01*
G01*
X137275000Y-89662500D01*
G75*
G02*
X137212500Y-89725000I-62500J0D01*
G01*
G37*
G36*
G01*
X137712500Y-89725000D02*
X137587500Y-89725000D01*
G75*
G02*
X137525000Y-89662500I0J62500D01*
G01*
X137525000Y-88962500D01*
G75*
G02*
X137587500Y-88900000I62500J0D01*
G01*
X137712500Y-88900000D01*
G75*
G02*
X137775000Y-88962500I0J-62500D01*
G01*
X137775000Y-89662500D01*
G75*
G02*
X137712500Y-89725000I-62500J0D01*
G01*
G37*
G36*
G01*
X138212500Y-89725000D02*
X138087500Y-89725000D01*
G75*
G02*
X138025000Y-89662500I0J62500D01*
G01*
X138025000Y-88962500D01*
G75*
G02*
X138087500Y-88900000I62500J0D01*
G01*
X138212500Y-88900000D01*
G75*
G02*
X138275000Y-88962500I0J-62500D01*
G01*
X138275000Y-89662500D01*
G75*
G02*
X138212500Y-89725000I-62500J0D01*
G01*
G37*
G36*
G01*
X138712500Y-89725000D02*
X138587500Y-89725000D01*
G75*
G02*
X138525000Y-89662500I0J62500D01*
G01*
X138525000Y-88962500D01*
G75*
G02*
X138587500Y-88900000I62500J0D01*
G01*
X138712500Y-88900000D01*
G75*
G02*
X138775000Y-88962500I0J-62500D01*
G01*
X138775000Y-89662500D01*
G75*
G02*
X138712500Y-89725000I-62500J0D01*
G01*
G37*
G36*
G01*
X139212500Y-89725000D02*
X139087500Y-89725000D01*
G75*
G02*
X139025000Y-89662500I0J62500D01*
G01*
X139025000Y-88962500D01*
G75*
G02*
X139087500Y-88900000I62500J0D01*
G01*
X139212500Y-88900000D01*
G75*
G02*
X139275000Y-88962500I0J-62500D01*
G01*
X139275000Y-89662500D01*
G75*
G02*
X139212500Y-89725000I-62500J0D01*
G01*
G37*
G36*
G01*
X139212500Y-87300000D02*
X139087500Y-87300000D01*
G75*
G02*
X139025000Y-87237500I0J62500D01*
G01*
X139025000Y-86537500D01*
G75*
G02*
X139087500Y-86475000I62500J0D01*
G01*
X139212500Y-86475000D01*
G75*
G02*
X139275000Y-86537500I0J-62500D01*
G01*
X139275000Y-87237500D01*
G75*
G02*
X139212500Y-87300000I-62500J0D01*
G01*
G37*
G36*
G01*
X138712500Y-87300000D02*
X138587500Y-87300000D01*
G75*
G02*
X138525000Y-87237500I0J62500D01*
G01*
X138525000Y-86537500D01*
G75*
G02*
X138587500Y-86475000I62500J0D01*
G01*
X138712500Y-86475000D01*
G75*
G02*
X138775000Y-86537500I0J-62500D01*
G01*
X138775000Y-87237500D01*
G75*
G02*
X138712500Y-87300000I-62500J0D01*
G01*
G37*
G36*
G01*
X138212500Y-87300000D02*
X138087500Y-87300000D01*
G75*
G02*
X138025000Y-87237500I0J62500D01*
G01*
X138025000Y-86537500D01*
G75*
G02*
X138087500Y-86475000I62500J0D01*
G01*
X138212500Y-86475000D01*
G75*
G02*
X138275000Y-86537500I0J-62500D01*
G01*
X138275000Y-87237500D01*
G75*
G02*
X138212500Y-87300000I-62500J0D01*
G01*
G37*
G36*
G01*
X137712500Y-87300000D02*
X137587500Y-87300000D01*
G75*
G02*
X137525000Y-87237500I0J62500D01*
G01*
X137525000Y-86537500D01*
G75*
G02*
X137587500Y-86475000I62500J0D01*
G01*
X137712500Y-86475000D01*
G75*
G02*
X137775000Y-86537500I0J-62500D01*
G01*
X137775000Y-87237500D01*
G75*
G02*
X137712500Y-87300000I-62500J0D01*
G01*
G37*
G36*
G01*
X137212500Y-87300000D02*
X137087500Y-87300000D01*
G75*
G02*
X137025000Y-87237500I0J62500D01*
G01*
X137025000Y-86537500D01*
G75*
G02*
X137087500Y-86475000I62500J0D01*
G01*
X137212500Y-86475000D01*
G75*
G02*
X137275000Y-86537500I0J-62500D01*
G01*
X137275000Y-87237500D01*
G75*
G02*
X137212500Y-87300000I-62500J0D01*
G01*
G37*
G04 #@! TD*
D10*
G04 #@! TO.C,U9*
X131262500Y-109450000D03*
X131262500Y-109950000D03*
X131262500Y-110450000D03*
X131262500Y-110950000D03*
D11*
X131912500Y-111100000D03*
X132412500Y-111100000D03*
X132912500Y-111100000D03*
D10*
X133562500Y-110950000D03*
X133562500Y-110450000D03*
X133562500Y-109950000D03*
X133562500Y-109450000D03*
D11*
X132912500Y-109300000D03*
X132412500Y-109300000D03*
X131912500Y-109300000D03*
G04 #@! TD*
G04 #@! TO.C,C7*
G36*
G01*
X152430000Y-105590000D02*
X152770000Y-105590000D01*
G75*
G02*
X152910000Y-105730000I0J-140000D01*
G01*
X152910000Y-106010000D01*
G75*
G02*
X152770000Y-106150000I-140000J0D01*
G01*
X152430000Y-106150000D01*
G75*
G02*
X152290000Y-106010000I0J140000D01*
G01*
X152290000Y-105730000D01*
G75*
G02*
X152430000Y-105590000I140000J0D01*
G01*
G37*
G36*
G01*
X152430000Y-106550000D02*
X152770000Y-106550000D01*
G75*
G02*
X152910000Y-106690000I0J-140000D01*
G01*
X152910000Y-106970000D01*
G75*
G02*
X152770000Y-107110000I-140000J0D01*
G01*
X152430000Y-107110000D01*
G75*
G02*
X152290000Y-106970000I0J140000D01*
G01*
X152290000Y-106690000D01*
G75*
G02*
X152430000Y-106550000I140000J0D01*
G01*
G37*
G04 #@! TD*
D12*
G04 #@! TO.C,FL1*
X159475000Y-94575000D03*
X160725000Y-94575000D03*
X160725000Y-95125000D03*
X159475000Y-95125000D03*
G04 #@! TD*
G04 #@! TO.C,C44*
G36*
G01*
X133860000Y-112130000D02*
X133860000Y-112470000D01*
G75*
G02*
X133720000Y-112610000I-140000J0D01*
G01*
X133440000Y-112610000D01*
G75*
G02*
X133300000Y-112470000I0J140000D01*
G01*
X133300000Y-112130000D01*
G75*
G02*
X133440000Y-111990000I140000J0D01*
G01*
X133720000Y-111990000D01*
G75*
G02*
X133860000Y-112130000I0J-140000D01*
G01*
G37*
G36*
G01*
X132900000Y-112130000D02*
X132900000Y-112470000D01*
G75*
G02*
X132760000Y-112610000I-140000J0D01*
G01*
X132480000Y-112610000D01*
G75*
G02*
X132340000Y-112470000I0J140000D01*
G01*
X132340000Y-112130000D01*
G75*
G02*
X132480000Y-111990000I140000J0D01*
G01*
X132760000Y-111990000D01*
G75*
G02*
X132900000Y-112130000I0J-140000D01*
G01*
G37*
G04 #@! TD*
G04 #@! TO.C,C37*
G36*
G01*
X146975000Y-89950000D02*
X146975000Y-89450000D01*
G75*
G02*
X147200000Y-89225000I225000J0D01*
G01*
X147650000Y-89225000D01*
G75*
G02*
X147875000Y-89450000I0J-225000D01*
G01*
X147875000Y-89950000D01*
G75*
G02*
X147650000Y-90175000I-225000J0D01*
G01*
X147200000Y-90175000D01*
G75*
G02*
X146975000Y-89950000I0J225000D01*
G01*
G37*
G36*
G01*
X148525000Y-89950000D02*
X148525000Y-89450000D01*
G75*
G02*
X148750000Y-89225000I225000J0D01*
G01*
X149200000Y-89225000D01*
G75*
G02*
X149425000Y-89450000I0J-225000D01*
G01*
X149425000Y-89950000D01*
G75*
G02*
X149200000Y-90175000I-225000J0D01*
G01*
X148750000Y-90175000D01*
G75*
G02*
X148525000Y-89950000I0J225000D01*
G01*
G37*
G04 #@! TD*
G04 #@! TO.C,C14*
G36*
G01*
X150430000Y-105590000D02*
X150770000Y-105590000D01*
G75*
G02*
X150910000Y-105730000I0J-140000D01*
G01*
X150910000Y-106010000D01*
G75*
G02*
X150770000Y-106150000I-140000J0D01*
G01*
X150430000Y-106150000D01*
G75*
G02*
X150290000Y-106010000I0J140000D01*
G01*
X150290000Y-105730000D01*
G75*
G02*
X150430000Y-105590000I140000J0D01*
G01*
G37*
G36*
G01*
X150430000Y-106550000D02*
X150770000Y-106550000D01*
G75*
G02*
X150910000Y-106690000I0J-140000D01*
G01*
X150910000Y-106970000D01*
G75*
G02*
X150770000Y-107110000I-140000J0D01*
G01*
X150430000Y-107110000D01*
G75*
G02*
X150290000Y-106970000I0J140000D01*
G01*
X150290000Y-106690000D01*
G75*
G02*
X150430000Y-106550000I140000J0D01*
G01*
G37*
G04 #@! TD*
G04 #@! TO.C,C8*
G36*
G01*
X152110000Y-102430000D02*
X152110000Y-102770000D01*
G75*
G02*
X151970000Y-102910000I-140000J0D01*
G01*
X151690000Y-102910000D01*
G75*
G02*
X151550000Y-102770000I0J140000D01*
G01*
X151550000Y-102430000D01*
G75*
G02*
X151690000Y-102290000I140000J0D01*
G01*
X151970000Y-102290000D01*
G75*
G02*
X152110000Y-102430000I0J-140000D01*
G01*
G37*
G36*
G01*
X151150000Y-102430000D02*
X151150000Y-102770000D01*
G75*
G02*
X151010000Y-102910000I-140000J0D01*
G01*
X150730000Y-102910000D01*
G75*
G02*
X150590000Y-102770000I0J140000D01*
G01*
X150590000Y-102430000D01*
G75*
G02*
X150730000Y-102290000I140000J0D01*
G01*
X151010000Y-102290000D01*
G75*
G02*
X151150000Y-102430000I0J-140000D01*
G01*
G37*
G04 #@! TD*
G04 #@! TO.C,C43*
G36*
G01*
X131960000Y-112130000D02*
X131960000Y-112470000D01*
G75*
G02*
X131820000Y-112610000I-140000J0D01*
G01*
X131540000Y-112610000D01*
G75*
G02*
X131400000Y-112470000I0J140000D01*
G01*
X131400000Y-112130000D01*
G75*
G02*
X131540000Y-111990000I140000J0D01*
G01*
X131820000Y-111990000D01*
G75*
G02*
X131960000Y-112130000I0J-140000D01*
G01*
G37*
G36*
G01*
X131000000Y-112130000D02*
X131000000Y-112470000D01*
G75*
G02*
X130860000Y-112610000I-140000J0D01*
G01*
X130580000Y-112610000D01*
G75*
G02*
X130440000Y-112470000I0J140000D01*
G01*
X130440000Y-112130000D01*
G75*
G02*
X130580000Y-111990000I140000J0D01*
G01*
X130860000Y-111990000D01*
G75*
G02*
X131000000Y-112130000I0J-140000D01*
G01*
G37*
G04 #@! TD*
D13*
G04 #@! TO.C,J1*
X165250000Y-104850000D03*
X162550000Y-104350000D03*
X165250000Y-103850000D03*
X162550000Y-103350000D03*
X165250000Y-102850000D03*
X162550000Y-102350000D03*
X165250000Y-101850000D03*
X162550000Y-101350000D03*
X165250000Y-100850000D03*
X162550000Y-100350000D03*
X165250000Y-99850000D03*
X162550000Y-99350000D03*
X165250000Y-98850000D03*
X162550000Y-98350000D03*
X165250000Y-97850000D03*
X162550000Y-97350000D03*
X165250000Y-96850000D03*
X162550000Y-96350000D03*
X165250000Y-95850000D03*
X162550000Y-95350000D03*
X165250000Y-94850000D03*
X162550000Y-94350000D03*
X165250000Y-93350000D03*
X162550000Y-93350000D03*
X165250000Y-105850000D03*
X162550000Y-105850000D03*
G04 #@! TD*
G04 #@! TO.C,FB4*
G36*
G01*
X150772500Y-111180000D02*
X150427500Y-111180000D01*
G75*
G02*
X150280000Y-111032500I0J147500D01*
G01*
X150280000Y-110737500D01*
G75*
G02*
X150427500Y-110590000I147500J0D01*
G01*
X150772500Y-110590000D01*
G75*
G02*
X150920000Y-110737500I0J-147500D01*
G01*
X150920000Y-111032500D01*
G75*
G02*
X150772500Y-111180000I-147500J0D01*
G01*
G37*
G36*
G01*
X150772500Y-110210000D02*
X150427500Y-110210000D01*
G75*
G02*
X150280000Y-110062500I0J147500D01*
G01*
X150280000Y-109767500D01*
G75*
G02*
X150427500Y-109620000I147500J0D01*
G01*
X150772500Y-109620000D01*
G75*
G02*
X150920000Y-109767500I0J-147500D01*
G01*
X150920000Y-110062500D01*
G75*
G02*
X150772500Y-110210000I-147500J0D01*
G01*
G37*
G04 #@! TD*
G04 #@! TO.C,C36*
G36*
G01*
X156810000Y-89280000D02*
X156810000Y-89620000D01*
G75*
G02*
X156670000Y-89760000I-140000J0D01*
G01*
X156390000Y-89760000D01*
G75*
G02*
X156250000Y-89620000I0J140000D01*
G01*
X156250000Y-89280000D01*
G75*
G02*
X156390000Y-89140000I140000J0D01*
G01*
X156670000Y-89140000D01*
G75*
G02*
X156810000Y-89280000I0J-140000D01*
G01*
G37*
G36*
G01*
X155850000Y-89280000D02*
X155850000Y-89620000D01*
G75*
G02*
X155710000Y-89760000I-140000J0D01*
G01*
X155430000Y-89760000D01*
G75*
G02*
X155290000Y-89620000I0J140000D01*
G01*
X155290000Y-89280000D01*
G75*
G02*
X155430000Y-89140000I140000J0D01*
G01*
X155710000Y-89140000D01*
G75*
G02*
X155850000Y-89280000I0J-140000D01*
G01*
G37*
G04 #@! TD*
G04 #@! TO.C,R7*
G36*
G01*
X145880000Y-86115000D02*
X145880000Y-86485000D01*
G75*
G02*
X145745000Y-86620000I-135000J0D01*
G01*
X145475000Y-86620000D01*
G75*
G02*
X145340000Y-86485000I0J135000D01*
G01*
X145340000Y-86115000D01*
G75*
G02*
X145475000Y-85980000I135000J0D01*
G01*
X145745000Y-85980000D01*
G75*
G02*
X145880000Y-86115000I0J-135000D01*
G01*
G37*
G36*
G01*
X144860000Y-86115000D02*
X144860000Y-86485000D01*
G75*
G02*
X144725000Y-86620000I-135000J0D01*
G01*
X144455000Y-86620000D01*
G75*
G02*
X144320000Y-86485000I0J135000D01*
G01*
X144320000Y-86115000D01*
G75*
G02*
X144455000Y-85980000I135000J0D01*
G01*
X144725000Y-85980000D01*
G75*
G02*
X144860000Y-86115000I0J-135000D01*
G01*
G37*
G04 #@! TD*
G04 #@! TO.C,C27*
G36*
G01*
X141430000Y-105590000D02*
X141770000Y-105590000D01*
G75*
G02*
X141910000Y-105730000I0J-140000D01*
G01*
X141910000Y-106010000D01*
G75*
G02*
X141770000Y-106150000I-140000J0D01*
G01*
X141430000Y-106150000D01*
G75*
G02*
X141290000Y-106010000I0J140000D01*
G01*
X141290000Y-105730000D01*
G75*
G02*
X141430000Y-105590000I140000J0D01*
G01*
G37*
G36*
G01*
X141430000Y-106550000D02*
X141770000Y-106550000D01*
G75*
G02*
X141910000Y-106690000I0J-140000D01*
G01*
X141910000Y-106970000D01*
G75*
G02*
X141770000Y-107110000I-140000J0D01*
G01*
X141430000Y-107110000D01*
G75*
G02*
X141290000Y-106970000I0J140000D01*
G01*
X141290000Y-106690000D01*
G75*
G02*
X141430000Y-106550000I140000J0D01*
G01*
G37*
G04 #@! TD*
D12*
G04 #@! TO.C,FL4*
X159475000Y-99525000D03*
X160725000Y-99525000D03*
X160725000Y-100075000D03*
X159475000Y-100075000D03*
G04 #@! TD*
G04 #@! TO.C,FL5*
X159475000Y-100625000D03*
X160725000Y-100625000D03*
X160725000Y-101175000D03*
X159475000Y-101175000D03*
G04 #@! TD*
G04 #@! TO.C,C2*
G36*
G01*
X153430000Y-100940000D02*
X153770000Y-100940000D01*
G75*
G02*
X153910000Y-101080000I0J-140000D01*
G01*
X153910000Y-101360000D01*
G75*
G02*
X153770000Y-101500000I-140000J0D01*
G01*
X153430000Y-101500000D01*
G75*
G02*
X153290000Y-101360000I0J140000D01*
G01*
X153290000Y-101080000D01*
G75*
G02*
X153430000Y-100940000I140000J0D01*
G01*
G37*
G36*
G01*
X153430000Y-101900000D02*
X153770000Y-101900000D01*
G75*
G02*
X153910000Y-102040000I0J-140000D01*
G01*
X153910000Y-102320000D01*
G75*
G02*
X153770000Y-102460000I-140000J0D01*
G01*
X153430000Y-102460000D01*
G75*
G02*
X153290000Y-102320000I0J140000D01*
G01*
X153290000Y-102040000D01*
G75*
G02*
X153430000Y-101900000I140000J0D01*
G01*
G37*
G04 #@! TD*
G04 #@! TO.C,C9*
G36*
G01*
X142930000Y-105740000D02*
X143270000Y-105740000D01*
G75*
G02*
X143410000Y-105880000I0J-140000D01*
G01*
X143410000Y-106160000D01*
G75*
G02*
X143270000Y-106300000I-140000J0D01*
G01*
X142930000Y-106300000D01*
G75*
G02*
X142790000Y-106160000I0J140000D01*
G01*
X142790000Y-105880000D01*
G75*
G02*
X142930000Y-105740000I140000J0D01*
G01*
G37*
G36*
G01*
X142930000Y-106700000D02*
X143270000Y-106700000D01*
G75*
G02*
X143410000Y-106840000I0J-140000D01*
G01*
X143410000Y-107120000D01*
G75*
G02*
X143270000Y-107260000I-140000J0D01*
G01*
X142930000Y-107260000D01*
G75*
G02*
X142790000Y-107120000I0J140000D01*
G01*
X142790000Y-106840000D01*
G75*
G02*
X142930000Y-106700000I140000J0D01*
G01*
G37*
G04 #@! TD*
G04 #@! TO.C,R11*
G36*
G01*
X138685000Y-91460000D02*
X138315000Y-91460000D01*
G75*
G02*
X138180000Y-91325000I0J135000D01*
G01*
X138180000Y-91055000D01*
G75*
G02*
X138315000Y-90920000I135000J0D01*
G01*
X138685000Y-90920000D01*
G75*
G02*
X138820000Y-91055000I0J-135000D01*
G01*
X138820000Y-91325000D01*
G75*
G02*
X138685000Y-91460000I-135000J0D01*
G01*
G37*
G36*
G01*
X138685000Y-92480000D02*
X138315000Y-92480000D01*
G75*
G02*
X138180000Y-92345000I0J135000D01*
G01*
X138180000Y-92075000D01*
G75*
G02*
X138315000Y-91940000I135000J0D01*
G01*
X138685000Y-91940000D01*
G75*
G02*
X138820000Y-92075000I0J-135000D01*
G01*
X138820000Y-92345000D01*
G75*
G02*
X138685000Y-92480000I-135000J0D01*
G01*
G37*
G04 #@! TD*
G04 #@! TO.C,C34*
G36*
G01*
X137725000Y-85050000D02*
X137725000Y-85550000D01*
G75*
G02*
X137500000Y-85775000I-225000J0D01*
G01*
X137050000Y-85775000D01*
G75*
G02*
X136825000Y-85550000I0J225000D01*
G01*
X136825000Y-85050000D01*
G75*
G02*
X137050000Y-84825000I225000J0D01*
G01*
X137500000Y-84825000D01*
G75*
G02*
X137725000Y-85050000I0J-225000D01*
G01*
G37*
G36*
G01*
X136175000Y-85050000D02*
X136175000Y-85550000D01*
G75*
G02*
X135950000Y-85775000I-225000J0D01*
G01*
X135500000Y-85775000D01*
G75*
G02*
X135275000Y-85550000I0J225000D01*
G01*
X135275000Y-85050000D01*
G75*
G02*
X135500000Y-84825000I225000J0D01*
G01*
X135950000Y-84825000D01*
G75*
G02*
X136175000Y-85050000I0J-225000D01*
G01*
G37*
G04 #@! TD*
G04 #@! TO.C,C38*
G36*
G01*
X149425000Y-83550000D02*
X149425000Y-84050000D01*
G75*
G02*
X149200000Y-84275000I-225000J0D01*
G01*
X148750000Y-84275000D01*
G75*
G02*
X148525000Y-84050000I0J225000D01*
G01*
X148525000Y-83550000D01*
G75*
G02*
X148750000Y-83325000I225000J0D01*
G01*
X149200000Y-83325000D01*
G75*
G02*
X149425000Y-83550000I0J-225000D01*
G01*
G37*
G36*
G01*
X147875000Y-83550000D02*
X147875000Y-84050000D01*
G75*
G02*
X147650000Y-84275000I-225000J0D01*
G01*
X147200000Y-84275000D01*
G75*
G02*
X146975000Y-84050000I0J225000D01*
G01*
X146975000Y-83550000D01*
G75*
G02*
X147200000Y-83325000I225000J0D01*
G01*
X147650000Y-83325000D01*
G75*
G02*
X147875000Y-83550000I0J-225000D01*
G01*
G37*
G04 #@! TD*
G04 #@! TO.C,C21*
G36*
G01*
X153770000Y-104310000D02*
X153430000Y-104310000D01*
G75*
G02*
X153290000Y-104170000I0J140000D01*
G01*
X153290000Y-103890000D01*
G75*
G02*
X153430000Y-103750000I140000J0D01*
G01*
X153770000Y-103750000D01*
G75*
G02*
X153910000Y-103890000I0J-140000D01*
G01*
X153910000Y-104170000D01*
G75*
G02*
X153770000Y-104310000I-140000J0D01*
G01*
G37*
G36*
G01*
X153770000Y-103350000D02*
X153430000Y-103350000D01*
G75*
G02*
X153290000Y-103210000I0J140000D01*
G01*
X153290000Y-102930000D01*
G75*
G02*
X153430000Y-102790000I140000J0D01*
G01*
X153770000Y-102790000D01*
G75*
G02*
X153910000Y-102930000I0J-140000D01*
G01*
X153910000Y-103210000D01*
G75*
G02*
X153770000Y-103350000I-140000J0D01*
G01*
G37*
G04 #@! TD*
G04 #@! TO.C,C16*
G36*
G01*
X139910000Y-96430000D02*
X139910000Y-96770000D01*
G75*
G02*
X139770000Y-96910000I-140000J0D01*
G01*
X139490000Y-96910000D01*
G75*
G02*
X139350000Y-96770000I0J140000D01*
G01*
X139350000Y-96430000D01*
G75*
G02*
X139490000Y-96290000I140000J0D01*
G01*
X139770000Y-96290000D01*
G75*
G02*
X139910000Y-96430000I0J-140000D01*
G01*
G37*
G36*
G01*
X138950000Y-96430000D02*
X138950000Y-96770000D01*
G75*
G02*
X138810000Y-96910000I-140000J0D01*
G01*
X138530000Y-96910000D01*
G75*
G02*
X138390000Y-96770000I0J140000D01*
G01*
X138390000Y-96430000D01*
G75*
G02*
X138530000Y-96290000I140000J0D01*
G01*
X138810000Y-96290000D01*
G75*
G02*
X138950000Y-96430000I0J-140000D01*
G01*
G37*
G04 #@! TD*
G04 #@! TO.C,C40*
G36*
G01*
X145470000Y-113460000D02*
X145130000Y-113460000D01*
G75*
G02*
X144990000Y-113320000I0J140000D01*
G01*
X144990000Y-113040000D01*
G75*
G02*
X145130000Y-112900000I140000J0D01*
G01*
X145470000Y-112900000D01*
G75*
G02*
X145610000Y-113040000I0J-140000D01*
G01*
X145610000Y-113320000D01*
G75*
G02*
X145470000Y-113460000I-140000J0D01*
G01*
G37*
G36*
G01*
X145470000Y-112500000D02*
X145130000Y-112500000D01*
G75*
G02*
X144990000Y-112360000I0J140000D01*
G01*
X144990000Y-112080000D01*
G75*
G02*
X145130000Y-111940000I140000J0D01*
G01*
X145470000Y-111940000D01*
G75*
G02*
X145610000Y-112080000I0J-140000D01*
G01*
X145610000Y-112360000D01*
G75*
G02*
X145470000Y-112500000I-140000J0D01*
G01*
G37*
G04 #@! TD*
G04 #@! TO.C,U1*
G36*
G01*
X158000000Y-85050000D02*
X158300000Y-85050000D01*
G75*
G02*
X158450000Y-85200000I0J-150000D01*
G01*
X158450000Y-86225000D01*
G75*
G02*
X158300000Y-86375000I-150000J0D01*
G01*
X158000000Y-86375000D01*
G75*
G02*
X157850000Y-86225000I0J150000D01*
G01*
X157850000Y-85200000D01*
G75*
G02*
X158000000Y-85050000I150000J0D01*
G01*
G37*
G36*
G01*
X157050000Y-85050000D02*
X157350000Y-85050000D01*
G75*
G02*
X157500000Y-85200000I0J-150000D01*
G01*
X157500000Y-86225000D01*
G75*
G02*
X157350000Y-86375000I-150000J0D01*
G01*
X157050000Y-86375000D01*
G75*
G02*
X156900000Y-86225000I0J150000D01*
G01*
X156900000Y-85200000D01*
G75*
G02*
X157050000Y-85050000I150000J0D01*
G01*
G37*
G36*
G01*
X156100000Y-85050000D02*
X156400000Y-85050000D01*
G75*
G02*
X156550000Y-85200000I0J-150000D01*
G01*
X156550000Y-86225000D01*
G75*
G02*
X156400000Y-86375000I-150000J0D01*
G01*
X156100000Y-86375000D01*
G75*
G02*
X155950000Y-86225000I0J150000D01*
G01*
X155950000Y-85200000D01*
G75*
G02*
X156100000Y-85050000I150000J0D01*
G01*
G37*
G36*
G01*
X156100000Y-87325000D02*
X156400000Y-87325000D01*
G75*
G02*
X156550000Y-87475000I0J-150000D01*
G01*
X156550000Y-88500000D01*
G75*
G02*
X156400000Y-88650000I-150000J0D01*
G01*
X156100000Y-88650000D01*
G75*
G02*
X155950000Y-88500000I0J150000D01*
G01*
X155950000Y-87475000D01*
G75*
G02*
X156100000Y-87325000I150000J0D01*
G01*
G37*
G36*
G01*
X158000000Y-87325000D02*
X158300000Y-87325000D01*
G75*
G02*
X158450000Y-87475000I0J-150000D01*
G01*
X158450000Y-88500000D01*
G75*
G02*
X158300000Y-88650000I-150000J0D01*
G01*
X158000000Y-88650000D01*
G75*
G02*
X157850000Y-88500000I0J150000D01*
G01*
X157850000Y-87475000D01*
G75*
G02*
X158000000Y-87325000I150000J0D01*
G01*
G37*
G04 #@! TD*
G04 #@! TO.C,R10*
G36*
G01*
X136685000Y-91460000D02*
X136315000Y-91460000D01*
G75*
G02*
X136180000Y-91325000I0J135000D01*
G01*
X136180000Y-91055000D01*
G75*
G02*
X136315000Y-90920000I135000J0D01*
G01*
X136685000Y-90920000D01*
G75*
G02*
X136820000Y-91055000I0J-135000D01*
G01*
X136820000Y-91325000D01*
G75*
G02*
X136685000Y-91460000I-135000J0D01*
G01*
G37*
G36*
G01*
X136685000Y-92480000D02*
X136315000Y-92480000D01*
G75*
G02*
X136180000Y-92345000I0J135000D01*
G01*
X136180000Y-92075000D01*
G75*
G02*
X136315000Y-91940000I135000J0D01*
G01*
X136685000Y-91940000D01*
G75*
G02*
X136820000Y-92075000I0J-135000D01*
G01*
X136820000Y-92345000D01*
G75*
G02*
X136685000Y-92480000I-135000J0D01*
G01*
G37*
G04 #@! TD*
G04 #@! TO.C,R1*
G36*
G01*
X152285000Y-104980000D02*
X151915000Y-104980000D01*
G75*
G02*
X151780000Y-104845000I0J135000D01*
G01*
X151780000Y-104575000D01*
G75*
G02*
X151915000Y-104440000I135000J0D01*
G01*
X152285000Y-104440000D01*
G75*
G02*
X152420000Y-104575000I0J-135000D01*
G01*
X152420000Y-104845000D01*
G75*
G02*
X152285000Y-104980000I-135000J0D01*
G01*
G37*
G36*
G01*
X152285000Y-103960000D02*
X151915000Y-103960000D01*
G75*
G02*
X151780000Y-103825000I0J135000D01*
G01*
X151780000Y-103555000D01*
G75*
G02*
X151915000Y-103420000I135000J0D01*
G01*
X152285000Y-103420000D01*
G75*
G02*
X152420000Y-103555000I0J-135000D01*
G01*
X152420000Y-103825000D01*
G75*
G02*
X152285000Y-103960000I-135000J0D01*
G01*
G37*
G04 #@! TD*
G04 #@! TO.C,C46*
G36*
G01*
X137670000Y-91500000D02*
X137330000Y-91500000D01*
G75*
G02*
X137190000Y-91360000I0J140000D01*
G01*
X137190000Y-91080000D01*
G75*
G02*
X137330000Y-90940000I140000J0D01*
G01*
X137670000Y-90940000D01*
G75*
G02*
X137810000Y-91080000I0J-140000D01*
G01*
X137810000Y-91360000D01*
G75*
G02*
X137670000Y-91500000I-140000J0D01*
G01*
G37*
G36*
G01*
X137670000Y-92460000D02*
X137330000Y-92460000D01*
G75*
G02*
X137190000Y-92320000I0J140000D01*
G01*
X137190000Y-92040000D01*
G75*
G02*
X137330000Y-91900000I140000J0D01*
G01*
X137670000Y-91900000D01*
G75*
G02*
X137810000Y-92040000I0J-140000D01*
G01*
X137810000Y-92320000D01*
G75*
G02*
X137670000Y-92460000I-140000J0D01*
G01*
G37*
G04 #@! TD*
D14*
G04 #@! TO.C,U7*
X149671600Y-113650001D03*
X149671600Y-113150000D03*
X149671600Y-112650000D03*
X149671600Y-112149999D03*
X146928400Y-112149999D03*
X146928400Y-112650000D03*
X146928400Y-113150000D03*
X146928400Y-113650001D03*
G04 #@! TD*
G04 #@! TO.C,FB2*
G36*
G01*
X139150000Y-81843750D02*
X139150000Y-82356250D01*
G75*
G02*
X138931250Y-82575000I-218750J0D01*
G01*
X138493750Y-82575000D01*
G75*
G02*
X138275000Y-82356250I0J218750D01*
G01*
X138275000Y-81843750D01*
G75*
G02*
X138493750Y-81625000I218750J0D01*
G01*
X138931250Y-81625000D01*
G75*
G02*
X139150000Y-81843750I0J-218750D01*
G01*
G37*
G36*
G01*
X140725000Y-81843750D02*
X140725000Y-82356250D01*
G75*
G02*
X140506250Y-82575000I-218750J0D01*
G01*
X140068750Y-82575000D01*
G75*
G02*
X139850000Y-82356250I0J218750D01*
G01*
X139850000Y-81843750D01*
G75*
G02*
X140068750Y-81625000I218750J0D01*
G01*
X140506250Y-81625000D01*
G75*
G02*
X140725000Y-81843750I0J-218750D01*
G01*
G37*
G04 #@! TD*
G04 #@! TO.C,C17*
G36*
G01*
X151870000Y-93610000D02*
X151530000Y-93610000D01*
G75*
G02*
X151390000Y-93470000I0J140000D01*
G01*
X151390000Y-93190000D01*
G75*
G02*
X151530000Y-93050000I140000J0D01*
G01*
X151870000Y-93050000D01*
G75*
G02*
X152010000Y-93190000I0J-140000D01*
G01*
X152010000Y-93470000D01*
G75*
G02*
X151870000Y-93610000I-140000J0D01*
G01*
G37*
G36*
G01*
X151870000Y-92650000D02*
X151530000Y-92650000D01*
G75*
G02*
X151390000Y-92510000I0J140000D01*
G01*
X151390000Y-92230000D01*
G75*
G02*
X151530000Y-92090000I140000J0D01*
G01*
X151870000Y-92090000D01*
G75*
G02*
X152010000Y-92230000I0J-140000D01*
G01*
X152010000Y-92510000D01*
G75*
G02*
X151870000Y-92650000I-140000J0D01*
G01*
G37*
G04 #@! TD*
G04 #@! TO.C,C1*
G36*
G01*
X143270000Y-93610000D02*
X142930000Y-93610000D01*
G75*
G02*
X142790000Y-93470000I0J140000D01*
G01*
X142790000Y-93190000D01*
G75*
G02*
X142930000Y-93050000I140000J0D01*
G01*
X143270000Y-93050000D01*
G75*
G02*
X143410000Y-93190000I0J-140000D01*
G01*
X143410000Y-93470000D01*
G75*
G02*
X143270000Y-93610000I-140000J0D01*
G01*
G37*
G36*
G01*
X143270000Y-92650000D02*
X142930000Y-92650000D01*
G75*
G02*
X142790000Y-92510000I0J140000D01*
G01*
X142790000Y-92230000D01*
G75*
G02*
X142930000Y-92090000I140000J0D01*
G01*
X143270000Y-92090000D01*
G75*
G02*
X143410000Y-92230000I0J-140000D01*
G01*
X143410000Y-92510000D01*
G75*
G02*
X143270000Y-92650000I-140000J0D01*
G01*
G37*
G04 #@! TD*
G04 #@! TO.C,FB3*
G36*
G01*
X149425000Y-81843750D02*
X149425000Y-82356250D01*
G75*
G02*
X149206250Y-82575000I-218750J0D01*
G01*
X148768750Y-82575000D01*
G75*
G02*
X148550000Y-82356250I0J218750D01*
G01*
X148550000Y-81843750D01*
G75*
G02*
X148768750Y-81625000I218750J0D01*
G01*
X149206250Y-81625000D01*
G75*
G02*
X149425000Y-81843750I0J-218750D01*
G01*
G37*
G36*
G01*
X147850000Y-81843750D02*
X147850000Y-82356250D01*
G75*
G02*
X147631250Y-82575000I-218750J0D01*
G01*
X147193750Y-82575000D01*
G75*
G02*
X146975000Y-82356250I0J218750D01*
G01*
X146975000Y-81843750D01*
G75*
G02*
X147193750Y-81625000I218750J0D01*
G01*
X147631250Y-81625000D01*
G75*
G02*
X147850000Y-81843750I0J-218750D01*
G01*
G37*
G04 #@! TD*
G04 #@! TO.C,C45*
G36*
G01*
X138670000Y-85760000D02*
X138330000Y-85760000D01*
G75*
G02*
X138190000Y-85620000I0J140000D01*
G01*
X138190000Y-85340000D01*
G75*
G02*
X138330000Y-85200000I140000J0D01*
G01*
X138670000Y-85200000D01*
G75*
G02*
X138810000Y-85340000I0J-140000D01*
G01*
X138810000Y-85620000D01*
G75*
G02*
X138670000Y-85760000I-140000J0D01*
G01*
G37*
G36*
G01*
X138670000Y-84800000D02*
X138330000Y-84800000D01*
G75*
G02*
X138190000Y-84660000I0J140000D01*
G01*
X138190000Y-84380000D01*
G75*
G02*
X138330000Y-84240000I140000J0D01*
G01*
X138670000Y-84240000D01*
G75*
G02*
X138810000Y-84380000I0J-140000D01*
G01*
X138810000Y-84660000D01*
G75*
G02*
X138670000Y-84800000I-140000J0D01*
G01*
G37*
G04 #@! TD*
G04 #@! TO.C,R6*
G36*
G01*
X144320000Y-87585000D02*
X144320000Y-87215000D01*
G75*
G02*
X144455000Y-87080000I135000J0D01*
G01*
X144725000Y-87080000D01*
G75*
G02*
X144860000Y-87215000I0J-135000D01*
G01*
X144860000Y-87585000D01*
G75*
G02*
X144725000Y-87720000I-135000J0D01*
G01*
X144455000Y-87720000D01*
G75*
G02*
X144320000Y-87585000I0J135000D01*
G01*
G37*
G36*
G01*
X145340000Y-87585000D02*
X145340000Y-87215000D01*
G75*
G02*
X145475000Y-87080000I135000J0D01*
G01*
X145745000Y-87080000D01*
G75*
G02*
X145880000Y-87215000I0J-135000D01*
G01*
X145880000Y-87585000D01*
G75*
G02*
X145745000Y-87720000I-135000J0D01*
G01*
X145475000Y-87720000D01*
G75*
G02*
X145340000Y-87585000I0J135000D01*
G01*
G37*
G04 #@! TD*
G04 #@! TO.C,R8*
G36*
G01*
X153470000Y-93785000D02*
X153470000Y-93415000D01*
G75*
G02*
X153605000Y-93280000I135000J0D01*
G01*
X153875000Y-93280000D01*
G75*
G02*
X154010000Y-93415000I0J-135000D01*
G01*
X154010000Y-93785000D01*
G75*
G02*
X153875000Y-93920000I-135000J0D01*
G01*
X153605000Y-93920000D01*
G75*
G02*
X153470000Y-93785000I0J135000D01*
G01*
G37*
G36*
G01*
X154490000Y-93785000D02*
X154490000Y-93415000D01*
G75*
G02*
X154625000Y-93280000I135000J0D01*
G01*
X154895000Y-93280000D01*
G75*
G02*
X155030000Y-93415000I0J-135000D01*
G01*
X155030000Y-93785000D01*
G75*
G02*
X154895000Y-93920000I-135000J0D01*
G01*
X154625000Y-93920000D01*
G75*
G02*
X154490000Y-93785000I0J135000D01*
G01*
G37*
G04 #@! TD*
G04 #@! TO.C,L1*
G36*
G01*
X150318750Y-87500000D02*
X151081250Y-87500000D01*
G75*
G02*
X151300000Y-87718750I0J-218750D01*
G01*
X151300000Y-88156250D01*
G75*
G02*
X151081250Y-88375000I-218750J0D01*
G01*
X150318750Y-88375000D01*
G75*
G02*
X150100000Y-88156250I0J218750D01*
G01*
X150100000Y-87718750D01*
G75*
G02*
X150318750Y-87500000I218750J0D01*
G01*
G37*
G36*
G01*
X150318750Y-89625000D02*
X151081250Y-89625000D01*
G75*
G02*
X151300000Y-89843750I0J-218750D01*
G01*
X151300000Y-90281250D01*
G75*
G02*
X151081250Y-90500000I-218750J0D01*
G01*
X150318750Y-90500000D01*
G75*
G02*
X150100000Y-90281250I0J218750D01*
G01*
X150100000Y-89843750D01*
G75*
G02*
X150318750Y-89625000I218750J0D01*
G01*
G37*
G04 #@! TD*
D15*
G04 #@! TO.C,C26*
X137250000Y-82300000D03*
D16*
X137650000Y-83100000D03*
X136850000Y-83100000D03*
D15*
X137250000Y-83900000D03*
G04 #@! TD*
G04 #@! TO.C,C3*
G36*
G01*
X147770000Y-93610000D02*
X147430000Y-93610000D01*
G75*
G02*
X147290000Y-93470000I0J140000D01*
G01*
X147290000Y-93190000D01*
G75*
G02*
X147430000Y-93050000I140000J0D01*
G01*
X147770000Y-93050000D01*
G75*
G02*
X147910000Y-93190000I0J-140000D01*
G01*
X147910000Y-93470000D01*
G75*
G02*
X147770000Y-93610000I-140000J0D01*
G01*
G37*
G36*
G01*
X147770000Y-92650000D02*
X147430000Y-92650000D01*
G75*
G02*
X147290000Y-92510000I0J140000D01*
G01*
X147290000Y-92230000D01*
G75*
G02*
X147430000Y-92090000I140000J0D01*
G01*
X147770000Y-92090000D01*
G75*
G02*
X147910000Y-92230000I0J-140000D01*
G01*
X147910000Y-92510000D01*
G75*
G02*
X147770000Y-92650000I-140000J0D01*
G01*
G37*
G04 #@! TD*
G04 #@! TO.C,C22*
G36*
G01*
X140110000Y-103930000D02*
X140110000Y-104270000D01*
G75*
G02*
X139970000Y-104410000I-140000J0D01*
G01*
X139690000Y-104410000D01*
G75*
G02*
X139550000Y-104270000I0J140000D01*
G01*
X139550000Y-103930000D01*
G75*
G02*
X139690000Y-103790000I140000J0D01*
G01*
X139970000Y-103790000D01*
G75*
G02*
X140110000Y-103930000I0J-140000D01*
G01*
G37*
G36*
G01*
X139150000Y-103930000D02*
X139150000Y-104270000D01*
G75*
G02*
X139010000Y-104410000I-140000J0D01*
G01*
X138730000Y-104410000D01*
G75*
G02*
X138590000Y-104270000I0J140000D01*
G01*
X138590000Y-103930000D01*
G75*
G02*
X138730000Y-103790000I140000J0D01*
G01*
X139010000Y-103790000D01*
G75*
G02*
X139150000Y-103930000I0J-140000D01*
G01*
G37*
G04 #@! TD*
G04 #@! TO.C,C23*
G36*
G01*
X140340000Y-92320000D02*
X140340000Y-91980000D01*
G75*
G02*
X140480000Y-91840000I140000J0D01*
G01*
X140760000Y-91840000D01*
G75*
G02*
X140900000Y-91980000I0J-140000D01*
G01*
X140900000Y-92320000D01*
G75*
G02*
X140760000Y-92460000I-140000J0D01*
G01*
X140480000Y-92460000D01*
G75*
G02*
X140340000Y-92320000I0J140000D01*
G01*
G37*
G36*
G01*
X141300000Y-92320000D02*
X141300000Y-91980000D01*
G75*
G02*
X141440000Y-91840000I140000J0D01*
G01*
X141720000Y-91840000D01*
G75*
G02*
X141860000Y-91980000I0J-140000D01*
G01*
X141860000Y-92320000D01*
G75*
G02*
X141720000Y-92460000I-140000J0D01*
G01*
X141440000Y-92460000D01*
G75*
G02*
X141300000Y-92320000I0J140000D01*
G01*
G37*
G04 #@! TD*
G04 #@! TO.C,R4*
G36*
G01*
X140920000Y-112885000D02*
X140920000Y-112515000D01*
G75*
G02*
X141055000Y-112380000I135000J0D01*
G01*
X141325000Y-112380000D01*
G75*
G02*
X141460000Y-112515000I0J-135000D01*
G01*
X141460000Y-112885000D01*
G75*
G02*
X141325000Y-113020000I-135000J0D01*
G01*
X141055000Y-113020000D01*
G75*
G02*
X140920000Y-112885000I0J135000D01*
G01*
G37*
G36*
G01*
X141940000Y-112885000D02*
X141940000Y-112515000D01*
G75*
G02*
X142075000Y-112380000I135000J0D01*
G01*
X142345000Y-112380000D01*
G75*
G02*
X142480000Y-112515000I0J-135000D01*
G01*
X142480000Y-112885000D01*
G75*
G02*
X142345000Y-113020000I-135000J0D01*
G01*
X142075000Y-113020000D01*
G75*
G02*
X141940000Y-112885000I0J135000D01*
G01*
G37*
G04 #@! TD*
G04 #@! TO.C,C39*
G36*
G01*
X151030000Y-112240000D02*
X151370000Y-112240000D01*
G75*
G02*
X151510000Y-112380000I0J-140000D01*
G01*
X151510000Y-112660000D01*
G75*
G02*
X151370000Y-112800000I-140000J0D01*
G01*
X151030000Y-112800000D01*
G75*
G02*
X150890000Y-112660000I0J140000D01*
G01*
X150890000Y-112380000D01*
G75*
G02*
X151030000Y-112240000I140000J0D01*
G01*
G37*
G36*
G01*
X151030000Y-113200000D02*
X151370000Y-113200000D01*
G75*
G02*
X151510000Y-113340000I0J-140000D01*
G01*
X151510000Y-113620000D01*
G75*
G02*
X151370000Y-113760000I-140000J0D01*
G01*
X151030000Y-113760000D01*
G75*
G02*
X150890000Y-113620000I0J140000D01*
G01*
X150890000Y-113340000D01*
G75*
G02*
X151030000Y-113200000I140000J0D01*
G01*
G37*
G04 #@! TD*
G04 #@! TO.C,R9*
G36*
G01*
X155185000Y-85980000D02*
X154815000Y-85980000D01*
G75*
G02*
X154680000Y-85845000I0J135000D01*
G01*
X154680000Y-85575000D01*
G75*
G02*
X154815000Y-85440000I135000J0D01*
G01*
X155185000Y-85440000D01*
G75*
G02*
X155320000Y-85575000I0J-135000D01*
G01*
X155320000Y-85845000D01*
G75*
G02*
X155185000Y-85980000I-135000J0D01*
G01*
G37*
G36*
G01*
X155185000Y-84960000D02*
X154815000Y-84960000D01*
G75*
G02*
X154680000Y-84825000I0J135000D01*
G01*
X154680000Y-84555000D01*
G75*
G02*
X154815000Y-84420000I135000J0D01*
G01*
X155185000Y-84420000D01*
G75*
G02*
X155320000Y-84555000I0J-135000D01*
G01*
X155320000Y-84825000D01*
G75*
G02*
X155185000Y-84960000I-135000J0D01*
G01*
G37*
G04 #@! TD*
D12*
G04 #@! TO.C,FL2*
X159475000Y-96525000D03*
X160725000Y-96525000D03*
X160725000Y-97075000D03*
X159475000Y-97075000D03*
G04 #@! TD*
G04 #@! TO.C,C18*
G36*
G01*
X138800000Y-101575000D02*
X138300000Y-101575000D01*
G75*
G02*
X138075000Y-101350000I0J225000D01*
G01*
X138075000Y-100900000D01*
G75*
G02*
X138300000Y-100675000I225000J0D01*
G01*
X138800000Y-100675000D01*
G75*
G02*
X139025000Y-100900000I0J-225000D01*
G01*
X139025000Y-101350000D01*
G75*
G02*
X138800000Y-101575000I-225000J0D01*
G01*
G37*
G36*
G01*
X138800000Y-100025000D02*
X138300000Y-100025000D01*
G75*
G02*
X138075000Y-99800000I0J225000D01*
G01*
X138075000Y-99350000D01*
G75*
G02*
X138300000Y-99125000I225000J0D01*
G01*
X138800000Y-99125000D01*
G75*
G02*
X139025000Y-99350000I0J-225000D01*
G01*
X139025000Y-99800000D01*
G75*
G02*
X138800000Y-100025000I-225000J0D01*
G01*
G37*
G04 #@! TD*
G04 #@! TO.C,C32*
G36*
G01*
X139900000Y-99125000D02*
X140400000Y-99125000D01*
G75*
G02*
X140625000Y-99350000I0J-225000D01*
G01*
X140625000Y-99800000D01*
G75*
G02*
X140400000Y-100025000I-225000J0D01*
G01*
X139900000Y-100025000D01*
G75*
G02*
X139675000Y-99800000I0J225000D01*
G01*
X139675000Y-99350000D01*
G75*
G02*
X139900000Y-99125000I225000J0D01*
G01*
G37*
G36*
G01*
X139900000Y-100675000D02*
X140400000Y-100675000D01*
G75*
G02*
X140625000Y-100900000I0J-225000D01*
G01*
X140625000Y-101350000D01*
G75*
G02*
X140400000Y-101575000I-225000J0D01*
G01*
X139900000Y-101575000D01*
G75*
G02*
X139675000Y-101350000I0J225000D01*
G01*
X139675000Y-100900000D01*
G75*
G02*
X139900000Y-100675000I225000J0D01*
G01*
G37*
G04 #@! TD*
G04 #@! TO.C,C15*
G36*
G01*
X152110000Y-100930000D02*
X152110000Y-101270000D01*
G75*
G02*
X151970000Y-101410000I-140000J0D01*
G01*
X151690000Y-101410000D01*
G75*
G02*
X151550000Y-101270000I0J140000D01*
G01*
X151550000Y-100930000D01*
G75*
G02*
X151690000Y-100790000I140000J0D01*
G01*
X151970000Y-100790000D01*
G75*
G02*
X152110000Y-100930000I0J-140000D01*
G01*
G37*
G36*
G01*
X151150000Y-100930000D02*
X151150000Y-101270000D01*
G75*
G02*
X151010000Y-101410000I-140000J0D01*
G01*
X150730000Y-101410000D01*
G75*
G02*
X150590000Y-101270000I0J140000D01*
G01*
X150590000Y-100930000D01*
G75*
G02*
X150730000Y-100790000I140000J0D01*
G01*
X151010000Y-100790000D01*
G75*
G02*
X151150000Y-100930000I0J-140000D01*
G01*
G37*
G04 #@! TD*
G04 #@! TO.C,C11*
G36*
G01*
X147430000Y-105590000D02*
X147770000Y-105590000D01*
G75*
G02*
X147910000Y-105730000I0J-140000D01*
G01*
X147910000Y-106010000D01*
G75*
G02*
X147770000Y-106150000I-140000J0D01*
G01*
X147430000Y-106150000D01*
G75*
G02*
X147290000Y-106010000I0J140000D01*
G01*
X147290000Y-105730000D01*
G75*
G02*
X147430000Y-105590000I140000J0D01*
G01*
G37*
G36*
G01*
X147430000Y-106550000D02*
X147770000Y-106550000D01*
G75*
G02*
X147910000Y-106690000I0J-140000D01*
G01*
X147910000Y-106970000D01*
G75*
G02*
X147770000Y-107110000I-140000J0D01*
G01*
X147430000Y-107110000D01*
G75*
G02*
X147290000Y-106970000I0J140000D01*
G01*
X147290000Y-106690000D01*
G75*
G02*
X147430000Y-106550000I140000J0D01*
G01*
G37*
G04 #@! TD*
G04 #@! TO.C,C35*
G36*
G01*
X150430000Y-107740000D02*
X150770000Y-107740000D01*
G75*
G02*
X150910000Y-107880000I0J-140000D01*
G01*
X150910000Y-108160000D01*
G75*
G02*
X150770000Y-108300000I-140000J0D01*
G01*
X150430000Y-108300000D01*
G75*
G02*
X150290000Y-108160000I0J140000D01*
G01*
X150290000Y-107880000D01*
G75*
G02*
X150430000Y-107740000I140000J0D01*
G01*
G37*
G36*
G01*
X150430000Y-108700000D02*
X150770000Y-108700000D01*
G75*
G02*
X150910000Y-108840000I0J-140000D01*
G01*
X150910000Y-109120000D01*
G75*
G02*
X150770000Y-109260000I-140000J0D01*
G01*
X150430000Y-109260000D01*
G75*
G02*
X150290000Y-109120000I0J140000D01*
G01*
X150290000Y-108840000D01*
G75*
G02*
X150430000Y-108700000I140000J0D01*
G01*
G37*
G04 #@! TD*
G04 #@! TO.C,FB1*
G36*
G01*
X156075000Y-82456250D02*
X156075000Y-81943750D01*
G75*
G02*
X156293750Y-81725000I218750J0D01*
G01*
X156731250Y-81725000D01*
G75*
G02*
X156950000Y-81943750I0J-218750D01*
G01*
X156950000Y-82456250D01*
G75*
G02*
X156731250Y-82675000I-218750J0D01*
G01*
X156293750Y-82675000D01*
G75*
G02*
X156075000Y-82456250I0J218750D01*
G01*
G37*
G36*
G01*
X157650000Y-82456250D02*
X157650000Y-81943750D01*
G75*
G02*
X157868750Y-81725000I218750J0D01*
G01*
X158306250Y-81725000D01*
G75*
G02*
X158525000Y-81943750I0J-218750D01*
G01*
X158525000Y-82456250D01*
G75*
G02*
X158306250Y-82675000I-218750J0D01*
G01*
X157868750Y-82675000D01*
G75*
G02*
X157650000Y-82456250I0J218750D01*
G01*
G37*
G04 #@! TD*
G04 #@! TO.C,C24*
G36*
G01*
X153770000Y-107110000D02*
X153430000Y-107110000D01*
G75*
G02*
X153290000Y-106970000I0J140000D01*
G01*
X153290000Y-106690000D01*
G75*
G02*
X153430000Y-106550000I140000J0D01*
G01*
X153770000Y-106550000D01*
G75*
G02*
X153910000Y-106690000I0J-140000D01*
G01*
X153910000Y-106970000D01*
G75*
G02*
X153770000Y-107110000I-140000J0D01*
G01*
G37*
G36*
G01*
X153770000Y-106150000D02*
X153430000Y-106150000D01*
G75*
G02*
X153290000Y-106010000I0J140000D01*
G01*
X153290000Y-105730000D01*
G75*
G02*
X153430000Y-105590000I140000J0D01*
G01*
X153770000Y-105590000D01*
G75*
G02*
X153910000Y-105730000I0J-140000D01*
G01*
X153910000Y-106010000D01*
G75*
G02*
X153770000Y-106150000I-140000J0D01*
G01*
G37*
G04 #@! TD*
G04 #@! TO.C,C47*
G36*
G01*
X136100000Y-90195000D02*
X135600000Y-90195000D01*
G75*
G02*
X135375000Y-89970000I0J225000D01*
G01*
X135375000Y-89520000D01*
G75*
G02*
X135600000Y-89295000I225000J0D01*
G01*
X136100000Y-89295000D01*
G75*
G02*
X136325000Y-89520000I0J-225000D01*
G01*
X136325000Y-89970000D01*
G75*
G02*
X136100000Y-90195000I-225000J0D01*
G01*
G37*
G36*
G01*
X136100000Y-88645000D02*
X135600000Y-88645000D01*
G75*
G02*
X135375000Y-88420000I0J225000D01*
G01*
X135375000Y-87970000D01*
G75*
G02*
X135600000Y-87745000I225000J0D01*
G01*
X136100000Y-87745000D01*
G75*
G02*
X136325000Y-87970000I0J-225000D01*
G01*
X136325000Y-88420000D01*
G75*
G02*
X136100000Y-88645000I-225000J0D01*
G01*
G37*
G04 #@! TD*
G04 #@! TO.C,C12*
G36*
G01*
X152160000Y-96930000D02*
X152160000Y-97270000D01*
G75*
G02*
X152020000Y-97410000I-140000J0D01*
G01*
X151740000Y-97410000D01*
G75*
G02*
X151600000Y-97270000I0J140000D01*
G01*
X151600000Y-96930000D01*
G75*
G02*
X151740000Y-96790000I140000J0D01*
G01*
X152020000Y-96790000D01*
G75*
G02*
X152160000Y-96930000I0J-140000D01*
G01*
G37*
G36*
G01*
X151200000Y-96930000D02*
X151200000Y-97270000D01*
G75*
G02*
X151060000Y-97410000I-140000J0D01*
G01*
X150780000Y-97410000D01*
G75*
G02*
X150640000Y-97270000I0J140000D01*
G01*
X150640000Y-96930000D01*
G75*
G02*
X150780000Y-96790000I140000J0D01*
G01*
X151060000Y-96790000D01*
G75*
G02*
X151200000Y-96930000I0J-140000D01*
G01*
G37*
G04 #@! TD*
G04 #@! TO.C,C10*
G36*
G01*
X148930000Y-95120000D02*
X149270000Y-95120000D01*
G75*
G02*
X149410000Y-95260000I0J-140000D01*
G01*
X149410000Y-95540000D01*
G75*
G02*
X149270000Y-95680000I-140000J0D01*
G01*
X148930000Y-95680000D01*
G75*
G02*
X148790000Y-95540000I0J140000D01*
G01*
X148790000Y-95260000D01*
G75*
G02*
X148930000Y-95120000I140000J0D01*
G01*
G37*
G36*
G01*
X148930000Y-96080000D02*
X149270000Y-96080000D01*
G75*
G02*
X149410000Y-96220000I0J-140000D01*
G01*
X149410000Y-96500000D01*
G75*
G02*
X149270000Y-96640000I-140000J0D01*
G01*
X148930000Y-96640000D01*
G75*
G02*
X148790000Y-96500000I0J140000D01*
G01*
X148790000Y-96220000D01*
G75*
G02*
X148930000Y-96080000I140000J0D01*
G01*
G37*
G04 #@! TD*
D17*
G04 #@! TO.C,U5*
X156525000Y-90675000D03*
X154875000Y-90675000D03*
X154875000Y-92225000D03*
X156525000Y-92225000D03*
G04 #@! TD*
G04 #@! TO.C,C5*
G36*
G01*
X152160000Y-95930000D02*
X152160000Y-96270000D01*
G75*
G02*
X152020000Y-96410000I-140000J0D01*
G01*
X151740000Y-96410000D01*
G75*
G02*
X151600000Y-96270000I0J140000D01*
G01*
X151600000Y-95930000D01*
G75*
G02*
X151740000Y-95790000I140000J0D01*
G01*
X152020000Y-95790000D01*
G75*
G02*
X152160000Y-95930000I0J-140000D01*
G01*
G37*
G36*
G01*
X151200000Y-95930000D02*
X151200000Y-96270000D01*
G75*
G02*
X151060000Y-96410000I-140000J0D01*
G01*
X150780000Y-96410000D01*
G75*
G02*
X150640000Y-96270000I0J140000D01*
G01*
X150640000Y-95930000D01*
G75*
G02*
X150780000Y-95790000I140000J0D01*
G01*
X151060000Y-95790000D01*
G75*
G02*
X151200000Y-95930000I0J-140000D01*
G01*
G37*
G04 #@! TD*
G04 #@! TO.C,C29*
G36*
G01*
X141760000Y-96430000D02*
X141760000Y-96770000D01*
G75*
G02*
X141620000Y-96910000I-140000J0D01*
G01*
X141340000Y-96910000D01*
G75*
G02*
X141200000Y-96770000I0J140000D01*
G01*
X141200000Y-96430000D01*
G75*
G02*
X141340000Y-96290000I140000J0D01*
G01*
X141620000Y-96290000D01*
G75*
G02*
X141760000Y-96430000I0J-140000D01*
G01*
G37*
G36*
G01*
X140800000Y-96430000D02*
X140800000Y-96770000D01*
G75*
G02*
X140660000Y-96910000I-140000J0D01*
G01*
X140380000Y-96910000D01*
G75*
G02*
X140240000Y-96770000I0J140000D01*
G01*
X140240000Y-96430000D01*
G75*
G02*
X140380000Y-96290000I140000J0D01*
G01*
X140660000Y-96290000D01*
G75*
G02*
X140800000Y-96430000I0J-140000D01*
G01*
G37*
G04 #@! TD*
G04 #@! TO.C,C28*
G36*
G01*
X141950000Y-95625000D02*
X141450000Y-95625000D01*
G75*
G02*
X141225000Y-95400000I0J225000D01*
G01*
X141225000Y-94950000D01*
G75*
G02*
X141450000Y-94725000I225000J0D01*
G01*
X141950000Y-94725000D01*
G75*
G02*
X142175000Y-94950000I0J-225000D01*
G01*
X142175000Y-95400000D01*
G75*
G02*
X141950000Y-95625000I-225000J0D01*
G01*
G37*
G36*
G01*
X141950000Y-94075000D02*
X141450000Y-94075000D01*
G75*
G02*
X141225000Y-93850000I0J225000D01*
G01*
X141225000Y-93400000D01*
G75*
G02*
X141450000Y-93175000I225000J0D01*
G01*
X141950000Y-93175000D01*
G75*
G02*
X142175000Y-93400000I0J-225000D01*
G01*
X142175000Y-93850000D01*
G75*
G02*
X141950000Y-94075000I-225000J0D01*
G01*
G37*
G04 #@! TD*
G04 #@! TO.C,C13*
G36*
G01*
X140605000Y-94850000D02*
X140605000Y-95350000D01*
G75*
G02*
X140380000Y-95575000I-225000J0D01*
G01*
X139930000Y-95575000D01*
G75*
G02*
X139705000Y-95350000I0J225000D01*
G01*
X139705000Y-94850000D01*
G75*
G02*
X139930000Y-94625000I225000J0D01*
G01*
X140380000Y-94625000D01*
G75*
G02*
X140605000Y-94850000I0J-225000D01*
G01*
G37*
G36*
G01*
X139055000Y-94850000D02*
X139055000Y-95350000D01*
G75*
G02*
X138830000Y-95575000I-225000J0D01*
G01*
X138380000Y-95575000D01*
G75*
G02*
X138155000Y-95350000I0J225000D01*
G01*
X138155000Y-94850000D01*
G75*
G02*
X138380000Y-94625000I225000J0D01*
G01*
X138830000Y-94625000D01*
G75*
G02*
X139055000Y-94850000I0J-225000D01*
G01*
G37*
G04 #@! TD*
G04 #@! TO.C,C33*
G36*
G01*
X160050000Y-88525000D02*
X159550000Y-88525000D01*
G75*
G02*
X159325000Y-88300000I0J225000D01*
G01*
X159325000Y-87850000D01*
G75*
G02*
X159550000Y-87625000I225000J0D01*
G01*
X160050000Y-87625000D01*
G75*
G02*
X160275000Y-87850000I0J-225000D01*
G01*
X160275000Y-88300000D01*
G75*
G02*
X160050000Y-88525000I-225000J0D01*
G01*
G37*
G36*
G01*
X160050000Y-86975000D02*
X159550000Y-86975000D01*
G75*
G02*
X159325000Y-86750000I0J225000D01*
G01*
X159325000Y-86300000D01*
G75*
G02*
X159550000Y-86075000I225000J0D01*
G01*
X160050000Y-86075000D01*
G75*
G02*
X160275000Y-86300000I0J-225000D01*
G01*
X160275000Y-86750000D01*
G75*
G02*
X160050000Y-86975000I-225000J0D01*
G01*
G37*
G04 #@! TD*
G04 #@! TO.C,C31*
G36*
G01*
X141610000Y-97930000D02*
X141610000Y-98270000D01*
G75*
G02*
X141470000Y-98410000I-140000J0D01*
G01*
X141190000Y-98410000D01*
G75*
G02*
X141050000Y-98270000I0J140000D01*
G01*
X141050000Y-97930000D01*
G75*
G02*
X141190000Y-97790000I140000J0D01*
G01*
X141470000Y-97790000D01*
G75*
G02*
X141610000Y-97930000I0J-140000D01*
G01*
G37*
G36*
G01*
X140650000Y-97930000D02*
X140650000Y-98270000D01*
G75*
G02*
X140510000Y-98410000I-140000J0D01*
G01*
X140230000Y-98410000D01*
G75*
G02*
X140090000Y-98270000I0J140000D01*
G01*
X140090000Y-97930000D01*
G75*
G02*
X140230000Y-97790000I140000J0D01*
G01*
X140510000Y-97790000D01*
G75*
G02*
X140650000Y-97930000I0J-140000D01*
G01*
G37*
G04 #@! TD*
G04 #@! TO.C,C20*
G36*
G01*
X140110000Y-102430000D02*
X140110000Y-102770000D01*
G75*
G02*
X139970000Y-102910000I-140000J0D01*
G01*
X139690000Y-102910000D01*
G75*
G02*
X139550000Y-102770000I0J140000D01*
G01*
X139550000Y-102430000D01*
G75*
G02*
X139690000Y-102290000I140000J0D01*
G01*
X139970000Y-102290000D01*
G75*
G02*
X140110000Y-102430000I0J-140000D01*
G01*
G37*
G36*
G01*
X139150000Y-102430000D02*
X139150000Y-102770000D01*
G75*
G02*
X139010000Y-102910000I-140000J0D01*
G01*
X138730000Y-102910000D01*
G75*
G02*
X138590000Y-102770000I0J140000D01*
G01*
X138590000Y-102430000D01*
G75*
G02*
X138730000Y-102290000I140000J0D01*
G01*
X139010000Y-102290000D01*
G75*
G02*
X139150000Y-102430000I0J-140000D01*
G01*
G37*
G04 #@! TD*
D12*
G04 #@! TO.C,FL3*
X159475000Y-97625000D03*
X160725000Y-97625000D03*
X160725000Y-98175000D03*
X159475000Y-98175000D03*
G04 #@! TD*
G04 #@! TO.C,C19*
G36*
G01*
X151430000Y-105590000D02*
X151770000Y-105590000D01*
G75*
G02*
X151910000Y-105730000I0J-140000D01*
G01*
X151910000Y-106010000D01*
G75*
G02*
X151770000Y-106150000I-140000J0D01*
G01*
X151430000Y-106150000D01*
G75*
G02*
X151290000Y-106010000I0J140000D01*
G01*
X151290000Y-105730000D01*
G75*
G02*
X151430000Y-105590000I140000J0D01*
G01*
G37*
G36*
G01*
X151430000Y-106550000D02*
X151770000Y-106550000D01*
G75*
G02*
X151910000Y-106690000I0J-140000D01*
G01*
X151910000Y-106970000D01*
G75*
G02*
X151770000Y-107110000I-140000J0D01*
G01*
X151430000Y-107110000D01*
G75*
G02*
X151290000Y-106970000I0J140000D01*
G01*
X151290000Y-106690000D01*
G75*
G02*
X151430000Y-106550000I140000J0D01*
G01*
G37*
G04 #@! TD*
G04 #@! TO.C,U6*
G36*
G01*
X147200000Y-88650000D02*
X146900000Y-88650000D01*
G75*
G02*
X146750000Y-88500000I0J150000D01*
G01*
X146750000Y-87475000D01*
G75*
G02*
X146900000Y-87325000I150000J0D01*
G01*
X147200000Y-87325000D01*
G75*
G02*
X147350000Y-87475000I0J-150000D01*
G01*
X147350000Y-88500000D01*
G75*
G02*
X147200000Y-88650000I-150000J0D01*
G01*
G37*
G36*
G01*
X148150000Y-88650000D02*
X147850000Y-88650000D01*
G75*
G02*
X147700000Y-88500000I0J150000D01*
G01*
X147700000Y-87475000D01*
G75*
G02*
X147850000Y-87325000I150000J0D01*
G01*
X148150000Y-87325000D01*
G75*
G02*
X148300000Y-87475000I0J-150000D01*
G01*
X148300000Y-88500000D01*
G75*
G02*
X148150000Y-88650000I-150000J0D01*
G01*
G37*
G36*
G01*
X149100000Y-88650000D02*
X148800000Y-88650000D01*
G75*
G02*
X148650000Y-88500000I0J150000D01*
G01*
X148650000Y-87475000D01*
G75*
G02*
X148800000Y-87325000I150000J0D01*
G01*
X149100000Y-87325000D01*
G75*
G02*
X149250000Y-87475000I0J-150000D01*
G01*
X149250000Y-88500000D01*
G75*
G02*
X149100000Y-88650000I-150000J0D01*
G01*
G37*
G36*
G01*
X149100000Y-86375000D02*
X148800000Y-86375000D01*
G75*
G02*
X148650000Y-86225000I0J150000D01*
G01*
X148650000Y-85200000D01*
G75*
G02*
X148800000Y-85050000I150000J0D01*
G01*
X149100000Y-85050000D01*
G75*
G02*
X149250000Y-85200000I0J-150000D01*
G01*
X149250000Y-86225000D01*
G75*
G02*
X149100000Y-86375000I-150000J0D01*
G01*
G37*
G36*
G01*
X147200000Y-86375000D02*
X146900000Y-86375000D01*
G75*
G02*
X146750000Y-86225000I0J150000D01*
G01*
X146750000Y-85200000D01*
G75*
G02*
X146900000Y-85050000I150000J0D01*
G01*
X147200000Y-85050000D01*
G75*
G02*
X147350000Y-85200000I0J-150000D01*
G01*
X147350000Y-86225000D01*
G75*
G02*
X147200000Y-86375000I-150000J0D01*
G01*
G37*
G04 #@! TD*
G04 #@! TO.C,C6*
G36*
G01*
X150770000Y-93610000D02*
X150430000Y-93610000D01*
G75*
G02*
X150290000Y-93470000I0J140000D01*
G01*
X150290000Y-93190000D01*
G75*
G02*
X150430000Y-93050000I140000J0D01*
G01*
X150770000Y-93050000D01*
G75*
G02*
X150910000Y-93190000I0J-140000D01*
G01*
X150910000Y-93470000D01*
G75*
G02*
X150770000Y-93610000I-140000J0D01*
G01*
G37*
G36*
G01*
X150770000Y-92650000D02*
X150430000Y-92650000D01*
G75*
G02*
X150290000Y-92510000I0J140000D01*
G01*
X150290000Y-92230000D01*
G75*
G02*
X150430000Y-92090000I140000J0D01*
G01*
X150770000Y-92090000D01*
G75*
G02*
X150910000Y-92230000I0J-140000D01*
G01*
X150910000Y-92510000D01*
G75*
G02*
X150770000Y-92650000I-140000J0D01*
G01*
G37*
G04 #@! TD*
G04 #@! TO.C,C42*
G36*
G01*
X133860000Y-113130000D02*
X133860000Y-113470000D01*
G75*
G02*
X133720000Y-113610000I-140000J0D01*
G01*
X133440000Y-113610000D01*
G75*
G02*
X133300000Y-113470000I0J140000D01*
G01*
X133300000Y-113130000D01*
G75*
G02*
X133440000Y-112990000I140000J0D01*
G01*
X133720000Y-112990000D01*
G75*
G02*
X133860000Y-113130000I0J-140000D01*
G01*
G37*
G36*
G01*
X132900000Y-113130000D02*
X132900000Y-113470000D01*
G75*
G02*
X132760000Y-113610000I-140000J0D01*
G01*
X132480000Y-113610000D01*
G75*
G02*
X132340000Y-113470000I0J140000D01*
G01*
X132340000Y-113130000D01*
G75*
G02*
X132480000Y-112990000I140000J0D01*
G01*
X132760000Y-112990000D01*
G75*
G02*
X132900000Y-113130000I0J-140000D01*
G01*
G37*
G04 #@! TD*
G04 #@! TO.C,C25*
G36*
G01*
X156075000Y-84050000D02*
X156075000Y-83550000D01*
G75*
G02*
X156300000Y-83325000I225000J0D01*
G01*
X156750000Y-83325000D01*
G75*
G02*
X156975000Y-83550000I0J-225000D01*
G01*
X156975000Y-84050000D01*
G75*
G02*
X156750000Y-84275000I-225000J0D01*
G01*
X156300000Y-84275000D01*
G75*
G02*
X156075000Y-84050000I0J225000D01*
G01*
G37*
G36*
G01*
X157625000Y-84050000D02*
X157625000Y-83550000D01*
G75*
G02*
X157850000Y-83325000I225000J0D01*
G01*
X158300000Y-83325000D01*
G75*
G02*
X158525000Y-83550000I0J-225000D01*
G01*
X158525000Y-84050000D01*
G75*
G02*
X158300000Y-84275000I-225000J0D01*
G01*
X157850000Y-84275000D01*
G75*
G02*
X157625000Y-84050000I0J225000D01*
G01*
G37*
G04 #@! TD*
G04 #@! TO.C,R3*
G36*
G01*
X148880000Y-103915000D02*
X148880000Y-104285000D01*
G75*
G02*
X148745000Y-104420000I-135000J0D01*
G01*
X148475000Y-104420000D01*
G75*
G02*
X148340000Y-104285000I0J135000D01*
G01*
X148340000Y-103915000D01*
G75*
G02*
X148475000Y-103780000I135000J0D01*
G01*
X148745000Y-103780000D01*
G75*
G02*
X148880000Y-103915000I0J-135000D01*
G01*
G37*
G36*
G01*
X147860000Y-103915000D02*
X147860000Y-104285000D01*
G75*
G02*
X147725000Y-104420000I-135000J0D01*
G01*
X147455000Y-104420000D01*
G75*
G02*
X147320000Y-104285000I0J135000D01*
G01*
X147320000Y-103915000D01*
G75*
G02*
X147455000Y-103780000I135000J0D01*
G01*
X147725000Y-103780000D01*
G75*
G02*
X147860000Y-103915000I0J-135000D01*
G01*
G37*
G04 #@! TD*
D18*
G04 #@! TO.C,U4*
X153474999Y-109600001D03*
X153474999Y-108950000D03*
X153474999Y-108300001D03*
X151525001Y-108300001D03*
X151525001Y-108950000D03*
X151525001Y-109600001D03*
G04 #@! TD*
G04 #@! TO.C,R2*
G36*
G01*
X149320000Y-104285000D02*
X149320000Y-103915000D01*
G75*
G02*
X149455000Y-103780000I135000J0D01*
G01*
X149725000Y-103780000D01*
G75*
G02*
X149860000Y-103915000I0J-135000D01*
G01*
X149860000Y-104285000D01*
G75*
G02*
X149725000Y-104420000I-135000J0D01*
G01*
X149455000Y-104420000D01*
G75*
G02*
X149320000Y-104285000I0J135000D01*
G01*
G37*
G36*
G01*
X150340000Y-104285000D02*
X150340000Y-103915000D01*
G75*
G02*
X150475000Y-103780000I135000J0D01*
G01*
X150745000Y-103780000D01*
G75*
G02*
X150880000Y-103915000I0J-135000D01*
G01*
X150880000Y-104285000D01*
G75*
G02*
X150745000Y-104420000I-135000J0D01*
G01*
X150475000Y-104420000D01*
G75*
G02*
X150340000Y-104285000I0J135000D01*
G01*
G37*
G04 #@! TD*
G04 #@! TO.C,C30*
G36*
G01*
X143270000Y-105460000D02*
X142930000Y-105460000D01*
G75*
G02*
X142790000Y-105320000I0J140000D01*
G01*
X142790000Y-105040000D01*
G75*
G02*
X142930000Y-104900000I140000J0D01*
G01*
X143270000Y-104900000D01*
G75*
G02*
X143410000Y-105040000I0J-140000D01*
G01*
X143410000Y-105320000D01*
G75*
G02*
X143270000Y-105460000I-140000J0D01*
G01*
G37*
G36*
G01*
X143270000Y-104500000D02*
X142930000Y-104500000D01*
G75*
G02*
X142790000Y-104360000I0J140000D01*
G01*
X142790000Y-104080000D01*
G75*
G02*
X142930000Y-103940000I140000J0D01*
G01*
X143270000Y-103940000D01*
G75*
G02*
X143410000Y-104080000I0J-140000D01*
G01*
X143410000Y-104360000D01*
G75*
G02*
X143270000Y-104500000I-140000J0D01*
G01*
G37*
G04 #@! TD*
G04 #@! TO.C,J2*
G36*
G01*
X161650000Y-108700000D02*
X162900000Y-108700000D01*
G75*
G02*
X163050000Y-108850000I0J-150000D01*
G01*
X163050000Y-109150000D01*
G75*
G02*
X162900000Y-109300000I-150000J0D01*
G01*
X161650000Y-109300000D01*
G75*
G02*
X161500000Y-109150000I0J150000D01*
G01*
X161500000Y-108850000D01*
G75*
G02*
X161650000Y-108700000I150000J0D01*
G01*
G37*
G36*
G01*
X161650000Y-109700000D02*
X162900000Y-109700000D01*
G75*
G02*
X163050000Y-109850000I0J-150000D01*
G01*
X163050000Y-110150000D01*
G75*
G02*
X162900000Y-110300000I-150000J0D01*
G01*
X161650000Y-110300000D01*
G75*
G02*
X161500000Y-110150000I0J150000D01*
G01*
X161500000Y-109850000D01*
G75*
G02*
X161650000Y-109700000I150000J0D01*
G01*
G37*
G36*
G01*
X161650000Y-110700000D02*
X162900000Y-110700000D01*
G75*
G02*
X163050000Y-110850000I0J-150000D01*
G01*
X163050000Y-111150000D01*
G75*
G02*
X162900000Y-111300000I-150000J0D01*
G01*
X161650000Y-111300000D01*
G75*
G02*
X161500000Y-111150000I0J150000D01*
G01*
X161500000Y-110850000D01*
G75*
G02*
X161650000Y-110700000I150000J0D01*
G01*
G37*
G36*
G01*
X161650000Y-111700000D02*
X162900000Y-111700000D01*
G75*
G02*
X163050000Y-111850000I0J-150000D01*
G01*
X163050000Y-112150000D01*
G75*
G02*
X162900000Y-112300000I-150000J0D01*
G01*
X161650000Y-112300000D01*
G75*
G02*
X161500000Y-112150000I0J150000D01*
G01*
X161500000Y-111850000D01*
G75*
G02*
X161650000Y-111700000I150000J0D01*
G01*
G37*
G36*
G01*
X164150000Y-107100000D02*
X165450000Y-107100000D01*
G75*
G02*
X165700000Y-107350000I0J-250000D01*
G01*
X165700000Y-108050000D01*
G75*
G02*
X165450000Y-108300000I-250000J0D01*
G01*
X164150000Y-108300000D01*
G75*
G02*
X163900000Y-108050000I0J250000D01*
G01*
X163900000Y-107350000D01*
G75*
G02*
X164150000Y-107100000I250000J0D01*
G01*
G37*
G36*
G01*
X164150000Y-112700000D02*
X165450000Y-112700000D01*
G75*
G02*
X165700000Y-112950000I0J-250000D01*
G01*
X165700000Y-113650000D01*
G75*
G02*
X165450000Y-113900000I-250000J0D01*
G01*
X164150000Y-113900000D01*
G75*
G02*
X163900000Y-113650000I0J250000D01*
G01*
X163900000Y-112950000D01*
G75*
G02*
X164150000Y-112700000I250000J0D01*
G01*
G37*
G04 #@! TD*
G04 #@! TO.C,R5*
G36*
G01*
X137680000Y-112515000D02*
X137680000Y-112885000D01*
G75*
G02*
X137545000Y-113020000I-135000J0D01*
G01*
X137275000Y-113020000D01*
G75*
G02*
X137140000Y-112885000I0J135000D01*
G01*
X137140000Y-112515000D01*
G75*
G02*
X137275000Y-112380000I135000J0D01*
G01*
X137545000Y-112380000D01*
G75*
G02*
X137680000Y-112515000I0J-135000D01*
G01*
G37*
G36*
G01*
X136660000Y-112515000D02*
X136660000Y-112885000D01*
G75*
G02*
X136525000Y-113020000I-135000J0D01*
G01*
X136255000Y-113020000D01*
G75*
G02*
X136120000Y-112885000I0J135000D01*
G01*
X136120000Y-112515000D01*
G75*
G02*
X136255000Y-112380000I135000J0D01*
G01*
X136525000Y-112380000D01*
G75*
G02*
X136660000Y-112515000I0J-135000D01*
G01*
G37*
G04 #@! TD*
G04 #@! TO.C,C4*
G36*
G01*
X152770000Y-93610000D02*
X152430000Y-93610000D01*
G75*
G02*
X152290000Y-93470000I0J140000D01*
G01*
X152290000Y-93190000D01*
G75*
G02*
X152430000Y-93050000I140000J0D01*
G01*
X152770000Y-93050000D01*
G75*
G02*
X152910000Y-93190000I0J-140000D01*
G01*
X152910000Y-93470000D01*
G75*
G02*
X152770000Y-93610000I-140000J0D01*
G01*
G37*
G36*
G01*
X152770000Y-92650000D02*
X152430000Y-92650000D01*
G75*
G02*
X152290000Y-92510000I0J140000D01*
G01*
X152290000Y-92230000D01*
G75*
G02*
X152430000Y-92090000I140000J0D01*
G01*
X152770000Y-92090000D01*
G75*
G02*
X152910000Y-92230000I0J-140000D01*
G01*
X152910000Y-92510000D01*
G75*
G02*
X152770000Y-92650000I-140000J0D01*
G01*
G37*
G04 #@! TD*
G04 #@! TO.C,J4*
G36*
G01*
X141950000Y-113825000D02*
X142450000Y-113825000D01*
G75*
G02*
X142700000Y-114075000I0J-250000D01*
G01*
X142700000Y-114625000D01*
G75*
G02*
X142450000Y-114875000I-250000J0D01*
G01*
X141950000Y-114875000D01*
G75*
G02*
X141700000Y-114625000I0J250000D01*
G01*
X141700000Y-114075000D01*
G75*
G02*
X141950000Y-113825000I250000J0D01*
G01*
G37*
G36*
G01*
X143400000Y-114775000D02*
X143950000Y-114775000D01*
G75*
G02*
X144200000Y-115025000I0J-250000D01*
G01*
X144200000Y-116725000D01*
G75*
G02*
X143950000Y-116975000I-250000J0D01*
G01*
X143400000Y-116975000D01*
G75*
G02*
X143150000Y-116725000I0J250000D01*
G01*
X143150000Y-115025000D01*
G75*
G02*
X143400000Y-114775000I250000J0D01*
G01*
G37*
G36*
G01*
X140450000Y-114775000D02*
X141000000Y-114775000D01*
G75*
G02*
X141250000Y-115025000I0J-250000D01*
G01*
X141250000Y-116725000D01*
G75*
G02*
X141000000Y-116975000I-250000J0D01*
G01*
X140450000Y-116975000D01*
G75*
G02*
X140200000Y-116725000I0J250000D01*
G01*
X140200000Y-115025000D01*
G75*
G02*
X140450000Y-114775000I250000J0D01*
G01*
G37*
G04 #@! TD*
G04 #@! TO.C,J3*
G36*
G01*
X136150000Y-113825000D02*
X136650000Y-113825000D01*
G75*
G02*
X136900000Y-114075000I0J-250000D01*
G01*
X136900000Y-114625000D01*
G75*
G02*
X136650000Y-114875000I-250000J0D01*
G01*
X136150000Y-114875000D01*
G75*
G02*
X135900000Y-114625000I0J250000D01*
G01*
X135900000Y-114075000D01*
G75*
G02*
X136150000Y-113825000I250000J0D01*
G01*
G37*
G36*
G01*
X137600000Y-114775000D02*
X138150000Y-114775000D01*
G75*
G02*
X138400000Y-115025000I0J-250000D01*
G01*
X138400000Y-116725000D01*
G75*
G02*
X138150000Y-116975000I-250000J0D01*
G01*
X137600000Y-116975000D01*
G75*
G02*
X137350000Y-116725000I0J250000D01*
G01*
X137350000Y-115025000D01*
G75*
G02*
X137600000Y-114775000I250000J0D01*
G01*
G37*
G36*
G01*
X134650000Y-114775000D02*
X135200000Y-114775000D01*
G75*
G02*
X135450000Y-115025000I0J-250000D01*
G01*
X135450000Y-116725000D01*
G75*
G02*
X135200000Y-116975000I-250000J0D01*
G01*
X134650000Y-116975000D01*
G75*
G02*
X134400000Y-116725000I0J250000D01*
G01*
X134400000Y-115025000D01*
G75*
G02*
X134650000Y-114775000I250000J0D01*
G01*
G37*
G04 #@! TD*
M02*
