M48
; DRILL file {KiCad 8.0.4} date 2025-07-27T14:59:46-0700
; FORMAT={-:-/ absolute / inch / decimal}
; #@! TF.CreationDate,2025-07-27T14:59:46-07:00
; #@! TF.GenerationSoftware,Kicad,Pcbnew,8.0.4
; #@! TF.FileFunction,Plated,1,4,PTH
FMAT,2
INCH
; #@! TA.AperFunction,Plated,PTH,ViaDrill
T1C0.0079
; #@! TA.AperFunction,Plated,PTH,ViaDrill
T2C0.0118
%
G90
G05
T1
X5.3957Y-3.3878
X5.4921Y-3.3661
X5.498Y-3.4213
X5.7087Y-3.3386
T2
X5.0669Y-3.3386
X5.0669Y-3.374
X5.0669Y-3.4134
X5.0669Y-3.4528
X5.0669Y-3.4921
X5.0669Y-3.5315
X5.0669Y-3.5709
X5.0669Y-3.6102
X5.0669Y-3.6496
X5.0669Y-3.689
X5.0669Y-3.7283
X5.0669Y-3.7677
X5.0669Y-3.8071
X5.0669Y-3.8465
X5.0669Y-3.8858
X5.0669Y-3.9252
X5.0669Y-3.9646
X5.0669Y-4.0039
X5.0669Y-4.0433
X5.0669Y-4.0827
X5.0669Y-4.122
X5.0669Y-4.1614
X5.0669Y-4.2008
X5.0669Y-4.2402
X5.0669Y-4.2795
X5.0669Y-4.3189
X5.0669Y-4.3583
X5.0669Y-4.3976
X5.0669Y-4.437
X5.0669Y-4.4764
X5.0669Y-4.5079
X5.0965Y-3.6299
X5.0965Y-4.2205
X5.0984Y-4.1654
X5.1004Y-4.4449
X5.1023Y-3.5786
X5.1024Y-3.9567
X5.1024Y-3.9882
X5.1043Y-3.6791
X5.1063Y-3.8248
X5.1063Y-4.4764
X5.1102Y-4.0374
X5.1111Y-3.9235
X5.1122Y-3.3583
X5.114Y-4.1381
X5.1142Y-3.7776
X5.1142Y-4.0807
X5.1142Y-4.1909
X5.1161Y-3.7106
X5.1176Y-3.8717
X5.1181Y-3.5472
X5.124Y-3.6063
X5.126Y-3.6476
X5.128Y-3.7402
X5.1319Y-3.9744
X5.1342Y-4.1168
X5.1378Y-3.7933
X5.1378Y-3.939
X5.1378Y-4.0118
X5.1378Y-4.3189
X5.1378Y-4.3504
X5.1398Y-3.8228
X5.1398Y-4.1614
X5.1457Y-4.4764
X5.1476Y-3.9016
X5.1483Y-4.4213
X5.1499Y-3.7614
X5.1516Y-3.6909
X5.1516Y-4.061
X5.1535Y-3.5892
X5.1535Y-3.628
X5.1575Y-3.3602
X5.1575Y-3.9606
X5.1594Y-3.8504
X5.1614Y-3.5492
X5.1634Y-3.9902
X5.1634Y-4.0315
X5.1654Y-4.187
X5.1656Y-3.6563
X5.1673Y-4.2874
X5.1713Y-3.7933
X5.1732Y-3.9272
X5.1732Y-4.1476
X5.1752Y-4.1004
X5.1791Y-3.8839
X5.1811Y-3.7244
X5.1843Y-4.4213
X5.1844Y-3.689
X5.185Y-4.0098
X5.185Y-4.4764
X5.1909Y-4.063
X5.1929Y-3.3504
X5.1929Y-3.7598
X5.1934Y-4.2559
X5.1988Y-3.6142
X5.1988Y-3.9508
X5.2008Y-3.8287
X5.2028Y-3.5689
X5.2028Y-4.128
X5.2047Y-3.6634
X5.2047Y-4.0354
X5.2067Y-3.7913
X5.2067Y-3.9154
X5.2087Y-3.9823
X5.2087Y-4.1713
X5.2126Y-3.7008
X5.2126Y-4.0945
X5.2126Y-4.4902
X5.2131Y-4.2362
X5.2197Y-3.8793
X5.2205Y-3.7382
X5.2213Y-4.4213
X5.2213Y-4.4606
X5.2244Y-4.5157
X5.2264Y-4.6654
X5.2283Y-3.1732
X5.2303Y-3.8425
X5.2323Y-3.3228
X5.2323Y-3.3543
X5.2323Y-3.8091
X5.2323Y-3.9429
X5.2328Y-4.2795
X5.2343Y-3.5472
X5.2343Y-3.628
X5.2343Y-4.0217
X5.2362Y-3.6811
X5.2362Y-3.7677
X5.2362Y-4.061
X5.2382Y-4.1398
X5.2404Y-3.5912
X5.252Y-4.5276
X5.2539Y-4.1791
X5.259Y-4.2883
X5.2591Y-4.4213
X5.2591Y-4.4606
X5.2598Y-4.498
X5.2618Y-3.4035
X5.2638Y-3.1811
X5.2638Y-3.2165
X5.2638Y-3.2559
X5.2638Y-3.2953
X5.2638Y-3.4567
X5.2638Y-4.5551
X5.2638Y-4.5945
X5.2638Y-4.6299
X5.2638Y-4.6654
X5.2717Y-3.3524
X5.2854Y-4.5177
X5.2874Y-4.3189
X5.2894Y-3.3169
X5.2894Y-3.3858
X5.2894Y-3.4331
X5.3012Y-4.628
X5.3028Y-3.3561
X5.3031Y-3.1811
X5.3031Y-3.2677
X5.3031Y-3.4764
X5.3031Y-4.6654
X5.3071Y-3.2343
X5.313Y-4.4961
X5.313Y-4.5315
X5.313Y-4.563
X5.313Y-4.5945
X5.3169Y-3.4488
X5.3189Y-3.4114
X5.3248Y-3.2146
X5.3304Y-3.3078
X5.3307Y-3.2559
X5.3327Y-3.5138
X5.3327Y-3.5492
X5.3327Y-3.5827
X5.3425Y-3.1811
X5.3425Y-3.3386
X5.3425Y-3.376
X5.3425Y-4.6654
X5.3465Y-3.2835
X5.3484Y-3.4722
X5.3524Y-4.6339
X5.3525Y-3.4273
X5.3543Y-3.4032
X5.3622Y-3.2441
X5.3642Y-3.2106
X5.3661Y-3.5138
X5.3661Y-3.5492
X5.3661Y-3.5827
X5.376Y-3.2717
X5.3819Y-3.1811
X5.3819Y-4.6201
X5.3819Y-4.6654
X5.3957Y-3.5492
X5.3957Y-3.5827
X5.4035Y-3.2717
X5.4098Y-4.437
X5.4114Y-3.4685
X5.4134Y-4.6319
X5.4154Y-4.5039
X5.4173Y-4.4744
X5.4213Y-3.1811
X5.4213Y-4.6654
X5.4291Y-4.5315
X5.4291Y-4.563
X5.4291Y-4.5945
X5.4311Y-3.2717
X5.439Y-3.4685
X5.4449Y-4.4902
X5.4547Y-3.3256
X5.4547Y-3.9198
X5.4567Y-3.7441
X5.4567Y-3.8031
X5.4567Y-4.0394
X5.4567Y-4.0984
X5.4606Y-3.1811
X5.4606Y-4.628
X5.4606Y-4.6654
X5.4626Y-3.5492
X5.4646Y-4.4744
X5.4665Y-3.4685
X5.4665Y-4.5335
X5.4705Y-4.5689
X5.4744Y-4.5039
X5.4783Y-4.6004
X5.4921Y-4.6358
X5.5Y-3.1811
X5.5Y-4.4961
X5.5Y-4.6654
X5.5039Y-4.4665
X5.5039Y-4.5374
X5.5059Y-4.5728
X5.5059Y-4.6102
X5.5118Y-3.2205
X5.5118Y-3.2441
X5.5157Y-3.7441
X5.5157Y-3.8031
X5.5157Y-3.9803
X5.5157Y-4.0394
X5.5157Y-4.0984
X5.5158Y-3.8617
X5.5177Y-3.9203
X5.5335Y-3.5906
X5.5335Y-4.6378
X5.5354Y-3.2205
X5.5354Y-3.2441
X5.5374Y-4.502
X5.5394Y-3.1811
X5.5394Y-4.5315
X5.5394Y-4.563
X5.5394Y-4.5945
X5.5394Y-4.6654
X5.5531Y-4.4705
X5.5587Y-4.437
X5.5748Y-3.5335
X5.5748Y-3.626
X5.5748Y-3.685
X5.5748Y-3.7441
X5.5748Y-3.8031
X5.5748Y-4.2165
X5.5748Y-4.622
X5.5748Y-3.8617
X5.5748Y-4.157
X5.5787Y-3.1811
X5.5787Y-4.6654
X5.5984Y-4.6398
X5.6181Y-3.1811
X5.6181Y-4.6654
X5.622Y-4.6181
X5.6339Y-3.626
X5.6339Y-3.685
X5.6339Y-4.0984
X5.6339Y-4.2165
X5.6339Y-4.157
X5.6358Y-4.6437
X5.6437Y-4.4685
X5.6496Y-4.5039
X5.6555Y-4.5335
X5.6555Y-4.565
X5.6555Y-4.5965
X5.6575Y-3.1811
X5.6575Y-4.6654
X5.6634Y-4.6201
X5.6693Y-3.5335
X5.6772Y-4.6417
X5.6831Y-4.4665
X5.685Y-4.502
X5.685Y-4.5374
X5.687Y-4.5748
X5.687Y-4.6083
X5.6925Y-3.3976
X5.6925Y-3.4409
X5.6929Y-4.157
X5.6969Y-3.1811
X5.6969Y-4.6654
X5.7205Y-4.4173
X5.7205Y-4.4823
X5.7224Y-4.187
X5.7362Y-3.1811
X5.7362Y-4.6654
X5.748Y-4.4331
X5.752Y-4.157
X5.7677Y-4.5389
X5.7756Y-3.1811
X5.7756Y-4.6654
X5.7776Y-3.2835
X5.7776Y-3.311
X5.7874Y-3.4429
X5.7874Y-3.5197
X5.7874Y-3.5512
X5.7918Y-3.2205
X5.7918Y-3.2441
X5.7933Y-4.2598
X5.811Y-3.2835
X5.811Y-3.311
X5.811Y-3.626
X5.811Y-3.685
X5.811Y-4.0984
X5.811Y-4.2165
X5.811Y-4.157
X5.815Y-3.1811
X5.815Y-4.6654
X5.8155Y-3.2205
X5.8155Y-3.2441
X5.8189Y-3.5197
X5.8189Y-3.5512
X5.8268Y-3.4488
X5.8268Y-3.4764
X5.8278Y-4.4065
X5.8543Y-3.1811
X5.8543Y-3.5212
X5.8543Y-3.5472
X5.8543Y-3.5723
X5.8543Y-4.6654
X5.8563Y-4.4075
X5.8563Y-4.4567
X5.8661Y-4.2559
X5.8701Y-3.6865
X5.8701Y-3.7441
X5.8701Y-3.8031
X5.8701Y-4.0984
X5.8701Y-4.157
X5.8727Y-4.6142
X5.878Y-3.5212
X5.878Y-3.5472
X5.878Y-3.5723
X5.8858Y-4.2776
X5.8937Y-3.1811
X5.8937Y-4.6654
X5.8996Y-4.5197
X5.9291Y-3.626
X5.9291Y-3.685
X5.9291Y-3.8031
X5.9291Y-3.9803
X5.9291Y-4.0394
X5.9291Y-4.0984
X5.9291Y-4.2165
X5.9291Y-4.2528
X5.9291Y-4.3661
X5.9292Y-4.157
X5.9331Y-3.1811
X5.9331Y-4.6654
X5.9528Y-4.4685
X5.9547Y-4.428
X5.9656Y-4.2638
X5.9724Y-3.1811
X5.9724Y-4.6654
X5.9843Y-4.5256
X5.9882Y-3.626
X5.9882Y-3.685
X5.9882Y-3.8031
X5.9882Y-3.9803
X5.9882Y-4.0394
X5.9882Y-4.0823
X5.9882Y-4.2165
X5.9882Y-4.1581
X5.9902Y-4.4567
X6.002Y-4.2539
X6.0118Y-3.1811
X6.0118Y-4.6654
X6.0197Y-3.6614
X6.0197Y-3.7126
X6.0354Y-3.2913
X6.0354Y-3.4252
X6.0423Y-4.2638
X6.0472Y-3.685
X6.0472Y-3.9818
X6.0472Y-4.0394
X6.0472Y-4.0984
X6.0473Y-4.157
X6.0512Y-3.1811
X6.0512Y-4.6654
X6.0531Y-4.4567
X6.063Y-3.5709
X6.0728Y-3.6614
X6.0728Y-3.7126
X6.0768Y-3.8917
X6.0768Y-3.9503
X6.0768Y-4.0094
X6.0768Y-4.0689
X6.0768Y-4.124
X6.0906Y-3.1811
X6.0906Y-4.4567
X6.0906Y-4.6654
X6.0965Y-3.5374
X6.0974Y-3.5699
X6.1024Y-3.3091
X6.122Y-3.9213
X6.122Y-4.0315
X6.124Y-3.5217
X6.124Y-4.0984
X6.1299Y-3.1811
X6.1299Y-4.6654
X6.1358Y-3.9498
X6.1358Y-4.0551
X6.1358Y-4.122
X6.1437Y-3.2874
X6.1437Y-3.315
X6.1476Y-4.0984
X6.1496Y-3.9213
X6.1496Y-4.0315
X6.1501Y-3.2244
X6.1501Y-3.248
X6.1516Y-3.3386
X6.1654Y-3.7953
X6.1693Y-3.1811
X6.1693Y-4.6654
X6.1737Y-3.2244
X6.1737Y-3.248
X6.1772Y-3.2874
X6.1772Y-3.315
X6.189Y-3.3622
X6.189Y-3.3898
X6.2087Y-3.1811
X6.2087Y-4.6654
X6.2303Y-3.8209
X6.2303Y-3.8917
X6.2303Y-3.9606
X6.2343Y-4.4055
X6.248Y-3.1811
X6.248Y-3.843
X6.248Y-3.8657
X6.248Y-3.9178
X6.248Y-3.9405
X6.248Y-4.6654
X6.2638Y-3.8917
X6.2677Y-4.3583
X6.2677Y-4.3996
X6.2736Y-3.4557
X6.2736Y-3.4852
X6.2756Y-4.6358
X6.2874Y-3.1811
X6.2874Y-4.6654
X6.2913Y-3.4065
X6.2913Y-3.5492
X6.309Y-3.4557
X6.3091Y-3.4852
X6.311Y-4.6339
X6.313Y-4.3307
X6.3268Y-3.1811
X6.3268Y-3.2126
X6.3268Y-4.6654
X6.3327Y-4.6004
X6.3445Y-4.6319
X6.3524Y-3.2441
X6.3579Y-4.5861
X6.3602Y-3.2165
X6.3622Y-3.6752
X6.3661Y-3.1811
X6.3661Y-4.1673
X6.3661Y-4.6654
X6.3681Y-4.2913
X6.3681Y-4.3307
X6.372Y-3.2756
X6.376Y-4.5531
X6.378Y-4.6378
X6.3858Y-3.3071
X6.3898Y-4.5177
X6.3996Y-3.1752
X6.4075Y-4.2913
X6.4075Y-4.3307
X6.4232Y-3.3445
X6.4291Y-4.4862
X6.4331Y-4.0295
X6.4567Y-3.7146
X6.4567Y-3.7736
X6.4567Y-3.8327
X6.4567Y-3.8917
X6.4567Y-3.9508
X6.4567Y-4.0098
X6.4567Y-4.0689
X6.4606Y-4.4803
X6.4646Y-3.3642
X6.4803Y-4.128
X6.4882Y-4.4626
X6.4902Y-4.2402
X6.4921Y-3.3937
X6.4941Y-4.4272
X6.502Y-3.3602
X6.5059Y-4.128
X6.5157Y-4.4823
X6.5236Y-3.4193
X6.5256Y-4.4114
X6.5256Y-4.4488
X6.5295Y-3.3878
X6.5315Y-4.128
X6.5374Y-3.3504
X6.5413Y-3.6752
X6.5433Y-4.4961
X6.5512Y-4.376
X6.5531Y-4.4685
X6.5551Y-3.4429
X6.5571Y-3.4744
X6.5571Y-4.1673
X6.5571Y-4.2283
X6.5571Y-4.2795
X6.5571Y-4.3287
X6.5571Y-4.4252
X6.5591Y-3.3307
X6.5591Y-3.374
X6.5591Y-3.4094
X6.5591Y-3.5098
X6.5591Y-3.5728
X6.5591Y-3.6358
X6.5591Y-3.7141
X6.5591Y-3.7731
X6.5591Y-3.8322
X6.5591Y-3.8912
X6.5591Y-3.9503
X6.5591Y-4.0079
X6.5591Y-4.0684
M30
