G04 #@! TF.GenerationSoftware,KiCad,Pcbnew,8.0.4*
G04 #@! TF.CreationDate,2024-09-15T19:00:34-07:00*
G04 #@! TF.ProjectId,IMX283_MIPI_Camera_v2,494d5832-3833-45f4-9d49-50495f43616d,rev?*
G04 #@! TF.SameCoordinates,Original*
G04 #@! TF.FileFunction,Soldermask,Top*
G04 #@! TF.FilePolarity,Negative*
%FSLAX46Y46*%
G04 Gerber Fmt 4.6, Leading zero omitted, Abs format (unit mm)*
G04 Created by KiCad (PCBNEW 8.0.4) date 2024-09-15 19:00:34*
%MOMM*%
%LPD*%
G01*
G04 APERTURE LIST*
%ADD10C,0.010000*%
%ADD11R,0.700000X0.300000*%
%ADD12R,1.800000X0.300000*%
%ADD13C,4.600000*%
%ADD14C,1.000000*%
%ADD15R,0.300000X0.750000*%
%ADD16R,1.500000X1.300000*%
%ADD17R,1.000000X1.050000*%
%ADD18R,1.050000X2.200000*%
%ADD19R,1.168400X0.254000*%
%ADD20R,1.500000X1.000000*%
%ADD21R,0.650000X0.850000*%
%ADD22R,0.449999X0.299999*%
G04 APERTURE END LIST*
D10*
G04 #@! TO.C,U9*
X131480500Y-109726000D02*
X131487500Y-109727000D01*
X131493500Y-109728000D01*
X131499500Y-109729000D01*
X131506500Y-109731000D01*
X131512500Y-109733000D01*
X131518500Y-109736000D01*
X131524500Y-109739000D01*
X131530500Y-109742000D01*
X131535500Y-109745000D01*
X131540500Y-109749000D01*
X131546500Y-109753000D01*
X131551500Y-109757000D01*
X131555500Y-109762000D01*
X131560500Y-109766000D01*
X131564500Y-109771000D01*
X131568500Y-109777000D01*
X131572500Y-109782000D01*
X131575500Y-109788000D01*
X131578500Y-109793000D01*
X131581500Y-109799000D01*
X131584500Y-109805000D01*
X131586500Y-109811000D01*
X131588500Y-109818000D01*
X131589500Y-109824000D01*
X131590500Y-109830000D01*
X131591500Y-109837000D01*
X131592500Y-109843000D01*
X131592500Y-109850000D01*
X131592500Y-110050000D01*
X131592500Y-110057000D01*
X131591500Y-110063000D01*
X131590500Y-110070000D01*
X131589500Y-110076000D01*
X131588500Y-110082000D01*
X131586500Y-110089000D01*
X131584500Y-110095000D01*
X131581500Y-110101000D01*
X131578500Y-110107000D01*
X131575500Y-110112000D01*
X131572500Y-110118000D01*
X131568500Y-110123000D01*
X131564500Y-110129000D01*
X131560500Y-110134000D01*
X131555500Y-110138000D01*
X131551500Y-110143000D01*
X131546500Y-110147000D01*
X131540500Y-110151000D01*
X131535500Y-110155000D01*
X131530500Y-110158000D01*
X131524500Y-110161000D01*
X131518500Y-110164000D01*
X131512500Y-110167000D01*
X131506500Y-110169000D01*
X131499500Y-110171000D01*
X131493500Y-110172000D01*
X131487500Y-110173000D01*
X131480500Y-110174000D01*
X131474500Y-110175000D01*
X131467500Y-110175000D01*
X131027500Y-110175000D01*
X131020500Y-110175000D01*
X131014500Y-110174000D01*
X131007500Y-110173000D01*
X131001500Y-110172000D01*
X130995500Y-110171000D01*
X130988500Y-110169000D01*
X130982500Y-110167000D01*
X130976500Y-110164000D01*
X130970500Y-110161000D01*
X130964500Y-110158000D01*
X130959500Y-110155000D01*
X130954500Y-110151000D01*
X130948500Y-110147000D01*
X130943500Y-110143000D01*
X130939500Y-110138000D01*
X130934500Y-110134000D01*
X130930500Y-110129000D01*
X130926500Y-110123000D01*
X130922500Y-110118000D01*
X130919500Y-110112000D01*
X130916500Y-110107000D01*
X130913500Y-110101000D01*
X130910500Y-110095000D01*
X130908500Y-110089000D01*
X130906500Y-110082000D01*
X130905500Y-110076000D01*
X130904500Y-110070000D01*
X130903500Y-110063000D01*
X130902500Y-110057000D01*
X130902500Y-110050000D01*
X130902500Y-109850000D01*
X130902500Y-109843000D01*
X130903500Y-109837000D01*
X130904500Y-109830000D01*
X130905500Y-109824000D01*
X130906500Y-109818000D01*
X130908500Y-109811000D01*
X130910500Y-109805000D01*
X130913500Y-109799000D01*
X130916500Y-109793000D01*
X130919500Y-109788000D01*
X130922500Y-109782000D01*
X130926500Y-109777000D01*
X130930500Y-109771000D01*
X130934500Y-109766000D01*
X130939500Y-109762000D01*
X130943500Y-109757000D01*
X130948500Y-109753000D01*
X130954500Y-109749000D01*
X130959500Y-109745000D01*
X130964500Y-109742000D01*
X130970500Y-109739000D01*
X130976500Y-109736000D01*
X130982500Y-109733000D01*
X130988500Y-109731000D01*
X130995500Y-109729000D01*
X131001500Y-109728000D01*
X131007500Y-109727000D01*
X131014500Y-109726000D01*
X131020500Y-109725000D01*
X131027500Y-109725000D01*
X131467500Y-109725000D01*
X131474500Y-109725000D01*
X131480500Y-109726000D01*
G36*
X131480500Y-109726000D02*
G01*
X131487500Y-109727000D01*
X131493500Y-109728000D01*
X131499500Y-109729000D01*
X131506500Y-109731000D01*
X131512500Y-109733000D01*
X131518500Y-109736000D01*
X131524500Y-109739000D01*
X131530500Y-109742000D01*
X131535500Y-109745000D01*
X131540500Y-109749000D01*
X131546500Y-109753000D01*
X131551500Y-109757000D01*
X131555500Y-109762000D01*
X131560500Y-109766000D01*
X131564500Y-109771000D01*
X131568500Y-109777000D01*
X131572500Y-109782000D01*
X131575500Y-109788000D01*
X131578500Y-109793000D01*
X131581500Y-109799000D01*
X131584500Y-109805000D01*
X131586500Y-109811000D01*
X131588500Y-109818000D01*
X131589500Y-109824000D01*
X131590500Y-109830000D01*
X131591500Y-109837000D01*
X131592500Y-109843000D01*
X131592500Y-109850000D01*
X131592500Y-110050000D01*
X131592500Y-110057000D01*
X131591500Y-110063000D01*
X131590500Y-110070000D01*
X131589500Y-110076000D01*
X131588500Y-110082000D01*
X131586500Y-110089000D01*
X131584500Y-110095000D01*
X131581500Y-110101000D01*
X131578500Y-110107000D01*
X131575500Y-110112000D01*
X131572500Y-110118000D01*
X131568500Y-110123000D01*
X131564500Y-110129000D01*
X131560500Y-110134000D01*
X131555500Y-110138000D01*
X131551500Y-110143000D01*
X131546500Y-110147000D01*
X131540500Y-110151000D01*
X131535500Y-110155000D01*
X131530500Y-110158000D01*
X131524500Y-110161000D01*
X131518500Y-110164000D01*
X131512500Y-110167000D01*
X131506500Y-110169000D01*
X131499500Y-110171000D01*
X131493500Y-110172000D01*
X131487500Y-110173000D01*
X131480500Y-110174000D01*
X131474500Y-110175000D01*
X131467500Y-110175000D01*
X131027500Y-110175000D01*
X131020500Y-110175000D01*
X131014500Y-110174000D01*
X131007500Y-110173000D01*
X131001500Y-110172000D01*
X130995500Y-110171000D01*
X130988500Y-110169000D01*
X130982500Y-110167000D01*
X130976500Y-110164000D01*
X130970500Y-110161000D01*
X130964500Y-110158000D01*
X130959500Y-110155000D01*
X130954500Y-110151000D01*
X130948500Y-110147000D01*
X130943500Y-110143000D01*
X130939500Y-110138000D01*
X130934500Y-110134000D01*
X130930500Y-110129000D01*
X130926500Y-110123000D01*
X130922500Y-110118000D01*
X130919500Y-110112000D01*
X130916500Y-110107000D01*
X130913500Y-110101000D01*
X130910500Y-110095000D01*
X130908500Y-110089000D01*
X130906500Y-110082000D01*
X130905500Y-110076000D01*
X130904500Y-110070000D01*
X130903500Y-110063000D01*
X130902500Y-110057000D01*
X130902500Y-110050000D01*
X130902500Y-109850000D01*
X130902500Y-109843000D01*
X130903500Y-109837000D01*
X130904500Y-109830000D01*
X130905500Y-109824000D01*
X130906500Y-109818000D01*
X130908500Y-109811000D01*
X130910500Y-109805000D01*
X130913500Y-109799000D01*
X130916500Y-109793000D01*
X130919500Y-109788000D01*
X130922500Y-109782000D01*
X130926500Y-109777000D01*
X130930500Y-109771000D01*
X130934500Y-109766000D01*
X130939500Y-109762000D01*
X130943500Y-109757000D01*
X130948500Y-109753000D01*
X130954500Y-109749000D01*
X130959500Y-109745000D01*
X130964500Y-109742000D01*
X130970500Y-109739000D01*
X130976500Y-109736000D01*
X130982500Y-109733000D01*
X130988500Y-109731000D01*
X130995500Y-109729000D01*
X131001500Y-109728000D01*
X131007500Y-109727000D01*
X131014500Y-109726000D01*
X131020500Y-109725000D01*
X131027500Y-109725000D01*
X131467500Y-109725000D01*
X131474500Y-109725000D01*
X131480500Y-109726000D01*
G37*
X132525500Y-110771000D02*
X132532500Y-110772000D01*
X132538500Y-110773000D01*
X132544500Y-110774000D01*
X132551500Y-110776000D01*
X132557500Y-110778000D01*
X132563500Y-110781000D01*
X132569500Y-110784000D01*
X132575500Y-110787000D01*
X132580500Y-110790000D01*
X132585500Y-110794000D01*
X132591500Y-110798000D01*
X132596500Y-110802000D01*
X132600500Y-110807000D01*
X132605500Y-110811000D01*
X132609500Y-110816000D01*
X132613500Y-110822000D01*
X132617500Y-110827000D01*
X132620500Y-110832000D01*
X132623500Y-110838000D01*
X132626500Y-110844000D01*
X132629500Y-110850000D01*
X132631500Y-110856000D01*
X132633500Y-110863000D01*
X132634500Y-110869000D01*
X132635500Y-110875000D01*
X132636500Y-110882000D01*
X132637500Y-110888000D01*
X132637500Y-110895000D01*
X132637500Y-111335000D01*
X132637500Y-111342000D01*
X132636500Y-111348000D01*
X132635500Y-111355000D01*
X132634500Y-111361000D01*
X132633500Y-111367000D01*
X132631500Y-111374000D01*
X132629500Y-111380000D01*
X132626500Y-111386000D01*
X132623500Y-111392000D01*
X132620500Y-111398000D01*
X132617500Y-111403000D01*
X132613500Y-111408000D01*
X132609500Y-111414000D01*
X132605500Y-111419000D01*
X132600500Y-111423000D01*
X132596500Y-111428000D01*
X132591500Y-111432000D01*
X132585500Y-111436000D01*
X132580500Y-111440000D01*
X132575500Y-111443000D01*
X132569500Y-111446000D01*
X132563500Y-111449000D01*
X132557500Y-111452000D01*
X132551500Y-111454000D01*
X132544500Y-111456000D01*
X132538500Y-111457000D01*
X132532500Y-111458000D01*
X132525500Y-111459000D01*
X132519500Y-111460000D01*
X132512500Y-111460000D01*
X132312500Y-111460000D01*
X132305500Y-111460000D01*
X132299500Y-111459000D01*
X132292500Y-111458000D01*
X132286500Y-111457000D01*
X132280500Y-111456000D01*
X132273500Y-111454000D01*
X132267500Y-111452000D01*
X132261500Y-111449000D01*
X132255500Y-111446000D01*
X132249500Y-111443000D01*
X132244500Y-111440000D01*
X132239500Y-111436000D01*
X132233500Y-111432000D01*
X132228500Y-111428000D01*
X132224500Y-111423000D01*
X132219500Y-111419000D01*
X132215500Y-111414000D01*
X132211500Y-111408000D01*
X132207500Y-111403000D01*
X132204500Y-111398000D01*
X132201500Y-111392000D01*
X132198500Y-111386000D01*
X132195500Y-111380000D01*
X132193500Y-111374000D01*
X132191500Y-111367000D01*
X132190500Y-111361000D01*
X132189500Y-111355000D01*
X132188500Y-111348000D01*
X132187500Y-111342000D01*
X132187500Y-111335000D01*
X132187500Y-110895000D01*
X132187500Y-110888000D01*
X132188500Y-110882000D01*
X132189500Y-110875000D01*
X132190500Y-110869000D01*
X132191500Y-110863000D01*
X132193500Y-110856000D01*
X132195500Y-110850000D01*
X132198500Y-110844000D01*
X132201500Y-110838000D01*
X132204500Y-110832000D01*
X132207500Y-110827000D01*
X132211500Y-110822000D01*
X132215500Y-110816000D01*
X132219500Y-110811000D01*
X132224500Y-110807000D01*
X132228500Y-110802000D01*
X132233500Y-110798000D01*
X132239500Y-110794000D01*
X132244500Y-110790000D01*
X132250500Y-110787000D01*
X132255500Y-110784000D01*
X132261500Y-110781000D01*
X132267500Y-110778000D01*
X132273500Y-110776000D01*
X132280500Y-110774000D01*
X132286500Y-110773000D01*
X132292500Y-110772000D01*
X132299500Y-110771000D01*
X132305500Y-110770000D01*
X132312500Y-110770000D01*
X132512500Y-110770000D01*
X132519500Y-110770000D01*
X132525500Y-110771000D01*
G36*
X132525500Y-110771000D02*
G01*
X132532500Y-110772000D01*
X132538500Y-110773000D01*
X132544500Y-110774000D01*
X132551500Y-110776000D01*
X132557500Y-110778000D01*
X132563500Y-110781000D01*
X132569500Y-110784000D01*
X132575500Y-110787000D01*
X132580500Y-110790000D01*
X132585500Y-110794000D01*
X132591500Y-110798000D01*
X132596500Y-110802000D01*
X132600500Y-110807000D01*
X132605500Y-110811000D01*
X132609500Y-110816000D01*
X132613500Y-110822000D01*
X132617500Y-110827000D01*
X132620500Y-110832000D01*
X132623500Y-110838000D01*
X132626500Y-110844000D01*
X132629500Y-110850000D01*
X132631500Y-110856000D01*
X132633500Y-110863000D01*
X132634500Y-110869000D01*
X132635500Y-110875000D01*
X132636500Y-110882000D01*
X132637500Y-110888000D01*
X132637500Y-110895000D01*
X132637500Y-111335000D01*
X132637500Y-111342000D01*
X132636500Y-111348000D01*
X132635500Y-111355000D01*
X132634500Y-111361000D01*
X132633500Y-111367000D01*
X132631500Y-111374000D01*
X132629500Y-111380000D01*
X132626500Y-111386000D01*
X132623500Y-111392000D01*
X132620500Y-111398000D01*
X132617500Y-111403000D01*
X132613500Y-111408000D01*
X132609500Y-111414000D01*
X132605500Y-111419000D01*
X132600500Y-111423000D01*
X132596500Y-111428000D01*
X132591500Y-111432000D01*
X132585500Y-111436000D01*
X132580500Y-111440000D01*
X132575500Y-111443000D01*
X132569500Y-111446000D01*
X132563500Y-111449000D01*
X132557500Y-111452000D01*
X132551500Y-111454000D01*
X132544500Y-111456000D01*
X132538500Y-111457000D01*
X132532500Y-111458000D01*
X132525500Y-111459000D01*
X132519500Y-111460000D01*
X132512500Y-111460000D01*
X132312500Y-111460000D01*
X132305500Y-111460000D01*
X132299500Y-111459000D01*
X132292500Y-111458000D01*
X132286500Y-111457000D01*
X132280500Y-111456000D01*
X132273500Y-111454000D01*
X132267500Y-111452000D01*
X132261500Y-111449000D01*
X132255500Y-111446000D01*
X132249500Y-111443000D01*
X132244500Y-111440000D01*
X132239500Y-111436000D01*
X132233500Y-111432000D01*
X132228500Y-111428000D01*
X132224500Y-111423000D01*
X132219500Y-111419000D01*
X132215500Y-111414000D01*
X132211500Y-111408000D01*
X132207500Y-111403000D01*
X132204500Y-111398000D01*
X132201500Y-111392000D01*
X132198500Y-111386000D01*
X132195500Y-111380000D01*
X132193500Y-111374000D01*
X132191500Y-111367000D01*
X132190500Y-111361000D01*
X132189500Y-111355000D01*
X132188500Y-111348000D01*
X132187500Y-111342000D01*
X132187500Y-111335000D01*
X132187500Y-110895000D01*
X132187500Y-110888000D01*
X132188500Y-110882000D01*
X132189500Y-110875000D01*
X132190500Y-110869000D01*
X132191500Y-110863000D01*
X132193500Y-110856000D01*
X132195500Y-110850000D01*
X132198500Y-110844000D01*
X132201500Y-110838000D01*
X132204500Y-110832000D01*
X132207500Y-110827000D01*
X132211500Y-110822000D01*
X132215500Y-110816000D01*
X132219500Y-110811000D01*
X132224500Y-110807000D01*
X132228500Y-110802000D01*
X132233500Y-110798000D01*
X132239500Y-110794000D01*
X132244500Y-110790000D01*
X132250500Y-110787000D01*
X132255500Y-110784000D01*
X132261500Y-110781000D01*
X132267500Y-110778000D01*
X132273500Y-110776000D01*
X132280500Y-110774000D01*
X132286500Y-110773000D01*
X132292500Y-110772000D01*
X132299500Y-110771000D01*
X132305500Y-110770000D01*
X132312500Y-110770000D01*
X132512500Y-110770000D01*
X132519500Y-110770000D01*
X132525500Y-110771000D01*
G37*
X133810500Y-110726000D02*
X133817500Y-110727000D01*
X133823500Y-110728000D01*
X133829500Y-110729000D01*
X133836500Y-110731000D01*
X133842500Y-110733000D01*
X133848500Y-110736000D01*
X133854500Y-110739000D01*
X133860500Y-110742000D01*
X133865500Y-110745000D01*
X133870500Y-110749000D01*
X133876500Y-110753000D01*
X133881500Y-110757000D01*
X133885500Y-110762000D01*
X133890500Y-110766000D01*
X133894500Y-110771000D01*
X133898500Y-110777000D01*
X133902500Y-110782000D01*
X133905500Y-110788000D01*
X133908500Y-110793000D01*
X133911500Y-110799000D01*
X133914500Y-110805000D01*
X133916500Y-110811000D01*
X133918500Y-110818000D01*
X133919500Y-110824000D01*
X133920500Y-110830000D01*
X133921500Y-110837000D01*
X133922500Y-110843000D01*
X133922500Y-110850000D01*
X133922500Y-111050000D01*
X133922500Y-111057000D01*
X133921500Y-111063000D01*
X133920500Y-111070000D01*
X133919500Y-111076000D01*
X133918500Y-111082000D01*
X133916500Y-111089000D01*
X133914500Y-111095000D01*
X133911500Y-111101000D01*
X133908500Y-111107000D01*
X133905500Y-111112000D01*
X133902500Y-111118000D01*
X133898500Y-111123000D01*
X133894500Y-111129000D01*
X133890500Y-111134000D01*
X133885500Y-111138000D01*
X133881500Y-111143000D01*
X133876500Y-111147000D01*
X133870500Y-111151000D01*
X133865500Y-111155000D01*
X133860500Y-111158000D01*
X133854500Y-111161000D01*
X133848500Y-111164000D01*
X133842500Y-111167000D01*
X133836500Y-111169000D01*
X133829500Y-111171000D01*
X133823500Y-111172000D01*
X133817500Y-111173000D01*
X133810500Y-111174000D01*
X133804500Y-111175000D01*
X133797500Y-111175000D01*
X133357500Y-111175000D01*
X133350500Y-111175000D01*
X133344500Y-111174000D01*
X133337500Y-111173000D01*
X133331500Y-111172000D01*
X133325500Y-111171000D01*
X133318500Y-111169000D01*
X133312500Y-111167000D01*
X133306500Y-111164000D01*
X133300500Y-111161000D01*
X133294500Y-111158000D01*
X133289500Y-111155000D01*
X133284500Y-111151000D01*
X133278500Y-111147000D01*
X133273500Y-111143000D01*
X133269500Y-111138000D01*
X133264500Y-111134000D01*
X133260500Y-111129000D01*
X133256500Y-111123000D01*
X133252500Y-111118000D01*
X133249500Y-111112000D01*
X133246500Y-111107000D01*
X133243500Y-111101000D01*
X133240500Y-111095000D01*
X133238500Y-111089000D01*
X133236500Y-111082000D01*
X133235500Y-111076000D01*
X133234500Y-111070000D01*
X133233500Y-111063000D01*
X133232500Y-111057000D01*
X133232500Y-111050000D01*
X133232500Y-110850000D01*
X133232500Y-110843000D01*
X133233500Y-110837000D01*
X133234500Y-110830000D01*
X133235500Y-110824000D01*
X133236500Y-110818000D01*
X133238500Y-110811000D01*
X133240500Y-110805000D01*
X133243500Y-110799000D01*
X133246500Y-110793000D01*
X133249500Y-110788000D01*
X133252500Y-110782000D01*
X133256500Y-110777000D01*
X133260500Y-110771000D01*
X133264500Y-110766000D01*
X133269500Y-110762000D01*
X133273500Y-110757000D01*
X133278500Y-110753000D01*
X133284500Y-110749000D01*
X133289500Y-110745000D01*
X133294500Y-110742000D01*
X133300500Y-110739000D01*
X133306500Y-110736000D01*
X133312500Y-110733000D01*
X133318500Y-110731000D01*
X133325500Y-110729000D01*
X133331500Y-110728000D01*
X133337500Y-110727000D01*
X133344500Y-110726000D01*
X133350500Y-110725000D01*
X133357500Y-110725000D01*
X133797500Y-110725000D01*
X133804500Y-110725000D01*
X133810500Y-110726000D01*
G36*
X133810500Y-110726000D02*
G01*
X133817500Y-110727000D01*
X133823500Y-110728000D01*
X133829500Y-110729000D01*
X133836500Y-110731000D01*
X133842500Y-110733000D01*
X133848500Y-110736000D01*
X133854500Y-110739000D01*
X133860500Y-110742000D01*
X133865500Y-110745000D01*
X133870500Y-110749000D01*
X133876500Y-110753000D01*
X133881500Y-110757000D01*
X133885500Y-110762000D01*
X133890500Y-110766000D01*
X133894500Y-110771000D01*
X133898500Y-110777000D01*
X133902500Y-110782000D01*
X133905500Y-110788000D01*
X133908500Y-110793000D01*
X133911500Y-110799000D01*
X133914500Y-110805000D01*
X133916500Y-110811000D01*
X133918500Y-110818000D01*
X133919500Y-110824000D01*
X133920500Y-110830000D01*
X133921500Y-110837000D01*
X133922500Y-110843000D01*
X133922500Y-110850000D01*
X133922500Y-111050000D01*
X133922500Y-111057000D01*
X133921500Y-111063000D01*
X133920500Y-111070000D01*
X133919500Y-111076000D01*
X133918500Y-111082000D01*
X133916500Y-111089000D01*
X133914500Y-111095000D01*
X133911500Y-111101000D01*
X133908500Y-111107000D01*
X133905500Y-111112000D01*
X133902500Y-111118000D01*
X133898500Y-111123000D01*
X133894500Y-111129000D01*
X133890500Y-111134000D01*
X133885500Y-111138000D01*
X133881500Y-111143000D01*
X133876500Y-111147000D01*
X133870500Y-111151000D01*
X133865500Y-111155000D01*
X133860500Y-111158000D01*
X133854500Y-111161000D01*
X133848500Y-111164000D01*
X133842500Y-111167000D01*
X133836500Y-111169000D01*
X133829500Y-111171000D01*
X133823500Y-111172000D01*
X133817500Y-111173000D01*
X133810500Y-111174000D01*
X133804500Y-111175000D01*
X133797500Y-111175000D01*
X133357500Y-111175000D01*
X133350500Y-111175000D01*
X133344500Y-111174000D01*
X133337500Y-111173000D01*
X133331500Y-111172000D01*
X133325500Y-111171000D01*
X133318500Y-111169000D01*
X133312500Y-111167000D01*
X133306500Y-111164000D01*
X133300500Y-111161000D01*
X133294500Y-111158000D01*
X133289500Y-111155000D01*
X133284500Y-111151000D01*
X133278500Y-111147000D01*
X133273500Y-111143000D01*
X133269500Y-111138000D01*
X133264500Y-111134000D01*
X133260500Y-111129000D01*
X133256500Y-111123000D01*
X133252500Y-111118000D01*
X133249500Y-111112000D01*
X133246500Y-111107000D01*
X133243500Y-111101000D01*
X133240500Y-111095000D01*
X133238500Y-111089000D01*
X133236500Y-111082000D01*
X133235500Y-111076000D01*
X133234500Y-111070000D01*
X133233500Y-111063000D01*
X133232500Y-111057000D01*
X133232500Y-111050000D01*
X133232500Y-110850000D01*
X133232500Y-110843000D01*
X133233500Y-110837000D01*
X133234500Y-110830000D01*
X133235500Y-110824000D01*
X133236500Y-110818000D01*
X133238500Y-110811000D01*
X133240500Y-110805000D01*
X133243500Y-110799000D01*
X133246500Y-110793000D01*
X133249500Y-110788000D01*
X133252500Y-110782000D01*
X133256500Y-110777000D01*
X133260500Y-110771000D01*
X133264500Y-110766000D01*
X133269500Y-110762000D01*
X133273500Y-110757000D01*
X133278500Y-110753000D01*
X133284500Y-110749000D01*
X133289500Y-110745000D01*
X133294500Y-110742000D01*
X133300500Y-110739000D01*
X133306500Y-110736000D01*
X133312500Y-110733000D01*
X133318500Y-110731000D01*
X133325500Y-110729000D01*
X133331500Y-110728000D01*
X133337500Y-110727000D01*
X133344500Y-110726000D01*
X133350500Y-110725000D01*
X133357500Y-110725000D01*
X133797500Y-110725000D01*
X133804500Y-110725000D01*
X133810500Y-110726000D01*
G37*
X132025500Y-110771000D02*
X132032500Y-110772000D01*
X132038500Y-110773000D01*
X132044500Y-110774000D01*
X132051500Y-110776000D01*
X132057500Y-110778000D01*
X132063500Y-110781000D01*
X132069500Y-110784000D01*
X132074500Y-110787000D01*
X132080500Y-110790000D01*
X132085500Y-110794000D01*
X132091500Y-110798000D01*
X132096500Y-110802000D01*
X132100500Y-110807000D01*
X132105500Y-110811000D01*
X132109500Y-110816000D01*
X132113500Y-110822000D01*
X132117500Y-110827000D01*
X132120500Y-110832000D01*
X132123500Y-110838000D01*
X132126500Y-110844000D01*
X132129500Y-110850000D01*
X132131500Y-110856000D01*
X132133500Y-110863000D01*
X132134500Y-110869000D01*
X132135500Y-110875000D01*
X132136500Y-110882000D01*
X132137500Y-110888000D01*
X132137500Y-110895000D01*
X132137500Y-111335000D01*
X132137500Y-111342000D01*
X132136500Y-111348000D01*
X132135500Y-111355000D01*
X132134500Y-111361000D01*
X132133500Y-111367000D01*
X132131500Y-111374000D01*
X132129500Y-111380000D01*
X132126500Y-111386000D01*
X132123500Y-111392000D01*
X132120500Y-111398000D01*
X132117500Y-111403000D01*
X132113500Y-111408000D01*
X132109500Y-111414000D01*
X132105500Y-111419000D01*
X132100500Y-111423000D01*
X132096500Y-111428000D01*
X132091500Y-111432000D01*
X132085500Y-111436000D01*
X132080500Y-111440000D01*
X132074500Y-111443000D01*
X132069500Y-111446000D01*
X132063500Y-111449000D01*
X132057500Y-111452000D01*
X132051500Y-111454000D01*
X132044500Y-111456000D01*
X132038500Y-111457000D01*
X132032500Y-111458000D01*
X132025500Y-111459000D01*
X132019500Y-111460000D01*
X132012500Y-111460000D01*
X131812500Y-111460000D01*
X131805500Y-111460000D01*
X131799500Y-111459000D01*
X131792500Y-111458000D01*
X131786500Y-111457000D01*
X131780500Y-111456000D01*
X131773500Y-111454000D01*
X131767500Y-111452000D01*
X131761500Y-111449000D01*
X131755500Y-111446000D01*
X131749500Y-111443000D01*
X131744500Y-111440000D01*
X131739500Y-111436000D01*
X131733500Y-111432000D01*
X131728500Y-111428000D01*
X131724500Y-111423000D01*
X131719500Y-111419000D01*
X131715500Y-111414000D01*
X131711500Y-111408000D01*
X131707500Y-111403000D01*
X131704500Y-111398000D01*
X131701500Y-111392000D01*
X131698500Y-111386000D01*
X131695500Y-111380000D01*
X131693500Y-111374000D01*
X131691500Y-111367000D01*
X131690500Y-111361000D01*
X131689500Y-111355000D01*
X131688500Y-111348000D01*
X131687500Y-111342000D01*
X131687500Y-111335000D01*
X131687500Y-110895000D01*
X131687500Y-110888000D01*
X131688500Y-110882000D01*
X131689500Y-110875000D01*
X131690500Y-110869000D01*
X131691500Y-110863000D01*
X131693500Y-110856000D01*
X131695500Y-110850000D01*
X131698500Y-110844000D01*
X131701500Y-110838000D01*
X131704500Y-110832000D01*
X131707500Y-110827000D01*
X131711500Y-110822000D01*
X131715500Y-110816000D01*
X131719500Y-110811000D01*
X131724500Y-110807000D01*
X131728500Y-110802000D01*
X131733500Y-110798000D01*
X131739500Y-110794000D01*
X131744500Y-110790000D01*
X131750500Y-110787000D01*
X131755500Y-110784000D01*
X131761500Y-110781000D01*
X131767500Y-110778000D01*
X131773500Y-110776000D01*
X131780500Y-110774000D01*
X131786500Y-110773000D01*
X131792500Y-110772000D01*
X131799500Y-110771000D01*
X131805500Y-110770000D01*
X131812500Y-110770000D01*
X132012500Y-110770000D01*
X132019500Y-110770000D01*
X132025500Y-110771000D01*
G36*
X132025500Y-110771000D02*
G01*
X132032500Y-110772000D01*
X132038500Y-110773000D01*
X132044500Y-110774000D01*
X132051500Y-110776000D01*
X132057500Y-110778000D01*
X132063500Y-110781000D01*
X132069500Y-110784000D01*
X132074500Y-110787000D01*
X132080500Y-110790000D01*
X132085500Y-110794000D01*
X132091500Y-110798000D01*
X132096500Y-110802000D01*
X132100500Y-110807000D01*
X132105500Y-110811000D01*
X132109500Y-110816000D01*
X132113500Y-110822000D01*
X132117500Y-110827000D01*
X132120500Y-110832000D01*
X132123500Y-110838000D01*
X132126500Y-110844000D01*
X132129500Y-110850000D01*
X132131500Y-110856000D01*
X132133500Y-110863000D01*
X132134500Y-110869000D01*
X132135500Y-110875000D01*
X132136500Y-110882000D01*
X132137500Y-110888000D01*
X132137500Y-110895000D01*
X132137500Y-111335000D01*
X132137500Y-111342000D01*
X132136500Y-111348000D01*
X132135500Y-111355000D01*
X132134500Y-111361000D01*
X132133500Y-111367000D01*
X132131500Y-111374000D01*
X132129500Y-111380000D01*
X132126500Y-111386000D01*
X132123500Y-111392000D01*
X132120500Y-111398000D01*
X132117500Y-111403000D01*
X132113500Y-111408000D01*
X132109500Y-111414000D01*
X132105500Y-111419000D01*
X132100500Y-111423000D01*
X132096500Y-111428000D01*
X132091500Y-111432000D01*
X132085500Y-111436000D01*
X132080500Y-111440000D01*
X132074500Y-111443000D01*
X132069500Y-111446000D01*
X132063500Y-111449000D01*
X132057500Y-111452000D01*
X132051500Y-111454000D01*
X132044500Y-111456000D01*
X132038500Y-111457000D01*
X132032500Y-111458000D01*
X132025500Y-111459000D01*
X132019500Y-111460000D01*
X132012500Y-111460000D01*
X131812500Y-111460000D01*
X131805500Y-111460000D01*
X131799500Y-111459000D01*
X131792500Y-111458000D01*
X131786500Y-111457000D01*
X131780500Y-111456000D01*
X131773500Y-111454000D01*
X131767500Y-111452000D01*
X131761500Y-111449000D01*
X131755500Y-111446000D01*
X131749500Y-111443000D01*
X131744500Y-111440000D01*
X131739500Y-111436000D01*
X131733500Y-111432000D01*
X131728500Y-111428000D01*
X131724500Y-111423000D01*
X131719500Y-111419000D01*
X131715500Y-111414000D01*
X131711500Y-111408000D01*
X131707500Y-111403000D01*
X131704500Y-111398000D01*
X131701500Y-111392000D01*
X131698500Y-111386000D01*
X131695500Y-111380000D01*
X131693500Y-111374000D01*
X131691500Y-111367000D01*
X131690500Y-111361000D01*
X131689500Y-111355000D01*
X131688500Y-111348000D01*
X131687500Y-111342000D01*
X131687500Y-111335000D01*
X131687500Y-110895000D01*
X131687500Y-110888000D01*
X131688500Y-110882000D01*
X131689500Y-110875000D01*
X131690500Y-110869000D01*
X131691500Y-110863000D01*
X131693500Y-110856000D01*
X131695500Y-110850000D01*
X131698500Y-110844000D01*
X131701500Y-110838000D01*
X131704500Y-110832000D01*
X131707500Y-110827000D01*
X131711500Y-110822000D01*
X131715500Y-110816000D01*
X131719500Y-110811000D01*
X131724500Y-110807000D01*
X131728500Y-110802000D01*
X131733500Y-110798000D01*
X131739500Y-110794000D01*
X131744500Y-110790000D01*
X131750500Y-110787000D01*
X131755500Y-110784000D01*
X131761500Y-110781000D01*
X131767500Y-110778000D01*
X131773500Y-110776000D01*
X131780500Y-110774000D01*
X131786500Y-110773000D01*
X131792500Y-110772000D01*
X131799500Y-110771000D01*
X131805500Y-110770000D01*
X131812500Y-110770000D01*
X132012500Y-110770000D01*
X132019500Y-110770000D01*
X132025500Y-110771000D01*
G37*
X133025500Y-108941000D02*
X133032500Y-108942000D01*
X133038500Y-108943000D01*
X133044500Y-108944000D01*
X133051500Y-108946000D01*
X133057500Y-108948000D01*
X133063500Y-108951000D01*
X133069500Y-108954000D01*
X133074500Y-108957000D01*
X133080500Y-108960000D01*
X133085500Y-108964000D01*
X133091500Y-108968000D01*
X133096500Y-108972000D01*
X133100500Y-108977000D01*
X133105500Y-108981000D01*
X133109500Y-108986000D01*
X133113500Y-108992000D01*
X133117500Y-108997000D01*
X133120500Y-109002000D01*
X133123500Y-109008000D01*
X133126500Y-109014000D01*
X133129500Y-109020000D01*
X133131500Y-109026000D01*
X133133500Y-109033000D01*
X133134500Y-109039000D01*
X133135500Y-109045000D01*
X133136500Y-109052000D01*
X133137500Y-109058000D01*
X133137500Y-109065000D01*
X133137500Y-109505000D01*
X133137500Y-109512000D01*
X133136500Y-109518000D01*
X133135500Y-109525000D01*
X133134500Y-109531000D01*
X133133500Y-109537000D01*
X133131500Y-109544000D01*
X133129500Y-109550000D01*
X133126500Y-109556000D01*
X133123500Y-109562000D01*
X133120500Y-109568000D01*
X133117500Y-109573000D01*
X133113500Y-109578000D01*
X133109500Y-109584000D01*
X133105500Y-109589000D01*
X133100500Y-109593000D01*
X133096500Y-109598000D01*
X133091500Y-109602000D01*
X133085500Y-109606000D01*
X133080500Y-109610000D01*
X133074500Y-109613000D01*
X133069500Y-109616000D01*
X133063500Y-109619000D01*
X133057500Y-109622000D01*
X133051500Y-109624000D01*
X133044500Y-109626000D01*
X133038500Y-109627000D01*
X133032500Y-109628000D01*
X133025500Y-109629000D01*
X133019500Y-109630000D01*
X133012500Y-109630000D01*
X132812500Y-109630000D01*
X132805500Y-109630000D01*
X132799500Y-109629000D01*
X132792500Y-109628000D01*
X132786500Y-109627000D01*
X132780500Y-109626000D01*
X132773500Y-109624000D01*
X132767500Y-109622000D01*
X132761500Y-109619000D01*
X132755500Y-109616000D01*
X132749500Y-109613000D01*
X132744500Y-109610000D01*
X132739500Y-109606000D01*
X132733500Y-109602000D01*
X132728500Y-109598000D01*
X132724500Y-109593000D01*
X132719500Y-109589000D01*
X132715500Y-109584000D01*
X132711500Y-109578000D01*
X132707500Y-109573000D01*
X132704500Y-109568000D01*
X132701500Y-109562000D01*
X132698500Y-109556000D01*
X132695500Y-109550000D01*
X132693500Y-109544000D01*
X132691500Y-109537000D01*
X132690500Y-109531000D01*
X132689500Y-109525000D01*
X132688500Y-109518000D01*
X132687500Y-109512000D01*
X132687500Y-109505000D01*
X132687500Y-109065000D01*
X132687500Y-109058000D01*
X132688500Y-109052000D01*
X132689500Y-109045000D01*
X132690500Y-109039000D01*
X132691500Y-109033000D01*
X132693500Y-109026000D01*
X132695500Y-109020000D01*
X132698500Y-109014000D01*
X132701500Y-109008000D01*
X132704500Y-109002000D01*
X132707500Y-108997000D01*
X132711500Y-108992000D01*
X132715500Y-108986000D01*
X132719500Y-108981000D01*
X132724500Y-108977000D01*
X132728500Y-108972000D01*
X132733500Y-108968000D01*
X132739500Y-108964000D01*
X132744500Y-108960000D01*
X132750500Y-108957000D01*
X132755500Y-108954000D01*
X132761500Y-108951000D01*
X132767500Y-108948000D01*
X132773500Y-108946000D01*
X132780500Y-108944000D01*
X132786500Y-108943000D01*
X132792500Y-108942000D01*
X132799500Y-108941000D01*
X132805500Y-108940000D01*
X132812500Y-108940000D01*
X133012500Y-108940000D01*
X133019500Y-108940000D01*
X133025500Y-108941000D01*
G36*
X133025500Y-108941000D02*
G01*
X133032500Y-108942000D01*
X133038500Y-108943000D01*
X133044500Y-108944000D01*
X133051500Y-108946000D01*
X133057500Y-108948000D01*
X133063500Y-108951000D01*
X133069500Y-108954000D01*
X133074500Y-108957000D01*
X133080500Y-108960000D01*
X133085500Y-108964000D01*
X133091500Y-108968000D01*
X133096500Y-108972000D01*
X133100500Y-108977000D01*
X133105500Y-108981000D01*
X133109500Y-108986000D01*
X133113500Y-108992000D01*
X133117500Y-108997000D01*
X133120500Y-109002000D01*
X133123500Y-109008000D01*
X133126500Y-109014000D01*
X133129500Y-109020000D01*
X133131500Y-109026000D01*
X133133500Y-109033000D01*
X133134500Y-109039000D01*
X133135500Y-109045000D01*
X133136500Y-109052000D01*
X133137500Y-109058000D01*
X133137500Y-109065000D01*
X133137500Y-109505000D01*
X133137500Y-109512000D01*
X133136500Y-109518000D01*
X133135500Y-109525000D01*
X133134500Y-109531000D01*
X133133500Y-109537000D01*
X133131500Y-109544000D01*
X133129500Y-109550000D01*
X133126500Y-109556000D01*
X133123500Y-109562000D01*
X133120500Y-109568000D01*
X133117500Y-109573000D01*
X133113500Y-109578000D01*
X133109500Y-109584000D01*
X133105500Y-109589000D01*
X133100500Y-109593000D01*
X133096500Y-109598000D01*
X133091500Y-109602000D01*
X133085500Y-109606000D01*
X133080500Y-109610000D01*
X133074500Y-109613000D01*
X133069500Y-109616000D01*
X133063500Y-109619000D01*
X133057500Y-109622000D01*
X133051500Y-109624000D01*
X133044500Y-109626000D01*
X133038500Y-109627000D01*
X133032500Y-109628000D01*
X133025500Y-109629000D01*
X133019500Y-109630000D01*
X133012500Y-109630000D01*
X132812500Y-109630000D01*
X132805500Y-109630000D01*
X132799500Y-109629000D01*
X132792500Y-109628000D01*
X132786500Y-109627000D01*
X132780500Y-109626000D01*
X132773500Y-109624000D01*
X132767500Y-109622000D01*
X132761500Y-109619000D01*
X132755500Y-109616000D01*
X132749500Y-109613000D01*
X132744500Y-109610000D01*
X132739500Y-109606000D01*
X132733500Y-109602000D01*
X132728500Y-109598000D01*
X132724500Y-109593000D01*
X132719500Y-109589000D01*
X132715500Y-109584000D01*
X132711500Y-109578000D01*
X132707500Y-109573000D01*
X132704500Y-109568000D01*
X132701500Y-109562000D01*
X132698500Y-109556000D01*
X132695500Y-109550000D01*
X132693500Y-109544000D01*
X132691500Y-109537000D01*
X132690500Y-109531000D01*
X132689500Y-109525000D01*
X132688500Y-109518000D01*
X132687500Y-109512000D01*
X132687500Y-109505000D01*
X132687500Y-109065000D01*
X132687500Y-109058000D01*
X132688500Y-109052000D01*
X132689500Y-109045000D01*
X132690500Y-109039000D01*
X132691500Y-109033000D01*
X132693500Y-109026000D01*
X132695500Y-109020000D01*
X132698500Y-109014000D01*
X132701500Y-109008000D01*
X132704500Y-109002000D01*
X132707500Y-108997000D01*
X132711500Y-108992000D01*
X132715500Y-108986000D01*
X132719500Y-108981000D01*
X132724500Y-108977000D01*
X132728500Y-108972000D01*
X132733500Y-108968000D01*
X132739500Y-108964000D01*
X132744500Y-108960000D01*
X132750500Y-108957000D01*
X132755500Y-108954000D01*
X132761500Y-108951000D01*
X132767500Y-108948000D01*
X132773500Y-108946000D01*
X132780500Y-108944000D01*
X132786500Y-108943000D01*
X132792500Y-108942000D01*
X132799500Y-108941000D01*
X132805500Y-108940000D01*
X132812500Y-108940000D01*
X133012500Y-108940000D01*
X133019500Y-108940000D01*
X133025500Y-108941000D01*
G37*
X133810500Y-109226000D02*
X133817500Y-109227000D01*
X133823500Y-109228000D01*
X133829500Y-109229000D01*
X133836500Y-109231000D01*
X133842500Y-109233000D01*
X133848500Y-109236000D01*
X133854500Y-109239000D01*
X133860500Y-109242000D01*
X133865500Y-109245000D01*
X133870500Y-109249000D01*
X133876500Y-109253000D01*
X133881500Y-109257000D01*
X133885500Y-109262000D01*
X133890500Y-109266000D01*
X133894500Y-109271000D01*
X133898500Y-109277000D01*
X133902500Y-109282000D01*
X133905500Y-109288000D01*
X133908500Y-109293000D01*
X133911500Y-109299000D01*
X133914500Y-109305000D01*
X133916500Y-109311000D01*
X133918500Y-109318000D01*
X133919500Y-109324000D01*
X133920500Y-109330000D01*
X133921500Y-109337000D01*
X133922500Y-109343000D01*
X133922500Y-109350000D01*
X133922500Y-109550000D01*
X133922500Y-109557000D01*
X133921500Y-109563000D01*
X133920500Y-109570000D01*
X133919500Y-109576000D01*
X133918500Y-109582000D01*
X133916500Y-109589000D01*
X133914500Y-109595000D01*
X133911500Y-109601000D01*
X133908500Y-109607000D01*
X133905500Y-109612000D01*
X133902500Y-109618000D01*
X133898500Y-109623000D01*
X133894500Y-109629000D01*
X133890500Y-109634000D01*
X133885500Y-109638000D01*
X133881500Y-109643000D01*
X133876500Y-109647000D01*
X133870500Y-109651000D01*
X133865500Y-109655000D01*
X133860500Y-109658000D01*
X133854500Y-109661000D01*
X133848500Y-109664000D01*
X133842500Y-109667000D01*
X133836500Y-109669000D01*
X133829500Y-109671000D01*
X133823500Y-109672000D01*
X133817500Y-109673000D01*
X133810500Y-109674000D01*
X133804500Y-109675000D01*
X133797500Y-109675000D01*
X133357500Y-109675000D01*
X133350500Y-109675000D01*
X133344500Y-109674000D01*
X133337500Y-109673000D01*
X133331500Y-109672000D01*
X133325500Y-109671000D01*
X133318500Y-109669000D01*
X133312500Y-109667000D01*
X133306500Y-109664000D01*
X133300500Y-109661000D01*
X133294500Y-109658000D01*
X133289500Y-109655000D01*
X133284500Y-109651000D01*
X133278500Y-109647000D01*
X133273500Y-109643000D01*
X133269500Y-109638000D01*
X133264500Y-109634000D01*
X133260500Y-109629000D01*
X133256500Y-109623000D01*
X133252500Y-109618000D01*
X133249500Y-109612000D01*
X133246500Y-109607000D01*
X133243500Y-109601000D01*
X133240500Y-109595000D01*
X133238500Y-109589000D01*
X133236500Y-109582000D01*
X133235500Y-109576000D01*
X133234500Y-109570000D01*
X133233500Y-109563000D01*
X133232500Y-109557000D01*
X133232500Y-109550000D01*
X133232500Y-109350000D01*
X133232500Y-109343000D01*
X133233500Y-109337000D01*
X133234500Y-109330000D01*
X133235500Y-109324000D01*
X133236500Y-109318000D01*
X133238500Y-109311000D01*
X133240500Y-109305000D01*
X133243500Y-109299000D01*
X133246500Y-109293000D01*
X133249500Y-109288000D01*
X133252500Y-109282000D01*
X133256500Y-109277000D01*
X133260500Y-109271000D01*
X133264500Y-109266000D01*
X133269500Y-109262000D01*
X133273500Y-109257000D01*
X133278500Y-109253000D01*
X133284500Y-109249000D01*
X133289500Y-109245000D01*
X133294500Y-109242000D01*
X133300500Y-109239000D01*
X133306500Y-109236000D01*
X133312500Y-109233000D01*
X133318500Y-109231000D01*
X133325500Y-109229000D01*
X133331500Y-109228000D01*
X133337500Y-109227000D01*
X133344500Y-109226000D01*
X133350500Y-109225000D01*
X133357500Y-109225000D01*
X133797500Y-109225000D01*
X133804500Y-109225000D01*
X133810500Y-109226000D01*
G36*
X133810500Y-109226000D02*
G01*
X133817500Y-109227000D01*
X133823500Y-109228000D01*
X133829500Y-109229000D01*
X133836500Y-109231000D01*
X133842500Y-109233000D01*
X133848500Y-109236000D01*
X133854500Y-109239000D01*
X133860500Y-109242000D01*
X133865500Y-109245000D01*
X133870500Y-109249000D01*
X133876500Y-109253000D01*
X133881500Y-109257000D01*
X133885500Y-109262000D01*
X133890500Y-109266000D01*
X133894500Y-109271000D01*
X133898500Y-109277000D01*
X133902500Y-109282000D01*
X133905500Y-109288000D01*
X133908500Y-109293000D01*
X133911500Y-109299000D01*
X133914500Y-109305000D01*
X133916500Y-109311000D01*
X133918500Y-109318000D01*
X133919500Y-109324000D01*
X133920500Y-109330000D01*
X133921500Y-109337000D01*
X133922500Y-109343000D01*
X133922500Y-109350000D01*
X133922500Y-109550000D01*
X133922500Y-109557000D01*
X133921500Y-109563000D01*
X133920500Y-109570000D01*
X133919500Y-109576000D01*
X133918500Y-109582000D01*
X133916500Y-109589000D01*
X133914500Y-109595000D01*
X133911500Y-109601000D01*
X133908500Y-109607000D01*
X133905500Y-109612000D01*
X133902500Y-109618000D01*
X133898500Y-109623000D01*
X133894500Y-109629000D01*
X133890500Y-109634000D01*
X133885500Y-109638000D01*
X133881500Y-109643000D01*
X133876500Y-109647000D01*
X133870500Y-109651000D01*
X133865500Y-109655000D01*
X133860500Y-109658000D01*
X133854500Y-109661000D01*
X133848500Y-109664000D01*
X133842500Y-109667000D01*
X133836500Y-109669000D01*
X133829500Y-109671000D01*
X133823500Y-109672000D01*
X133817500Y-109673000D01*
X133810500Y-109674000D01*
X133804500Y-109675000D01*
X133797500Y-109675000D01*
X133357500Y-109675000D01*
X133350500Y-109675000D01*
X133344500Y-109674000D01*
X133337500Y-109673000D01*
X133331500Y-109672000D01*
X133325500Y-109671000D01*
X133318500Y-109669000D01*
X133312500Y-109667000D01*
X133306500Y-109664000D01*
X133300500Y-109661000D01*
X133294500Y-109658000D01*
X133289500Y-109655000D01*
X133284500Y-109651000D01*
X133278500Y-109647000D01*
X133273500Y-109643000D01*
X133269500Y-109638000D01*
X133264500Y-109634000D01*
X133260500Y-109629000D01*
X133256500Y-109623000D01*
X133252500Y-109618000D01*
X133249500Y-109612000D01*
X133246500Y-109607000D01*
X133243500Y-109601000D01*
X133240500Y-109595000D01*
X133238500Y-109589000D01*
X133236500Y-109582000D01*
X133235500Y-109576000D01*
X133234500Y-109570000D01*
X133233500Y-109563000D01*
X133232500Y-109557000D01*
X133232500Y-109550000D01*
X133232500Y-109350000D01*
X133232500Y-109343000D01*
X133233500Y-109337000D01*
X133234500Y-109330000D01*
X133235500Y-109324000D01*
X133236500Y-109318000D01*
X133238500Y-109311000D01*
X133240500Y-109305000D01*
X133243500Y-109299000D01*
X133246500Y-109293000D01*
X133249500Y-109288000D01*
X133252500Y-109282000D01*
X133256500Y-109277000D01*
X133260500Y-109271000D01*
X133264500Y-109266000D01*
X133269500Y-109262000D01*
X133273500Y-109257000D01*
X133278500Y-109253000D01*
X133284500Y-109249000D01*
X133289500Y-109245000D01*
X133294500Y-109242000D01*
X133300500Y-109239000D01*
X133306500Y-109236000D01*
X133312500Y-109233000D01*
X133318500Y-109231000D01*
X133325500Y-109229000D01*
X133331500Y-109228000D01*
X133337500Y-109227000D01*
X133344500Y-109226000D01*
X133350500Y-109225000D01*
X133357500Y-109225000D01*
X133797500Y-109225000D01*
X133804500Y-109225000D01*
X133810500Y-109226000D01*
G37*
X131480500Y-109226000D02*
X131487500Y-109227000D01*
X131493500Y-109228000D01*
X131499500Y-109229000D01*
X131506500Y-109231000D01*
X131512500Y-109233000D01*
X131518500Y-109236000D01*
X131524500Y-109239000D01*
X131530500Y-109242000D01*
X131535500Y-109245000D01*
X131540500Y-109249000D01*
X131546500Y-109253000D01*
X131551500Y-109257000D01*
X131555500Y-109262000D01*
X131560500Y-109266000D01*
X131564500Y-109271000D01*
X131568500Y-109277000D01*
X131572500Y-109282000D01*
X131575500Y-109288000D01*
X131578500Y-109293000D01*
X131581500Y-109299000D01*
X131584500Y-109305000D01*
X131586500Y-109311000D01*
X131588500Y-109318000D01*
X131589500Y-109324000D01*
X131590500Y-109330000D01*
X131591500Y-109337000D01*
X131592500Y-109343000D01*
X131592500Y-109350000D01*
X131592500Y-109550000D01*
X131592500Y-109557000D01*
X131591500Y-109563000D01*
X131590500Y-109570000D01*
X131589500Y-109576000D01*
X131588500Y-109582000D01*
X131586500Y-109589000D01*
X131584500Y-109595000D01*
X131581500Y-109601000D01*
X131578500Y-109607000D01*
X131575500Y-109612000D01*
X131572500Y-109618000D01*
X131568500Y-109623000D01*
X131564500Y-109629000D01*
X131560500Y-109634000D01*
X131555500Y-109638000D01*
X131551500Y-109643000D01*
X131546500Y-109647000D01*
X131540500Y-109651000D01*
X131535500Y-109655000D01*
X131530500Y-109658000D01*
X131524500Y-109661000D01*
X131518500Y-109664000D01*
X131512500Y-109667000D01*
X131506500Y-109669000D01*
X131499500Y-109671000D01*
X131493500Y-109672000D01*
X131487500Y-109673000D01*
X131480500Y-109674000D01*
X131474500Y-109675000D01*
X131467500Y-109675000D01*
X131027500Y-109675000D01*
X131020500Y-109675000D01*
X131014500Y-109674000D01*
X131007500Y-109673000D01*
X131001500Y-109672000D01*
X130995500Y-109671000D01*
X130988500Y-109669000D01*
X130982500Y-109667000D01*
X130976500Y-109664000D01*
X130970500Y-109661000D01*
X130964500Y-109658000D01*
X130959500Y-109655000D01*
X130954500Y-109651000D01*
X130948500Y-109647000D01*
X130943500Y-109643000D01*
X130939500Y-109638000D01*
X130934500Y-109634000D01*
X130930500Y-109629000D01*
X130926500Y-109623000D01*
X130922500Y-109618000D01*
X130919500Y-109612000D01*
X130916500Y-109607000D01*
X130913500Y-109601000D01*
X130910500Y-109595000D01*
X130908500Y-109589000D01*
X130906500Y-109582000D01*
X130905500Y-109576000D01*
X130904500Y-109570000D01*
X130903500Y-109563000D01*
X130902500Y-109557000D01*
X130902500Y-109550000D01*
X130902500Y-109350000D01*
X130902500Y-109343000D01*
X130903500Y-109337000D01*
X130904500Y-109330000D01*
X130905500Y-109324000D01*
X130906500Y-109318000D01*
X130908500Y-109311000D01*
X130910500Y-109305000D01*
X130913500Y-109299000D01*
X130916500Y-109293000D01*
X130919500Y-109288000D01*
X130922500Y-109282000D01*
X130926500Y-109277000D01*
X130930500Y-109271000D01*
X130934500Y-109266000D01*
X130939500Y-109262000D01*
X130943500Y-109257000D01*
X130948500Y-109253000D01*
X130954500Y-109249000D01*
X130959500Y-109245000D01*
X130964500Y-109242000D01*
X130970500Y-109239000D01*
X130976500Y-109236000D01*
X130982500Y-109233000D01*
X130988500Y-109231000D01*
X130995500Y-109229000D01*
X131001500Y-109228000D01*
X131007500Y-109227000D01*
X131014500Y-109226000D01*
X131020500Y-109225000D01*
X131027500Y-109225000D01*
X131467500Y-109225000D01*
X131474500Y-109225000D01*
X131480500Y-109226000D01*
G36*
X131480500Y-109226000D02*
G01*
X131487500Y-109227000D01*
X131493500Y-109228000D01*
X131499500Y-109229000D01*
X131506500Y-109231000D01*
X131512500Y-109233000D01*
X131518500Y-109236000D01*
X131524500Y-109239000D01*
X131530500Y-109242000D01*
X131535500Y-109245000D01*
X131540500Y-109249000D01*
X131546500Y-109253000D01*
X131551500Y-109257000D01*
X131555500Y-109262000D01*
X131560500Y-109266000D01*
X131564500Y-109271000D01*
X131568500Y-109277000D01*
X131572500Y-109282000D01*
X131575500Y-109288000D01*
X131578500Y-109293000D01*
X131581500Y-109299000D01*
X131584500Y-109305000D01*
X131586500Y-109311000D01*
X131588500Y-109318000D01*
X131589500Y-109324000D01*
X131590500Y-109330000D01*
X131591500Y-109337000D01*
X131592500Y-109343000D01*
X131592500Y-109350000D01*
X131592500Y-109550000D01*
X131592500Y-109557000D01*
X131591500Y-109563000D01*
X131590500Y-109570000D01*
X131589500Y-109576000D01*
X131588500Y-109582000D01*
X131586500Y-109589000D01*
X131584500Y-109595000D01*
X131581500Y-109601000D01*
X131578500Y-109607000D01*
X131575500Y-109612000D01*
X131572500Y-109618000D01*
X131568500Y-109623000D01*
X131564500Y-109629000D01*
X131560500Y-109634000D01*
X131555500Y-109638000D01*
X131551500Y-109643000D01*
X131546500Y-109647000D01*
X131540500Y-109651000D01*
X131535500Y-109655000D01*
X131530500Y-109658000D01*
X131524500Y-109661000D01*
X131518500Y-109664000D01*
X131512500Y-109667000D01*
X131506500Y-109669000D01*
X131499500Y-109671000D01*
X131493500Y-109672000D01*
X131487500Y-109673000D01*
X131480500Y-109674000D01*
X131474500Y-109675000D01*
X131467500Y-109675000D01*
X131027500Y-109675000D01*
X131020500Y-109675000D01*
X131014500Y-109674000D01*
X131007500Y-109673000D01*
X131001500Y-109672000D01*
X130995500Y-109671000D01*
X130988500Y-109669000D01*
X130982500Y-109667000D01*
X130976500Y-109664000D01*
X130970500Y-109661000D01*
X130964500Y-109658000D01*
X130959500Y-109655000D01*
X130954500Y-109651000D01*
X130948500Y-109647000D01*
X130943500Y-109643000D01*
X130939500Y-109638000D01*
X130934500Y-109634000D01*
X130930500Y-109629000D01*
X130926500Y-109623000D01*
X130922500Y-109618000D01*
X130919500Y-109612000D01*
X130916500Y-109607000D01*
X130913500Y-109601000D01*
X130910500Y-109595000D01*
X130908500Y-109589000D01*
X130906500Y-109582000D01*
X130905500Y-109576000D01*
X130904500Y-109570000D01*
X130903500Y-109563000D01*
X130902500Y-109557000D01*
X130902500Y-109550000D01*
X130902500Y-109350000D01*
X130902500Y-109343000D01*
X130903500Y-109337000D01*
X130904500Y-109330000D01*
X130905500Y-109324000D01*
X130906500Y-109318000D01*
X130908500Y-109311000D01*
X130910500Y-109305000D01*
X130913500Y-109299000D01*
X130916500Y-109293000D01*
X130919500Y-109288000D01*
X130922500Y-109282000D01*
X130926500Y-109277000D01*
X130930500Y-109271000D01*
X130934500Y-109266000D01*
X130939500Y-109262000D01*
X130943500Y-109257000D01*
X130948500Y-109253000D01*
X130954500Y-109249000D01*
X130959500Y-109245000D01*
X130964500Y-109242000D01*
X130970500Y-109239000D01*
X130976500Y-109236000D01*
X130982500Y-109233000D01*
X130988500Y-109231000D01*
X130995500Y-109229000D01*
X131001500Y-109228000D01*
X131007500Y-109227000D01*
X131014500Y-109226000D01*
X131020500Y-109225000D01*
X131027500Y-109225000D01*
X131467500Y-109225000D01*
X131474500Y-109225000D01*
X131480500Y-109226000D01*
G37*
X131480500Y-110726000D02*
X131487500Y-110727000D01*
X131493500Y-110728000D01*
X131499500Y-110729000D01*
X131506500Y-110731000D01*
X131512500Y-110733000D01*
X131518500Y-110736000D01*
X131524500Y-110739000D01*
X131530500Y-110742000D01*
X131535500Y-110745000D01*
X131540500Y-110749000D01*
X131546500Y-110753000D01*
X131551500Y-110757000D01*
X131555500Y-110762000D01*
X131560500Y-110766000D01*
X131564500Y-110771000D01*
X131568500Y-110777000D01*
X131572500Y-110782000D01*
X131575500Y-110788000D01*
X131578500Y-110793000D01*
X131581500Y-110799000D01*
X131584500Y-110805000D01*
X131586500Y-110811000D01*
X131588500Y-110818000D01*
X131589500Y-110824000D01*
X131590500Y-110830000D01*
X131591500Y-110837000D01*
X131592500Y-110843000D01*
X131592500Y-110850000D01*
X131592500Y-111050000D01*
X131592500Y-111057000D01*
X131591500Y-111063000D01*
X131590500Y-111070000D01*
X131589500Y-111076000D01*
X131588500Y-111082000D01*
X131586500Y-111089000D01*
X131584500Y-111095000D01*
X131581500Y-111101000D01*
X131578500Y-111107000D01*
X131575500Y-111112000D01*
X131572500Y-111118000D01*
X131568500Y-111123000D01*
X131564500Y-111129000D01*
X131560500Y-111134000D01*
X131555500Y-111138000D01*
X131551500Y-111143000D01*
X131546500Y-111147000D01*
X131540500Y-111151000D01*
X131535500Y-111155000D01*
X131530500Y-111158000D01*
X131524500Y-111161000D01*
X131518500Y-111164000D01*
X131512500Y-111167000D01*
X131506500Y-111169000D01*
X131499500Y-111171000D01*
X131493500Y-111172000D01*
X131487500Y-111173000D01*
X131480500Y-111174000D01*
X131474500Y-111175000D01*
X131467500Y-111175000D01*
X131027500Y-111175000D01*
X131020500Y-111175000D01*
X131014500Y-111174000D01*
X131007500Y-111173000D01*
X131001500Y-111172000D01*
X130995500Y-111171000D01*
X130988500Y-111169000D01*
X130982500Y-111167000D01*
X130976500Y-111164000D01*
X130970500Y-111161000D01*
X130964500Y-111158000D01*
X130959500Y-111155000D01*
X130954500Y-111151000D01*
X130948500Y-111147000D01*
X130943500Y-111143000D01*
X130939500Y-111138000D01*
X130934500Y-111134000D01*
X130930500Y-111129000D01*
X130926500Y-111123000D01*
X130922500Y-111118000D01*
X130919500Y-111112000D01*
X130916500Y-111107000D01*
X130913500Y-111101000D01*
X130910500Y-111095000D01*
X130908500Y-111089000D01*
X130906500Y-111082000D01*
X130905500Y-111076000D01*
X130904500Y-111070000D01*
X130903500Y-111063000D01*
X130902500Y-111057000D01*
X130902500Y-111050000D01*
X130902500Y-110850000D01*
X130902500Y-110843000D01*
X130903500Y-110837000D01*
X130904500Y-110830000D01*
X130905500Y-110824000D01*
X130906500Y-110818000D01*
X130908500Y-110811000D01*
X130910500Y-110805000D01*
X130913500Y-110799000D01*
X130916500Y-110793000D01*
X130919500Y-110788000D01*
X130922500Y-110782000D01*
X130926500Y-110777000D01*
X130930500Y-110771000D01*
X130934500Y-110766000D01*
X130939500Y-110762000D01*
X130943500Y-110757000D01*
X130948500Y-110753000D01*
X130954500Y-110749000D01*
X130959500Y-110745000D01*
X130964500Y-110742000D01*
X130970500Y-110739000D01*
X130976500Y-110736000D01*
X130982500Y-110733000D01*
X130988500Y-110731000D01*
X130995500Y-110729000D01*
X131001500Y-110728000D01*
X131007500Y-110727000D01*
X131014500Y-110726000D01*
X131020500Y-110725000D01*
X131027500Y-110725000D01*
X131467500Y-110725000D01*
X131474500Y-110725000D01*
X131480500Y-110726000D01*
G36*
X131480500Y-110726000D02*
G01*
X131487500Y-110727000D01*
X131493500Y-110728000D01*
X131499500Y-110729000D01*
X131506500Y-110731000D01*
X131512500Y-110733000D01*
X131518500Y-110736000D01*
X131524500Y-110739000D01*
X131530500Y-110742000D01*
X131535500Y-110745000D01*
X131540500Y-110749000D01*
X131546500Y-110753000D01*
X131551500Y-110757000D01*
X131555500Y-110762000D01*
X131560500Y-110766000D01*
X131564500Y-110771000D01*
X131568500Y-110777000D01*
X131572500Y-110782000D01*
X131575500Y-110788000D01*
X131578500Y-110793000D01*
X131581500Y-110799000D01*
X131584500Y-110805000D01*
X131586500Y-110811000D01*
X131588500Y-110818000D01*
X131589500Y-110824000D01*
X131590500Y-110830000D01*
X131591500Y-110837000D01*
X131592500Y-110843000D01*
X131592500Y-110850000D01*
X131592500Y-111050000D01*
X131592500Y-111057000D01*
X131591500Y-111063000D01*
X131590500Y-111070000D01*
X131589500Y-111076000D01*
X131588500Y-111082000D01*
X131586500Y-111089000D01*
X131584500Y-111095000D01*
X131581500Y-111101000D01*
X131578500Y-111107000D01*
X131575500Y-111112000D01*
X131572500Y-111118000D01*
X131568500Y-111123000D01*
X131564500Y-111129000D01*
X131560500Y-111134000D01*
X131555500Y-111138000D01*
X131551500Y-111143000D01*
X131546500Y-111147000D01*
X131540500Y-111151000D01*
X131535500Y-111155000D01*
X131530500Y-111158000D01*
X131524500Y-111161000D01*
X131518500Y-111164000D01*
X131512500Y-111167000D01*
X131506500Y-111169000D01*
X131499500Y-111171000D01*
X131493500Y-111172000D01*
X131487500Y-111173000D01*
X131480500Y-111174000D01*
X131474500Y-111175000D01*
X131467500Y-111175000D01*
X131027500Y-111175000D01*
X131020500Y-111175000D01*
X131014500Y-111174000D01*
X131007500Y-111173000D01*
X131001500Y-111172000D01*
X130995500Y-111171000D01*
X130988500Y-111169000D01*
X130982500Y-111167000D01*
X130976500Y-111164000D01*
X130970500Y-111161000D01*
X130964500Y-111158000D01*
X130959500Y-111155000D01*
X130954500Y-111151000D01*
X130948500Y-111147000D01*
X130943500Y-111143000D01*
X130939500Y-111138000D01*
X130934500Y-111134000D01*
X130930500Y-111129000D01*
X130926500Y-111123000D01*
X130922500Y-111118000D01*
X130919500Y-111112000D01*
X130916500Y-111107000D01*
X130913500Y-111101000D01*
X130910500Y-111095000D01*
X130908500Y-111089000D01*
X130906500Y-111082000D01*
X130905500Y-111076000D01*
X130904500Y-111070000D01*
X130903500Y-111063000D01*
X130902500Y-111057000D01*
X130902500Y-111050000D01*
X130902500Y-110850000D01*
X130902500Y-110843000D01*
X130903500Y-110837000D01*
X130904500Y-110830000D01*
X130905500Y-110824000D01*
X130906500Y-110818000D01*
X130908500Y-110811000D01*
X130910500Y-110805000D01*
X130913500Y-110799000D01*
X130916500Y-110793000D01*
X130919500Y-110788000D01*
X130922500Y-110782000D01*
X130926500Y-110777000D01*
X130930500Y-110771000D01*
X130934500Y-110766000D01*
X130939500Y-110762000D01*
X130943500Y-110757000D01*
X130948500Y-110753000D01*
X130954500Y-110749000D01*
X130959500Y-110745000D01*
X130964500Y-110742000D01*
X130970500Y-110739000D01*
X130976500Y-110736000D01*
X130982500Y-110733000D01*
X130988500Y-110731000D01*
X130995500Y-110729000D01*
X131001500Y-110728000D01*
X131007500Y-110727000D01*
X131014500Y-110726000D01*
X131020500Y-110725000D01*
X131027500Y-110725000D01*
X131467500Y-110725000D01*
X131474500Y-110725000D01*
X131480500Y-110726000D01*
G37*
X133810500Y-109726000D02*
X133817500Y-109727000D01*
X133823500Y-109728000D01*
X133829500Y-109729000D01*
X133836500Y-109731000D01*
X133842500Y-109733000D01*
X133848500Y-109736000D01*
X133854500Y-109739000D01*
X133860500Y-109742000D01*
X133865500Y-109745000D01*
X133870500Y-109749000D01*
X133876500Y-109753000D01*
X133881500Y-109757000D01*
X133885500Y-109762000D01*
X133890500Y-109766000D01*
X133894500Y-109771000D01*
X133898500Y-109777000D01*
X133902500Y-109782000D01*
X133905500Y-109788000D01*
X133908500Y-109793000D01*
X133911500Y-109799000D01*
X133914500Y-109805000D01*
X133916500Y-109811000D01*
X133918500Y-109818000D01*
X133919500Y-109824000D01*
X133920500Y-109830000D01*
X133921500Y-109837000D01*
X133922500Y-109843000D01*
X133922500Y-109850000D01*
X133922500Y-110050000D01*
X133922500Y-110057000D01*
X133921500Y-110063000D01*
X133920500Y-110070000D01*
X133919500Y-110076000D01*
X133918500Y-110082000D01*
X133916500Y-110089000D01*
X133914500Y-110095000D01*
X133911500Y-110101000D01*
X133908500Y-110107000D01*
X133905500Y-110112000D01*
X133902500Y-110118000D01*
X133898500Y-110123000D01*
X133894500Y-110129000D01*
X133890500Y-110134000D01*
X133885500Y-110138000D01*
X133881500Y-110143000D01*
X133876500Y-110147000D01*
X133870500Y-110151000D01*
X133865500Y-110155000D01*
X133860500Y-110158000D01*
X133854500Y-110161000D01*
X133848500Y-110164000D01*
X133842500Y-110167000D01*
X133836500Y-110169000D01*
X133829500Y-110171000D01*
X133823500Y-110172000D01*
X133817500Y-110173000D01*
X133810500Y-110174000D01*
X133804500Y-110175000D01*
X133797500Y-110175000D01*
X133357500Y-110175000D01*
X133350500Y-110175000D01*
X133344500Y-110174000D01*
X133337500Y-110173000D01*
X133331500Y-110172000D01*
X133325500Y-110171000D01*
X133318500Y-110169000D01*
X133312500Y-110167000D01*
X133306500Y-110164000D01*
X133300500Y-110161000D01*
X133294500Y-110158000D01*
X133289500Y-110155000D01*
X133284500Y-110151000D01*
X133278500Y-110147000D01*
X133273500Y-110143000D01*
X133269500Y-110138000D01*
X133264500Y-110134000D01*
X133260500Y-110129000D01*
X133256500Y-110123000D01*
X133252500Y-110118000D01*
X133249500Y-110112000D01*
X133246500Y-110107000D01*
X133243500Y-110101000D01*
X133240500Y-110095000D01*
X133238500Y-110089000D01*
X133236500Y-110082000D01*
X133235500Y-110076000D01*
X133234500Y-110070000D01*
X133233500Y-110063000D01*
X133232500Y-110057000D01*
X133232500Y-110050000D01*
X133232500Y-109850000D01*
X133232500Y-109843000D01*
X133233500Y-109837000D01*
X133234500Y-109830000D01*
X133235500Y-109824000D01*
X133236500Y-109818000D01*
X133238500Y-109811000D01*
X133240500Y-109805000D01*
X133243500Y-109799000D01*
X133246500Y-109793000D01*
X133249500Y-109788000D01*
X133252500Y-109782000D01*
X133256500Y-109777000D01*
X133260500Y-109771000D01*
X133264500Y-109766000D01*
X133269500Y-109762000D01*
X133273500Y-109757000D01*
X133278500Y-109753000D01*
X133284500Y-109749000D01*
X133289500Y-109745000D01*
X133294500Y-109742000D01*
X133300500Y-109739000D01*
X133306500Y-109736000D01*
X133312500Y-109733000D01*
X133318500Y-109731000D01*
X133325500Y-109729000D01*
X133331500Y-109728000D01*
X133337500Y-109727000D01*
X133344500Y-109726000D01*
X133350500Y-109725000D01*
X133357500Y-109725000D01*
X133797500Y-109725000D01*
X133804500Y-109725000D01*
X133810500Y-109726000D01*
G36*
X133810500Y-109726000D02*
G01*
X133817500Y-109727000D01*
X133823500Y-109728000D01*
X133829500Y-109729000D01*
X133836500Y-109731000D01*
X133842500Y-109733000D01*
X133848500Y-109736000D01*
X133854500Y-109739000D01*
X133860500Y-109742000D01*
X133865500Y-109745000D01*
X133870500Y-109749000D01*
X133876500Y-109753000D01*
X133881500Y-109757000D01*
X133885500Y-109762000D01*
X133890500Y-109766000D01*
X133894500Y-109771000D01*
X133898500Y-109777000D01*
X133902500Y-109782000D01*
X133905500Y-109788000D01*
X133908500Y-109793000D01*
X133911500Y-109799000D01*
X133914500Y-109805000D01*
X133916500Y-109811000D01*
X133918500Y-109818000D01*
X133919500Y-109824000D01*
X133920500Y-109830000D01*
X133921500Y-109837000D01*
X133922500Y-109843000D01*
X133922500Y-109850000D01*
X133922500Y-110050000D01*
X133922500Y-110057000D01*
X133921500Y-110063000D01*
X133920500Y-110070000D01*
X133919500Y-110076000D01*
X133918500Y-110082000D01*
X133916500Y-110089000D01*
X133914500Y-110095000D01*
X133911500Y-110101000D01*
X133908500Y-110107000D01*
X133905500Y-110112000D01*
X133902500Y-110118000D01*
X133898500Y-110123000D01*
X133894500Y-110129000D01*
X133890500Y-110134000D01*
X133885500Y-110138000D01*
X133881500Y-110143000D01*
X133876500Y-110147000D01*
X133870500Y-110151000D01*
X133865500Y-110155000D01*
X133860500Y-110158000D01*
X133854500Y-110161000D01*
X133848500Y-110164000D01*
X133842500Y-110167000D01*
X133836500Y-110169000D01*
X133829500Y-110171000D01*
X133823500Y-110172000D01*
X133817500Y-110173000D01*
X133810500Y-110174000D01*
X133804500Y-110175000D01*
X133797500Y-110175000D01*
X133357500Y-110175000D01*
X133350500Y-110175000D01*
X133344500Y-110174000D01*
X133337500Y-110173000D01*
X133331500Y-110172000D01*
X133325500Y-110171000D01*
X133318500Y-110169000D01*
X133312500Y-110167000D01*
X133306500Y-110164000D01*
X133300500Y-110161000D01*
X133294500Y-110158000D01*
X133289500Y-110155000D01*
X133284500Y-110151000D01*
X133278500Y-110147000D01*
X133273500Y-110143000D01*
X133269500Y-110138000D01*
X133264500Y-110134000D01*
X133260500Y-110129000D01*
X133256500Y-110123000D01*
X133252500Y-110118000D01*
X133249500Y-110112000D01*
X133246500Y-110107000D01*
X133243500Y-110101000D01*
X133240500Y-110095000D01*
X133238500Y-110089000D01*
X133236500Y-110082000D01*
X133235500Y-110076000D01*
X133234500Y-110070000D01*
X133233500Y-110063000D01*
X133232500Y-110057000D01*
X133232500Y-110050000D01*
X133232500Y-109850000D01*
X133232500Y-109843000D01*
X133233500Y-109837000D01*
X133234500Y-109830000D01*
X133235500Y-109824000D01*
X133236500Y-109818000D01*
X133238500Y-109811000D01*
X133240500Y-109805000D01*
X133243500Y-109799000D01*
X133246500Y-109793000D01*
X133249500Y-109788000D01*
X133252500Y-109782000D01*
X133256500Y-109777000D01*
X133260500Y-109771000D01*
X133264500Y-109766000D01*
X133269500Y-109762000D01*
X133273500Y-109757000D01*
X133278500Y-109753000D01*
X133284500Y-109749000D01*
X133289500Y-109745000D01*
X133294500Y-109742000D01*
X133300500Y-109739000D01*
X133306500Y-109736000D01*
X133312500Y-109733000D01*
X133318500Y-109731000D01*
X133325500Y-109729000D01*
X133331500Y-109728000D01*
X133337500Y-109727000D01*
X133344500Y-109726000D01*
X133350500Y-109725000D01*
X133357500Y-109725000D01*
X133797500Y-109725000D01*
X133804500Y-109725000D01*
X133810500Y-109726000D01*
G37*
X132025500Y-108941000D02*
X132032500Y-108942000D01*
X132038500Y-108943000D01*
X132044500Y-108944000D01*
X132051500Y-108946000D01*
X132057500Y-108948000D01*
X132063500Y-108951000D01*
X132069500Y-108954000D01*
X132074500Y-108957000D01*
X132080500Y-108960000D01*
X132085500Y-108964000D01*
X132091500Y-108968000D01*
X132096500Y-108972000D01*
X132100500Y-108977000D01*
X132105500Y-108981000D01*
X132109500Y-108986000D01*
X132113500Y-108992000D01*
X132117500Y-108997000D01*
X132120500Y-109002000D01*
X132123500Y-109008000D01*
X132126500Y-109014000D01*
X132129500Y-109020000D01*
X132131500Y-109026000D01*
X132133500Y-109033000D01*
X132134500Y-109039000D01*
X132135500Y-109045000D01*
X132136500Y-109052000D01*
X132137500Y-109058000D01*
X132137500Y-109065000D01*
X132137500Y-109505000D01*
X132137500Y-109512000D01*
X132136500Y-109518000D01*
X132135500Y-109525000D01*
X132134500Y-109531000D01*
X132133500Y-109537000D01*
X132131500Y-109544000D01*
X132129500Y-109550000D01*
X132126500Y-109556000D01*
X132123500Y-109562000D01*
X132120500Y-109568000D01*
X132117500Y-109573000D01*
X132113500Y-109578000D01*
X132109500Y-109584000D01*
X132105500Y-109589000D01*
X132100500Y-109593000D01*
X132096500Y-109598000D01*
X132091500Y-109602000D01*
X132085500Y-109606000D01*
X132080500Y-109610000D01*
X132074500Y-109613000D01*
X132069500Y-109616000D01*
X132063500Y-109619000D01*
X132057500Y-109622000D01*
X132051500Y-109624000D01*
X132044500Y-109626000D01*
X132038500Y-109627000D01*
X132032500Y-109628000D01*
X132025500Y-109629000D01*
X132019500Y-109630000D01*
X132012500Y-109630000D01*
X131812500Y-109630000D01*
X131805500Y-109630000D01*
X131799500Y-109629000D01*
X131792500Y-109628000D01*
X131786500Y-109627000D01*
X131780500Y-109626000D01*
X131773500Y-109624000D01*
X131767500Y-109622000D01*
X131761500Y-109619000D01*
X131755500Y-109616000D01*
X131749500Y-109613000D01*
X131744500Y-109610000D01*
X131739500Y-109606000D01*
X131733500Y-109602000D01*
X131728500Y-109598000D01*
X131724500Y-109593000D01*
X131719500Y-109589000D01*
X131715500Y-109584000D01*
X131711500Y-109578000D01*
X131707500Y-109573000D01*
X131704500Y-109568000D01*
X131701500Y-109562000D01*
X131698500Y-109556000D01*
X131695500Y-109550000D01*
X131693500Y-109544000D01*
X131691500Y-109537000D01*
X131690500Y-109531000D01*
X131689500Y-109525000D01*
X131688500Y-109518000D01*
X131687500Y-109512000D01*
X131687500Y-109505000D01*
X131687500Y-109065000D01*
X131687500Y-109058000D01*
X131688500Y-109052000D01*
X131689500Y-109045000D01*
X131690500Y-109039000D01*
X131691500Y-109033000D01*
X131693500Y-109026000D01*
X131695500Y-109020000D01*
X131698500Y-109014000D01*
X131701500Y-109008000D01*
X131704500Y-109002000D01*
X131707500Y-108997000D01*
X131711500Y-108992000D01*
X131715500Y-108986000D01*
X131719500Y-108981000D01*
X131724500Y-108977000D01*
X131728500Y-108972000D01*
X131733500Y-108968000D01*
X131739500Y-108964000D01*
X131744500Y-108960000D01*
X131750500Y-108957000D01*
X131755500Y-108954000D01*
X131761500Y-108951000D01*
X131767500Y-108948000D01*
X131773500Y-108946000D01*
X131780500Y-108944000D01*
X131786500Y-108943000D01*
X131792500Y-108942000D01*
X131799500Y-108941000D01*
X131805500Y-108940000D01*
X131812500Y-108940000D01*
X132012500Y-108940000D01*
X132019500Y-108940000D01*
X132025500Y-108941000D01*
G36*
X132025500Y-108941000D02*
G01*
X132032500Y-108942000D01*
X132038500Y-108943000D01*
X132044500Y-108944000D01*
X132051500Y-108946000D01*
X132057500Y-108948000D01*
X132063500Y-108951000D01*
X132069500Y-108954000D01*
X132074500Y-108957000D01*
X132080500Y-108960000D01*
X132085500Y-108964000D01*
X132091500Y-108968000D01*
X132096500Y-108972000D01*
X132100500Y-108977000D01*
X132105500Y-108981000D01*
X132109500Y-108986000D01*
X132113500Y-108992000D01*
X132117500Y-108997000D01*
X132120500Y-109002000D01*
X132123500Y-109008000D01*
X132126500Y-109014000D01*
X132129500Y-109020000D01*
X132131500Y-109026000D01*
X132133500Y-109033000D01*
X132134500Y-109039000D01*
X132135500Y-109045000D01*
X132136500Y-109052000D01*
X132137500Y-109058000D01*
X132137500Y-109065000D01*
X132137500Y-109505000D01*
X132137500Y-109512000D01*
X132136500Y-109518000D01*
X132135500Y-109525000D01*
X132134500Y-109531000D01*
X132133500Y-109537000D01*
X132131500Y-109544000D01*
X132129500Y-109550000D01*
X132126500Y-109556000D01*
X132123500Y-109562000D01*
X132120500Y-109568000D01*
X132117500Y-109573000D01*
X132113500Y-109578000D01*
X132109500Y-109584000D01*
X132105500Y-109589000D01*
X132100500Y-109593000D01*
X132096500Y-109598000D01*
X132091500Y-109602000D01*
X132085500Y-109606000D01*
X132080500Y-109610000D01*
X132074500Y-109613000D01*
X132069500Y-109616000D01*
X132063500Y-109619000D01*
X132057500Y-109622000D01*
X132051500Y-109624000D01*
X132044500Y-109626000D01*
X132038500Y-109627000D01*
X132032500Y-109628000D01*
X132025500Y-109629000D01*
X132019500Y-109630000D01*
X132012500Y-109630000D01*
X131812500Y-109630000D01*
X131805500Y-109630000D01*
X131799500Y-109629000D01*
X131792500Y-109628000D01*
X131786500Y-109627000D01*
X131780500Y-109626000D01*
X131773500Y-109624000D01*
X131767500Y-109622000D01*
X131761500Y-109619000D01*
X131755500Y-109616000D01*
X131749500Y-109613000D01*
X131744500Y-109610000D01*
X131739500Y-109606000D01*
X131733500Y-109602000D01*
X131728500Y-109598000D01*
X131724500Y-109593000D01*
X131719500Y-109589000D01*
X131715500Y-109584000D01*
X131711500Y-109578000D01*
X131707500Y-109573000D01*
X131704500Y-109568000D01*
X131701500Y-109562000D01*
X131698500Y-109556000D01*
X131695500Y-109550000D01*
X131693500Y-109544000D01*
X131691500Y-109537000D01*
X131690500Y-109531000D01*
X131689500Y-109525000D01*
X131688500Y-109518000D01*
X131687500Y-109512000D01*
X131687500Y-109505000D01*
X131687500Y-109065000D01*
X131687500Y-109058000D01*
X131688500Y-109052000D01*
X131689500Y-109045000D01*
X131690500Y-109039000D01*
X131691500Y-109033000D01*
X131693500Y-109026000D01*
X131695500Y-109020000D01*
X131698500Y-109014000D01*
X131701500Y-109008000D01*
X131704500Y-109002000D01*
X131707500Y-108997000D01*
X131711500Y-108992000D01*
X131715500Y-108986000D01*
X131719500Y-108981000D01*
X131724500Y-108977000D01*
X131728500Y-108972000D01*
X131733500Y-108968000D01*
X131739500Y-108964000D01*
X131744500Y-108960000D01*
X131750500Y-108957000D01*
X131755500Y-108954000D01*
X131761500Y-108951000D01*
X131767500Y-108948000D01*
X131773500Y-108946000D01*
X131780500Y-108944000D01*
X131786500Y-108943000D01*
X131792500Y-108942000D01*
X131799500Y-108941000D01*
X131805500Y-108940000D01*
X131812500Y-108940000D01*
X132012500Y-108940000D01*
X132019500Y-108940000D01*
X132025500Y-108941000D01*
G37*
X132525500Y-108941000D02*
X132532500Y-108942000D01*
X132538500Y-108943000D01*
X132544500Y-108944000D01*
X132551500Y-108946000D01*
X132557500Y-108948000D01*
X132563500Y-108951000D01*
X132569500Y-108954000D01*
X132575500Y-108957000D01*
X132580500Y-108960000D01*
X132585500Y-108964000D01*
X132591500Y-108968000D01*
X132596500Y-108972000D01*
X132600500Y-108977000D01*
X132605500Y-108981000D01*
X132609500Y-108986000D01*
X132613500Y-108992000D01*
X132617500Y-108997000D01*
X132620500Y-109002000D01*
X132623500Y-109008000D01*
X132626500Y-109014000D01*
X132629500Y-109020000D01*
X132631500Y-109026000D01*
X132633500Y-109033000D01*
X132634500Y-109039000D01*
X132635500Y-109045000D01*
X132636500Y-109052000D01*
X132637500Y-109058000D01*
X132637500Y-109065000D01*
X132637500Y-109505000D01*
X132637500Y-109512000D01*
X132636500Y-109518000D01*
X132635500Y-109525000D01*
X132634500Y-109531000D01*
X132633500Y-109537000D01*
X132631500Y-109544000D01*
X132629500Y-109550000D01*
X132626500Y-109556000D01*
X132623500Y-109562000D01*
X132620500Y-109568000D01*
X132617500Y-109573000D01*
X132613500Y-109578000D01*
X132609500Y-109584000D01*
X132605500Y-109589000D01*
X132600500Y-109593000D01*
X132596500Y-109598000D01*
X132591500Y-109602000D01*
X132585500Y-109606000D01*
X132580500Y-109610000D01*
X132575500Y-109613000D01*
X132569500Y-109616000D01*
X132563500Y-109619000D01*
X132557500Y-109622000D01*
X132551500Y-109624000D01*
X132544500Y-109626000D01*
X132538500Y-109627000D01*
X132532500Y-109628000D01*
X132525500Y-109629000D01*
X132519500Y-109630000D01*
X132512500Y-109630000D01*
X132312500Y-109630000D01*
X132305500Y-109630000D01*
X132299500Y-109629000D01*
X132292500Y-109628000D01*
X132286500Y-109627000D01*
X132280500Y-109626000D01*
X132273500Y-109624000D01*
X132267500Y-109622000D01*
X132261500Y-109619000D01*
X132255500Y-109616000D01*
X132249500Y-109613000D01*
X132244500Y-109610000D01*
X132239500Y-109606000D01*
X132233500Y-109602000D01*
X132228500Y-109598000D01*
X132224500Y-109593000D01*
X132219500Y-109589000D01*
X132215500Y-109584000D01*
X132211500Y-109578000D01*
X132207500Y-109573000D01*
X132204500Y-109568000D01*
X132201500Y-109562000D01*
X132198500Y-109556000D01*
X132195500Y-109550000D01*
X132193500Y-109544000D01*
X132191500Y-109537000D01*
X132190500Y-109531000D01*
X132189500Y-109525000D01*
X132188500Y-109518000D01*
X132187500Y-109512000D01*
X132187500Y-109505000D01*
X132187500Y-109065000D01*
X132187500Y-109058000D01*
X132188500Y-109052000D01*
X132189500Y-109045000D01*
X132190500Y-109039000D01*
X132191500Y-109033000D01*
X132193500Y-109026000D01*
X132195500Y-109020000D01*
X132198500Y-109014000D01*
X132201500Y-109008000D01*
X132204500Y-109002000D01*
X132207500Y-108997000D01*
X132211500Y-108992000D01*
X132215500Y-108986000D01*
X132219500Y-108981000D01*
X132224500Y-108977000D01*
X132228500Y-108972000D01*
X132233500Y-108968000D01*
X132239500Y-108964000D01*
X132244500Y-108960000D01*
X132250500Y-108957000D01*
X132255500Y-108954000D01*
X132261500Y-108951000D01*
X132267500Y-108948000D01*
X132273500Y-108946000D01*
X132280500Y-108944000D01*
X132286500Y-108943000D01*
X132292500Y-108942000D01*
X132299500Y-108941000D01*
X132305500Y-108940000D01*
X132312500Y-108940000D01*
X132512500Y-108940000D01*
X132519500Y-108940000D01*
X132525500Y-108941000D01*
G36*
X132525500Y-108941000D02*
G01*
X132532500Y-108942000D01*
X132538500Y-108943000D01*
X132544500Y-108944000D01*
X132551500Y-108946000D01*
X132557500Y-108948000D01*
X132563500Y-108951000D01*
X132569500Y-108954000D01*
X132575500Y-108957000D01*
X132580500Y-108960000D01*
X132585500Y-108964000D01*
X132591500Y-108968000D01*
X132596500Y-108972000D01*
X132600500Y-108977000D01*
X132605500Y-108981000D01*
X132609500Y-108986000D01*
X132613500Y-108992000D01*
X132617500Y-108997000D01*
X132620500Y-109002000D01*
X132623500Y-109008000D01*
X132626500Y-109014000D01*
X132629500Y-109020000D01*
X132631500Y-109026000D01*
X132633500Y-109033000D01*
X132634500Y-109039000D01*
X132635500Y-109045000D01*
X132636500Y-109052000D01*
X132637500Y-109058000D01*
X132637500Y-109065000D01*
X132637500Y-109505000D01*
X132637500Y-109512000D01*
X132636500Y-109518000D01*
X132635500Y-109525000D01*
X132634500Y-109531000D01*
X132633500Y-109537000D01*
X132631500Y-109544000D01*
X132629500Y-109550000D01*
X132626500Y-109556000D01*
X132623500Y-109562000D01*
X132620500Y-109568000D01*
X132617500Y-109573000D01*
X132613500Y-109578000D01*
X132609500Y-109584000D01*
X132605500Y-109589000D01*
X132600500Y-109593000D01*
X132596500Y-109598000D01*
X132591500Y-109602000D01*
X132585500Y-109606000D01*
X132580500Y-109610000D01*
X132575500Y-109613000D01*
X132569500Y-109616000D01*
X132563500Y-109619000D01*
X132557500Y-109622000D01*
X132551500Y-109624000D01*
X132544500Y-109626000D01*
X132538500Y-109627000D01*
X132532500Y-109628000D01*
X132525500Y-109629000D01*
X132519500Y-109630000D01*
X132512500Y-109630000D01*
X132312500Y-109630000D01*
X132305500Y-109630000D01*
X132299500Y-109629000D01*
X132292500Y-109628000D01*
X132286500Y-109627000D01*
X132280500Y-109626000D01*
X132273500Y-109624000D01*
X132267500Y-109622000D01*
X132261500Y-109619000D01*
X132255500Y-109616000D01*
X132249500Y-109613000D01*
X132244500Y-109610000D01*
X132239500Y-109606000D01*
X132233500Y-109602000D01*
X132228500Y-109598000D01*
X132224500Y-109593000D01*
X132219500Y-109589000D01*
X132215500Y-109584000D01*
X132211500Y-109578000D01*
X132207500Y-109573000D01*
X132204500Y-109568000D01*
X132201500Y-109562000D01*
X132198500Y-109556000D01*
X132195500Y-109550000D01*
X132193500Y-109544000D01*
X132191500Y-109537000D01*
X132190500Y-109531000D01*
X132189500Y-109525000D01*
X132188500Y-109518000D01*
X132187500Y-109512000D01*
X132187500Y-109505000D01*
X132187500Y-109065000D01*
X132187500Y-109058000D01*
X132188500Y-109052000D01*
X132189500Y-109045000D01*
X132190500Y-109039000D01*
X132191500Y-109033000D01*
X132193500Y-109026000D01*
X132195500Y-109020000D01*
X132198500Y-109014000D01*
X132201500Y-109008000D01*
X132204500Y-109002000D01*
X132207500Y-108997000D01*
X132211500Y-108992000D01*
X132215500Y-108986000D01*
X132219500Y-108981000D01*
X132224500Y-108977000D01*
X132228500Y-108972000D01*
X132233500Y-108968000D01*
X132239500Y-108964000D01*
X132244500Y-108960000D01*
X132250500Y-108957000D01*
X132255500Y-108954000D01*
X132261500Y-108951000D01*
X132267500Y-108948000D01*
X132273500Y-108946000D01*
X132280500Y-108944000D01*
X132286500Y-108943000D01*
X132292500Y-108942000D01*
X132299500Y-108941000D01*
X132305500Y-108940000D01*
X132312500Y-108940000D01*
X132512500Y-108940000D01*
X132519500Y-108940000D01*
X132525500Y-108941000D01*
G37*
X133810500Y-110226000D02*
X133817500Y-110227000D01*
X133823500Y-110228000D01*
X133829500Y-110229000D01*
X133836500Y-110231000D01*
X133842500Y-110233000D01*
X133848500Y-110236000D01*
X133854500Y-110239000D01*
X133860500Y-110242000D01*
X133865500Y-110245000D01*
X133870500Y-110249000D01*
X133876500Y-110253000D01*
X133881500Y-110257000D01*
X133885500Y-110262000D01*
X133890500Y-110266000D01*
X133894500Y-110271000D01*
X133898500Y-110277000D01*
X133902500Y-110282000D01*
X133905500Y-110288000D01*
X133908500Y-110293000D01*
X133911500Y-110299000D01*
X133914500Y-110305000D01*
X133916500Y-110311000D01*
X133918500Y-110318000D01*
X133919500Y-110324000D01*
X133920500Y-110330000D01*
X133921500Y-110337000D01*
X133922500Y-110343000D01*
X133922500Y-110350000D01*
X133922500Y-110550000D01*
X133922500Y-110557000D01*
X133921500Y-110563000D01*
X133920500Y-110570000D01*
X133919500Y-110576000D01*
X133918500Y-110582000D01*
X133916500Y-110589000D01*
X133914500Y-110595000D01*
X133911500Y-110601000D01*
X133908500Y-110607000D01*
X133905500Y-110612000D01*
X133902500Y-110618000D01*
X133898500Y-110623000D01*
X133894500Y-110629000D01*
X133890500Y-110634000D01*
X133885500Y-110638000D01*
X133881500Y-110643000D01*
X133876500Y-110647000D01*
X133870500Y-110651000D01*
X133865500Y-110655000D01*
X133860500Y-110658000D01*
X133854500Y-110661000D01*
X133848500Y-110664000D01*
X133842500Y-110667000D01*
X133836500Y-110669000D01*
X133829500Y-110671000D01*
X133823500Y-110672000D01*
X133817500Y-110673000D01*
X133810500Y-110674000D01*
X133804500Y-110675000D01*
X133797500Y-110675000D01*
X133357500Y-110675000D01*
X133350500Y-110675000D01*
X133344500Y-110674000D01*
X133337500Y-110673000D01*
X133331500Y-110672000D01*
X133325500Y-110671000D01*
X133318500Y-110669000D01*
X133312500Y-110667000D01*
X133306500Y-110664000D01*
X133300500Y-110661000D01*
X133294500Y-110658000D01*
X133289500Y-110655000D01*
X133284500Y-110651000D01*
X133278500Y-110647000D01*
X133273500Y-110643000D01*
X133269500Y-110638000D01*
X133264500Y-110634000D01*
X133260500Y-110629000D01*
X133256500Y-110623000D01*
X133252500Y-110618000D01*
X133249500Y-110612000D01*
X133246500Y-110607000D01*
X133243500Y-110601000D01*
X133240500Y-110595000D01*
X133238500Y-110589000D01*
X133236500Y-110582000D01*
X133235500Y-110576000D01*
X133234500Y-110570000D01*
X133233500Y-110563000D01*
X133232500Y-110557000D01*
X133232500Y-110550000D01*
X133232500Y-110350000D01*
X133232500Y-110343000D01*
X133233500Y-110337000D01*
X133234500Y-110330000D01*
X133235500Y-110324000D01*
X133236500Y-110318000D01*
X133238500Y-110311000D01*
X133240500Y-110305000D01*
X133243500Y-110299000D01*
X133246500Y-110293000D01*
X133249500Y-110288000D01*
X133252500Y-110282000D01*
X133256500Y-110277000D01*
X133260500Y-110271000D01*
X133264500Y-110266000D01*
X133269500Y-110262000D01*
X133273500Y-110257000D01*
X133278500Y-110253000D01*
X133284500Y-110249000D01*
X133289500Y-110245000D01*
X133294500Y-110242000D01*
X133300500Y-110239000D01*
X133306500Y-110236000D01*
X133312500Y-110233000D01*
X133318500Y-110231000D01*
X133325500Y-110229000D01*
X133331500Y-110228000D01*
X133337500Y-110227000D01*
X133344500Y-110226000D01*
X133350500Y-110225000D01*
X133357500Y-110225000D01*
X133797500Y-110225000D01*
X133804500Y-110225000D01*
X133810500Y-110226000D01*
G36*
X133810500Y-110226000D02*
G01*
X133817500Y-110227000D01*
X133823500Y-110228000D01*
X133829500Y-110229000D01*
X133836500Y-110231000D01*
X133842500Y-110233000D01*
X133848500Y-110236000D01*
X133854500Y-110239000D01*
X133860500Y-110242000D01*
X133865500Y-110245000D01*
X133870500Y-110249000D01*
X133876500Y-110253000D01*
X133881500Y-110257000D01*
X133885500Y-110262000D01*
X133890500Y-110266000D01*
X133894500Y-110271000D01*
X133898500Y-110277000D01*
X133902500Y-110282000D01*
X133905500Y-110288000D01*
X133908500Y-110293000D01*
X133911500Y-110299000D01*
X133914500Y-110305000D01*
X133916500Y-110311000D01*
X133918500Y-110318000D01*
X133919500Y-110324000D01*
X133920500Y-110330000D01*
X133921500Y-110337000D01*
X133922500Y-110343000D01*
X133922500Y-110350000D01*
X133922500Y-110550000D01*
X133922500Y-110557000D01*
X133921500Y-110563000D01*
X133920500Y-110570000D01*
X133919500Y-110576000D01*
X133918500Y-110582000D01*
X133916500Y-110589000D01*
X133914500Y-110595000D01*
X133911500Y-110601000D01*
X133908500Y-110607000D01*
X133905500Y-110612000D01*
X133902500Y-110618000D01*
X133898500Y-110623000D01*
X133894500Y-110629000D01*
X133890500Y-110634000D01*
X133885500Y-110638000D01*
X133881500Y-110643000D01*
X133876500Y-110647000D01*
X133870500Y-110651000D01*
X133865500Y-110655000D01*
X133860500Y-110658000D01*
X133854500Y-110661000D01*
X133848500Y-110664000D01*
X133842500Y-110667000D01*
X133836500Y-110669000D01*
X133829500Y-110671000D01*
X133823500Y-110672000D01*
X133817500Y-110673000D01*
X133810500Y-110674000D01*
X133804500Y-110675000D01*
X133797500Y-110675000D01*
X133357500Y-110675000D01*
X133350500Y-110675000D01*
X133344500Y-110674000D01*
X133337500Y-110673000D01*
X133331500Y-110672000D01*
X133325500Y-110671000D01*
X133318500Y-110669000D01*
X133312500Y-110667000D01*
X133306500Y-110664000D01*
X133300500Y-110661000D01*
X133294500Y-110658000D01*
X133289500Y-110655000D01*
X133284500Y-110651000D01*
X133278500Y-110647000D01*
X133273500Y-110643000D01*
X133269500Y-110638000D01*
X133264500Y-110634000D01*
X133260500Y-110629000D01*
X133256500Y-110623000D01*
X133252500Y-110618000D01*
X133249500Y-110612000D01*
X133246500Y-110607000D01*
X133243500Y-110601000D01*
X133240500Y-110595000D01*
X133238500Y-110589000D01*
X133236500Y-110582000D01*
X133235500Y-110576000D01*
X133234500Y-110570000D01*
X133233500Y-110563000D01*
X133232500Y-110557000D01*
X133232500Y-110550000D01*
X133232500Y-110350000D01*
X133232500Y-110343000D01*
X133233500Y-110337000D01*
X133234500Y-110330000D01*
X133235500Y-110324000D01*
X133236500Y-110318000D01*
X133238500Y-110311000D01*
X133240500Y-110305000D01*
X133243500Y-110299000D01*
X133246500Y-110293000D01*
X133249500Y-110288000D01*
X133252500Y-110282000D01*
X133256500Y-110277000D01*
X133260500Y-110271000D01*
X133264500Y-110266000D01*
X133269500Y-110262000D01*
X133273500Y-110257000D01*
X133278500Y-110253000D01*
X133284500Y-110249000D01*
X133289500Y-110245000D01*
X133294500Y-110242000D01*
X133300500Y-110239000D01*
X133306500Y-110236000D01*
X133312500Y-110233000D01*
X133318500Y-110231000D01*
X133325500Y-110229000D01*
X133331500Y-110228000D01*
X133337500Y-110227000D01*
X133344500Y-110226000D01*
X133350500Y-110225000D01*
X133357500Y-110225000D01*
X133797500Y-110225000D01*
X133804500Y-110225000D01*
X133810500Y-110226000D01*
G37*
X133025500Y-110771000D02*
X133032500Y-110772000D01*
X133038500Y-110773000D01*
X133044500Y-110774000D01*
X133051500Y-110776000D01*
X133057500Y-110778000D01*
X133063500Y-110781000D01*
X133069500Y-110784000D01*
X133074500Y-110787000D01*
X133080500Y-110790000D01*
X133085500Y-110794000D01*
X133091500Y-110798000D01*
X133096500Y-110802000D01*
X133100500Y-110807000D01*
X133105500Y-110811000D01*
X133109500Y-110816000D01*
X133113500Y-110822000D01*
X133117500Y-110827000D01*
X133120500Y-110832000D01*
X133123500Y-110838000D01*
X133126500Y-110844000D01*
X133129500Y-110850000D01*
X133131500Y-110856000D01*
X133133500Y-110863000D01*
X133134500Y-110869000D01*
X133135500Y-110875000D01*
X133136500Y-110882000D01*
X133137500Y-110888000D01*
X133137500Y-110895000D01*
X133137500Y-111335000D01*
X133137500Y-111342000D01*
X133136500Y-111348000D01*
X133135500Y-111355000D01*
X133134500Y-111361000D01*
X133133500Y-111367000D01*
X133131500Y-111374000D01*
X133129500Y-111380000D01*
X133126500Y-111386000D01*
X133123500Y-111392000D01*
X133120500Y-111398000D01*
X133117500Y-111403000D01*
X133113500Y-111408000D01*
X133109500Y-111414000D01*
X133105500Y-111419000D01*
X133100500Y-111423000D01*
X133096500Y-111428000D01*
X133091500Y-111432000D01*
X133085500Y-111436000D01*
X133080500Y-111440000D01*
X133074500Y-111443000D01*
X133069500Y-111446000D01*
X133063500Y-111449000D01*
X133057500Y-111452000D01*
X133051500Y-111454000D01*
X133044500Y-111456000D01*
X133038500Y-111457000D01*
X133032500Y-111458000D01*
X133025500Y-111459000D01*
X133019500Y-111460000D01*
X133012500Y-111460000D01*
X132812500Y-111460000D01*
X132805500Y-111460000D01*
X132799500Y-111459000D01*
X132792500Y-111458000D01*
X132786500Y-111457000D01*
X132780500Y-111456000D01*
X132773500Y-111454000D01*
X132767500Y-111452000D01*
X132761500Y-111449000D01*
X132755500Y-111446000D01*
X132749500Y-111443000D01*
X132744500Y-111440000D01*
X132739500Y-111436000D01*
X132733500Y-111432000D01*
X132728500Y-111428000D01*
X132724500Y-111423000D01*
X132719500Y-111419000D01*
X132715500Y-111414000D01*
X132711500Y-111408000D01*
X132707500Y-111403000D01*
X132704500Y-111398000D01*
X132701500Y-111392000D01*
X132698500Y-111386000D01*
X132695500Y-111380000D01*
X132693500Y-111374000D01*
X132691500Y-111367000D01*
X132690500Y-111361000D01*
X132689500Y-111355000D01*
X132688500Y-111348000D01*
X132687500Y-111342000D01*
X132687500Y-111335000D01*
X132687500Y-110895000D01*
X132687500Y-110888000D01*
X132688500Y-110882000D01*
X132689500Y-110875000D01*
X132690500Y-110869000D01*
X132691500Y-110863000D01*
X132693500Y-110856000D01*
X132695500Y-110850000D01*
X132698500Y-110844000D01*
X132701500Y-110838000D01*
X132704500Y-110832000D01*
X132707500Y-110827000D01*
X132711500Y-110822000D01*
X132715500Y-110816000D01*
X132719500Y-110811000D01*
X132724500Y-110807000D01*
X132728500Y-110802000D01*
X132733500Y-110798000D01*
X132739500Y-110794000D01*
X132744500Y-110790000D01*
X132750500Y-110787000D01*
X132755500Y-110784000D01*
X132761500Y-110781000D01*
X132767500Y-110778000D01*
X132773500Y-110776000D01*
X132780500Y-110774000D01*
X132786500Y-110773000D01*
X132792500Y-110772000D01*
X132799500Y-110771000D01*
X132805500Y-110770000D01*
X132812500Y-110770000D01*
X133012500Y-110770000D01*
X133019500Y-110770000D01*
X133025500Y-110771000D01*
G36*
X133025500Y-110771000D02*
G01*
X133032500Y-110772000D01*
X133038500Y-110773000D01*
X133044500Y-110774000D01*
X133051500Y-110776000D01*
X133057500Y-110778000D01*
X133063500Y-110781000D01*
X133069500Y-110784000D01*
X133074500Y-110787000D01*
X133080500Y-110790000D01*
X133085500Y-110794000D01*
X133091500Y-110798000D01*
X133096500Y-110802000D01*
X133100500Y-110807000D01*
X133105500Y-110811000D01*
X133109500Y-110816000D01*
X133113500Y-110822000D01*
X133117500Y-110827000D01*
X133120500Y-110832000D01*
X133123500Y-110838000D01*
X133126500Y-110844000D01*
X133129500Y-110850000D01*
X133131500Y-110856000D01*
X133133500Y-110863000D01*
X133134500Y-110869000D01*
X133135500Y-110875000D01*
X133136500Y-110882000D01*
X133137500Y-110888000D01*
X133137500Y-110895000D01*
X133137500Y-111335000D01*
X133137500Y-111342000D01*
X133136500Y-111348000D01*
X133135500Y-111355000D01*
X133134500Y-111361000D01*
X133133500Y-111367000D01*
X133131500Y-111374000D01*
X133129500Y-111380000D01*
X133126500Y-111386000D01*
X133123500Y-111392000D01*
X133120500Y-111398000D01*
X133117500Y-111403000D01*
X133113500Y-111408000D01*
X133109500Y-111414000D01*
X133105500Y-111419000D01*
X133100500Y-111423000D01*
X133096500Y-111428000D01*
X133091500Y-111432000D01*
X133085500Y-111436000D01*
X133080500Y-111440000D01*
X133074500Y-111443000D01*
X133069500Y-111446000D01*
X133063500Y-111449000D01*
X133057500Y-111452000D01*
X133051500Y-111454000D01*
X133044500Y-111456000D01*
X133038500Y-111457000D01*
X133032500Y-111458000D01*
X133025500Y-111459000D01*
X133019500Y-111460000D01*
X133012500Y-111460000D01*
X132812500Y-111460000D01*
X132805500Y-111460000D01*
X132799500Y-111459000D01*
X132792500Y-111458000D01*
X132786500Y-111457000D01*
X132780500Y-111456000D01*
X132773500Y-111454000D01*
X132767500Y-111452000D01*
X132761500Y-111449000D01*
X132755500Y-111446000D01*
X132749500Y-111443000D01*
X132744500Y-111440000D01*
X132739500Y-111436000D01*
X132733500Y-111432000D01*
X132728500Y-111428000D01*
X132724500Y-111423000D01*
X132719500Y-111419000D01*
X132715500Y-111414000D01*
X132711500Y-111408000D01*
X132707500Y-111403000D01*
X132704500Y-111398000D01*
X132701500Y-111392000D01*
X132698500Y-111386000D01*
X132695500Y-111380000D01*
X132693500Y-111374000D01*
X132691500Y-111367000D01*
X132690500Y-111361000D01*
X132689500Y-111355000D01*
X132688500Y-111348000D01*
X132687500Y-111342000D01*
X132687500Y-111335000D01*
X132687500Y-110895000D01*
X132687500Y-110888000D01*
X132688500Y-110882000D01*
X132689500Y-110875000D01*
X132690500Y-110869000D01*
X132691500Y-110863000D01*
X132693500Y-110856000D01*
X132695500Y-110850000D01*
X132698500Y-110844000D01*
X132701500Y-110838000D01*
X132704500Y-110832000D01*
X132707500Y-110827000D01*
X132711500Y-110822000D01*
X132715500Y-110816000D01*
X132719500Y-110811000D01*
X132724500Y-110807000D01*
X132728500Y-110802000D01*
X132733500Y-110798000D01*
X132739500Y-110794000D01*
X132744500Y-110790000D01*
X132750500Y-110787000D01*
X132755500Y-110784000D01*
X132761500Y-110781000D01*
X132767500Y-110778000D01*
X132773500Y-110776000D01*
X132780500Y-110774000D01*
X132786500Y-110773000D01*
X132792500Y-110772000D01*
X132799500Y-110771000D01*
X132805500Y-110770000D01*
X132812500Y-110770000D01*
X133012500Y-110770000D01*
X133019500Y-110770000D01*
X133025500Y-110771000D01*
G37*
X131480500Y-110226000D02*
X131487500Y-110227000D01*
X131493500Y-110228000D01*
X131499500Y-110229000D01*
X131506500Y-110231000D01*
X131512500Y-110233000D01*
X131518500Y-110236000D01*
X131524500Y-110239000D01*
X131530500Y-110242000D01*
X131535500Y-110245000D01*
X131540500Y-110249000D01*
X131546500Y-110253000D01*
X131551500Y-110257000D01*
X131555500Y-110262000D01*
X131560500Y-110266000D01*
X131564500Y-110271000D01*
X131568500Y-110277000D01*
X131572500Y-110282000D01*
X131575500Y-110288000D01*
X131578500Y-110293000D01*
X131581500Y-110299000D01*
X131584500Y-110305000D01*
X131586500Y-110311000D01*
X131588500Y-110318000D01*
X131589500Y-110324000D01*
X131590500Y-110330000D01*
X131591500Y-110337000D01*
X131592500Y-110343000D01*
X131592500Y-110350000D01*
X131592500Y-110550000D01*
X131592500Y-110557000D01*
X131591500Y-110563000D01*
X131590500Y-110570000D01*
X131589500Y-110576000D01*
X131588500Y-110582000D01*
X131586500Y-110589000D01*
X131584500Y-110595000D01*
X131581500Y-110601000D01*
X131578500Y-110607000D01*
X131575500Y-110612000D01*
X131572500Y-110618000D01*
X131568500Y-110623000D01*
X131564500Y-110629000D01*
X131560500Y-110634000D01*
X131555500Y-110638000D01*
X131551500Y-110643000D01*
X131546500Y-110647000D01*
X131540500Y-110651000D01*
X131535500Y-110655000D01*
X131530500Y-110658000D01*
X131524500Y-110661000D01*
X131518500Y-110664000D01*
X131512500Y-110667000D01*
X131506500Y-110669000D01*
X131499500Y-110671000D01*
X131493500Y-110672000D01*
X131487500Y-110673000D01*
X131480500Y-110674000D01*
X131474500Y-110675000D01*
X131467500Y-110675000D01*
X131027500Y-110675000D01*
X131020500Y-110675000D01*
X131014500Y-110674000D01*
X131007500Y-110673000D01*
X131001500Y-110672000D01*
X130995500Y-110671000D01*
X130988500Y-110669000D01*
X130982500Y-110667000D01*
X130976500Y-110664000D01*
X130970500Y-110661000D01*
X130964500Y-110658000D01*
X130959500Y-110655000D01*
X130954500Y-110651000D01*
X130948500Y-110647000D01*
X130943500Y-110643000D01*
X130939500Y-110638000D01*
X130934500Y-110634000D01*
X130930500Y-110629000D01*
X130926500Y-110623000D01*
X130922500Y-110618000D01*
X130919500Y-110612000D01*
X130916500Y-110607000D01*
X130913500Y-110601000D01*
X130910500Y-110595000D01*
X130908500Y-110589000D01*
X130906500Y-110582000D01*
X130905500Y-110576000D01*
X130904500Y-110570000D01*
X130903500Y-110563000D01*
X130902500Y-110557000D01*
X130902500Y-110550000D01*
X130902500Y-110350000D01*
X130902500Y-110343000D01*
X130903500Y-110337000D01*
X130904500Y-110330000D01*
X130905500Y-110324000D01*
X130906500Y-110318000D01*
X130908500Y-110311000D01*
X130910500Y-110305000D01*
X130913500Y-110299000D01*
X130916500Y-110293000D01*
X130919500Y-110288000D01*
X130922500Y-110282000D01*
X130926500Y-110277000D01*
X130930500Y-110271000D01*
X130934500Y-110266000D01*
X130939500Y-110262000D01*
X130943500Y-110257000D01*
X130948500Y-110253000D01*
X130954500Y-110249000D01*
X130959500Y-110245000D01*
X130964500Y-110242000D01*
X130970500Y-110239000D01*
X130976500Y-110236000D01*
X130982500Y-110233000D01*
X130988500Y-110231000D01*
X130995500Y-110229000D01*
X131001500Y-110228000D01*
X131007500Y-110227000D01*
X131014500Y-110226000D01*
X131020500Y-110225000D01*
X131027500Y-110225000D01*
X131467500Y-110225000D01*
X131474500Y-110225000D01*
X131480500Y-110226000D01*
G36*
X131480500Y-110226000D02*
G01*
X131487500Y-110227000D01*
X131493500Y-110228000D01*
X131499500Y-110229000D01*
X131506500Y-110231000D01*
X131512500Y-110233000D01*
X131518500Y-110236000D01*
X131524500Y-110239000D01*
X131530500Y-110242000D01*
X131535500Y-110245000D01*
X131540500Y-110249000D01*
X131546500Y-110253000D01*
X131551500Y-110257000D01*
X131555500Y-110262000D01*
X131560500Y-110266000D01*
X131564500Y-110271000D01*
X131568500Y-110277000D01*
X131572500Y-110282000D01*
X131575500Y-110288000D01*
X131578500Y-110293000D01*
X131581500Y-110299000D01*
X131584500Y-110305000D01*
X131586500Y-110311000D01*
X131588500Y-110318000D01*
X131589500Y-110324000D01*
X131590500Y-110330000D01*
X131591500Y-110337000D01*
X131592500Y-110343000D01*
X131592500Y-110350000D01*
X131592500Y-110550000D01*
X131592500Y-110557000D01*
X131591500Y-110563000D01*
X131590500Y-110570000D01*
X131589500Y-110576000D01*
X131588500Y-110582000D01*
X131586500Y-110589000D01*
X131584500Y-110595000D01*
X131581500Y-110601000D01*
X131578500Y-110607000D01*
X131575500Y-110612000D01*
X131572500Y-110618000D01*
X131568500Y-110623000D01*
X131564500Y-110629000D01*
X131560500Y-110634000D01*
X131555500Y-110638000D01*
X131551500Y-110643000D01*
X131546500Y-110647000D01*
X131540500Y-110651000D01*
X131535500Y-110655000D01*
X131530500Y-110658000D01*
X131524500Y-110661000D01*
X131518500Y-110664000D01*
X131512500Y-110667000D01*
X131506500Y-110669000D01*
X131499500Y-110671000D01*
X131493500Y-110672000D01*
X131487500Y-110673000D01*
X131480500Y-110674000D01*
X131474500Y-110675000D01*
X131467500Y-110675000D01*
X131027500Y-110675000D01*
X131020500Y-110675000D01*
X131014500Y-110674000D01*
X131007500Y-110673000D01*
X131001500Y-110672000D01*
X130995500Y-110671000D01*
X130988500Y-110669000D01*
X130982500Y-110667000D01*
X130976500Y-110664000D01*
X130970500Y-110661000D01*
X130964500Y-110658000D01*
X130959500Y-110655000D01*
X130954500Y-110651000D01*
X130948500Y-110647000D01*
X130943500Y-110643000D01*
X130939500Y-110638000D01*
X130934500Y-110634000D01*
X130930500Y-110629000D01*
X130926500Y-110623000D01*
X130922500Y-110618000D01*
X130919500Y-110612000D01*
X130916500Y-110607000D01*
X130913500Y-110601000D01*
X130910500Y-110595000D01*
X130908500Y-110589000D01*
X130906500Y-110582000D01*
X130905500Y-110576000D01*
X130904500Y-110570000D01*
X130903500Y-110563000D01*
X130902500Y-110557000D01*
X130902500Y-110550000D01*
X130902500Y-110350000D01*
X130902500Y-110343000D01*
X130903500Y-110337000D01*
X130904500Y-110330000D01*
X130905500Y-110324000D01*
X130906500Y-110318000D01*
X130908500Y-110311000D01*
X130910500Y-110305000D01*
X130913500Y-110299000D01*
X130916500Y-110293000D01*
X130919500Y-110288000D01*
X130922500Y-110282000D01*
X130926500Y-110277000D01*
X130930500Y-110271000D01*
X130934500Y-110266000D01*
X130939500Y-110262000D01*
X130943500Y-110257000D01*
X130948500Y-110253000D01*
X130954500Y-110249000D01*
X130959500Y-110245000D01*
X130964500Y-110242000D01*
X130970500Y-110239000D01*
X130976500Y-110236000D01*
X130982500Y-110233000D01*
X130988500Y-110231000D01*
X130995500Y-110229000D01*
X131001500Y-110228000D01*
X131007500Y-110227000D01*
X131014500Y-110226000D01*
X131020500Y-110225000D01*
X131027500Y-110225000D01*
X131467500Y-110225000D01*
X131474500Y-110225000D01*
X131480500Y-110226000D01*
G37*
G04 #@! TD*
G04 #@! TO.C,C7*
G36*
G01*
X152430000Y-105590000D02*
X152770000Y-105590000D01*
G75*
G02*
X152910000Y-105730000I0J-140000D01*
G01*
X152910000Y-106010000D01*
G75*
G02*
X152770000Y-106150000I-140000J0D01*
G01*
X152430000Y-106150000D01*
G75*
G02*
X152290000Y-106010000I0J140000D01*
G01*
X152290000Y-105730000D01*
G75*
G02*
X152430000Y-105590000I140000J0D01*
G01*
G37*
G36*
G01*
X152430000Y-106550000D02*
X152770000Y-106550000D01*
G75*
G02*
X152910000Y-106690000I0J-140000D01*
G01*
X152910000Y-106970000D01*
G75*
G02*
X152770000Y-107110000I-140000J0D01*
G01*
X152430000Y-107110000D01*
G75*
G02*
X152290000Y-106970000I0J140000D01*
G01*
X152290000Y-106690000D01*
G75*
G02*
X152430000Y-106550000I140000J0D01*
G01*
G37*
G04 #@! TD*
D11*
G04 #@! TO.C,FL1*
X159425000Y-94575000D03*
X160675000Y-94575000D03*
X160675000Y-95125000D03*
X159425000Y-95125000D03*
G04 #@! TD*
G04 #@! TO.C,C44*
G36*
G01*
X133860000Y-112130000D02*
X133860000Y-112470000D01*
G75*
G02*
X133720000Y-112610000I-140000J0D01*
G01*
X133440000Y-112610000D01*
G75*
G02*
X133300000Y-112470000I0J140000D01*
G01*
X133300000Y-112130000D01*
G75*
G02*
X133440000Y-111990000I140000J0D01*
G01*
X133720000Y-111990000D01*
G75*
G02*
X133860000Y-112130000I0J-140000D01*
G01*
G37*
G36*
G01*
X132900000Y-112130000D02*
X132900000Y-112470000D01*
G75*
G02*
X132760000Y-112610000I-140000J0D01*
G01*
X132480000Y-112610000D01*
G75*
G02*
X132340000Y-112470000I0J140000D01*
G01*
X132340000Y-112130000D01*
G75*
G02*
X132480000Y-111990000I140000J0D01*
G01*
X132760000Y-111990000D01*
G75*
G02*
X132900000Y-112130000I0J-140000D01*
G01*
G37*
G04 #@! TD*
G04 #@! TO.C,C37*
G36*
G01*
X147025000Y-89987500D02*
X147025000Y-89487500D01*
G75*
G02*
X147250000Y-89262500I225000J0D01*
G01*
X147700000Y-89262500D01*
G75*
G02*
X147925000Y-89487500I0J-225000D01*
G01*
X147925000Y-89987500D01*
G75*
G02*
X147700000Y-90212500I-225000J0D01*
G01*
X147250000Y-90212500D01*
G75*
G02*
X147025000Y-89987500I0J225000D01*
G01*
G37*
G36*
G01*
X148575000Y-89987500D02*
X148575000Y-89487500D01*
G75*
G02*
X148800000Y-89262500I225000J0D01*
G01*
X149250000Y-89262500D01*
G75*
G02*
X149475000Y-89487500I0J-225000D01*
G01*
X149475000Y-89987500D01*
G75*
G02*
X149250000Y-90212500I-225000J0D01*
G01*
X148800000Y-90212500D01*
G75*
G02*
X148575000Y-89987500I0J225000D01*
G01*
G37*
G04 #@! TD*
G04 #@! TO.C,C14*
G36*
G01*
X150430000Y-105590000D02*
X150770000Y-105590000D01*
G75*
G02*
X150910000Y-105730000I0J-140000D01*
G01*
X150910000Y-106010000D01*
G75*
G02*
X150770000Y-106150000I-140000J0D01*
G01*
X150430000Y-106150000D01*
G75*
G02*
X150290000Y-106010000I0J140000D01*
G01*
X150290000Y-105730000D01*
G75*
G02*
X150430000Y-105590000I140000J0D01*
G01*
G37*
G36*
G01*
X150430000Y-106550000D02*
X150770000Y-106550000D01*
G75*
G02*
X150910000Y-106690000I0J-140000D01*
G01*
X150910000Y-106970000D01*
G75*
G02*
X150770000Y-107110000I-140000J0D01*
G01*
X150430000Y-107110000D01*
G75*
G02*
X150290000Y-106970000I0J140000D01*
G01*
X150290000Y-106690000D01*
G75*
G02*
X150430000Y-106550000I140000J0D01*
G01*
G37*
G04 #@! TD*
G04 #@! TO.C,C8*
G36*
G01*
X152110000Y-102430000D02*
X152110000Y-102770000D01*
G75*
G02*
X151970000Y-102910000I-140000J0D01*
G01*
X151690000Y-102910000D01*
G75*
G02*
X151550000Y-102770000I0J140000D01*
G01*
X151550000Y-102430000D01*
G75*
G02*
X151690000Y-102290000I140000J0D01*
G01*
X151970000Y-102290000D01*
G75*
G02*
X152110000Y-102430000I0J-140000D01*
G01*
G37*
G36*
G01*
X151150000Y-102430000D02*
X151150000Y-102770000D01*
G75*
G02*
X151010000Y-102910000I-140000J0D01*
G01*
X150730000Y-102910000D01*
G75*
G02*
X150590000Y-102770000I0J140000D01*
G01*
X150590000Y-102430000D01*
G75*
G02*
X150730000Y-102290000I140000J0D01*
G01*
X151010000Y-102290000D01*
G75*
G02*
X151150000Y-102430000I0J-140000D01*
G01*
G37*
G04 #@! TD*
G04 #@! TO.C,C43*
G36*
G01*
X132007500Y-112130000D02*
X132007500Y-112470000D01*
G75*
G02*
X131867500Y-112610000I-140000J0D01*
G01*
X131587500Y-112610000D01*
G75*
G02*
X131447500Y-112470000I0J140000D01*
G01*
X131447500Y-112130000D01*
G75*
G02*
X131587500Y-111990000I140000J0D01*
G01*
X131867500Y-111990000D01*
G75*
G02*
X132007500Y-112130000I0J-140000D01*
G01*
G37*
G36*
G01*
X131047500Y-112130000D02*
X131047500Y-112470000D01*
G75*
G02*
X130907500Y-112610000I-140000J0D01*
G01*
X130627500Y-112610000D01*
G75*
G02*
X130487500Y-112470000I0J140000D01*
G01*
X130487500Y-112130000D01*
G75*
G02*
X130627500Y-111990000I140000J0D01*
G01*
X130907500Y-111990000D01*
G75*
G02*
X131047500Y-112130000I0J-140000D01*
G01*
G37*
G04 #@! TD*
D12*
G04 #@! TO.C,J1*
X165250000Y-104850000D03*
X162550000Y-104350000D03*
X165250000Y-103850000D03*
X162550000Y-103350000D03*
X165250000Y-102850000D03*
X162550000Y-102350000D03*
X165250000Y-101850000D03*
X162550000Y-101350000D03*
X165250000Y-100850000D03*
X162550000Y-100350000D03*
X165250000Y-99850000D03*
X162550000Y-99350000D03*
X165250000Y-98850000D03*
X162550000Y-98350000D03*
X165250000Y-97850000D03*
X162550000Y-97350000D03*
X165250000Y-96850000D03*
X162550000Y-96350000D03*
X165250000Y-95850000D03*
X162550000Y-95350000D03*
X165250000Y-94850000D03*
X162550000Y-94350000D03*
X165250000Y-105850000D03*
X162550000Y-105850000D03*
X162550000Y-93350000D03*
X165250000Y-93350000D03*
G04 #@! TD*
G04 #@! TO.C,FB4*
G36*
G01*
X150772500Y-111180000D02*
X150427500Y-111180000D01*
G75*
G02*
X150280000Y-111032500I0J147500D01*
G01*
X150280000Y-110737500D01*
G75*
G02*
X150427500Y-110590000I147500J0D01*
G01*
X150772500Y-110590000D01*
G75*
G02*
X150920000Y-110737500I0J-147500D01*
G01*
X150920000Y-111032500D01*
G75*
G02*
X150772500Y-111180000I-147500J0D01*
G01*
G37*
G36*
G01*
X150772500Y-110210000D02*
X150427500Y-110210000D01*
G75*
G02*
X150280000Y-110062500I0J147500D01*
G01*
X150280000Y-109767500D01*
G75*
G02*
X150427500Y-109620000I147500J0D01*
G01*
X150772500Y-109620000D01*
G75*
G02*
X150920000Y-109767500I0J-147500D01*
G01*
X150920000Y-110062500D01*
G75*
G02*
X150772500Y-110210000I-147500J0D01*
G01*
G37*
G04 #@! TD*
G04 #@! TO.C,C36*
G36*
G01*
X156810000Y-89280000D02*
X156810000Y-89620000D01*
G75*
G02*
X156670000Y-89760000I-140000J0D01*
G01*
X156390000Y-89760000D01*
G75*
G02*
X156250000Y-89620000I0J140000D01*
G01*
X156250000Y-89280000D01*
G75*
G02*
X156390000Y-89140000I140000J0D01*
G01*
X156670000Y-89140000D01*
G75*
G02*
X156810000Y-89280000I0J-140000D01*
G01*
G37*
G36*
G01*
X155850000Y-89280000D02*
X155850000Y-89620000D01*
G75*
G02*
X155710000Y-89760000I-140000J0D01*
G01*
X155430000Y-89760000D01*
G75*
G02*
X155290000Y-89620000I0J140000D01*
G01*
X155290000Y-89280000D01*
G75*
G02*
X155430000Y-89140000I140000J0D01*
G01*
X155710000Y-89140000D01*
G75*
G02*
X155850000Y-89280000I0J-140000D01*
G01*
G37*
G04 #@! TD*
G04 #@! TO.C,R7*
G36*
G01*
X145880000Y-86115000D02*
X145880000Y-86485000D01*
G75*
G02*
X145745000Y-86620000I-135000J0D01*
G01*
X145475000Y-86620000D01*
G75*
G02*
X145340000Y-86485000I0J135000D01*
G01*
X145340000Y-86115000D01*
G75*
G02*
X145475000Y-85980000I135000J0D01*
G01*
X145745000Y-85980000D01*
G75*
G02*
X145880000Y-86115000I0J-135000D01*
G01*
G37*
G36*
G01*
X144860000Y-86115000D02*
X144860000Y-86485000D01*
G75*
G02*
X144725000Y-86620000I-135000J0D01*
G01*
X144455000Y-86620000D01*
G75*
G02*
X144320000Y-86485000I0J135000D01*
G01*
X144320000Y-86115000D01*
G75*
G02*
X144455000Y-85980000I135000J0D01*
G01*
X144725000Y-85980000D01*
G75*
G02*
X144860000Y-86115000I0J-135000D01*
G01*
G37*
G04 #@! TD*
G04 #@! TO.C,C27*
G36*
G01*
X141430000Y-105590000D02*
X141770000Y-105590000D01*
G75*
G02*
X141910000Y-105730000I0J-140000D01*
G01*
X141910000Y-106010000D01*
G75*
G02*
X141770000Y-106150000I-140000J0D01*
G01*
X141430000Y-106150000D01*
G75*
G02*
X141290000Y-106010000I0J140000D01*
G01*
X141290000Y-105730000D01*
G75*
G02*
X141430000Y-105590000I140000J0D01*
G01*
G37*
G36*
G01*
X141430000Y-106550000D02*
X141770000Y-106550000D01*
G75*
G02*
X141910000Y-106690000I0J-140000D01*
G01*
X141910000Y-106970000D01*
G75*
G02*
X141770000Y-107110000I-140000J0D01*
G01*
X141430000Y-107110000D01*
G75*
G02*
X141290000Y-106970000I0J140000D01*
G01*
X141290000Y-106690000D01*
G75*
G02*
X141430000Y-106550000I140000J0D01*
G01*
G37*
G04 #@! TD*
D11*
G04 #@! TO.C,FL4*
X159425000Y-99525000D03*
X160675000Y-99525000D03*
X160675000Y-100075000D03*
X159425000Y-100075000D03*
G04 #@! TD*
G04 #@! TO.C,FL5*
X159425000Y-100625000D03*
X160675000Y-100625000D03*
X160675000Y-101175000D03*
X159425000Y-101175000D03*
G04 #@! TD*
D13*
G04 #@! TO.C,H1*
X130600000Y-82600000D03*
G04 #@! TD*
G04 #@! TO.C,C2*
G36*
G01*
X153430000Y-100940000D02*
X153770000Y-100940000D01*
G75*
G02*
X153910000Y-101080000I0J-140000D01*
G01*
X153910000Y-101360000D01*
G75*
G02*
X153770000Y-101500000I-140000J0D01*
G01*
X153430000Y-101500000D01*
G75*
G02*
X153290000Y-101360000I0J140000D01*
G01*
X153290000Y-101080000D01*
G75*
G02*
X153430000Y-100940000I140000J0D01*
G01*
G37*
G36*
G01*
X153430000Y-101900000D02*
X153770000Y-101900000D01*
G75*
G02*
X153910000Y-102040000I0J-140000D01*
G01*
X153910000Y-102320000D01*
G75*
G02*
X153770000Y-102460000I-140000J0D01*
G01*
X153430000Y-102460000D01*
G75*
G02*
X153290000Y-102320000I0J140000D01*
G01*
X153290000Y-102040000D01*
G75*
G02*
X153430000Y-101900000I140000J0D01*
G01*
G37*
G04 #@! TD*
G04 #@! TO.C,C9*
G36*
G01*
X142930000Y-105740000D02*
X143270000Y-105740000D01*
G75*
G02*
X143410000Y-105880000I0J-140000D01*
G01*
X143410000Y-106160000D01*
G75*
G02*
X143270000Y-106300000I-140000J0D01*
G01*
X142930000Y-106300000D01*
G75*
G02*
X142790000Y-106160000I0J140000D01*
G01*
X142790000Y-105880000D01*
G75*
G02*
X142930000Y-105740000I140000J0D01*
G01*
G37*
G36*
G01*
X142930000Y-106700000D02*
X143270000Y-106700000D01*
G75*
G02*
X143410000Y-106840000I0J-140000D01*
G01*
X143410000Y-107120000D01*
G75*
G02*
X143270000Y-107260000I-140000J0D01*
G01*
X142930000Y-107260000D01*
G75*
G02*
X142790000Y-107120000I0J140000D01*
G01*
X142790000Y-106840000D01*
G75*
G02*
X142930000Y-106700000I140000J0D01*
G01*
G37*
G04 #@! TD*
G04 #@! TO.C,C34*
G36*
G01*
X139925000Y-89550000D02*
X139925000Y-90050000D01*
G75*
G02*
X139700000Y-90275000I-225000J0D01*
G01*
X139250000Y-90275000D01*
G75*
G02*
X139025000Y-90050000I0J225000D01*
G01*
X139025000Y-89550000D01*
G75*
G02*
X139250000Y-89325000I225000J0D01*
G01*
X139700000Y-89325000D01*
G75*
G02*
X139925000Y-89550000I0J-225000D01*
G01*
G37*
G36*
G01*
X138375000Y-89550000D02*
X138375000Y-90050000D01*
G75*
G02*
X138150000Y-90275000I-225000J0D01*
G01*
X137700000Y-90275000D01*
G75*
G02*
X137475000Y-90050000I0J225000D01*
G01*
X137475000Y-89550000D01*
G75*
G02*
X137700000Y-89325000I225000J0D01*
G01*
X138150000Y-89325000D01*
G75*
G02*
X138375000Y-89550000I0J-225000D01*
G01*
G37*
G04 #@! TD*
G04 #@! TO.C,C38*
G36*
G01*
X149425000Y-83550000D02*
X149425000Y-84050000D01*
G75*
G02*
X149200000Y-84275000I-225000J0D01*
G01*
X148750000Y-84275000D01*
G75*
G02*
X148525000Y-84050000I0J225000D01*
G01*
X148525000Y-83550000D01*
G75*
G02*
X148750000Y-83325000I225000J0D01*
G01*
X149200000Y-83325000D01*
G75*
G02*
X149425000Y-83550000I0J-225000D01*
G01*
G37*
G36*
G01*
X147875000Y-83550000D02*
X147875000Y-84050000D01*
G75*
G02*
X147650000Y-84275000I-225000J0D01*
G01*
X147200000Y-84275000D01*
G75*
G02*
X146975000Y-84050000I0J225000D01*
G01*
X146975000Y-83550000D01*
G75*
G02*
X147200000Y-83325000I225000J0D01*
G01*
X147650000Y-83325000D01*
G75*
G02*
X147875000Y-83550000I0J-225000D01*
G01*
G37*
G04 #@! TD*
G04 #@! TO.C,H4*
X164600000Y-82600000D03*
G04 #@! TD*
G04 #@! TO.C,C21*
G36*
G01*
X153770000Y-104310000D02*
X153430000Y-104310000D01*
G75*
G02*
X153290000Y-104170000I0J140000D01*
G01*
X153290000Y-103890000D01*
G75*
G02*
X153430000Y-103750000I140000J0D01*
G01*
X153770000Y-103750000D01*
G75*
G02*
X153910000Y-103890000I0J-140000D01*
G01*
X153910000Y-104170000D01*
G75*
G02*
X153770000Y-104310000I-140000J0D01*
G01*
G37*
G36*
G01*
X153770000Y-103350000D02*
X153430000Y-103350000D01*
G75*
G02*
X153290000Y-103210000I0J140000D01*
G01*
X153290000Y-102930000D01*
G75*
G02*
X153430000Y-102790000I140000J0D01*
G01*
X153770000Y-102790000D01*
G75*
G02*
X153910000Y-102930000I0J-140000D01*
G01*
X153910000Y-103210000D01*
G75*
G02*
X153770000Y-103350000I-140000J0D01*
G01*
G37*
G04 #@! TD*
G04 #@! TO.C,C16*
G36*
G01*
X139910000Y-96430000D02*
X139910000Y-96770000D01*
G75*
G02*
X139770000Y-96910000I-140000J0D01*
G01*
X139490000Y-96910000D01*
G75*
G02*
X139350000Y-96770000I0J140000D01*
G01*
X139350000Y-96430000D01*
G75*
G02*
X139490000Y-96290000I140000J0D01*
G01*
X139770000Y-96290000D01*
G75*
G02*
X139910000Y-96430000I0J-140000D01*
G01*
G37*
G36*
G01*
X138950000Y-96430000D02*
X138950000Y-96770000D01*
G75*
G02*
X138810000Y-96910000I-140000J0D01*
G01*
X138530000Y-96910000D01*
G75*
G02*
X138390000Y-96770000I0J140000D01*
G01*
X138390000Y-96430000D01*
G75*
G02*
X138530000Y-96290000I140000J0D01*
G01*
X138810000Y-96290000D01*
G75*
G02*
X138950000Y-96430000I0J-140000D01*
G01*
G37*
G04 #@! TD*
D14*
G04 #@! TO.C,TP12*
X149150000Y-117200000D03*
G04 #@! TD*
G04 #@! TO.C,C40*
G36*
G01*
X145470000Y-113460000D02*
X145130000Y-113460000D01*
G75*
G02*
X144990000Y-113320000I0J140000D01*
G01*
X144990000Y-113040000D01*
G75*
G02*
X145130000Y-112900000I140000J0D01*
G01*
X145470000Y-112900000D01*
G75*
G02*
X145610000Y-113040000I0J-140000D01*
G01*
X145610000Y-113320000D01*
G75*
G02*
X145470000Y-113460000I-140000J0D01*
G01*
G37*
G36*
G01*
X145470000Y-112500000D02*
X145130000Y-112500000D01*
G75*
G02*
X144990000Y-112360000I0J140000D01*
G01*
X144990000Y-112080000D01*
G75*
G02*
X145130000Y-111940000I140000J0D01*
G01*
X145470000Y-111940000D01*
G75*
G02*
X145610000Y-112080000I0J-140000D01*
G01*
X145610000Y-112360000D01*
G75*
G02*
X145470000Y-112500000I-140000J0D01*
G01*
G37*
G04 #@! TD*
D15*
G04 #@! TO.C,U8*
X158250000Y-117650000D03*
X158750000Y-117650000D03*
X159250000Y-117650000D03*
X159750000Y-117650000D03*
X159750000Y-114750000D03*
X159250000Y-114750000D03*
X158750000Y-114750000D03*
X158250000Y-114750000D03*
D16*
X159000000Y-116200000D03*
G04 #@! TD*
G04 #@! TO.C,U1*
G36*
G01*
X158000000Y-85050000D02*
X158300000Y-85050000D01*
G75*
G02*
X158450000Y-85200000I0J-150000D01*
G01*
X158450000Y-86225000D01*
G75*
G02*
X158300000Y-86375000I-150000J0D01*
G01*
X158000000Y-86375000D01*
G75*
G02*
X157850000Y-86225000I0J150000D01*
G01*
X157850000Y-85200000D01*
G75*
G02*
X158000000Y-85050000I150000J0D01*
G01*
G37*
G36*
G01*
X157050000Y-85050000D02*
X157350000Y-85050000D01*
G75*
G02*
X157500000Y-85200000I0J-150000D01*
G01*
X157500000Y-86225000D01*
G75*
G02*
X157350000Y-86375000I-150000J0D01*
G01*
X157050000Y-86375000D01*
G75*
G02*
X156900000Y-86225000I0J150000D01*
G01*
X156900000Y-85200000D01*
G75*
G02*
X157050000Y-85050000I150000J0D01*
G01*
G37*
G36*
G01*
X156100000Y-85050000D02*
X156400000Y-85050000D01*
G75*
G02*
X156550000Y-85200000I0J-150000D01*
G01*
X156550000Y-86225000D01*
G75*
G02*
X156400000Y-86375000I-150000J0D01*
G01*
X156100000Y-86375000D01*
G75*
G02*
X155950000Y-86225000I0J150000D01*
G01*
X155950000Y-85200000D01*
G75*
G02*
X156100000Y-85050000I150000J0D01*
G01*
G37*
G36*
G01*
X156100000Y-87325000D02*
X156400000Y-87325000D01*
G75*
G02*
X156550000Y-87475000I0J-150000D01*
G01*
X156550000Y-88500000D01*
G75*
G02*
X156400000Y-88650000I-150000J0D01*
G01*
X156100000Y-88650000D01*
G75*
G02*
X155950000Y-88500000I0J150000D01*
G01*
X155950000Y-87475000D01*
G75*
G02*
X156100000Y-87325000I150000J0D01*
G01*
G37*
G36*
G01*
X158000000Y-87325000D02*
X158300000Y-87325000D01*
G75*
G02*
X158450000Y-87475000I0J-150000D01*
G01*
X158450000Y-88500000D01*
G75*
G02*
X158300000Y-88650000I-150000J0D01*
G01*
X158000000Y-88650000D01*
G75*
G02*
X157850000Y-88500000I0J150000D01*
G01*
X157850000Y-87475000D01*
G75*
G02*
X158000000Y-87325000I150000J0D01*
G01*
G37*
G04 #@! TD*
G04 #@! TO.C,U2*
G36*
G01*
X139400000Y-85050000D02*
X139700000Y-85050000D01*
G75*
G02*
X139850000Y-85200000I0J-150000D01*
G01*
X139850000Y-86225000D01*
G75*
G02*
X139700000Y-86375000I-150000J0D01*
G01*
X139400000Y-86375000D01*
G75*
G02*
X139250000Y-86225000I0J150000D01*
G01*
X139250000Y-85200000D01*
G75*
G02*
X139400000Y-85050000I150000J0D01*
G01*
G37*
G36*
G01*
X138450000Y-85050000D02*
X138750000Y-85050000D01*
G75*
G02*
X138900000Y-85200000I0J-150000D01*
G01*
X138900000Y-86225000D01*
G75*
G02*
X138750000Y-86375000I-150000J0D01*
G01*
X138450000Y-86375000D01*
G75*
G02*
X138300000Y-86225000I0J150000D01*
G01*
X138300000Y-85200000D01*
G75*
G02*
X138450000Y-85050000I150000J0D01*
G01*
G37*
G36*
G01*
X137500000Y-85050000D02*
X137800000Y-85050000D01*
G75*
G02*
X137950000Y-85200000I0J-150000D01*
G01*
X137950000Y-86225000D01*
G75*
G02*
X137800000Y-86375000I-150000J0D01*
G01*
X137500000Y-86375000D01*
G75*
G02*
X137350000Y-86225000I0J150000D01*
G01*
X137350000Y-85200000D01*
G75*
G02*
X137500000Y-85050000I150000J0D01*
G01*
G37*
G36*
G01*
X137500000Y-87325000D02*
X137800000Y-87325000D01*
G75*
G02*
X137950000Y-87475000I0J-150000D01*
G01*
X137950000Y-88500000D01*
G75*
G02*
X137800000Y-88650000I-150000J0D01*
G01*
X137500000Y-88650000D01*
G75*
G02*
X137350000Y-88500000I0J150000D01*
G01*
X137350000Y-87475000D01*
G75*
G02*
X137500000Y-87325000I150000J0D01*
G01*
G37*
G36*
G01*
X139400000Y-87325000D02*
X139700000Y-87325000D01*
G75*
G02*
X139850000Y-87475000I0J-150000D01*
G01*
X139850000Y-88500000D01*
G75*
G02*
X139700000Y-88650000I-150000J0D01*
G01*
X139400000Y-88650000D01*
G75*
G02*
X139250000Y-88500000I0J150000D01*
G01*
X139250000Y-87475000D01*
G75*
G02*
X139400000Y-87325000I150000J0D01*
G01*
G37*
G04 #@! TD*
G04 #@! TO.C,R1*
G36*
G01*
X152285000Y-104980000D02*
X151915000Y-104980000D01*
G75*
G02*
X151780000Y-104845000I0J135000D01*
G01*
X151780000Y-104575000D01*
G75*
G02*
X151915000Y-104440000I135000J0D01*
G01*
X152285000Y-104440000D01*
G75*
G02*
X152420000Y-104575000I0J-135000D01*
G01*
X152420000Y-104845000D01*
G75*
G02*
X152285000Y-104980000I-135000J0D01*
G01*
G37*
G36*
G01*
X152285000Y-103960000D02*
X151915000Y-103960000D01*
G75*
G02*
X151780000Y-103825000I0J135000D01*
G01*
X151780000Y-103555000D01*
G75*
G02*
X151915000Y-103420000I135000J0D01*
G01*
X152285000Y-103420000D01*
G75*
G02*
X152420000Y-103555000I0J-135000D01*
G01*
X152420000Y-103825000D01*
G75*
G02*
X152285000Y-103960000I-135000J0D01*
G01*
G37*
G04 #@! TD*
D17*
G04 #@! TO.C,J4*
X142200000Y-114350000D03*
D18*
X143675000Y-115875000D03*
X140725000Y-115875000D03*
G04 #@! TD*
D14*
G04 #@! TO.C,TP14*
X152000000Y-117200000D03*
G04 #@! TD*
D19*
G04 #@! TO.C,U7*
X149671600Y-113650001D03*
X149671600Y-113150000D03*
X149671600Y-112650000D03*
X149671600Y-112149999D03*
X146928400Y-112149999D03*
X146928400Y-112650000D03*
X146928400Y-113150000D03*
X146928400Y-113650001D03*
G04 #@! TD*
G04 #@! TO.C,JP1*
G36*
X144800000Y-84060000D02*
G01*
X144800000Y-84610000D01*
X144794911Y-84610000D01*
X144794911Y-84681157D01*
X144754816Y-84817708D01*
X144677875Y-84937430D01*
X144570320Y-85030627D01*
X144440866Y-85089746D01*
X144300000Y-85110000D01*
X143800000Y-85110000D01*
X143659134Y-85089746D01*
X143529680Y-85030627D01*
X143422125Y-84937430D01*
X143345184Y-84817708D01*
X143305089Y-84681157D01*
X143305089Y-84610000D01*
X143300000Y-84610000D01*
X143300000Y-84060000D01*
X144800000Y-84060000D01*
G37*
D20*
X144050000Y-83310000D03*
G36*
X143305089Y-82010000D02*
G01*
X143305089Y-81938843D01*
X143345184Y-81802292D01*
X143422125Y-81682570D01*
X143529680Y-81589373D01*
X143659134Y-81530254D01*
X143800000Y-81510000D01*
X144300000Y-81510000D01*
X144440866Y-81530254D01*
X144570320Y-81589373D01*
X144677875Y-81682570D01*
X144754816Y-81802292D01*
X144794911Y-81938843D01*
X144794911Y-82010000D01*
X144800000Y-82010000D01*
X144800000Y-82560000D01*
X143300000Y-82560000D01*
X143300000Y-82010000D01*
X143305089Y-82010000D01*
G37*
G04 #@! TD*
G04 #@! TO.C,FB2*
G36*
G01*
X137525000Y-82256250D02*
X137525000Y-81743750D01*
G75*
G02*
X137743750Y-81525000I218750J0D01*
G01*
X138181250Y-81525000D01*
G75*
G02*
X138400000Y-81743750I0J-218750D01*
G01*
X138400000Y-82256250D01*
G75*
G02*
X138181250Y-82475000I-218750J0D01*
G01*
X137743750Y-82475000D01*
G75*
G02*
X137525000Y-82256250I0J218750D01*
G01*
G37*
G36*
G01*
X139100000Y-82256250D02*
X139100000Y-81743750D01*
G75*
G02*
X139318750Y-81525000I218750J0D01*
G01*
X139756250Y-81525000D01*
G75*
G02*
X139975000Y-81743750I0J-218750D01*
G01*
X139975000Y-82256250D01*
G75*
G02*
X139756250Y-82475000I-218750J0D01*
G01*
X139318750Y-82475000D01*
G75*
G02*
X139100000Y-82256250I0J218750D01*
G01*
G37*
G04 #@! TD*
G04 #@! TO.C,C17*
G36*
G01*
X151870000Y-93610000D02*
X151530000Y-93610000D01*
G75*
G02*
X151390000Y-93470000I0J140000D01*
G01*
X151390000Y-93190000D01*
G75*
G02*
X151530000Y-93050000I140000J0D01*
G01*
X151870000Y-93050000D01*
G75*
G02*
X152010000Y-93190000I0J-140000D01*
G01*
X152010000Y-93470000D01*
G75*
G02*
X151870000Y-93610000I-140000J0D01*
G01*
G37*
G36*
G01*
X151870000Y-92650000D02*
X151530000Y-92650000D01*
G75*
G02*
X151390000Y-92510000I0J140000D01*
G01*
X151390000Y-92230000D01*
G75*
G02*
X151530000Y-92090000I140000J0D01*
G01*
X151870000Y-92090000D01*
G75*
G02*
X152010000Y-92230000I0J-140000D01*
G01*
X152010000Y-92510000D01*
G75*
G02*
X151870000Y-92650000I-140000J0D01*
G01*
G37*
G04 #@! TD*
G04 #@! TO.C,C1*
G36*
G01*
X143270000Y-93610000D02*
X142930000Y-93610000D01*
G75*
G02*
X142790000Y-93470000I0J140000D01*
G01*
X142790000Y-93190000D01*
G75*
G02*
X142930000Y-93050000I140000J0D01*
G01*
X143270000Y-93050000D01*
G75*
G02*
X143410000Y-93190000I0J-140000D01*
G01*
X143410000Y-93470000D01*
G75*
G02*
X143270000Y-93610000I-140000J0D01*
G01*
G37*
G36*
G01*
X143270000Y-92650000D02*
X142930000Y-92650000D01*
G75*
G02*
X142790000Y-92510000I0J140000D01*
G01*
X142790000Y-92230000D01*
G75*
G02*
X142930000Y-92090000I140000J0D01*
G01*
X143270000Y-92090000D01*
G75*
G02*
X143410000Y-92230000I0J-140000D01*
G01*
X143410000Y-92510000D01*
G75*
G02*
X143270000Y-92650000I-140000J0D01*
G01*
G37*
G04 #@! TD*
G04 #@! TO.C,FB3*
G36*
G01*
X149425000Y-81843750D02*
X149425000Y-82356250D01*
G75*
G02*
X149206250Y-82575000I-218750J0D01*
G01*
X148768750Y-82575000D01*
G75*
G02*
X148550000Y-82356250I0J218750D01*
G01*
X148550000Y-81843750D01*
G75*
G02*
X148768750Y-81625000I218750J0D01*
G01*
X149206250Y-81625000D01*
G75*
G02*
X149425000Y-81843750I0J-218750D01*
G01*
G37*
G36*
G01*
X147850000Y-81843750D02*
X147850000Y-82356250D01*
G75*
G02*
X147631250Y-82575000I-218750J0D01*
G01*
X147193750Y-82575000D01*
G75*
G02*
X146975000Y-82356250I0J218750D01*
G01*
X146975000Y-81843750D01*
G75*
G02*
X147193750Y-81625000I218750J0D01*
G01*
X147631250Y-81625000D01*
G75*
G02*
X147850000Y-81843750I0J-218750D01*
G01*
G37*
G04 #@! TD*
G04 #@! TO.C,R6*
G36*
G01*
X144320000Y-87635000D02*
X144320000Y-87265000D01*
G75*
G02*
X144455000Y-87130000I135000J0D01*
G01*
X144725000Y-87130000D01*
G75*
G02*
X144860000Y-87265000I0J-135000D01*
G01*
X144860000Y-87635000D01*
G75*
G02*
X144725000Y-87770000I-135000J0D01*
G01*
X144455000Y-87770000D01*
G75*
G02*
X144320000Y-87635000I0J135000D01*
G01*
G37*
G36*
G01*
X145340000Y-87635000D02*
X145340000Y-87265000D01*
G75*
G02*
X145475000Y-87130000I135000J0D01*
G01*
X145745000Y-87130000D01*
G75*
G02*
X145880000Y-87265000I0J-135000D01*
G01*
X145880000Y-87635000D01*
G75*
G02*
X145745000Y-87770000I-135000J0D01*
G01*
X145475000Y-87770000D01*
G75*
G02*
X145340000Y-87635000I0J135000D01*
G01*
G37*
G04 #@! TD*
G04 #@! TO.C,JPR1*
G36*
G01*
X143865000Y-83130000D02*
X144235000Y-83130000D01*
G75*
G02*
X144370000Y-83265000I0J-135000D01*
G01*
X144370000Y-83535000D01*
G75*
G02*
X144235000Y-83670000I-135000J0D01*
G01*
X143865000Y-83670000D01*
G75*
G02*
X143730000Y-83535000I0J135000D01*
G01*
X143730000Y-83265000D01*
G75*
G02*
X143865000Y-83130000I135000J0D01*
G01*
G37*
G36*
G01*
X143865000Y-84150000D02*
X144235000Y-84150000D01*
G75*
G02*
X144370000Y-84285000I0J-135000D01*
G01*
X144370000Y-84555000D01*
G75*
G02*
X144235000Y-84690000I-135000J0D01*
G01*
X143865000Y-84690000D01*
G75*
G02*
X143730000Y-84555000I0J135000D01*
G01*
X143730000Y-84285000D01*
G75*
G02*
X143865000Y-84150000I135000J0D01*
G01*
G37*
G04 #@! TD*
G04 #@! TO.C,JPR2*
G36*
G01*
X162815000Y-88120000D02*
X163185000Y-88120000D01*
G75*
G02*
X163320000Y-88255000I0J-135000D01*
G01*
X163320000Y-88525000D01*
G75*
G02*
X163185000Y-88660000I-135000J0D01*
G01*
X162815000Y-88660000D01*
G75*
G02*
X162680000Y-88525000I0J135000D01*
G01*
X162680000Y-88255000D01*
G75*
G02*
X162815000Y-88120000I135000J0D01*
G01*
G37*
G36*
G01*
X162815000Y-89140000D02*
X163185000Y-89140000D01*
G75*
G02*
X163320000Y-89275000I0J-135000D01*
G01*
X163320000Y-89545000D01*
G75*
G02*
X163185000Y-89680000I-135000J0D01*
G01*
X162815000Y-89680000D01*
G75*
G02*
X162680000Y-89545000I0J135000D01*
G01*
X162680000Y-89275000D01*
G75*
G02*
X162815000Y-89140000I135000J0D01*
G01*
G37*
G04 #@! TD*
G04 #@! TO.C,R8*
G36*
G01*
X153470000Y-93785000D02*
X153470000Y-93415000D01*
G75*
G02*
X153605000Y-93280000I135000J0D01*
G01*
X153875000Y-93280000D01*
G75*
G02*
X154010000Y-93415000I0J-135000D01*
G01*
X154010000Y-93785000D01*
G75*
G02*
X153875000Y-93920000I-135000J0D01*
G01*
X153605000Y-93920000D01*
G75*
G02*
X153470000Y-93785000I0J135000D01*
G01*
G37*
G36*
G01*
X154490000Y-93785000D02*
X154490000Y-93415000D01*
G75*
G02*
X154625000Y-93280000I135000J0D01*
G01*
X154895000Y-93280000D01*
G75*
G02*
X155030000Y-93415000I0J-135000D01*
G01*
X155030000Y-93785000D01*
G75*
G02*
X154895000Y-93920000I-135000J0D01*
G01*
X154625000Y-93920000D01*
G75*
G02*
X154490000Y-93785000I0J135000D01*
G01*
G37*
G04 #@! TD*
G04 #@! TO.C,C41*
G36*
G01*
X158460000Y-113130000D02*
X158460000Y-113470000D01*
G75*
G02*
X158320000Y-113610000I-140000J0D01*
G01*
X158040000Y-113610000D01*
G75*
G02*
X157900000Y-113470000I0J140000D01*
G01*
X157900000Y-113130000D01*
G75*
G02*
X158040000Y-112990000I140000J0D01*
G01*
X158320000Y-112990000D01*
G75*
G02*
X158460000Y-113130000I0J-140000D01*
G01*
G37*
G36*
G01*
X157500000Y-113130000D02*
X157500000Y-113470000D01*
G75*
G02*
X157360000Y-113610000I-140000J0D01*
G01*
X157080000Y-113610000D01*
G75*
G02*
X156940000Y-113470000I0J140000D01*
G01*
X156940000Y-113130000D01*
G75*
G02*
X157080000Y-112990000I140000J0D01*
G01*
X157360000Y-112990000D01*
G75*
G02*
X157500000Y-113130000I0J-140000D01*
G01*
G37*
G04 #@! TD*
G04 #@! TO.C,L1*
G36*
G01*
X150318750Y-87500000D02*
X151081250Y-87500000D01*
G75*
G02*
X151300000Y-87718750I0J-218750D01*
G01*
X151300000Y-88156250D01*
G75*
G02*
X151081250Y-88375000I-218750J0D01*
G01*
X150318750Y-88375000D01*
G75*
G02*
X150100000Y-88156250I0J218750D01*
G01*
X150100000Y-87718750D01*
G75*
G02*
X150318750Y-87500000I218750J0D01*
G01*
G37*
G36*
G01*
X150318750Y-89625000D02*
X151081250Y-89625000D01*
G75*
G02*
X151300000Y-89843750I0J-218750D01*
G01*
X151300000Y-90281250D01*
G75*
G02*
X151081250Y-90500000I-218750J0D01*
G01*
X150318750Y-90500000D01*
G75*
G02*
X150100000Y-90281250I0J218750D01*
G01*
X150100000Y-89843750D01*
G75*
G02*
X150318750Y-89625000I218750J0D01*
G01*
G37*
G04 #@! TD*
G04 #@! TO.C,C26*
G36*
G01*
X137525000Y-84050000D02*
X137525000Y-83550000D01*
G75*
G02*
X137750000Y-83325000I225000J0D01*
G01*
X138200000Y-83325000D01*
G75*
G02*
X138425000Y-83550000I0J-225000D01*
G01*
X138425000Y-84050000D01*
G75*
G02*
X138200000Y-84275000I-225000J0D01*
G01*
X137750000Y-84275000D01*
G75*
G02*
X137525000Y-84050000I0J225000D01*
G01*
G37*
G36*
G01*
X139075000Y-84050000D02*
X139075000Y-83550000D01*
G75*
G02*
X139300000Y-83325000I225000J0D01*
G01*
X139750000Y-83325000D01*
G75*
G02*
X139975000Y-83550000I0J-225000D01*
G01*
X139975000Y-84050000D01*
G75*
G02*
X139750000Y-84275000I-225000J0D01*
G01*
X139300000Y-84275000D01*
G75*
G02*
X139075000Y-84050000I0J225000D01*
G01*
G37*
G04 #@! TD*
G04 #@! TO.C,C3*
G36*
G01*
X147770000Y-93610000D02*
X147430000Y-93610000D01*
G75*
G02*
X147290000Y-93470000I0J140000D01*
G01*
X147290000Y-93190000D01*
G75*
G02*
X147430000Y-93050000I140000J0D01*
G01*
X147770000Y-93050000D01*
G75*
G02*
X147910000Y-93190000I0J-140000D01*
G01*
X147910000Y-93470000D01*
G75*
G02*
X147770000Y-93610000I-140000J0D01*
G01*
G37*
G36*
G01*
X147770000Y-92650000D02*
X147430000Y-92650000D01*
G75*
G02*
X147290000Y-92510000I0J140000D01*
G01*
X147290000Y-92230000D01*
G75*
G02*
X147430000Y-92090000I140000J0D01*
G01*
X147770000Y-92090000D01*
G75*
G02*
X147910000Y-92230000I0J-140000D01*
G01*
X147910000Y-92510000D01*
G75*
G02*
X147770000Y-92650000I-140000J0D01*
G01*
G37*
G04 #@! TD*
D14*
G04 #@! TO.C,TP7*
X153300000Y-83600000D03*
G04 #@! TD*
G04 #@! TO.C,C22*
G36*
G01*
X140110000Y-103930000D02*
X140110000Y-104270000D01*
G75*
G02*
X139970000Y-104410000I-140000J0D01*
G01*
X139690000Y-104410000D01*
G75*
G02*
X139550000Y-104270000I0J140000D01*
G01*
X139550000Y-103930000D01*
G75*
G02*
X139690000Y-103790000I140000J0D01*
G01*
X139970000Y-103790000D01*
G75*
G02*
X140110000Y-103930000I0J-140000D01*
G01*
G37*
G36*
G01*
X139150000Y-103930000D02*
X139150000Y-104270000D01*
G75*
G02*
X139010000Y-104410000I-140000J0D01*
G01*
X138730000Y-104410000D01*
G75*
G02*
X138590000Y-104270000I0J140000D01*
G01*
X138590000Y-103930000D01*
G75*
G02*
X138730000Y-103790000I140000J0D01*
G01*
X139010000Y-103790000D01*
G75*
G02*
X139150000Y-103930000I0J-140000D01*
G01*
G37*
G04 #@! TD*
G04 #@! TO.C,C23*
G36*
G01*
X140340000Y-92307500D02*
X140340000Y-91967500D01*
G75*
G02*
X140480000Y-91827500I140000J0D01*
G01*
X140760000Y-91827500D01*
G75*
G02*
X140900000Y-91967500I0J-140000D01*
G01*
X140900000Y-92307500D01*
G75*
G02*
X140760000Y-92447500I-140000J0D01*
G01*
X140480000Y-92447500D01*
G75*
G02*
X140340000Y-92307500I0J140000D01*
G01*
G37*
G36*
G01*
X141300000Y-92307500D02*
X141300000Y-91967500D01*
G75*
G02*
X141440000Y-91827500I140000J0D01*
G01*
X141720000Y-91827500D01*
G75*
G02*
X141860000Y-91967500I0J-140000D01*
G01*
X141860000Y-92307500D01*
G75*
G02*
X141720000Y-92447500I-140000J0D01*
G01*
X141440000Y-92447500D01*
G75*
G02*
X141300000Y-92307500I0J140000D01*
G01*
G37*
G04 #@! TD*
G04 #@! TO.C,R4*
G36*
G01*
X140920000Y-112885000D02*
X140920000Y-112515000D01*
G75*
G02*
X141055000Y-112380000I135000J0D01*
G01*
X141325000Y-112380000D01*
G75*
G02*
X141460000Y-112515000I0J-135000D01*
G01*
X141460000Y-112885000D01*
G75*
G02*
X141325000Y-113020000I-135000J0D01*
G01*
X141055000Y-113020000D01*
G75*
G02*
X140920000Y-112885000I0J135000D01*
G01*
G37*
G36*
G01*
X141940000Y-112885000D02*
X141940000Y-112515000D01*
G75*
G02*
X142075000Y-112380000I135000J0D01*
G01*
X142345000Y-112380000D01*
G75*
G02*
X142480000Y-112515000I0J-135000D01*
G01*
X142480000Y-112885000D01*
G75*
G02*
X142345000Y-113020000I-135000J0D01*
G01*
X142075000Y-113020000D01*
G75*
G02*
X141940000Y-112885000I0J135000D01*
G01*
G37*
G04 #@! TD*
G04 #@! TO.C,C39*
G36*
G01*
X151030000Y-112240000D02*
X151370000Y-112240000D01*
G75*
G02*
X151510000Y-112380000I0J-140000D01*
G01*
X151510000Y-112660000D01*
G75*
G02*
X151370000Y-112800000I-140000J0D01*
G01*
X151030000Y-112800000D01*
G75*
G02*
X150890000Y-112660000I0J140000D01*
G01*
X150890000Y-112380000D01*
G75*
G02*
X151030000Y-112240000I140000J0D01*
G01*
G37*
G36*
G01*
X151030000Y-113200000D02*
X151370000Y-113200000D01*
G75*
G02*
X151510000Y-113340000I0J-140000D01*
G01*
X151510000Y-113620000D01*
G75*
G02*
X151370000Y-113760000I-140000J0D01*
G01*
X151030000Y-113760000D01*
G75*
G02*
X150890000Y-113620000I0J140000D01*
G01*
X150890000Y-113340000D01*
G75*
G02*
X151030000Y-113200000I140000J0D01*
G01*
G37*
G04 #@! TD*
G04 #@! TO.C,TP6*
X141600000Y-90200000D03*
G04 #@! TD*
G04 #@! TO.C,R9*
G36*
G01*
X142185000Y-85080000D02*
X141815000Y-85080000D01*
G75*
G02*
X141680000Y-84945000I0J135000D01*
G01*
X141680000Y-84675000D01*
G75*
G02*
X141815000Y-84540000I135000J0D01*
G01*
X142185000Y-84540000D01*
G75*
G02*
X142320000Y-84675000I0J-135000D01*
G01*
X142320000Y-84945000D01*
G75*
G02*
X142185000Y-85080000I-135000J0D01*
G01*
G37*
G36*
G01*
X142185000Y-84060000D02*
X141815000Y-84060000D01*
G75*
G02*
X141680000Y-83925000I0J135000D01*
G01*
X141680000Y-83655000D01*
G75*
G02*
X141815000Y-83520000I135000J0D01*
G01*
X142185000Y-83520000D01*
G75*
G02*
X142320000Y-83655000I0J-135000D01*
G01*
X142320000Y-83925000D01*
G75*
G02*
X142185000Y-84060000I-135000J0D01*
G01*
G37*
G04 #@! TD*
D11*
G04 #@! TO.C,FL2*
X159437500Y-96525000D03*
X160687500Y-96525000D03*
X160687500Y-97075000D03*
X159437500Y-97075000D03*
G04 #@! TD*
G04 #@! TO.C,C18*
G36*
G01*
X138800000Y-101562500D02*
X138300000Y-101562500D01*
G75*
G02*
X138075000Y-101337500I0J225000D01*
G01*
X138075000Y-100887500D01*
G75*
G02*
X138300000Y-100662500I225000J0D01*
G01*
X138800000Y-100662500D01*
G75*
G02*
X139025000Y-100887500I0J-225000D01*
G01*
X139025000Y-101337500D01*
G75*
G02*
X138800000Y-101562500I-225000J0D01*
G01*
G37*
G36*
G01*
X138800000Y-100012500D02*
X138300000Y-100012500D01*
G75*
G02*
X138075000Y-99787500I0J225000D01*
G01*
X138075000Y-99337500D01*
G75*
G02*
X138300000Y-99112500I225000J0D01*
G01*
X138800000Y-99112500D01*
G75*
G02*
X139025000Y-99337500I0J-225000D01*
G01*
X139025000Y-99787500D01*
G75*
G02*
X138800000Y-100012500I-225000J0D01*
G01*
G37*
G04 #@! TD*
G04 #@! TO.C,C32*
G36*
G01*
X139900000Y-99112500D02*
X140400000Y-99112500D01*
G75*
G02*
X140625000Y-99337500I0J-225000D01*
G01*
X140625000Y-99787500D01*
G75*
G02*
X140400000Y-100012500I-225000J0D01*
G01*
X139900000Y-100012500D01*
G75*
G02*
X139675000Y-99787500I0J225000D01*
G01*
X139675000Y-99337500D01*
G75*
G02*
X139900000Y-99112500I225000J0D01*
G01*
G37*
G36*
G01*
X139900000Y-100662500D02*
X140400000Y-100662500D01*
G75*
G02*
X140625000Y-100887500I0J-225000D01*
G01*
X140625000Y-101337500D01*
G75*
G02*
X140400000Y-101562500I-225000J0D01*
G01*
X139900000Y-101562500D01*
G75*
G02*
X139675000Y-101337500I0J225000D01*
G01*
X139675000Y-100887500D01*
G75*
G02*
X139900000Y-100662500I225000J0D01*
G01*
G37*
G04 #@! TD*
G04 #@! TO.C,C15*
G36*
G01*
X152110000Y-100930000D02*
X152110000Y-101270000D01*
G75*
G02*
X151970000Y-101410000I-140000J0D01*
G01*
X151690000Y-101410000D01*
G75*
G02*
X151550000Y-101270000I0J140000D01*
G01*
X151550000Y-100930000D01*
G75*
G02*
X151690000Y-100790000I140000J0D01*
G01*
X151970000Y-100790000D01*
G75*
G02*
X152110000Y-100930000I0J-140000D01*
G01*
G37*
G36*
G01*
X151150000Y-100930000D02*
X151150000Y-101270000D01*
G75*
G02*
X151010000Y-101410000I-140000J0D01*
G01*
X150730000Y-101410000D01*
G75*
G02*
X150590000Y-101270000I0J140000D01*
G01*
X150590000Y-100930000D01*
G75*
G02*
X150730000Y-100790000I140000J0D01*
G01*
X151010000Y-100790000D01*
G75*
G02*
X151150000Y-100930000I0J-140000D01*
G01*
G37*
G04 #@! TD*
G04 #@! TO.C,C11*
G36*
G01*
X147430000Y-105590000D02*
X147770000Y-105590000D01*
G75*
G02*
X147910000Y-105730000I0J-140000D01*
G01*
X147910000Y-106010000D01*
G75*
G02*
X147770000Y-106150000I-140000J0D01*
G01*
X147430000Y-106150000D01*
G75*
G02*
X147290000Y-106010000I0J140000D01*
G01*
X147290000Y-105730000D01*
G75*
G02*
X147430000Y-105590000I140000J0D01*
G01*
G37*
G36*
G01*
X147430000Y-106550000D02*
X147770000Y-106550000D01*
G75*
G02*
X147910000Y-106690000I0J-140000D01*
G01*
X147910000Y-106970000D01*
G75*
G02*
X147770000Y-107110000I-140000J0D01*
G01*
X147430000Y-107110000D01*
G75*
G02*
X147290000Y-106970000I0J140000D01*
G01*
X147290000Y-106690000D01*
G75*
G02*
X147430000Y-106550000I140000J0D01*
G01*
G37*
G04 #@! TD*
G04 #@! TO.C,C35*
G36*
G01*
X150430000Y-107740000D02*
X150770000Y-107740000D01*
G75*
G02*
X150910000Y-107880000I0J-140000D01*
G01*
X150910000Y-108160000D01*
G75*
G02*
X150770000Y-108300000I-140000J0D01*
G01*
X150430000Y-108300000D01*
G75*
G02*
X150290000Y-108160000I0J140000D01*
G01*
X150290000Y-107880000D01*
G75*
G02*
X150430000Y-107740000I140000J0D01*
G01*
G37*
G36*
G01*
X150430000Y-108700000D02*
X150770000Y-108700000D01*
G75*
G02*
X150910000Y-108840000I0J-140000D01*
G01*
X150910000Y-109120000D01*
G75*
G02*
X150770000Y-109260000I-140000J0D01*
G01*
X150430000Y-109260000D01*
G75*
G02*
X150290000Y-109120000I0J140000D01*
G01*
X150290000Y-108840000D01*
G75*
G02*
X150430000Y-108700000I140000J0D01*
G01*
G37*
G04 #@! TD*
D13*
G04 #@! TO.C,H3*
X164600000Y-116600000D03*
G04 #@! TD*
D14*
G04 #@! TO.C,TP1*
X146500000Y-117200000D03*
G04 #@! TD*
G04 #@! TO.C,FB1*
G36*
G01*
X156075000Y-82456250D02*
X156075000Y-81943750D01*
G75*
G02*
X156293750Y-81725000I218750J0D01*
G01*
X156731250Y-81725000D01*
G75*
G02*
X156950000Y-81943750I0J-218750D01*
G01*
X156950000Y-82456250D01*
G75*
G02*
X156731250Y-82675000I-218750J0D01*
G01*
X156293750Y-82675000D01*
G75*
G02*
X156075000Y-82456250I0J218750D01*
G01*
G37*
G36*
G01*
X157650000Y-82456250D02*
X157650000Y-81943750D01*
G75*
G02*
X157868750Y-81725000I218750J0D01*
G01*
X158306250Y-81725000D01*
G75*
G02*
X158525000Y-81943750I0J-218750D01*
G01*
X158525000Y-82456250D01*
G75*
G02*
X158306250Y-82675000I-218750J0D01*
G01*
X157868750Y-82675000D01*
G75*
G02*
X157650000Y-82456250I0J218750D01*
G01*
G37*
G04 #@! TD*
G04 #@! TO.C,C24*
G36*
G01*
X153770000Y-107110000D02*
X153430000Y-107110000D01*
G75*
G02*
X153290000Y-106970000I0J140000D01*
G01*
X153290000Y-106690000D01*
G75*
G02*
X153430000Y-106550000I140000J0D01*
G01*
X153770000Y-106550000D01*
G75*
G02*
X153910000Y-106690000I0J-140000D01*
G01*
X153910000Y-106970000D01*
G75*
G02*
X153770000Y-107110000I-140000J0D01*
G01*
G37*
G36*
G01*
X153770000Y-106150000D02*
X153430000Y-106150000D01*
G75*
G02*
X153290000Y-106010000I0J140000D01*
G01*
X153290000Y-105730000D01*
G75*
G02*
X153430000Y-105590000I140000J0D01*
G01*
X153770000Y-105590000D01*
G75*
G02*
X153910000Y-105730000I0J-140000D01*
G01*
X153910000Y-106010000D01*
G75*
G02*
X153770000Y-106150000I-140000J0D01*
G01*
G37*
G04 #@! TD*
G04 #@! TO.C,C12*
G36*
G01*
X152160000Y-96930000D02*
X152160000Y-97270000D01*
G75*
G02*
X152020000Y-97410000I-140000J0D01*
G01*
X151740000Y-97410000D01*
G75*
G02*
X151600000Y-97270000I0J140000D01*
G01*
X151600000Y-96930000D01*
G75*
G02*
X151740000Y-96790000I140000J0D01*
G01*
X152020000Y-96790000D01*
G75*
G02*
X152160000Y-96930000I0J-140000D01*
G01*
G37*
G36*
G01*
X151200000Y-96930000D02*
X151200000Y-97270000D01*
G75*
G02*
X151060000Y-97410000I-140000J0D01*
G01*
X150780000Y-97410000D01*
G75*
G02*
X150640000Y-97270000I0J140000D01*
G01*
X150640000Y-96930000D01*
G75*
G02*
X150780000Y-96790000I140000J0D01*
G01*
X151060000Y-96790000D01*
G75*
G02*
X151200000Y-96930000I0J-140000D01*
G01*
G37*
G04 #@! TD*
G04 #@! TO.C,C10*
G36*
G01*
X148930000Y-95120000D02*
X149270000Y-95120000D01*
G75*
G02*
X149410000Y-95260000I0J-140000D01*
G01*
X149410000Y-95540000D01*
G75*
G02*
X149270000Y-95680000I-140000J0D01*
G01*
X148930000Y-95680000D01*
G75*
G02*
X148790000Y-95540000I0J140000D01*
G01*
X148790000Y-95260000D01*
G75*
G02*
X148930000Y-95120000I140000J0D01*
G01*
G37*
G36*
G01*
X148930000Y-96080000D02*
X149270000Y-96080000D01*
G75*
G02*
X149410000Y-96220000I0J-140000D01*
G01*
X149410000Y-96500000D01*
G75*
G02*
X149270000Y-96640000I-140000J0D01*
G01*
X148930000Y-96640000D01*
G75*
G02*
X148790000Y-96500000I0J140000D01*
G01*
X148790000Y-96220000D01*
G75*
G02*
X148930000Y-96080000I140000J0D01*
G01*
G37*
G04 #@! TD*
G04 #@! TO.C,TP15*
X135400000Y-84800000D03*
G04 #@! TD*
D21*
G04 #@! TO.C,U5*
X156525000Y-90675000D03*
X154875000Y-90675000D03*
X154875000Y-92225000D03*
X156525000Y-92225000D03*
G04 #@! TD*
D14*
G04 #@! TO.C,TP8*
X153300000Y-87000000D03*
G04 #@! TD*
G04 #@! TO.C,C5*
G36*
G01*
X152160000Y-95930000D02*
X152160000Y-96270000D01*
G75*
G02*
X152020000Y-96410000I-140000J0D01*
G01*
X151740000Y-96410000D01*
G75*
G02*
X151600000Y-96270000I0J140000D01*
G01*
X151600000Y-95930000D01*
G75*
G02*
X151740000Y-95790000I140000J0D01*
G01*
X152020000Y-95790000D01*
G75*
G02*
X152160000Y-95930000I0J-140000D01*
G01*
G37*
G36*
G01*
X151200000Y-95930000D02*
X151200000Y-96270000D01*
G75*
G02*
X151060000Y-96410000I-140000J0D01*
G01*
X150780000Y-96410000D01*
G75*
G02*
X150640000Y-96270000I0J140000D01*
G01*
X150640000Y-95930000D01*
G75*
G02*
X150780000Y-95790000I140000J0D01*
G01*
X151060000Y-95790000D01*
G75*
G02*
X151200000Y-95930000I0J-140000D01*
G01*
G37*
G04 #@! TD*
G04 #@! TO.C,TP13*
X154500000Y-117200000D03*
G04 #@! TD*
G04 #@! TO.C,C29*
G36*
G01*
X141760000Y-96430000D02*
X141760000Y-96770000D01*
G75*
G02*
X141620000Y-96910000I-140000J0D01*
G01*
X141340000Y-96910000D01*
G75*
G02*
X141200000Y-96770000I0J140000D01*
G01*
X141200000Y-96430000D01*
G75*
G02*
X141340000Y-96290000I140000J0D01*
G01*
X141620000Y-96290000D01*
G75*
G02*
X141760000Y-96430000I0J-140000D01*
G01*
G37*
G36*
G01*
X140800000Y-96430000D02*
X140800000Y-96770000D01*
G75*
G02*
X140660000Y-96910000I-140000J0D01*
G01*
X140380000Y-96910000D01*
G75*
G02*
X140240000Y-96770000I0J140000D01*
G01*
X140240000Y-96430000D01*
G75*
G02*
X140380000Y-96290000I140000J0D01*
G01*
X140660000Y-96290000D01*
G75*
G02*
X140800000Y-96430000I0J-140000D01*
G01*
G37*
G04 #@! TD*
G04 #@! TO.C,C28*
G36*
G01*
X141950000Y-95562500D02*
X141450000Y-95562500D01*
G75*
G02*
X141225000Y-95337500I0J225000D01*
G01*
X141225000Y-94887500D01*
G75*
G02*
X141450000Y-94662500I225000J0D01*
G01*
X141950000Y-94662500D01*
G75*
G02*
X142175000Y-94887500I0J-225000D01*
G01*
X142175000Y-95337500D01*
G75*
G02*
X141950000Y-95562500I-225000J0D01*
G01*
G37*
G36*
G01*
X141950000Y-94012500D02*
X141450000Y-94012500D01*
G75*
G02*
X141225000Y-93787500I0J225000D01*
G01*
X141225000Y-93337500D01*
G75*
G02*
X141450000Y-93112500I225000J0D01*
G01*
X141950000Y-93112500D01*
G75*
G02*
X142175000Y-93337500I0J-225000D01*
G01*
X142175000Y-93787500D01*
G75*
G02*
X141950000Y-94012500I-225000J0D01*
G01*
G37*
G04 #@! TD*
G04 #@! TO.C,C13*
G36*
G01*
X140605000Y-94850000D02*
X140605000Y-95350000D01*
G75*
G02*
X140380000Y-95575000I-225000J0D01*
G01*
X139930000Y-95575000D01*
G75*
G02*
X139705000Y-95350000I0J225000D01*
G01*
X139705000Y-94850000D01*
G75*
G02*
X139930000Y-94625000I225000J0D01*
G01*
X140380000Y-94625000D01*
G75*
G02*
X140605000Y-94850000I0J-225000D01*
G01*
G37*
G36*
G01*
X139055000Y-94850000D02*
X139055000Y-95350000D01*
G75*
G02*
X138830000Y-95575000I-225000J0D01*
G01*
X138380000Y-95575000D01*
G75*
G02*
X138155000Y-95350000I0J225000D01*
G01*
X138155000Y-94850000D01*
G75*
G02*
X138380000Y-94625000I225000J0D01*
G01*
X138830000Y-94625000D01*
G75*
G02*
X139055000Y-94850000I0J-225000D01*
G01*
G37*
G04 #@! TD*
G04 #@! TO.C,C33*
G36*
G01*
X160100000Y-88600000D02*
X159600000Y-88600000D01*
G75*
G02*
X159375000Y-88375000I0J225000D01*
G01*
X159375000Y-87925000D01*
G75*
G02*
X159600000Y-87700000I225000J0D01*
G01*
X160100000Y-87700000D01*
G75*
G02*
X160325000Y-87925000I0J-225000D01*
G01*
X160325000Y-88375000D01*
G75*
G02*
X160100000Y-88600000I-225000J0D01*
G01*
G37*
G36*
G01*
X160100000Y-87050000D02*
X159600000Y-87050000D01*
G75*
G02*
X159375000Y-86825000I0J225000D01*
G01*
X159375000Y-86375000D01*
G75*
G02*
X159600000Y-86150000I225000J0D01*
G01*
X160100000Y-86150000D01*
G75*
G02*
X160325000Y-86375000I0J-225000D01*
G01*
X160325000Y-86825000D01*
G75*
G02*
X160100000Y-87050000I-225000J0D01*
G01*
G37*
G04 #@! TD*
G04 #@! TO.C,C31*
G36*
G01*
X141610000Y-97930000D02*
X141610000Y-98270000D01*
G75*
G02*
X141470000Y-98410000I-140000J0D01*
G01*
X141190000Y-98410000D01*
G75*
G02*
X141050000Y-98270000I0J140000D01*
G01*
X141050000Y-97930000D01*
G75*
G02*
X141190000Y-97790000I140000J0D01*
G01*
X141470000Y-97790000D01*
G75*
G02*
X141610000Y-97930000I0J-140000D01*
G01*
G37*
G36*
G01*
X140650000Y-97930000D02*
X140650000Y-98270000D01*
G75*
G02*
X140510000Y-98410000I-140000J0D01*
G01*
X140230000Y-98410000D01*
G75*
G02*
X140090000Y-98270000I0J140000D01*
G01*
X140090000Y-97930000D01*
G75*
G02*
X140230000Y-97790000I140000J0D01*
G01*
X140510000Y-97790000D01*
G75*
G02*
X140650000Y-97930000I0J-140000D01*
G01*
G37*
G04 #@! TD*
G04 #@! TO.C,C20*
G36*
G01*
X140110000Y-102430000D02*
X140110000Y-102770000D01*
G75*
G02*
X139970000Y-102910000I-140000J0D01*
G01*
X139690000Y-102910000D01*
G75*
G02*
X139550000Y-102770000I0J140000D01*
G01*
X139550000Y-102430000D01*
G75*
G02*
X139690000Y-102290000I140000J0D01*
G01*
X139970000Y-102290000D01*
G75*
G02*
X140110000Y-102430000I0J-140000D01*
G01*
G37*
G36*
G01*
X139150000Y-102430000D02*
X139150000Y-102770000D01*
G75*
G02*
X139010000Y-102910000I-140000J0D01*
G01*
X138730000Y-102910000D01*
G75*
G02*
X138590000Y-102770000I0J140000D01*
G01*
X138590000Y-102430000D01*
G75*
G02*
X138730000Y-102290000I140000J0D01*
G01*
X139010000Y-102290000D01*
G75*
G02*
X139150000Y-102430000I0J-140000D01*
G01*
G37*
G04 #@! TD*
D11*
G04 #@! TO.C,FL3*
X159425000Y-97625000D03*
X160675000Y-97625000D03*
X160675000Y-98175000D03*
X159425000Y-98175000D03*
G04 #@! TD*
D13*
G04 #@! TO.C,H2*
X130600000Y-116600000D03*
G04 #@! TD*
G04 #@! TO.C,C19*
G36*
G01*
X151430000Y-105590000D02*
X151770000Y-105590000D01*
G75*
G02*
X151910000Y-105730000I0J-140000D01*
G01*
X151910000Y-106010000D01*
G75*
G02*
X151770000Y-106150000I-140000J0D01*
G01*
X151430000Y-106150000D01*
G75*
G02*
X151290000Y-106010000I0J140000D01*
G01*
X151290000Y-105730000D01*
G75*
G02*
X151430000Y-105590000I140000J0D01*
G01*
G37*
G36*
G01*
X151430000Y-106550000D02*
X151770000Y-106550000D01*
G75*
G02*
X151910000Y-106690000I0J-140000D01*
G01*
X151910000Y-106970000D01*
G75*
G02*
X151770000Y-107110000I-140000J0D01*
G01*
X151430000Y-107110000D01*
G75*
G02*
X151290000Y-106970000I0J140000D01*
G01*
X151290000Y-106690000D01*
G75*
G02*
X151430000Y-106550000I140000J0D01*
G01*
G37*
G04 #@! TD*
G04 #@! TO.C,U6*
G36*
G01*
X147200000Y-88650000D02*
X146900000Y-88650000D01*
G75*
G02*
X146750000Y-88500000I0J150000D01*
G01*
X146750000Y-87475000D01*
G75*
G02*
X146900000Y-87325000I150000J0D01*
G01*
X147200000Y-87325000D01*
G75*
G02*
X147350000Y-87475000I0J-150000D01*
G01*
X147350000Y-88500000D01*
G75*
G02*
X147200000Y-88650000I-150000J0D01*
G01*
G37*
G36*
G01*
X148150000Y-88650000D02*
X147850000Y-88650000D01*
G75*
G02*
X147700000Y-88500000I0J150000D01*
G01*
X147700000Y-87475000D01*
G75*
G02*
X147850000Y-87325000I150000J0D01*
G01*
X148150000Y-87325000D01*
G75*
G02*
X148300000Y-87475000I0J-150000D01*
G01*
X148300000Y-88500000D01*
G75*
G02*
X148150000Y-88650000I-150000J0D01*
G01*
G37*
G36*
G01*
X149100000Y-88650000D02*
X148800000Y-88650000D01*
G75*
G02*
X148650000Y-88500000I0J150000D01*
G01*
X148650000Y-87475000D01*
G75*
G02*
X148800000Y-87325000I150000J0D01*
G01*
X149100000Y-87325000D01*
G75*
G02*
X149250000Y-87475000I0J-150000D01*
G01*
X149250000Y-88500000D01*
G75*
G02*
X149100000Y-88650000I-150000J0D01*
G01*
G37*
G36*
G01*
X149100000Y-86375000D02*
X148800000Y-86375000D01*
G75*
G02*
X148650000Y-86225000I0J150000D01*
G01*
X148650000Y-85200000D01*
G75*
G02*
X148800000Y-85050000I150000J0D01*
G01*
X149100000Y-85050000D01*
G75*
G02*
X149250000Y-85200000I0J-150000D01*
G01*
X149250000Y-86225000D01*
G75*
G02*
X149100000Y-86375000I-150000J0D01*
G01*
G37*
G36*
G01*
X147200000Y-86375000D02*
X146900000Y-86375000D01*
G75*
G02*
X146750000Y-86225000I0J150000D01*
G01*
X146750000Y-85200000D01*
G75*
G02*
X146900000Y-85050000I150000J0D01*
G01*
X147200000Y-85050000D01*
G75*
G02*
X147350000Y-85200000I0J-150000D01*
G01*
X147350000Y-86225000D01*
G75*
G02*
X147200000Y-86375000I-150000J0D01*
G01*
G37*
G04 #@! TD*
D14*
G04 #@! TO.C,TP5*
X159800000Y-90150000D03*
G04 #@! TD*
G04 #@! TO.C,C6*
G36*
G01*
X150770000Y-93610000D02*
X150430000Y-93610000D01*
G75*
G02*
X150290000Y-93470000I0J140000D01*
G01*
X150290000Y-93190000D01*
G75*
G02*
X150430000Y-93050000I140000J0D01*
G01*
X150770000Y-93050000D01*
G75*
G02*
X150910000Y-93190000I0J-140000D01*
G01*
X150910000Y-93470000D01*
G75*
G02*
X150770000Y-93610000I-140000J0D01*
G01*
G37*
G36*
G01*
X150770000Y-92650000D02*
X150430000Y-92650000D01*
G75*
G02*
X150290000Y-92510000I0J140000D01*
G01*
X150290000Y-92230000D01*
G75*
G02*
X150430000Y-92090000I140000J0D01*
G01*
X150770000Y-92090000D01*
G75*
G02*
X150910000Y-92230000I0J-140000D01*
G01*
X150910000Y-92510000D01*
G75*
G02*
X150770000Y-92650000I-140000J0D01*
G01*
G37*
G04 #@! TD*
G04 #@! TO.C,C42*
G36*
G01*
X133860000Y-113130000D02*
X133860000Y-113470000D01*
G75*
G02*
X133720000Y-113610000I-140000J0D01*
G01*
X133440000Y-113610000D01*
G75*
G02*
X133300000Y-113470000I0J140000D01*
G01*
X133300000Y-113130000D01*
G75*
G02*
X133440000Y-112990000I140000J0D01*
G01*
X133720000Y-112990000D01*
G75*
G02*
X133860000Y-113130000I0J-140000D01*
G01*
G37*
G36*
G01*
X132900000Y-113130000D02*
X132900000Y-113470000D01*
G75*
G02*
X132760000Y-113610000I-140000J0D01*
G01*
X132480000Y-113610000D01*
G75*
G02*
X132340000Y-113470000I0J140000D01*
G01*
X132340000Y-113130000D01*
G75*
G02*
X132480000Y-112990000I140000J0D01*
G01*
X132760000Y-112990000D01*
G75*
G02*
X132900000Y-113130000I0J-140000D01*
G01*
G37*
G04 #@! TD*
G04 #@! TO.C,C25*
G36*
G01*
X156100000Y-84050000D02*
X156100000Y-83550000D01*
G75*
G02*
X156325000Y-83325000I225000J0D01*
G01*
X156775000Y-83325000D01*
G75*
G02*
X157000000Y-83550000I0J-225000D01*
G01*
X157000000Y-84050000D01*
G75*
G02*
X156775000Y-84275000I-225000J0D01*
G01*
X156325000Y-84275000D01*
G75*
G02*
X156100000Y-84050000I0J225000D01*
G01*
G37*
G36*
G01*
X157650000Y-84050000D02*
X157650000Y-83550000D01*
G75*
G02*
X157875000Y-83325000I225000J0D01*
G01*
X158325000Y-83325000D01*
G75*
G02*
X158550000Y-83550000I0J-225000D01*
G01*
X158550000Y-84050000D01*
G75*
G02*
X158325000Y-84275000I-225000J0D01*
G01*
X157875000Y-84275000D01*
G75*
G02*
X157650000Y-84050000I0J225000D01*
G01*
G37*
G04 #@! TD*
G04 #@! TO.C,JP2*
G36*
X163750000Y-89050000D02*
G01*
X163750000Y-89550000D01*
X163744911Y-89550000D01*
X163744911Y-89621157D01*
X163704816Y-89757708D01*
X163627875Y-89877430D01*
X163520320Y-89970627D01*
X163390866Y-90029746D01*
X163250000Y-90050000D01*
X162750000Y-90050000D01*
X162609134Y-90029746D01*
X162479680Y-89970627D01*
X162372125Y-89877430D01*
X162295184Y-89757708D01*
X162255089Y-89621157D01*
X162255089Y-89550000D01*
X162250000Y-89550000D01*
X162250000Y-89050000D01*
X163750000Y-89050000D01*
G37*
G36*
X162255089Y-88250000D02*
G01*
X162255089Y-88178843D01*
X162295184Y-88042292D01*
X162372125Y-87922570D01*
X162479680Y-87829373D01*
X162609134Y-87770254D01*
X162750000Y-87750000D01*
X163250000Y-87750000D01*
X163390866Y-87770254D01*
X163520320Y-87829373D01*
X163627875Y-87922570D01*
X163704816Y-88042292D01*
X163744911Y-88178843D01*
X163744911Y-88250000D01*
X163750000Y-88250000D01*
X163750000Y-88750000D01*
X162250000Y-88750000D01*
X162250000Y-88250000D01*
X162255089Y-88250000D01*
G37*
G04 #@! TD*
G04 #@! TO.C,R3*
G36*
G01*
X148880000Y-103915000D02*
X148880000Y-104285000D01*
G75*
G02*
X148745000Y-104420000I-135000J0D01*
G01*
X148475000Y-104420000D01*
G75*
G02*
X148340000Y-104285000I0J135000D01*
G01*
X148340000Y-103915000D01*
G75*
G02*
X148475000Y-103780000I135000J0D01*
G01*
X148745000Y-103780000D01*
G75*
G02*
X148880000Y-103915000I0J-135000D01*
G01*
G37*
G36*
G01*
X147860000Y-103915000D02*
X147860000Y-104285000D01*
G75*
G02*
X147725000Y-104420000I-135000J0D01*
G01*
X147455000Y-104420000D01*
G75*
G02*
X147320000Y-104285000I0J135000D01*
G01*
X147320000Y-103915000D01*
G75*
G02*
X147455000Y-103780000I135000J0D01*
G01*
X147725000Y-103780000D01*
G75*
G02*
X147860000Y-103915000I0J-135000D01*
G01*
G37*
G04 #@! TD*
D22*
G04 #@! TO.C,U4*
X153474999Y-109600001D03*
X153474999Y-108950000D03*
X153474999Y-108300001D03*
X151525001Y-108300001D03*
X151525001Y-108950000D03*
X151525001Y-109600001D03*
G04 #@! TD*
G04 #@! TO.C,R2*
G36*
G01*
X149320000Y-104285000D02*
X149320000Y-103915000D01*
G75*
G02*
X149455000Y-103780000I135000J0D01*
G01*
X149725000Y-103780000D01*
G75*
G02*
X149860000Y-103915000I0J-135000D01*
G01*
X149860000Y-104285000D01*
G75*
G02*
X149725000Y-104420000I-135000J0D01*
G01*
X149455000Y-104420000D01*
G75*
G02*
X149320000Y-104285000I0J135000D01*
G01*
G37*
G36*
G01*
X150340000Y-104285000D02*
X150340000Y-103915000D01*
G75*
G02*
X150475000Y-103780000I135000J0D01*
G01*
X150745000Y-103780000D01*
G75*
G02*
X150880000Y-103915000I0J-135000D01*
G01*
X150880000Y-104285000D01*
G75*
G02*
X150745000Y-104420000I-135000J0D01*
G01*
X150475000Y-104420000D01*
G75*
G02*
X150340000Y-104285000I0J135000D01*
G01*
G37*
G04 #@! TD*
G04 #@! TO.C,C30*
G36*
G01*
X143270000Y-105460000D02*
X142930000Y-105460000D01*
G75*
G02*
X142790000Y-105320000I0J140000D01*
G01*
X142790000Y-105040000D01*
G75*
G02*
X142930000Y-104900000I140000J0D01*
G01*
X143270000Y-104900000D01*
G75*
G02*
X143410000Y-105040000I0J-140000D01*
G01*
X143410000Y-105320000D01*
G75*
G02*
X143270000Y-105460000I-140000J0D01*
G01*
G37*
G36*
G01*
X143270000Y-104500000D02*
X142930000Y-104500000D01*
G75*
G02*
X142790000Y-104360000I0J140000D01*
G01*
X142790000Y-104080000D01*
G75*
G02*
X142930000Y-103940000I140000J0D01*
G01*
X143270000Y-103940000D01*
G75*
G02*
X143410000Y-104080000I0J-140000D01*
G01*
X143410000Y-104360000D01*
G75*
G02*
X143270000Y-104500000I-140000J0D01*
G01*
G37*
G04 #@! TD*
G04 #@! TO.C,J2*
G36*
G01*
X161650000Y-108700000D02*
X162900000Y-108700000D01*
G75*
G02*
X163050000Y-108850000I0J-150000D01*
G01*
X163050000Y-109150000D01*
G75*
G02*
X162900000Y-109300000I-150000J0D01*
G01*
X161650000Y-109300000D01*
G75*
G02*
X161500000Y-109150000I0J150000D01*
G01*
X161500000Y-108850000D01*
G75*
G02*
X161650000Y-108700000I150000J0D01*
G01*
G37*
G36*
G01*
X161650000Y-109700000D02*
X162900000Y-109700000D01*
G75*
G02*
X163050000Y-109850000I0J-150000D01*
G01*
X163050000Y-110150000D01*
G75*
G02*
X162900000Y-110300000I-150000J0D01*
G01*
X161650000Y-110300000D01*
G75*
G02*
X161500000Y-110150000I0J150000D01*
G01*
X161500000Y-109850000D01*
G75*
G02*
X161650000Y-109700000I150000J0D01*
G01*
G37*
G36*
G01*
X161650000Y-110700000D02*
X162900000Y-110700000D01*
G75*
G02*
X163050000Y-110850000I0J-150000D01*
G01*
X163050000Y-111150000D01*
G75*
G02*
X162900000Y-111300000I-150000J0D01*
G01*
X161650000Y-111300000D01*
G75*
G02*
X161500000Y-111150000I0J150000D01*
G01*
X161500000Y-110850000D01*
G75*
G02*
X161650000Y-110700000I150000J0D01*
G01*
G37*
G36*
G01*
X161650000Y-111700000D02*
X162900000Y-111700000D01*
G75*
G02*
X163050000Y-111850000I0J-150000D01*
G01*
X163050000Y-112150000D01*
G75*
G02*
X162900000Y-112300000I-150000J0D01*
G01*
X161650000Y-112300000D01*
G75*
G02*
X161500000Y-112150000I0J150000D01*
G01*
X161500000Y-111850000D01*
G75*
G02*
X161650000Y-111700000I150000J0D01*
G01*
G37*
G36*
G01*
X164150000Y-112700000D02*
X165450000Y-112700000D01*
G75*
G02*
X165700000Y-112950000I0J-250000D01*
G01*
X165700000Y-113650000D01*
G75*
G02*
X165450000Y-113900000I-250000J0D01*
G01*
X164150000Y-113900000D01*
G75*
G02*
X163900000Y-113650000I0J250000D01*
G01*
X163900000Y-112950000D01*
G75*
G02*
X164150000Y-112700000I250000J0D01*
G01*
G37*
G36*
G01*
X164150000Y-107100000D02*
X165450000Y-107100000D01*
G75*
G02*
X165700000Y-107350000I0J-250000D01*
G01*
X165700000Y-108050000D01*
G75*
G02*
X165450000Y-108300000I-250000J0D01*
G01*
X164150000Y-108300000D01*
G75*
G02*
X163900000Y-108050000I0J250000D01*
G01*
X163900000Y-107350000D01*
G75*
G02*
X164150000Y-107100000I250000J0D01*
G01*
G37*
G04 #@! TD*
G04 #@! TO.C,R5*
G36*
G01*
X137680000Y-112515000D02*
X137680000Y-112885000D01*
G75*
G02*
X137545000Y-113020000I-135000J0D01*
G01*
X137275000Y-113020000D01*
G75*
G02*
X137140000Y-112885000I0J135000D01*
G01*
X137140000Y-112515000D01*
G75*
G02*
X137275000Y-112380000I135000J0D01*
G01*
X137545000Y-112380000D01*
G75*
G02*
X137680000Y-112515000I0J-135000D01*
G01*
G37*
G36*
G01*
X136660000Y-112515000D02*
X136660000Y-112885000D01*
G75*
G02*
X136525000Y-113020000I-135000J0D01*
G01*
X136255000Y-113020000D01*
G75*
G02*
X136120000Y-112885000I0J135000D01*
G01*
X136120000Y-112515000D01*
G75*
G02*
X136255000Y-112380000I135000J0D01*
G01*
X136525000Y-112380000D01*
G75*
G02*
X136660000Y-112515000I0J-135000D01*
G01*
G37*
G04 #@! TD*
G04 #@! TO.C,C4*
G36*
G01*
X152770000Y-93610000D02*
X152430000Y-93610000D01*
G75*
G02*
X152290000Y-93470000I0J140000D01*
G01*
X152290000Y-93190000D01*
G75*
G02*
X152430000Y-93050000I140000J0D01*
G01*
X152770000Y-93050000D01*
G75*
G02*
X152910000Y-93190000I0J-140000D01*
G01*
X152910000Y-93470000D01*
G75*
G02*
X152770000Y-93610000I-140000J0D01*
G01*
G37*
G36*
G01*
X152770000Y-92650000D02*
X152430000Y-92650000D01*
G75*
G02*
X152290000Y-92510000I0J140000D01*
G01*
X152290000Y-92230000D01*
G75*
G02*
X152430000Y-92090000I140000J0D01*
G01*
X152770000Y-92090000D01*
G75*
G02*
X152910000Y-92230000I0J-140000D01*
G01*
X152910000Y-92510000D01*
G75*
G02*
X152770000Y-92650000I-140000J0D01*
G01*
G37*
G04 #@! TD*
D14*
G04 #@! TO.C,TP4*
X144000000Y-90200000D03*
G04 #@! TD*
D17*
G04 #@! TO.C,J3*
X136400000Y-114350000D03*
D18*
X134925000Y-115875000D03*
X137875000Y-115875000D03*
G04 #@! TD*
D14*
G04 #@! TO.C,TP10*
X135400000Y-87600000D03*
G04 #@! TD*
M02*
