%TF.GenerationSoftware,KiCad,Pcbnew,(6.0.9)*%
%TF.CreationDate,2023-11-19T16:38:05-08:00*%
%TF.ProjectId,IMX283_MIPI_Camera_v2,494d5832-3833-45f4-9d49-50495f43616d,rev?*%
%TF.SameCoordinates,Original*%
%TF.FileFunction,Soldermask,Top*%
%TF.FilePolarity,Negative*%
%FSLAX46Y46*%
G04 Gerber Fmt 4.6, Leading zero omitted, Abs format (unit mm)*
G04 Created by KiCad (PCBNEW (6.0.9)) date 2023-11-19 16:38:05*
%MOMM*%
%LPD*%
G01*
G04 APERTURE LIST*
%ADD10R,0.300000X0.750000*%
%ADD11R,1.500000X1.300000*%
%ADD12R,0.700000X0.300000*%
%ADD13C,1.000000*%
%ADD14C,4.600000*%
%ADD15R,1.300000X0.300000*%
%ADD16R,2.200000X1.800000*%
%ADD17R,1.168400X0.254000*%
%ADD18R,1.500000X1.000000*%
%ADD19R,0.650000X0.850000*%
%ADD20R,0.449999X0.299999*%
G04 APERTURE END LIST*
G36*
G01*
X37025000Y-31437500D02*
X35775000Y-31437500D01*
G75*
G02*
X35625000Y-31287500I0J150000D01*
G01*
X35625000Y-30987500D01*
G75*
G02*
X35775000Y-30837500I150000J0D01*
G01*
X37025000Y-30837500D01*
G75*
G02*
X37175000Y-30987500I0J-150000D01*
G01*
X37175000Y-31287500D01*
G75*
G02*
X37025000Y-31437500I-150000J0D01*
G01*
G37*
G36*
G01*
X37025000Y-30437500D02*
X35775000Y-30437500D01*
G75*
G02*
X35625000Y-30287500I0J150000D01*
G01*
X35625000Y-29987500D01*
G75*
G02*
X35775000Y-29837500I150000J0D01*
G01*
X37025000Y-29837500D01*
G75*
G02*
X37175000Y-29987500I0J-150000D01*
G01*
X37175000Y-30287500D01*
G75*
G02*
X37025000Y-30437500I-150000J0D01*
G01*
G37*
G36*
G01*
X37025000Y-29437500D02*
X35775000Y-29437500D01*
G75*
G02*
X35625000Y-29287500I0J150000D01*
G01*
X35625000Y-28987500D01*
G75*
G02*
X35775000Y-28837500I150000J0D01*
G01*
X37025000Y-28837500D01*
G75*
G02*
X37175000Y-28987500I0J-150000D01*
G01*
X37175000Y-29287500D01*
G75*
G02*
X37025000Y-29437500I-150000J0D01*
G01*
G37*
G36*
G01*
X37025000Y-28437500D02*
X35775000Y-28437500D01*
G75*
G02*
X35625000Y-28287500I0J150000D01*
G01*
X35625000Y-27987500D01*
G75*
G02*
X35775000Y-27837500I150000J0D01*
G01*
X37025000Y-27837500D01*
G75*
G02*
X37175000Y-27987500I0J-150000D01*
G01*
X37175000Y-28287500D01*
G75*
G02*
X37025000Y-28437500I-150000J0D01*
G01*
G37*
G36*
G01*
X40925000Y-27437500D02*
X39625000Y-27437500D01*
G75*
G02*
X39375000Y-27187500I0J250000D01*
G01*
X39375000Y-26487500D01*
G75*
G02*
X39625000Y-26237500I250000J0D01*
G01*
X40925000Y-26237500D01*
G75*
G02*
X41175000Y-26487500I0J-250000D01*
G01*
X41175000Y-27187500D01*
G75*
G02*
X40925000Y-27437500I-250000J0D01*
G01*
G37*
G36*
G01*
X40925000Y-33037500D02*
X39625000Y-33037500D01*
G75*
G02*
X39375000Y-32787500I0J250000D01*
G01*
X39375000Y-32087500D01*
G75*
G02*
X39625000Y-31837500I250000J0D01*
G01*
X40925000Y-31837500D01*
G75*
G02*
X41175000Y-32087500I0J-250000D01*
G01*
X41175000Y-32787500D01*
G75*
G02*
X40925000Y-33037500I-250000J0D01*
G01*
G37*
D10*
X27590000Y-35010000D03*
X28090000Y-35010000D03*
X28590000Y-35010000D03*
X29090000Y-35010000D03*
X29090000Y-32110000D03*
X28590000Y-32110000D03*
X28090000Y-32110000D03*
X27590000Y-32110000D03*
D11*
X28340000Y-33560000D03*
G36*
G01*
X27860000Y-30530000D02*
X27860000Y-30870000D01*
G75*
G02*
X27720000Y-31010000I-140000J0D01*
G01*
X27440000Y-31010000D01*
G75*
G02*
X27300000Y-30870000I0J140000D01*
G01*
X27300000Y-30530000D01*
G75*
G02*
X27440000Y-30390000I140000J0D01*
G01*
X27720000Y-30390000D01*
G75*
G02*
X27860000Y-30530000I0J-140000D01*
G01*
G37*
G36*
G01*
X26900000Y-30530000D02*
X26900000Y-30870000D01*
G75*
G02*
X26760000Y-31010000I-140000J0D01*
G01*
X26480000Y-31010000D01*
G75*
G02*
X26340000Y-30870000I0J140000D01*
G01*
X26340000Y-30530000D01*
G75*
G02*
X26480000Y-30390000I140000J0D01*
G01*
X26760000Y-30390000D01*
G75*
G02*
X26900000Y-30530000I0J-140000D01*
G01*
G37*
G36*
G01*
X21830000Y-23040000D02*
X22170000Y-23040000D01*
G75*
G02*
X22310000Y-23180000I0J-140000D01*
G01*
X22310000Y-23460000D01*
G75*
G02*
X22170000Y-23600000I-140000J0D01*
G01*
X21830000Y-23600000D01*
G75*
G02*
X21690000Y-23460000I0J140000D01*
G01*
X21690000Y-23180000D01*
G75*
G02*
X21830000Y-23040000I140000J0D01*
G01*
G37*
G36*
G01*
X21830000Y-24000000D02*
X22170000Y-24000000D01*
G75*
G02*
X22310000Y-24140000I0J-140000D01*
G01*
X22310000Y-24420000D01*
G75*
G02*
X22170000Y-24560000I-140000J0D01*
G01*
X21830000Y-24560000D01*
G75*
G02*
X21690000Y-24420000I0J140000D01*
G01*
X21690000Y-24140000D01*
G75*
G02*
X21830000Y-24000000I140000J0D01*
G01*
G37*
D12*
X31575000Y-12212500D03*
X32825000Y-12212500D03*
X32825000Y-12762500D03*
X31575000Y-12762500D03*
G36*
G01*
X16425000Y-7387500D02*
X16425000Y-6887500D01*
G75*
G02*
X16650000Y-6662500I225000J0D01*
G01*
X17100000Y-6662500D01*
G75*
G02*
X17325000Y-6887500I0J-225000D01*
G01*
X17325000Y-7387500D01*
G75*
G02*
X17100000Y-7612500I-225000J0D01*
G01*
X16650000Y-7612500D01*
G75*
G02*
X16425000Y-7387500I0J225000D01*
G01*
G37*
G36*
G01*
X17975000Y-7387500D02*
X17975000Y-6887500D01*
G75*
G02*
X18200000Y-6662500I225000J0D01*
G01*
X18650000Y-6662500D01*
G75*
G02*
X18875000Y-6887500I0J-225000D01*
G01*
X18875000Y-7387500D01*
G75*
G02*
X18650000Y-7612500I-225000J0D01*
G01*
X18200000Y-7612500D01*
G75*
G02*
X17975000Y-7387500I0J225000D01*
G01*
G37*
G36*
G01*
X19830000Y-23040000D02*
X20170000Y-23040000D01*
G75*
G02*
X20310000Y-23180000I0J-140000D01*
G01*
X20310000Y-23460000D01*
G75*
G02*
X20170000Y-23600000I-140000J0D01*
G01*
X19830000Y-23600000D01*
G75*
G02*
X19690000Y-23460000I0J140000D01*
G01*
X19690000Y-23180000D01*
G75*
G02*
X19830000Y-23040000I140000J0D01*
G01*
G37*
G36*
G01*
X19830000Y-24000000D02*
X20170000Y-24000000D01*
G75*
G02*
X20310000Y-24140000I0J-140000D01*
G01*
X20310000Y-24420000D01*
G75*
G02*
X20170000Y-24560000I-140000J0D01*
G01*
X19830000Y-24560000D01*
G75*
G02*
X19690000Y-24420000I0J140000D01*
G01*
X19690000Y-24140000D01*
G75*
G02*
X19830000Y-24000000I140000J0D01*
G01*
G37*
G36*
G01*
X21460000Y-19830000D02*
X21460000Y-20170000D01*
G75*
G02*
X21320000Y-20310000I-140000J0D01*
G01*
X21040000Y-20310000D01*
G75*
G02*
X20900000Y-20170000I0J140000D01*
G01*
X20900000Y-19830000D01*
G75*
G02*
X21040000Y-19690000I140000J0D01*
G01*
X21320000Y-19690000D01*
G75*
G02*
X21460000Y-19830000I0J-140000D01*
G01*
G37*
G36*
G01*
X20500000Y-19830000D02*
X20500000Y-20170000D01*
G75*
G02*
X20360000Y-20310000I-140000J0D01*
G01*
X20080000Y-20310000D01*
G75*
G02*
X19940000Y-20170000I0J140000D01*
G01*
X19940000Y-19830000D01*
G75*
G02*
X20080000Y-19690000I140000J0D01*
G01*
X20360000Y-19690000D01*
G75*
G02*
X20500000Y-19830000I0J-140000D01*
G01*
G37*
G36*
G01*
X20172500Y-28580000D02*
X19827500Y-28580000D01*
G75*
G02*
X19680000Y-28432500I0J147500D01*
G01*
X19680000Y-28137500D01*
G75*
G02*
X19827500Y-27990000I147500J0D01*
G01*
X20172500Y-27990000D01*
G75*
G02*
X20320000Y-28137500I0J-147500D01*
G01*
X20320000Y-28432500D01*
G75*
G02*
X20172500Y-28580000I-147500J0D01*
G01*
G37*
G36*
G01*
X20172500Y-27610000D02*
X19827500Y-27610000D01*
G75*
G02*
X19680000Y-27462500I0J147500D01*
G01*
X19680000Y-27167500D01*
G75*
G02*
X19827500Y-27020000I147500J0D01*
G01*
X20172500Y-27020000D01*
G75*
G02*
X20320000Y-27167500I0J-147500D01*
G01*
X20320000Y-27462500D01*
G75*
G02*
X20172500Y-27610000I-147500J0D01*
G01*
G37*
G36*
G01*
X27860000Y-8067500D02*
X27860000Y-8407500D01*
G75*
G02*
X27720000Y-8547500I-140000J0D01*
G01*
X27440000Y-8547500D01*
G75*
G02*
X27300000Y-8407500I0J140000D01*
G01*
X27300000Y-8067500D01*
G75*
G02*
X27440000Y-7927500I140000J0D01*
G01*
X27720000Y-7927500D01*
G75*
G02*
X27860000Y-8067500I0J-140000D01*
G01*
G37*
G36*
G01*
X26900000Y-8067500D02*
X26900000Y-8407500D01*
G75*
G02*
X26760000Y-8547500I-140000J0D01*
G01*
X26480000Y-8547500D01*
G75*
G02*
X26340000Y-8407500I0J140000D01*
G01*
X26340000Y-8067500D01*
G75*
G02*
X26480000Y-7927500I140000J0D01*
G01*
X26760000Y-7927500D01*
G75*
G02*
X26900000Y-8067500I0J-140000D01*
G01*
G37*
D13*
X11750000Y-7637500D03*
G36*
G01*
X15280000Y-3565000D02*
X15280000Y-3935000D01*
G75*
G02*
X15145000Y-4070000I-135000J0D01*
G01*
X14875000Y-4070000D01*
G75*
G02*
X14740000Y-3935000I0J135000D01*
G01*
X14740000Y-3565000D01*
G75*
G02*
X14875000Y-3430000I135000J0D01*
G01*
X15145000Y-3430000D01*
G75*
G02*
X15280000Y-3565000I0J-135000D01*
G01*
G37*
G36*
G01*
X14260000Y-3565000D02*
X14260000Y-3935000D01*
G75*
G02*
X14125000Y-4070000I-135000J0D01*
G01*
X13855000Y-4070000D01*
G75*
G02*
X13720000Y-3935000I0J135000D01*
G01*
X13720000Y-3565000D01*
G75*
G02*
X13855000Y-3430000I135000J0D01*
G01*
X14125000Y-3430000D01*
G75*
G02*
X14260000Y-3565000I0J-135000D01*
G01*
G37*
G36*
G01*
X10830000Y-23040000D02*
X11170000Y-23040000D01*
G75*
G02*
X11310000Y-23180000I0J-140000D01*
G01*
X11310000Y-23460000D01*
G75*
G02*
X11170000Y-23600000I-140000J0D01*
G01*
X10830000Y-23600000D01*
G75*
G02*
X10690000Y-23460000I0J140000D01*
G01*
X10690000Y-23180000D01*
G75*
G02*
X10830000Y-23040000I140000J0D01*
G01*
G37*
G36*
G01*
X10830000Y-24000000D02*
X11170000Y-24000000D01*
G75*
G02*
X11310000Y-24140000I0J-140000D01*
G01*
X11310000Y-24420000D01*
G75*
G02*
X11170000Y-24560000I-140000J0D01*
G01*
X10830000Y-24560000D01*
G75*
G02*
X10690000Y-24420000I0J140000D01*
G01*
X10690000Y-24140000D01*
G75*
G02*
X10830000Y-24000000I140000J0D01*
G01*
G37*
D12*
X31575000Y-16712500D03*
X32825000Y-16712500D03*
X32825000Y-17262500D03*
X31575000Y-17262500D03*
X31575000Y-18212500D03*
X32825000Y-18212500D03*
X32825000Y-18762500D03*
X31575000Y-18762500D03*
D14*
X0Y0D03*
G36*
G01*
X22330000Y-18040000D02*
X22670000Y-18040000D01*
G75*
G02*
X22810000Y-18180000I0J-140000D01*
G01*
X22810000Y-18460000D01*
G75*
G02*
X22670000Y-18600000I-140000J0D01*
G01*
X22330000Y-18600000D01*
G75*
G02*
X22190000Y-18460000I0J140000D01*
G01*
X22190000Y-18180000D01*
G75*
G02*
X22330000Y-18040000I140000J0D01*
G01*
G37*
G36*
G01*
X22330000Y-19000000D02*
X22670000Y-19000000D01*
G75*
G02*
X22810000Y-19140000I0J-140000D01*
G01*
X22810000Y-19420000D01*
G75*
G02*
X22670000Y-19560000I-140000J0D01*
G01*
X22330000Y-19560000D01*
G75*
G02*
X22190000Y-19420000I0J140000D01*
G01*
X22190000Y-19140000D01*
G75*
G02*
X22330000Y-19000000I140000J0D01*
G01*
G37*
G36*
G01*
X12330000Y-23140000D02*
X12670000Y-23140000D01*
G75*
G02*
X12810000Y-23280000I0J-140000D01*
G01*
X12810000Y-23560000D01*
G75*
G02*
X12670000Y-23700000I-140000J0D01*
G01*
X12330000Y-23700000D01*
G75*
G02*
X12190000Y-23560000I0J140000D01*
G01*
X12190000Y-23280000D01*
G75*
G02*
X12330000Y-23140000I140000J0D01*
G01*
G37*
G36*
G01*
X12330000Y-24100000D02*
X12670000Y-24100000D01*
G75*
G02*
X12810000Y-24240000I0J-140000D01*
G01*
X12810000Y-24520000D01*
G75*
G02*
X12670000Y-24660000I-140000J0D01*
G01*
X12330000Y-24660000D01*
G75*
G02*
X12190000Y-24520000I0J140000D01*
G01*
X12190000Y-24240000D01*
G75*
G02*
X12330000Y-24100000I140000J0D01*
G01*
G37*
G36*
G01*
X9400000Y-5687500D02*
X9400000Y-6187500D01*
G75*
G02*
X9175000Y-6412500I-225000J0D01*
G01*
X8725000Y-6412500D01*
G75*
G02*
X8500000Y-6187500I0J225000D01*
G01*
X8500000Y-5687500D01*
G75*
G02*
X8725000Y-5462500I225000J0D01*
G01*
X9175000Y-5462500D01*
G75*
G02*
X9400000Y-5687500I0J-225000D01*
G01*
G37*
G36*
G01*
X7850000Y-5687500D02*
X7850000Y-6187500D01*
G75*
G02*
X7625000Y-6412500I-225000J0D01*
G01*
X7175000Y-6412500D01*
G75*
G02*
X6950000Y-6187500I0J225000D01*
G01*
X6950000Y-5687500D01*
G75*
G02*
X7175000Y-5462500I225000J0D01*
G01*
X7625000Y-5462500D01*
G75*
G02*
X7850000Y-5687500I0J-225000D01*
G01*
G37*
G36*
G01*
X18825000Y-887500D02*
X18825000Y-1387500D01*
G75*
G02*
X18600000Y-1612500I-225000J0D01*
G01*
X18150000Y-1612500D01*
G75*
G02*
X17925000Y-1387500I0J225000D01*
G01*
X17925000Y-887500D01*
G75*
G02*
X18150000Y-662500I225000J0D01*
G01*
X18600000Y-662500D01*
G75*
G02*
X18825000Y-887500I0J-225000D01*
G01*
G37*
G36*
G01*
X17275000Y-887500D02*
X17275000Y-1387500D01*
G75*
G02*
X17050000Y-1612500I-225000J0D01*
G01*
X16600000Y-1612500D01*
G75*
G02*
X16375000Y-1387500I0J225000D01*
G01*
X16375000Y-887500D01*
G75*
G02*
X16600000Y-662500I225000J0D01*
G01*
X17050000Y-662500D01*
G75*
G02*
X17275000Y-887500I0J-225000D01*
G01*
G37*
X34000000Y0D03*
G36*
G01*
X22670000Y-21560000D02*
X22330000Y-21560000D01*
G75*
G02*
X22190000Y-21420000I0J140000D01*
G01*
X22190000Y-21140000D01*
G75*
G02*
X22330000Y-21000000I140000J0D01*
G01*
X22670000Y-21000000D01*
G75*
G02*
X22810000Y-21140000I0J-140000D01*
G01*
X22810000Y-21420000D01*
G75*
G02*
X22670000Y-21560000I-140000J0D01*
G01*
G37*
G36*
G01*
X22670000Y-20600000D02*
X22330000Y-20600000D01*
G75*
G02*
X22190000Y-20460000I0J140000D01*
G01*
X22190000Y-20180000D01*
G75*
G02*
X22330000Y-20040000I140000J0D01*
G01*
X22670000Y-20040000D01*
G75*
G02*
X22810000Y-20180000I0J-140000D01*
G01*
X22810000Y-20460000D01*
G75*
G02*
X22670000Y-20600000I-140000J0D01*
G01*
G37*
G36*
G01*
X9560000Y-13930000D02*
X9560000Y-14270000D01*
G75*
G02*
X9420000Y-14410000I-140000J0D01*
G01*
X9140000Y-14410000D01*
G75*
G02*
X9000000Y-14270000I0J140000D01*
G01*
X9000000Y-13930000D01*
G75*
G02*
X9140000Y-13790000I140000J0D01*
G01*
X9420000Y-13790000D01*
G75*
G02*
X9560000Y-13930000I0J-140000D01*
G01*
G37*
G36*
G01*
X8600000Y-13930000D02*
X8600000Y-14270000D01*
G75*
G02*
X8460000Y-14410000I-140000J0D01*
G01*
X8180000Y-14410000D01*
G75*
G02*
X8040000Y-14270000I0J140000D01*
G01*
X8040000Y-13930000D01*
G75*
G02*
X8180000Y-13790000I140000J0D01*
G01*
X8460000Y-13790000D01*
G75*
G02*
X8600000Y-13930000I0J-140000D01*
G01*
G37*
D13*
X18566666Y-34237500D03*
G36*
G01*
X14870000Y-30860000D02*
X14530000Y-30860000D01*
G75*
G02*
X14390000Y-30720000I0J140000D01*
G01*
X14390000Y-30440000D01*
G75*
G02*
X14530000Y-30300000I140000J0D01*
G01*
X14870000Y-30300000D01*
G75*
G02*
X15010000Y-30440000I0J-140000D01*
G01*
X15010000Y-30720000D01*
G75*
G02*
X14870000Y-30860000I-140000J0D01*
G01*
G37*
G36*
G01*
X14870000Y-29900000D02*
X14530000Y-29900000D01*
G75*
G02*
X14390000Y-29760000I0J140000D01*
G01*
X14390000Y-29480000D01*
G75*
G02*
X14530000Y-29340000I140000J0D01*
G01*
X14870000Y-29340000D01*
G75*
G02*
X15010000Y-29480000I0J-140000D01*
G01*
X15010000Y-29760000D01*
G75*
G02*
X14870000Y-29900000I-140000J0D01*
G01*
G37*
X13233334Y-34237500D03*
G36*
G01*
X27400000Y-2437500D02*
X27700000Y-2437500D01*
G75*
G02*
X27850000Y-2587500I0J-150000D01*
G01*
X27850000Y-3612500D01*
G75*
G02*
X27700000Y-3762500I-150000J0D01*
G01*
X27400000Y-3762500D01*
G75*
G02*
X27250000Y-3612500I0J150000D01*
G01*
X27250000Y-2587500D01*
G75*
G02*
X27400000Y-2437500I150000J0D01*
G01*
G37*
G36*
G01*
X26450000Y-2437500D02*
X26750000Y-2437500D01*
G75*
G02*
X26900000Y-2587500I0J-150000D01*
G01*
X26900000Y-3612500D01*
G75*
G02*
X26750000Y-3762500I-150000J0D01*
G01*
X26450000Y-3762500D01*
G75*
G02*
X26300000Y-3612500I0J150000D01*
G01*
X26300000Y-2587500D01*
G75*
G02*
X26450000Y-2437500I150000J0D01*
G01*
G37*
G36*
G01*
X25500000Y-2437500D02*
X25800000Y-2437500D01*
G75*
G02*
X25950000Y-2587500I0J-150000D01*
G01*
X25950000Y-3612500D01*
G75*
G02*
X25800000Y-3762500I-150000J0D01*
G01*
X25500000Y-3762500D01*
G75*
G02*
X25350000Y-3612500I0J150000D01*
G01*
X25350000Y-2587500D01*
G75*
G02*
X25500000Y-2437500I150000J0D01*
G01*
G37*
G36*
G01*
X25500000Y-4712500D02*
X25800000Y-4712500D01*
G75*
G02*
X25950000Y-4862500I0J-150000D01*
G01*
X25950000Y-5887500D01*
G75*
G02*
X25800000Y-6037500I-150000J0D01*
G01*
X25500000Y-6037500D01*
G75*
G02*
X25350000Y-5887500I0J150000D01*
G01*
X25350000Y-4862500D01*
G75*
G02*
X25500000Y-4712500I150000J0D01*
G01*
G37*
G36*
G01*
X27400000Y-4712500D02*
X27700000Y-4712500D01*
G75*
G02*
X27850000Y-4862500I0J-150000D01*
G01*
X27850000Y-5887500D01*
G75*
G02*
X27700000Y-6037500I-150000J0D01*
G01*
X27400000Y-6037500D01*
G75*
G02*
X27250000Y-5887500I0J150000D01*
G01*
X27250000Y-4862500D01*
G75*
G02*
X27400000Y-4712500I150000J0D01*
G01*
G37*
D15*
X34887500Y-22250000D03*
X34887500Y-21750000D03*
X34887500Y-21250000D03*
X34887500Y-20750000D03*
X34887500Y-20250000D03*
X34887500Y-19750000D03*
X34887500Y-19250000D03*
X34887500Y-18750000D03*
X34887500Y-18250000D03*
X34887500Y-17750000D03*
X34887500Y-17250000D03*
X34887500Y-16750000D03*
X34887500Y-16250000D03*
X34887500Y-15750000D03*
X34887500Y-15250000D03*
X34887500Y-14750000D03*
X34887500Y-14250000D03*
X34887500Y-13750000D03*
X34887500Y-13250000D03*
X34887500Y-12750000D03*
X34887500Y-12250000D03*
X34887500Y-11750000D03*
D16*
X38137500Y-24150000D03*
X38137500Y-9850000D03*
G36*
G01*
X8800000Y-937500D02*
X9100000Y-937500D01*
G75*
G02*
X9250000Y-1087500I0J-150000D01*
G01*
X9250000Y-2112500D01*
G75*
G02*
X9100000Y-2262500I-150000J0D01*
G01*
X8800000Y-2262500D01*
G75*
G02*
X8650000Y-2112500I0J150000D01*
G01*
X8650000Y-1087500D01*
G75*
G02*
X8800000Y-937500I150000J0D01*
G01*
G37*
G36*
G01*
X7850000Y-937500D02*
X8150000Y-937500D01*
G75*
G02*
X8300000Y-1087500I0J-150000D01*
G01*
X8300000Y-2112500D01*
G75*
G02*
X8150000Y-2262500I-150000J0D01*
G01*
X7850000Y-2262500D01*
G75*
G02*
X7700000Y-2112500I0J150000D01*
G01*
X7700000Y-1087500D01*
G75*
G02*
X7850000Y-937500I150000J0D01*
G01*
G37*
G36*
G01*
X6900000Y-937500D02*
X7200000Y-937500D01*
G75*
G02*
X7350000Y-1087500I0J-150000D01*
G01*
X7350000Y-2112500D01*
G75*
G02*
X7200000Y-2262500I-150000J0D01*
G01*
X6900000Y-2262500D01*
G75*
G02*
X6750000Y-2112500I0J150000D01*
G01*
X6750000Y-1087500D01*
G75*
G02*
X6900000Y-937500I150000J0D01*
G01*
G37*
G36*
G01*
X6900000Y-3212500D02*
X7200000Y-3212500D01*
G75*
G02*
X7350000Y-3362500I0J-150000D01*
G01*
X7350000Y-4387500D01*
G75*
G02*
X7200000Y-4537500I-150000J0D01*
G01*
X6900000Y-4537500D01*
G75*
G02*
X6750000Y-4387500I0J150000D01*
G01*
X6750000Y-3362500D01*
G75*
G02*
X6900000Y-3212500I150000J0D01*
G01*
G37*
G36*
G01*
X8800000Y-3212500D02*
X9100000Y-3212500D01*
G75*
G02*
X9250000Y-3362500I0J-150000D01*
G01*
X9250000Y-4387500D01*
G75*
G02*
X9100000Y-4537500I-150000J0D01*
G01*
X8800000Y-4537500D01*
G75*
G02*
X8650000Y-4387500I0J150000D01*
G01*
X8650000Y-3362500D01*
G75*
G02*
X8800000Y-3212500I150000J0D01*
G01*
G37*
G36*
G01*
X21585000Y-22517500D02*
X21215000Y-22517500D01*
G75*
G02*
X21080000Y-22382500I0J135000D01*
G01*
X21080000Y-22112500D01*
G75*
G02*
X21215000Y-21977500I135000J0D01*
G01*
X21585000Y-21977500D01*
G75*
G02*
X21720000Y-22112500I0J-135000D01*
G01*
X21720000Y-22382500D01*
G75*
G02*
X21585000Y-22517500I-135000J0D01*
G01*
G37*
G36*
G01*
X21585000Y-21497500D02*
X21215000Y-21497500D01*
G75*
G02*
X21080000Y-21362500I0J135000D01*
G01*
X21080000Y-21092500D01*
G75*
G02*
X21215000Y-20957500I135000J0D01*
G01*
X21585000Y-20957500D01*
G75*
G02*
X21720000Y-21092500I0J-135000D01*
G01*
X21720000Y-21362500D01*
G75*
G02*
X21585000Y-21497500I-135000J0D01*
G01*
G37*
D13*
X21300002Y-34237500D03*
D17*
X19121600Y-31000001D03*
X19121600Y-30500000D03*
X19121600Y-30000000D03*
X19121600Y-29499999D03*
X16378400Y-29499999D03*
X16378400Y-30000000D03*
X16378400Y-30500000D03*
X16378400Y-31000001D03*
G36*
X14800000Y-1450000D02*
G01*
X14800000Y-2000000D01*
X14795033Y-2000000D01*
X14793568Y-2079941D01*
X14751293Y-2215256D01*
X14672738Y-2333266D01*
X14564219Y-2424486D01*
X14434460Y-2481581D01*
X14300000Y-2499164D01*
X14300000Y-2500000D01*
X13800000Y-2500000D01*
X13800000Y-2499164D01*
X13793891Y-2499963D01*
X13653814Y-2478152D01*
X13525489Y-2417904D01*
X13419231Y-2324060D01*
X13343583Y-2204165D01*
X13304626Y-2067858D01*
X13305041Y-2000000D01*
X13300000Y-2000000D01*
X13300000Y-1450000D01*
X14800000Y-1450000D01*
G37*
D18*
X14050000Y-700000D03*
G36*
X13305041Y600000D02*
G01*
X13305492Y673905D01*
X13346111Y809726D01*
X13423218Y928688D01*
X13530615Y1021226D01*
X13659667Y1079903D01*
X13800000Y1100000D01*
X14300000Y1100000D01*
X14312216Y1099851D01*
X14452017Y1076331D01*
X14579596Y1014519D01*
X14684700Y919384D01*
X14758877Y798574D01*
X14796166Y661801D01*
X14795033Y600000D01*
X14800000Y600000D01*
X14800000Y50000D01*
X13300000Y50000D01*
X13300000Y600000D01*
X13305041Y600000D01*
G37*
G36*
G01*
X12425000Y718750D02*
X12425000Y206250D01*
G75*
G02*
X12206250Y-12500I-218750J0D01*
G01*
X11768750Y-12500D01*
G75*
G02*
X11550000Y206250I0J218750D01*
G01*
X11550000Y718750D01*
G75*
G02*
X11768750Y937500I218750J0D01*
G01*
X12206250Y937500D01*
G75*
G02*
X12425000Y718750I0J-218750D01*
G01*
G37*
G36*
G01*
X10850000Y718750D02*
X10850000Y206250D01*
G75*
G02*
X10631250Y-12500I-218750J0D01*
G01*
X10193750Y-12500D01*
G75*
G02*
X9975000Y206250I0J218750D01*
G01*
X9975000Y718750D01*
G75*
G02*
X10193750Y937500I218750J0D01*
G01*
X10631250Y937500D01*
G75*
G02*
X10850000Y718750I0J-218750D01*
G01*
G37*
G36*
G01*
X21270000Y-10960000D02*
X20930000Y-10960000D01*
G75*
G02*
X20790000Y-10820000I0J140000D01*
G01*
X20790000Y-10540000D01*
G75*
G02*
X20930000Y-10400000I140000J0D01*
G01*
X21270000Y-10400000D01*
G75*
G02*
X21410000Y-10540000I0J-140000D01*
G01*
X21410000Y-10820000D01*
G75*
G02*
X21270000Y-10960000I-140000J0D01*
G01*
G37*
G36*
G01*
X21270000Y-10000000D02*
X20930000Y-10000000D01*
G75*
G02*
X20790000Y-9860000I0J140000D01*
G01*
X20790000Y-9580000D01*
G75*
G02*
X20930000Y-9440000I140000J0D01*
G01*
X21270000Y-9440000D01*
G75*
G02*
X21410000Y-9580000I0J-140000D01*
G01*
X21410000Y-9860000D01*
G75*
G02*
X21270000Y-10000000I-140000J0D01*
G01*
G37*
G36*
G01*
X12670000Y-10860000D02*
X12330000Y-10860000D01*
G75*
G02*
X12190000Y-10720000I0J140000D01*
G01*
X12190000Y-10440000D01*
G75*
G02*
X12330000Y-10300000I140000J0D01*
G01*
X12670000Y-10300000D01*
G75*
G02*
X12810000Y-10440000I0J-140000D01*
G01*
X12810000Y-10720000D01*
G75*
G02*
X12670000Y-10860000I-140000J0D01*
G01*
G37*
G36*
G01*
X12670000Y-9900000D02*
X12330000Y-9900000D01*
G75*
G02*
X12190000Y-9760000I0J140000D01*
G01*
X12190000Y-9480000D01*
G75*
G02*
X12330000Y-9340000I140000J0D01*
G01*
X12670000Y-9340000D01*
G75*
G02*
X12810000Y-9480000I0J-140000D01*
G01*
X12810000Y-9760000D01*
G75*
G02*
X12670000Y-9900000I-140000J0D01*
G01*
G37*
G36*
G01*
X20356250Y-1562500D02*
X19843750Y-1562500D01*
G75*
G02*
X19625000Y-1343750I0J218750D01*
G01*
X19625000Y-906250D01*
G75*
G02*
X19843750Y-687500I218750J0D01*
G01*
X20356250Y-687500D01*
G75*
G02*
X20575000Y-906250I0J-218750D01*
G01*
X20575000Y-1343750D01*
G75*
G02*
X20356250Y-1562500I-218750J0D01*
G01*
G37*
G36*
G01*
X20356250Y12500D02*
X19843750Y12500D01*
G75*
G02*
X19625000Y231250I0J218750D01*
G01*
X19625000Y668750D01*
G75*
G02*
X19843750Y887500I218750J0D01*
G01*
X20356250Y887500D01*
G75*
G02*
X20575000Y668750I0J-218750D01*
G01*
X20575000Y231250D01*
G75*
G02*
X20356250Y12500I-218750J0D01*
G01*
G37*
G36*
G01*
X13720000Y-5035000D02*
X13720000Y-4665000D01*
G75*
G02*
X13855000Y-4530000I135000J0D01*
G01*
X14125000Y-4530000D01*
G75*
G02*
X14260000Y-4665000I0J-135000D01*
G01*
X14260000Y-5035000D01*
G75*
G02*
X14125000Y-5170000I-135000J0D01*
G01*
X13855000Y-5170000D01*
G75*
G02*
X13720000Y-5035000I0J135000D01*
G01*
G37*
G36*
G01*
X14740000Y-5035000D02*
X14740000Y-4665000D01*
G75*
G02*
X14875000Y-4530000I135000J0D01*
G01*
X15145000Y-4530000D01*
G75*
G02*
X15280000Y-4665000I0J-135000D01*
G01*
X15280000Y-5035000D01*
G75*
G02*
X15145000Y-5170000I-135000J0D01*
G01*
X14875000Y-5170000D01*
G75*
G02*
X14740000Y-5035000I0J135000D01*
G01*
G37*
D13*
X10500002Y-34237500D03*
G36*
G01*
X23420000Y-11185000D02*
X23420000Y-10815000D01*
G75*
G02*
X23555000Y-10680000I135000J0D01*
G01*
X23825000Y-10680000D01*
G75*
G02*
X23960000Y-10815000I0J-135000D01*
G01*
X23960000Y-11185000D01*
G75*
G02*
X23825000Y-11320000I-135000J0D01*
G01*
X23555000Y-11320000D01*
G75*
G02*
X23420000Y-11185000I0J135000D01*
G01*
G37*
G36*
G01*
X24440000Y-11185000D02*
X24440000Y-10815000D01*
G75*
G02*
X24575000Y-10680000I135000J0D01*
G01*
X24845000Y-10680000D01*
G75*
G02*
X24980000Y-10815000I0J-135000D01*
G01*
X24980000Y-11185000D01*
G75*
G02*
X24845000Y-11320000I-135000J0D01*
G01*
X24575000Y-11320000D01*
G75*
G02*
X24440000Y-11185000I0J135000D01*
G01*
G37*
X32900000Y-6600000D03*
G36*
G01*
X19818750Y-4637500D02*
X20581250Y-4637500D01*
G75*
G02*
X20800000Y-4856250I0J-218750D01*
G01*
X20800000Y-5293750D01*
G75*
G02*
X20581250Y-5512500I-218750J0D01*
G01*
X19818750Y-5512500D01*
G75*
G02*
X19600000Y-5293750I0J218750D01*
G01*
X19600000Y-4856250D01*
G75*
G02*
X19818750Y-4637500I218750J0D01*
G01*
G37*
G36*
G01*
X19818750Y-6762500D02*
X20581250Y-6762500D01*
G75*
G02*
X20800000Y-6981250I0J-218750D01*
G01*
X20800000Y-7418750D01*
G75*
G02*
X20581250Y-7637500I-218750J0D01*
G01*
X19818750Y-7637500D01*
G75*
G02*
X19600000Y-7418750I0J218750D01*
G01*
X19600000Y-6981250D01*
G75*
G02*
X19818750Y-6762500I218750J0D01*
G01*
G37*
G36*
G01*
X6875000Y212500D02*
X6875000Y712500D01*
G75*
G02*
X7100000Y937500I225000J0D01*
G01*
X7550000Y937500D01*
G75*
G02*
X7775000Y712500I0J-225000D01*
G01*
X7775000Y212500D01*
G75*
G02*
X7550000Y-12500I-225000J0D01*
G01*
X7100000Y-12500D01*
G75*
G02*
X6875000Y212500I0J225000D01*
G01*
G37*
G36*
G01*
X8425000Y212500D02*
X8425000Y712500D01*
G75*
G02*
X8650000Y937500I225000J0D01*
G01*
X9100000Y937500D01*
G75*
G02*
X9325000Y712500I0J-225000D01*
G01*
X9325000Y212500D01*
G75*
G02*
X9100000Y-12500I-225000J0D01*
G01*
X8650000Y-12500D01*
G75*
G02*
X8425000Y212500I0J225000D01*
G01*
G37*
G36*
G01*
X17170000Y-10980000D02*
X16830000Y-10980000D01*
G75*
G02*
X16690000Y-10840000I0J140000D01*
G01*
X16690000Y-10560000D01*
G75*
G02*
X16830000Y-10420000I140000J0D01*
G01*
X17170000Y-10420000D01*
G75*
G02*
X17310000Y-10560000I0J-140000D01*
G01*
X17310000Y-10840000D01*
G75*
G02*
X17170000Y-10980000I-140000J0D01*
G01*
G37*
G36*
G01*
X17170000Y-10020000D02*
X16830000Y-10020000D01*
G75*
G02*
X16690000Y-9880000I0J140000D01*
G01*
X16690000Y-9600000D01*
G75*
G02*
X16830000Y-9460000I140000J0D01*
G01*
X17170000Y-9460000D01*
G75*
G02*
X17310000Y-9600000I0J-140000D01*
G01*
X17310000Y-9880000D01*
G75*
G02*
X17170000Y-10020000I-140000J0D01*
G01*
G37*
X32900000Y-4400000D03*
G36*
G01*
X9460000Y-21330000D02*
X9460000Y-21670000D01*
G75*
G02*
X9320000Y-21810000I-140000J0D01*
G01*
X9040000Y-21810000D01*
G75*
G02*
X8900000Y-21670000I0J140000D01*
G01*
X8900000Y-21330000D01*
G75*
G02*
X9040000Y-21190000I140000J0D01*
G01*
X9320000Y-21190000D01*
G75*
G02*
X9460000Y-21330000I0J-140000D01*
G01*
G37*
G36*
G01*
X8500000Y-21330000D02*
X8500000Y-21670000D01*
G75*
G02*
X8360000Y-21810000I-140000J0D01*
G01*
X8080000Y-21810000D01*
G75*
G02*
X7940000Y-21670000I0J140000D01*
G01*
X7940000Y-21330000D01*
G75*
G02*
X8080000Y-21190000I140000J0D01*
G01*
X8360000Y-21190000D01*
G75*
G02*
X8500000Y-21330000I0J-140000D01*
G01*
G37*
G36*
G01*
X9740000Y-9707500D02*
X9740000Y-9367500D01*
G75*
G02*
X9880000Y-9227500I140000J0D01*
G01*
X10160000Y-9227500D01*
G75*
G02*
X10300000Y-9367500I0J-140000D01*
G01*
X10300000Y-9707500D01*
G75*
G02*
X10160000Y-9847500I-140000J0D01*
G01*
X9880000Y-9847500D01*
G75*
G02*
X9740000Y-9707500I0J140000D01*
G01*
G37*
G36*
G01*
X10700000Y-9707500D02*
X10700000Y-9367500D01*
G75*
G02*
X10840000Y-9227500I140000J0D01*
G01*
X11120000Y-9227500D01*
G75*
G02*
X11260000Y-9367500I0J-140000D01*
G01*
X11260000Y-9707500D01*
G75*
G02*
X11120000Y-9847500I-140000J0D01*
G01*
X10840000Y-9847500D01*
G75*
G02*
X10700000Y-9707500I0J140000D01*
G01*
G37*
G36*
G01*
X13065000Y-31207500D02*
X13435000Y-31207500D01*
G75*
G02*
X13570000Y-31342500I0J-135000D01*
G01*
X13570000Y-31612500D01*
G75*
G02*
X13435000Y-31747500I-135000J0D01*
G01*
X13065000Y-31747500D01*
G75*
G02*
X12930000Y-31612500I0J135000D01*
G01*
X12930000Y-31342500D01*
G75*
G02*
X13065000Y-31207500I135000J0D01*
G01*
G37*
G36*
G01*
X13065000Y-32227500D02*
X13435000Y-32227500D01*
G75*
G02*
X13570000Y-32362500I0J-135000D01*
G01*
X13570000Y-32632500D01*
G75*
G02*
X13435000Y-32767500I-135000J0D01*
G01*
X13065000Y-32767500D01*
G75*
G02*
X12930000Y-32632500I0J135000D01*
G01*
X12930000Y-32362500D01*
G75*
G02*
X13065000Y-32227500I135000J0D01*
G01*
G37*
G36*
G01*
X20480000Y-29590000D02*
X20820000Y-29590000D01*
G75*
G02*
X20960000Y-29730000I0J-140000D01*
G01*
X20960000Y-30010000D01*
G75*
G02*
X20820000Y-30150000I-140000J0D01*
G01*
X20480000Y-30150000D01*
G75*
G02*
X20340000Y-30010000I0J140000D01*
G01*
X20340000Y-29730000D01*
G75*
G02*
X20480000Y-29590000I140000J0D01*
G01*
G37*
G36*
G01*
X20480000Y-30550000D02*
X20820000Y-30550000D01*
G75*
G02*
X20960000Y-30690000I0J-140000D01*
G01*
X20960000Y-30970000D01*
G75*
G02*
X20820000Y-31110000I-140000J0D01*
G01*
X20480000Y-31110000D01*
G75*
G02*
X20340000Y-30970000I0J140000D01*
G01*
X20340000Y-30690000D01*
G75*
G02*
X20480000Y-30550000I140000J0D01*
G01*
G37*
X8900000Y-7737500D03*
G36*
G01*
X12385000Y-2380000D02*
X12015000Y-2380000D01*
G75*
G02*
X11880000Y-2245000I0J135000D01*
G01*
X11880000Y-1975000D01*
G75*
G02*
X12015000Y-1840000I135000J0D01*
G01*
X12385000Y-1840000D01*
G75*
G02*
X12520000Y-1975000I0J-135000D01*
G01*
X12520000Y-2245000D01*
G75*
G02*
X12385000Y-2380000I-135000J0D01*
G01*
G37*
G36*
G01*
X12385000Y-1360000D02*
X12015000Y-1360000D01*
G75*
G02*
X11880000Y-1225000I0J135000D01*
G01*
X11880000Y-955000D01*
G75*
G02*
X12015000Y-820000I135000J0D01*
G01*
X12385000Y-820000D01*
G75*
G02*
X12520000Y-955000I0J-135000D01*
G01*
X12520000Y-1225000D01*
G75*
G02*
X12385000Y-1360000I-135000J0D01*
G01*
G37*
D12*
X31575000Y-13712500D03*
X32825000Y-13712500D03*
X32825000Y-14262500D03*
X31575000Y-14262500D03*
G36*
G01*
X8150000Y-18962500D02*
X7650000Y-18962500D01*
G75*
G02*
X7425000Y-18737500I0J225000D01*
G01*
X7425000Y-18287500D01*
G75*
G02*
X7650000Y-18062500I225000J0D01*
G01*
X8150000Y-18062500D01*
G75*
G02*
X8375000Y-18287500I0J-225000D01*
G01*
X8375000Y-18737500D01*
G75*
G02*
X8150000Y-18962500I-225000J0D01*
G01*
G37*
G36*
G01*
X8150000Y-17412500D02*
X7650000Y-17412500D01*
G75*
G02*
X7425000Y-17187500I0J225000D01*
G01*
X7425000Y-16737500D01*
G75*
G02*
X7650000Y-16512500I225000J0D01*
G01*
X8150000Y-16512500D01*
G75*
G02*
X8375000Y-16737500I0J-225000D01*
G01*
X8375000Y-17187500D01*
G75*
G02*
X8150000Y-17412500I-225000J0D01*
G01*
G37*
G36*
G01*
X9250000Y-16512500D02*
X9750000Y-16512500D01*
G75*
G02*
X9975000Y-16737500I0J-225000D01*
G01*
X9975000Y-17187500D01*
G75*
G02*
X9750000Y-17412500I-225000J0D01*
G01*
X9250000Y-17412500D01*
G75*
G02*
X9025000Y-17187500I0J225000D01*
G01*
X9025000Y-16737500D01*
G75*
G02*
X9250000Y-16512500I225000J0D01*
G01*
G37*
G36*
G01*
X9250000Y-18062500D02*
X9750000Y-18062500D01*
G75*
G02*
X9975000Y-18287500I0J-225000D01*
G01*
X9975000Y-18737500D01*
G75*
G02*
X9750000Y-18962500I-225000J0D01*
G01*
X9250000Y-18962500D01*
G75*
G02*
X9025000Y-18737500I0J225000D01*
G01*
X9025000Y-18287500D01*
G75*
G02*
X9250000Y-18062500I225000J0D01*
G01*
G37*
G36*
G01*
X21460000Y-18380000D02*
X21460000Y-18720000D01*
G75*
G02*
X21320000Y-18860000I-140000J0D01*
G01*
X21040000Y-18860000D01*
G75*
G02*
X20900000Y-18720000I0J140000D01*
G01*
X20900000Y-18380000D01*
G75*
G02*
X21040000Y-18240000I140000J0D01*
G01*
X21320000Y-18240000D01*
G75*
G02*
X21460000Y-18380000I0J-140000D01*
G01*
G37*
G36*
G01*
X20500000Y-18380000D02*
X20500000Y-18720000D01*
G75*
G02*
X20360000Y-18860000I-140000J0D01*
G01*
X20080000Y-18860000D01*
G75*
G02*
X19940000Y-18720000I0J140000D01*
G01*
X19940000Y-18380000D01*
G75*
G02*
X20080000Y-18240000I140000J0D01*
G01*
X20360000Y-18240000D01*
G75*
G02*
X20500000Y-18380000I0J-140000D01*
G01*
G37*
G36*
G01*
X16830000Y-23040000D02*
X17170000Y-23040000D01*
G75*
G02*
X17310000Y-23180000I0J-140000D01*
G01*
X17310000Y-23460000D01*
G75*
G02*
X17170000Y-23600000I-140000J0D01*
G01*
X16830000Y-23600000D01*
G75*
G02*
X16690000Y-23460000I0J140000D01*
G01*
X16690000Y-23180000D01*
G75*
G02*
X16830000Y-23040000I140000J0D01*
G01*
G37*
G36*
G01*
X16830000Y-24000000D02*
X17170000Y-24000000D01*
G75*
G02*
X17310000Y-24140000I0J-140000D01*
G01*
X17310000Y-24420000D01*
G75*
G02*
X17170000Y-24560000I-140000J0D01*
G01*
X16830000Y-24560000D01*
G75*
G02*
X16690000Y-24420000I0J140000D01*
G01*
X16690000Y-24140000D01*
G75*
G02*
X16830000Y-24000000I140000J0D01*
G01*
G37*
G36*
G01*
X19830000Y-25127500D02*
X20170000Y-25127500D01*
G75*
G02*
X20310000Y-25267500I0J-140000D01*
G01*
X20310000Y-25547500D01*
G75*
G02*
X20170000Y-25687500I-140000J0D01*
G01*
X19830000Y-25687500D01*
G75*
G02*
X19690000Y-25547500I0J140000D01*
G01*
X19690000Y-25267500D01*
G75*
G02*
X19830000Y-25127500I140000J0D01*
G01*
G37*
G36*
G01*
X19830000Y-26087500D02*
X20170000Y-26087500D01*
G75*
G02*
X20310000Y-26227500I0J-140000D01*
G01*
X20310000Y-26507500D01*
G75*
G02*
X20170000Y-26647500I-140000J0D01*
G01*
X19830000Y-26647500D01*
G75*
G02*
X19690000Y-26507500I0J140000D01*
G01*
X19690000Y-26227500D01*
G75*
G02*
X19830000Y-26087500I140000J0D01*
G01*
G37*
D14*
X34000000Y-34000000D03*
D13*
X15900000Y-34237500D03*
G36*
G01*
X30925000Y-981250D02*
X30925000Y-1493750D01*
G75*
G02*
X30706250Y-1712500I-218750J0D01*
G01*
X30268750Y-1712500D01*
G75*
G02*
X30050000Y-1493750I0J218750D01*
G01*
X30050000Y-981250D01*
G75*
G02*
X30268750Y-762500I218750J0D01*
G01*
X30706250Y-762500D01*
G75*
G02*
X30925000Y-981250I0J-218750D01*
G01*
G37*
G36*
G01*
X29350000Y-981250D02*
X29350000Y-1493750D01*
G75*
G02*
X29131250Y-1712500I-218750J0D01*
G01*
X28693750Y-1712500D01*
G75*
G02*
X28475000Y-1493750I0J218750D01*
G01*
X28475000Y-981250D01*
G75*
G02*
X28693750Y-762500I218750J0D01*
G01*
X29131250Y-762500D01*
G75*
G02*
X29350000Y-981250I0J-218750D01*
G01*
G37*
G36*
G01*
X23760000Y-22167500D02*
X23760000Y-22507500D01*
G75*
G02*
X23620000Y-22647500I-140000J0D01*
G01*
X23340000Y-22647500D01*
G75*
G02*
X23200000Y-22507500I0J140000D01*
G01*
X23200000Y-22167500D01*
G75*
G02*
X23340000Y-22027500I140000J0D01*
G01*
X23620000Y-22027500D01*
G75*
G02*
X23760000Y-22167500I0J-140000D01*
G01*
G37*
G36*
G01*
X22800000Y-22167500D02*
X22800000Y-22507500D01*
G75*
G02*
X22660000Y-22647500I-140000J0D01*
G01*
X22380000Y-22647500D01*
G75*
G02*
X22240000Y-22507500I0J140000D01*
G01*
X22240000Y-22167500D01*
G75*
G02*
X22380000Y-22027500I140000J0D01*
G01*
X22660000Y-22027500D01*
G75*
G02*
X22800000Y-22167500I0J-140000D01*
G01*
G37*
G36*
G01*
X21560000Y-14830000D02*
X21560000Y-15170000D01*
G75*
G02*
X21420000Y-15310000I-140000J0D01*
G01*
X21140000Y-15310000D01*
G75*
G02*
X21000000Y-15170000I0J140000D01*
G01*
X21000000Y-14830000D01*
G75*
G02*
X21140000Y-14690000I140000J0D01*
G01*
X21420000Y-14690000D01*
G75*
G02*
X21560000Y-14830000I0J-140000D01*
G01*
G37*
G36*
G01*
X20600000Y-14830000D02*
X20600000Y-15170000D01*
G75*
G02*
X20460000Y-15310000I-140000J0D01*
G01*
X20180000Y-15310000D01*
G75*
G02*
X20040000Y-15170000I0J140000D01*
G01*
X20040000Y-14830000D01*
G75*
G02*
X20180000Y-14690000I140000J0D01*
G01*
X20460000Y-14690000D01*
G75*
G02*
X20600000Y-14830000I0J-140000D01*
G01*
G37*
G36*
G01*
X18330000Y-12520000D02*
X18670000Y-12520000D01*
G75*
G02*
X18810000Y-12660000I0J-140000D01*
G01*
X18810000Y-12940000D01*
G75*
G02*
X18670000Y-13080000I-140000J0D01*
G01*
X18330000Y-13080000D01*
G75*
G02*
X18190000Y-12940000I0J140000D01*
G01*
X18190000Y-12660000D01*
G75*
G02*
X18330000Y-12520000I140000J0D01*
G01*
G37*
G36*
G01*
X18330000Y-13480000D02*
X18670000Y-13480000D01*
G75*
G02*
X18810000Y-13620000I0J-140000D01*
G01*
X18810000Y-13900000D01*
G75*
G02*
X18670000Y-14040000I-140000J0D01*
G01*
X18330000Y-14040000D01*
G75*
G02*
X18190000Y-13900000I0J140000D01*
G01*
X18190000Y-13620000D01*
G75*
G02*
X18330000Y-13480000I140000J0D01*
G01*
G37*
X4800000Y-1537500D03*
D19*
X27575000Y-9462500D03*
X25925000Y-9462500D03*
X25925000Y-11012500D03*
X27575000Y-11012500D03*
D13*
X23500000Y-4500000D03*
G36*
G01*
X21540000Y-13830000D02*
X21540000Y-14170000D01*
G75*
G02*
X21400000Y-14310000I-140000J0D01*
G01*
X21120000Y-14310000D01*
G75*
G02*
X20980000Y-14170000I0J140000D01*
G01*
X20980000Y-13830000D01*
G75*
G02*
X21120000Y-13690000I140000J0D01*
G01*
X21400000Y-13690000D01*
G75*
G02*
X21540000Y-13830000I0J-140000D01*
G01*
G37*
G36*
G01*
X20580000Y-13830000D02*
X20580000Y-14170000D01*
G75*
G02*
X20440000Y-14310000I-140000J0D01*
G01*
X20160000Y-14310000D01*
G75*
G02*
X20020000Y-14170000I0J140000D01*
G01*
X20020000Y-13830000D01*
G75*
G02*
X20160000Y-13690000I140000J0D01*
G01*
X20440000Y-13690000D01*
G75*
G02*
X20580000Y-13830000I0J-140000D01*
G01*
G37*
X23900002Y-34237500D03*
G36*
G01*
X11440000Y-13930000D02*
X11440000Y-14270000D01*
G75*
G02*
X11300000Y-14410000I-140000J0D01*
G01*
X11020000Y-14410000D01*
G75*
G02*
X10880000Y-14270000I0J140000D01*
G01*
X10880000Y-13930000D01*
G75*
G02*
X11020000Y-13790000I140000J0D01*
G01*
X11300000Y-13790000D01*
G75*
G02*
X11440000Y-13930000I0J-140000D01*
G01*
G37*
G36*
G01*
X10480000Y-13930000D02*
X10480000Y-14270000D01*
G75*
G02*
X10340000Y-14410000I-140000J0D01*
G01*
X10060000Y-14410000D01*
G75*
G02*
X9920000Y-14270000I0J140000D01*
G01*
X9920000Y-13930000D01*
G75*
G02*
X10060000Y-13790000I140000J0D01*
G01*
X10340000Y-13790000D01*
G75*
G02*
X10480000Y-13930000I0J-140000D01*
G01*
G37*
G36*
G01*
X11350000Y-12962500D02*
X10850000Y-12962500D01*
G75*
G02*
X10625000Y-12737500I0J225000D01*
G01*
X10625000Y-12287500D01*
G75*
G02*
X10850000Y-12062500I225000J0D01*
G01*
X11350000Y-12062500D01*
G75*
G02*
X11575000Y-12287500I0J-225000D01*
G01*
X11575000Y-12737500D01*
G75*
G02*
X11350000Y-12962500I-225000J0D01*
G01*
G37*
G36*
G01*
X11350000Y-11412500D02*
X10850000Y-11412500D01*
G75*
G02*
X10625000Y-11187500I0J225000D01*
G01*
X10625000Y-10737500D01*
G75*
G02*
X10850000Y-10512500I225000J0D01*
G01*
X11350000Y-10512500D01*
G75*
G02*
X11575000Y-10737500I0J-225000D01*
G01*
X11575000Y-11187500D01*
G75*
G02*
X11350000Y-11412500I-225000J0D01*
G01*
G37*
G36*
G01*
X10005000Y-12250000D02*
X10005000Y-12750000D01*
G75*
G02*
X9780000Y-12975000I-225000J0D01*
G01*
X9330000Y-12975000D01*
G75*
G02*
X9105000Y-12750000I0J225000D01*
G01*
X9105000Y-12250000D01*
G75*
G02*
X9330000Y-12025000I225000J0D01*
G01*
X9780000Y-12025000D01*
G75*
G02*
X10005000Y-12250000I0J-225000D01*
G01*
G37*
G36*
G01*
X8455000Y-12250000D02*
X8455000Y-12750000D01*
G75*
G02*
X8230000Y-12975000I-225000J0D01*
G01*
X7780000Y-12975000D01*
G75*
G02*
X7555000Y-12750000I0J225000D01*
G01*
X7555000Y-12250000D01*
G75*
G02*
X7780000Y-12025000I225000J0D01*
G01*
X8230000Y-12025000D01*
G75*
G02*
X8455000Y-12250000I0J-225000D01*
G01*
G37*
G36*
G01*
X27950000Y-6787500D02*
X27950000Y-7287500D01*
G75*
G02*
X27725000Y-7512500I-225000J0D01*
G01*
X27275000Y-7512500D01*
G75*
G02*
X27050000Y-7287500I0J225000D01*
G01*
X27050000Y-6787500D01*
G75*
G02*
X27275000Y-6562500I225000J0D01*
G01*
X27725000Y-6562500D01*
G75*
G02*
X27950000Y-6787500I0J-225000D01*
G01*
G37*
G36*
G01*
X26400000Y-6787500D02*
X26400000Y-7287500D01*
G75*
G02*
X26175000Y-7512500I-225000J0D01*
G01*
X25725000Y-7512500D01*
G75*
G02*
X25500000Y-7287500I0J225000D01*
G01*
X25500000Y-6787500D01*
G75*
G02*
X25725000Y-6562500I225000J0D01*
G01*
X26175000Y-6562500D01*
G75*
G02*
X26400000Y-6787500I0J-225000D01*
G01*
G37*
G36*
G01*
X10960000Y-15330000D02*
X10960000Y-15670000D01*
G75*
G02*
X10820000Y-15810000I-140000J0D01*
G01*
X10540000Y-15810000D01*
G75*
G02*
X10400000Y-15670000I0J140000D01*
G01*
X10400000Y-15330000D01*
G75*
G02*
X10540000Y-15190000I140000J0D01*
G01*
X10820000Y-15190000D01*
G75*
G02*
X10960000Y-15330000I0J-140000D01*
G01*
G37*
G36*
G01*
X10000000Y-15330000D02*
X10000000Y-15670000D01*
G75*
G02*
X9860000Y-15810000I-140000J0D01*
G01*
X9580000Y-15810000D01*
G75*
G02*
X9440000Y-15670000I0J140000D01*
G01*
X9440000Y-15330000D01*
G75*
G02*
X9580000Y-15190000I140000J0D01*
G01*
X9860000Y-15190000D01*
G75*
G02*
X10000000Y-15330000I0J-140000D01*
G01*
G37*
G36*
G01*
X9560000Y-19830000D02*
X9560000Y-20170000D01*
G75*
G02*
X9420000Y-20310000I-140000J0D01*
G01*
X9140000Y-20310000D01*
G75*
G02*
X9000000Y-20170000I0J140000D01*
G01*
X9000000Y-19830000D01*
G75*
G02*
X9140000Y-19690000I140000J0D01*
G01*
X9420000Y-19690000D01*
G75*
G02*
X9560000Y-19830000I0J-140000D01*
G01*
G37*
G36*
G01*
X8600000Y-19830000D02*
X8600000Y-20170000D01*
G75*
G02*
X8460000Y-20310000I-140000J0D01*
G01*
X8180000Y-20310000D01*
G75*
G02*
X8040000Y-20170000I0J140000D01*
G01*
X8040000Y-19830000D01*
G75*
G02*
X8180000Y-19690000I140000J0D01*
G01*
X8460000Y-19690000D01*
G75*
G02*
X8600000Y-19830000I0J-140000D01*
G01*
G37*
D12*
X31575000Y-15212500D03*
X32825000Y-15212500D03*
X32825000Y-15762500D03*
X31575000Y-15762500D03*
D14*
X0Y-34000000D03*
G36*
G01*
X20830000Y-23040000D02*
X21170000Y-23040000D01*
G75*
G02*
X21310000Y-23180000I0J-140000D01*
G01*
X21310000Y-23460000D01*
G75*
G02*
X21170000Y-23600000I-140000J0D01*
G01*
X20830000Y-23600000D01*
G75*
G02*
X20690000Y-23460000I0J140000D01*
G01*
X20690000Y-23180000D01*
G75*
G02*
X20830000Y-23040000I140000J0D01*
G01*
G37*
G36*
G01*
X20830000Y-24000000D02*
X21170000Y-24000000D01*
G75*
G02*
X21310000Y-24140000I0J-140000D01*
G01*
X21310000Y-24420000D01*
G75*
G02*
X21170000Y-24560000I-140000J0D01*
G01*
X20830000Y-24560000D01*
G75*
G02*
X20690000Y-24420000I0J140000D01*
G01*
X20690000Y-24140000D01*
G75*
G02*
X20830000Y-24000000I140000J0D01*
G01*
G37*
G36*
G01*
X16600000Y-5937500D02*
X16300000Y-5937500D01*
G75*
G02*
X16150000Y-5787500I0J150000D01*
G01*
X16150000Y-4762500D01*
G75*
G02*
X16300000Y-4612500I150000J0D01*
G01*
X16600000Y-4612500D01*
G75*
G02*
X16750000Y-4762500I0J-150000D01*
G01*
X16750000Y-5787500D01*
G75*
G02*
X16600000Y-5937500I-150000J0D01*
G01*
G37*
G36*
G01*
X17550000Y-5937500D02*
X17250000Y-5937500D01*
G75*
G02*
X17100000Y-5787500I0J150000D01*
G01*
X17100000Y-4762500D01*
G75*
G02*
X17250000Y-4612500I150000J0D01*
G01*
X17550000Y-4612500D01*
G75*
G02*
X17700000Y-4762500I0J-150000D01*
G01*
X17700000Y-5787500D01*
G75*
G02*
X17550000Y-5937500I-150000J0D01*
G01*
G37*
G36*
G01*
X18500000Y-5937500D02*
X18200000Y-5937500D01*
G75*
G02*
X18050000Y-5787500I0J150000D01*
G01*
X18050000Y-4762500D01*
G75*
G02*
X18200000Y-4612500I150000J0D01*
G01*
X18500000Y-4612500D01*
G75*
G02*
X18650000Y-4762500I0J-150000D01*
G01*
X18650000Y-5787500D01*
G75*
G02*
X18500000Y-5937500I-150000J0D01*
G01*
G37*
G36*
G01*
X18500000Y-3662500D02*
X18200000Y-3662500D01*
G75*
G02*
X18050000Y-3512500I0J150000D01*
G01*
X18050000Y-2487500D01*
G75*
G02*
X18200000Y-2337500I150000J0D01*
G01*
X18500000Y-2337500D01*
G75*
G02*
X18650000Y-2487500I0J-150000D01*
G01*
X18650000Y-3512500D01*
G75*
G02*
X18500000Y-3662500I-150000J0D01*
G01*
G37*
G36*
G01*
X16600000Y-3662500D02*
X16300000Y-3662500D01*
G75*
G02*
X16150000Y-3512500I0J150000D01*
G01*
X16150000Y-2487500D01*
G75*
G02*
X16300000Y-2337500I150000J0D01*
G01*
X16600000Y-2337500D01*
G75*
G02*
X16750000Y-2487500I0J-150000D01*
G01*
X16750000Y-3512500D01*
G75*
G02*
X16600000Y-3662500I-150000J0D01*
G01*
G37*
D13*
X29500000Y-6937500D03*
G36*
G01*
X20170000Y-10960000D02*
X19830000Y-10960000D01*
G75*
G02*
X19690000Y-10820000I0J140000D01*
G01*
X19690000Y-10540000D01*
G75*
G02*
X19830000Y-10400000I140000J0D01*
G01*
X20170000Y-10400000D01*
G75*
G02*
X20310000Y-10540000I0J-140000D01*
G01*
X20310000Y-10820000D01*
G75*
G02*
X20170000Y-10960000I-140000J0D01*
G01*
G37*
G36*
G01*
X20170000Y-10000000D02*
X19830000Y-10000000D01*
G75*
G02*
X19690000Y-9860000I0J140000D01*
G01*
X19690000Y-9580000D01*
G75*
G02*
X19830000Y-9440000I140000J0D01*
G01*
X20170000Y-9440000D01*
G75*
G02*
X20310000Y-9580000I0J-140000D01*
G01*
X20310000Y-9860000D01*
G75*
G02*
X20170000Y-10000000I-140000J0D01*
G01*
G37*
G36*
G01*
X25400000Y-1487500D02*
X25400000Y-987500D01*
G75*
G02*
X25625000Y-762500I225000J0D01*
G01*
X26075000Y-762500D01*
G75*
G02*
X26300000Y-987500I0J-225000D01*
G01*
X26300000Y-1487500D01*
G75*
G02*
X26075000Y-1712500I-225000J0D01*
G01*
X25625000Y-1712500D01*
G75*
G02*
X25400000Y-1487500I0J225000D01*
G01*
G37*
G36*
G01*
X26950000Y-1487500D02*
X26950000Y-987500D01*
G75*
G02*
X27175000Y-762500I225000J0D01*
G01*
X27625000Y-762500D01*
G75*
G02*
X27850000Y-987500I0J-225000D01*
G01*
X27850000Y-1487500D01*
G75*
G02*
X27625000Y-1712500I-225000J0D01*
G01*
X27175000Y-1712500D01*
G75*
G02*
X26950000Y-1487500I0J225000D01*
G01*
G37*
G36*
X36150000Y-5350000D02*
G01*
X36650000Y-5350000D01*
X36650000Y-5354967D01*
X36729941Y-5356432D01*
X36865256Y-5398707D01*
X36983266Y-5477262D01*
X37074486Y-5585781D01*
X37131581Y-5715540D01*
X37149164Y-5850000D01*
X37150000Y-5850000D01*
X37150000Y-6350000D01*
X37149164Y-6350000D01*
X37149963Y-6356109D01*
X37128152Y-6496186D01*
X37067904Y-6624511D01*
X36974060Y-6730769D01*
X36854165Y-6806417D01*
X36717858Y-6845374D01*
X36650000Y-6844959D01*
X36650000Y-6850000D01*
X36150000Y-6850000D01*
X36150000Y-5350000D01*
G37*
G36*
X35350000Y-6844959D02*
G01*
X35276095Y-6844508D01*
X35140274Y-6803889D01*
X35021312Y-6726782D01*
X34928774Y-6619385D01*
X34870097Y-6490333D01*
X34850000Y-6350000D01*
X34850000Y-5850000D01*
X34850149Y-5837784D01*
X34873669Y-5697983D01*
X34935481Y-5570404D01*
X35030616Y-5465300D01*
X35151426Y-5391123D01*
X35288199Y-5353834D01*
X35350000Y-5354967D01*
X35350000Y-5350000D01*
X35850000Y-5350000D01*
X35850000Y-6850000D01*
X35350000Y-6850000D01*
X35350000Y-6844959D01*
G37*
G36*
G01*
X18280000Y-21315000D02*
X18280000Y-21685000D01*
G75*
G02*
X18145000Y-21820000I-135000J0D01*
G01*
X17875000Y-21820000D01*
G75*
G02*
X17740000Y-21685000I0J135000D01*
G01*
X17740000Y-21315000D01*
G75*
G02*
X17875000Y-21180000I135000J0D01*
G01*
X18145000Y-21180000D01*
G75*
G02*
X18280000Y-21315000I0J-135000D01*
G01*
G37*
G36*
G01*
X17260000Y-21315000D02*
X17260000Y-21685000D01*
G75*
G02*
X17125000Y-21820000I-135000J0D01*
G01*
X16855000Y-21820000D01*
G75*
G02*
X16720000Y-21685000I0J135000D01*
G01*
X16720000Y-21315000D01*
G75*
G02*
X16855000Y-21180000I135000J0D01*
G01*
X17125000Y-21180000D01*
G75*
G02*
X17260000Y-21315000I0J-135000D01*
G01*
G37*
D20*
X22874999Y-26850001D03*
X22874999Y-26200000D03*
X22874999Y-25550001D03*
X20925001Y-25550001D03*
X20925001Y-26200000D03*
X20925001Y-26850001D03*
G36*
G01*
X18620000Y-21685000D02*
X18620000Y-21315000D01*
G75*
G02*
X18755000Y-21180000I135000J0D01*
G01*
X19025000Y-21180000D01*
G75*
G02*
X19160000Y-21315000I0J-135000D01*
G01*
X19160000Y-21685000D01*
G75*
G02*
X19025000Y-21820000I-135000J0D01*
G01*
X18755000Y-21820000D01*
G75*
G02*
X18620000Y-21685000I0J135000D01*
G01*
G37*
G36*
G01*
X19640000Y-21685000D02*
X19640000Y-21315000D01*
G75*
G02*
X19775000Y-21180000I135000J0D01*
G01*
X20045000Y-21180000D01*
G75*
G02*
X20180000Y-21315000I0J-135000D01*
G01*
X20180000Y-21685000D01*
G75*
G02*
X20045000Y-21820000I-135000J0D01*
G01*
X19775000Y-21820000D01*
G75*
G02*
X19640000Y-21685000I0J135000D01*
G01*
G37*
G36*
G01*
X12670000Y-22860000D02*
X12330000Y-22860000D01*
G75*
G02*
X12190000Y-22720000I0J140000D01*
G01*
X12190000Y-22440000D01*
G75*
G02*
X12330000Y-22300000I140000J0D01*
G01*
X12670000Y-22300000D01*
G75*
G02*
X12810000Y-22440000I0J-140000D01*
G01*
X12810000Y-22720000D01*
G75*
G02*
X12670000Y-22860000I-140000J0D01*
G01*
G37*
G36*
G01*
X12670000Y-21900000D02*
X12330000Y-21900000D01*
G75*
G02*
X12190000Y-21760000I0J140000D01*
G01*
X12190000Y-21480000D01*
G75*
G02*
X12330000Y-21340000I140000J0D01*
G01*
X12670000Y-21340000D01*
G75*
G02*
X12810000Y-21480000I0J-140000D01*
G01*
X12810000Y-21760000D01*
G75*
G02*
X12670000Y-21900000I-140000J0D01*
G01*
G37*
G36*
G01*
X10315000Y-31207500D02*
X10685000Y-31207500D01*
G75*
G02*
X10820000Y-31342500I0J-135000D01*
G01*
X10820000Y-31612500D01*
G75*
G02*
X10685000Y-31747500I-135000J0D01*
G01*
X10315000Y-31747500D01*
G75*
G02*
X10180000Y-31612500I0J135000D01*
G01*
X10180000Y-31342500D01*
G75*
G02*
X10315000Y-31207500I135000J0D01*
G01*
G37*
G36*
G01*
X10315000Y-32227500D02*
X10685000Y-32227500D01*
G75*
G02*
X10820000Y-32362500I0J-135000D01*
G01*
X10820000Y-32632500D01*
G75*
G02*
X10685000Y-32767500I-135000J0D01*
G01*
X10315000Y-32767500D01*
G75*
G02*
X10180000Y-32632500I0J135000D01*
G01*
X10180000Y-32362500D01*
G75*
G02*
X10315000Y-32227500I135000J0D01*
G01*
G37*
G36*
G01*
X22170000Y-10960000D02*
X21830000Y-10960000D01*
G75*
G02*
X21690000Y-10820000I0J140000D01*
G01*
X21690000Y-10540000D01*
G75*
G02*
X21830000Y-10400000I140000J0D01*
G01*
X22170000Y-10400000D01*
G75*
G02*
X22310000Y-10540000I0J-140000D01*
G01*
X22310000Y-10820000D01*
G75*
G02*
X22170000Y-10960000I-140000J0D01*
G01*
G37*
G36*
G01*
X22170000Y-10000000D02*
X21830000Y-10000000D01*
G75*
G02*
X21690000Y-9860000I0J140000D01*
G01*
X21690000Y-9580000D01*
G75*
G02*
X21830000Y-9440000I140000J0D01*
G01*
X22170000Y-9440000D01*
G75*
G02*
X22310000Y-9580000I0J-140000D01*
G01*
X22310000Y-9860000D01*
G75*
G02*
X22170000Y-10000000I-140000J0D01*
G01*
G37*
D13*
X14400000Y-7637500D03*
X4800000Y-3937500D03*
M02*
