M48
; DRILL file {KiCad 8.0.4} date 2024-09-15T19:00:36-0700
; FORMAT={-:-/ absolute / inch / decimal}
; #@! TF.CreationDate,2024-09-15T19:00:36-07:00
; #@! TF.GenerationSoftware,Kicad,Pcbnew,8.0.4
; #@! TF.FileFunction,Plated,1,4,PTH
FMAT,2
INCH
; #@! TA.AperFunction,Plated,PTH,ViaDrill
T1C0.0118
%
G90
G05
T1
X5.0669Y-3.374
X5.0669Y-3.4134
X5.0669Y-3.4528
X5.0669Y-3.4921
X5.0669Y-3.5315
X5.0669Y-3.5709
X5.0669Y-3.6102
X5.0669Y-3.6496
X5.0669Y-3.689
X5.0669Y-3.7283
X5.0669Y-3.7677
X5.0669Y-3.8071
X5.0669Y-3.8465
X5.0669Y-3.8858
X5.0669Y-3.9252
X5.0669Y-3.9646
X5.0669Y-4.0039
X5.0669Y-4.0433
X5.0669Y-4.0827
X5.0669Y-4.122
X5.0669Y-4.1614
X5.0669Y-4.2008
X5.0669Y-4.2402
X5.0669Y-4.2795
X5.0669Y-4.3189
X5.0669Y-4.3583
X5.0669Y-4.3976
X5.0669Y-4.437
X5.0669Y-4.4764
X5.1063Y-3.374
X5.1063Y-4.4764
X5.1378Y-4.3189
X5.1378Y-4.3504
X5.1457Y-3.374
X5.1457Y-4.4764
X5.1483Y-4.4213
X5.1673Y-4.2874
X5.185Y-3.374
X5.185Y-4.4213
X5.185Y-4.4764
X5.1934Y-4.2559
X5.2131Y-4.2362
X5.2213Y-4.4213
X5.2213Y-4.4606
X5.2244Y-3.3346
X5.2244Y-4.5157
X5.2328Y-4.2717
X5.259Y-4.2883
X5.2591Y-4.4213
X5.2591Y-4.4606
X5.2638Y-3.1811
X5.2638Y-3.2165
X5.2638Y-3.2559
X5.2638Y-3.2953
X5.2638Y-4.5551
X5.2638Y-4.5945
X5.2638Y-4.6299
X5.2638Y-4.6654
X5.2874Y-4.3189
X5.3031Y-3.1811
X5.3031Y-4.6654
X5.313Y-4.5315
X5.313Y-4.563
X5.313Y-4.5945
X5.3307Y-3.4488
X5.3425Y-3.1811
X5.3425Y-4.6654
X5.3819Y-3.1811
X5.3819Y-4.6654
X5.4098Y-4.437
X5.4114Y-3.5217
X5.4114Y-3.5531
X5.4134Y-3.2795
X5.4134Y-3.3071
X5.4193Y-3.218
X5.4193Y-3.2416
X5.4193Y-3.3406
X5.4213Y-3.1811
X5.4213Y-4.6654
X5.4291Y-4.5315
X5.4291Y-4.563
X5.4291Y-4.5945
X5.4429Y-3.218
X5.4429Y-3.2416
X5.4449Y-3.2795
X5.4449Y-3.3071
X5.4449Y-3.5217
X5.4449Y-3.5531
X5.4567Y-3.3583
X5.4567Y-3.3878
X5.4567Y-3.7441
X5.4567Y-3.8031
X5.4567Y-3.9213
X5.4567Y-4.0394
X5.4567Y-4.0984
X5.4606Y-3.1811
X5.4606Y-4.6654
X5.4803Y-3.5197
X5.4803Y-3.5512
X5.5Y-3.1811
X5.5Y-4.6654
X5.5079Y-3.5197
X5.5079Y-3.5512
X5.5157Y-3.7441
X5.5157Y-3.8031
X5.5157Y-3.9213
X5.5157Y-3.9803
X5.5157Y-4.0394
X5.5157Y-4.0984
X5.5158Y-3.8617
X5.5335Y-3.5906
X5.5394Y-3.1811
X5.5394Y-4.5315
X5.5394Y-4.563
X5.5394Y-4.5945
X5.5394Y-4.6654
X5.5587Y-4.437
X5.5748Y-3.5512
X5.5748Y-3.626
X5.5748Y-3.685
X5.5748Y-3.7441
X5.5748Y-3.8031
X5.5748Y-4.2165
X5.5748Y-3.8617
X5.5748Y-4.157
X5.5787Y-3.1811
X5.5787Y-4.6654
X5.5906Y-3.3386
X5.6181Y-3.1811
X5.6181Y-4.6654
X5.6339Y-3.626
X5.6339Y-3.685
X5.6339Y-4.0984
X5.6339Y-4.2165
X5.6339Y-4.157
X5.6555Y-4.5335
X5.6555Y-4.565
X5.6555Y-4.5965
X5.6575Y-3.1811
X5.6575Y-4.6654
X5.6693Y-3.5512
X5.6713Y-3.2287
X5.6925Y-3.3976
X5.6925Y-3.4429
X5.6929Y-4.157
X5.6969Y-3.1811
X5.6969Y-4.6654
X5.7205Y-4.4173
X5.7205Y-4.4764
X5.7362Y-3.1811
X5.7362Y-4.6654
X5.748Y-4.4331
X5.752Y-4.157
X5.7677Y-4.5389
X5.7756Y-3.1811
X5.7756Y-4.6654
X5.7776Y-3.2835
X5.7776Y-3.311
X5.7874Y-3.4429
X5.7874Y-3.5197
X5.7874Y-3.5512
X5.7918Y-3.2205
X5.7918Y-3.2441
X5.811Y-3.2835
X5.811Y-3.311
X5.811Y-3.626
X5.811Y-3.685
X5.811Y-4.0984
X5.811Y-4.2165
X5.811Y-4.157
X5.815Y-3.1811
X5.815Y-4.6654
X5.8155Y-3.2205
X5.8155Y-3.2441
X5.8189Y-3.5197
X5.8189Y-3.5512
X5.8268Y-3.4488
X5.8268Y-3.4764
X5.8278Y-4.4065
X5.8543Y-3.1811
X5.8543Y-3.5212
X5.8543Y-3.5472
X5.8543Y-3.5723
X5.8543Y-4.6654
X5.8563Y-4.4075
X5.8563Y-4.4567
X5.8701Y-3.6865
X5.8701Y-3.7441
X5.8701Y-3.8031
X5.8701Y-4.0984
X5.8701Y-4.157
X5.8727Y-4.6142
X5.874Y-4.2835
X5.878Y-3.5212
X5.878Y-3.5472
X5.878Y-3.5723
X5.8937Y-3.1811
X5.8937Y-4.6654
X5.8996Y-4.5197
X5.9291Y-3.626
X5.9291Y-3.685
X5.9291Y-3.8031
X5.9291Y-3.9803
X5.9291Y-4.0394
X5.9291Y-4.0984
X5.9291Y-4.2165
X5.9291Y-4.2528
X5.9291Y-4.3661
X5.9292Y-4.157
X5.9331Y-3.1811
X5.9331Y-4.6654
X5.9547Y-4.428
X5.9547Y-4.4657
X5.9656Y-4.2638
X5.9724Y-3.1811
X5.9724Y-4.6654
X5.9843Y-4.5256
X5.9882Y-3.626
X5.9882Y-3.685
X5.9882Y-3.8031
X5.9882Y-3.9803
X5.9882Y-4.0394
X5.9882Y-4.0823
X5.9882Y-4.2165
X5.9882Y-4.1581
X5.9902Y-4.4508
X6.0118Y-3.1811
X6.0118Y-4.6654
X6.0177Y-3.8917
X6.0197Y-3.6614
X6.0197Y-3.7126
X6.0354Y-3.2913
X6.0354Y-3.4252
X6.0423Y-4.2638
X6.0472Y-3.685
X6.0472Y-3.9818
X6.0472Y-4.0394
X6.0472Y-4.0984
X6.0473Y-4.157
X6.0492Y-4.4488
X6.0512Y-3.1811
X6.0512Y-4.6654
X6.063Y-3.5709
X6.0728Y-3.6614
X6.0728Y-3.7126
X6.0768Y-3.8917
X6.0768Y-3.9503
X6.0768Y-4.0094
X6.0768Y-4.0689
X6.0768Y-4.124
X6.0906Y-3.1811
X6.0906Y-4.6654
X6.0965Y-3.5374
X6.0974Y-3.5699
X6.122Y-3.9213
X6.122Y-4.0315
X6.124Y-3.5217
X6.124Y-4.0984
X6.1299Y-3.1811
X6.1299Y-4.6654
X6.1358Y-3.9498
X6.1358Y-4.0551
X6.1358Y-4.122
X6.1437Y-3.2874
X6.1437Y-3.315
X6.1476Y-4.0984
X6.1496Y-3.9213
X6.1496Y-4.0315
X6.1501Y-3.2244
X6.1501Y-3.248
X6.1516Y-3.3386
X6.1654Y-3.7943
X6.1693Y-3.1811
X6.1693Y-4.6654
X6.1737Y-3.2244
X6.1737Y-3.248
X6.1772Y-3.2874
X6.1772Y-3.315
X6.189Y-3.3622
X6.189Y-3.3898
X6.1898Y-4.4606
X6.2087Y-3.1811
X6.2087Y-4.6654
X6.2276Y-4.4606
X6.2303Y-3.8209
X6.2303Y-3.8917
X6.2303Y-3.9606
X6.2343Y-4.4055
X6.248Y-3.1811
X6.248Y-3.843
X6.248Y-3.8657
X6.248Y-3.9178
X6.248Y-3.9405
X6.248Y-4.6654
X6.2598Y-4.5748
X6.2638Y-3.8917
X6.2677Y-4.3583
X6.2677Y-4.3996
X6.2736Y-3.4557
X6.2736Y-3.4852
X6.2756Y-3.3829
X6.2756Y-3.4144
X6.2874Y-3.1811
X6.2874Y-4.6654
X6.2894Y-4.4213
X6.2913Y-3.5492
X6.2913Y-4.378
X6.309Y-3.4557
X6.3091Y-3.4852
X6.311Y-3.3829
X6.311Y-3.4144
X6.311Y-4.6339
X6.313Y-4.3307
X6.3268Y-3.1811
X6.3268Y-4.6654
X6.3366Y-3.3386
X6.3622Y-3.6752
X6.3661Y-3.1811
X6.3661Y-4.1673
X6.3661Y-4.6654
X6.3681Y-4.2913
X6.3681Y-4.3307
X6.4075Y-4.2913
X6.4075Y-4.3307
X6.4173Y-3.5246
X6.4331Y-4.0295
X6.4567Y-3.7146
X6.4567Y-3.7736
X6.4567Y-3.8327
X6.4567Y-3.8917
X6.4567Y-3.9508
X6.4567Y-4.0098
X6.4567Y-4.0689
X6.4803Y-4.128
X6.4882Y-4.4626
X6.4902Y-4.2402
X6.5059Y-4.128
X6.5315Y-4.128
X6.5354Y-4.1673
X6.5413Y-3.6752
X6.5591Y-3.7141
X6.5591Y-3.7731
X6.5591Y-3.8322
X6.5591Y-3.8912
X6.5591Y-3.9503
X6.5591Y-4.0079
X6.5591Y-4.0684
M30
