M48
; DRILL file {KiCad (6.0.9)} date Sun Mar 19 17:38:50 2023
; FORMAT={-:-/ absolute / inch / decimal}
; #@! TF.CreationDate,2023-03-19T17:38:50-07:00
; #@! TF.GenerationSoftware,Kicad,Pcbnew,(6.0.9)
; #@! TF.FileFunction,Plated,1,4,PTH
FMAT,2
INCH
; #@! TA.AperFunction,Plated,PTH,ViaDrill
T1C0.0079
%
G90
G05
T1
X5.3031Y-3.5551
X5.3661Y-3.4646
X5.3701Y-3.3661
X5.3701Y-3.4016
X5.374Y-3.626
X5.374Y-3.6496
X5.4291Y-3.4213
X5.4291Y-3.5079
X5.4291Y-3.9528
X5.4291Y-4.0669
X5.4291Y-4.189
X5.4291Y-4.248
X5.4293Y-3.8922
X5.4567Y-3.626
X5.4567Y-3.6496
X5.4646Y-3.7047
X5.4803Y-3.626
X5.4803Y-3.6496
X5.4882Y-3.8898
X5.4882Y-3.9528
X5.4882Y-4.0118
X5.4882Y-4.0709
X5.4882Y-4.1299
X5.4882Y-4.189
X5.4882Y-4.248
X5.5197Y-3.7441
X5.5276Y-4.6394
X5.5472Y-3.7741
X5.5472Y-3.8307
X5.5472Y-3.8922
X5.5472Y-3.9513
X5.5472Y-4.0079
X5.5472Y-4.3071
X5.5472Y-4.3647
X5.6063Y-3.7741
X5.6063Y-3.8346
X5.6063Y-4.2402
X5.6063Y-4.3071
X5.6063Y-4.3647
X5.6102Y-3.6457
X5.6358Y-4.6394
X5.6654Y-3.5866
X5.6654Y-4.3031
X5.6811Y-3.7008
X5.7087Y-4.0276
X5.7244Y-4.3051
X5.7402Y-3.4409
X5.7402Y-4.687
X5.7441Y-4.0394
X5.752Y-3.6693
X5.752Y-3.6929
X5.7618Y-3.6078
X5.7756Y-3.4173
X5.7835Y-3.7741
X5.7835Y-3.8346
X5.7835Y-4.2466
X5.7835Y-4.3071
X5.7835Y-4.3647
X5.7992Y-3.5669
X5.8219Y-4.0394
X5.8219Y-4.065
X5.8226Y-4.5221
X5.8268Y-3.6693
X5.8268Y-3.6929
X5.8268Y-3.7205
X5.8425Y-3.8346
X5.8425Y-3.8937
X5.8425Y-3.9513
X5.8425Y-4.248
X5.8425Y-4.3051
X5.8504Y-3.6693
X5.8504Y-3.6929
X5.8504Y-3.7205
X5.874Y-3.7205
X5.9016Y-3.7741
X5.9016Y-3.8346
X5.9016Y-3.9513
X5.9016Y-4.1299
X5.9016Y-4.1875
X5.9016Y-4.2466
X5.9016Y-4.3071
X5.9016Y-4.3647
X5.9331Y-4.4744
X5.9567Y-4.2358
X5.9604Y-4.5221
X5.9606Y-3.7756
X5.9606Y-3.8346
X5.9606Y-4.1299
X5.9606Y-4.189
X5.9606Y-4.3071
X5.9606Y-4.3661
X5.9646Y-3.9528
X5.9882Y-3.8622
X5.9882Y-3.9803
X5.9882Y-4.0394
X6.0197Y-4.1299
X6.0197Y-4.189
X6.0197Y-4.248
X6.0197Y-4.3071
X6.0197Y-4.4528
X6.0276Y-3.8346
X6.0394Y-3.5748
X6.0433Y-3.7992
X6.0472Y-3.8661
X6.0472Y-4.0984
X6.0472Y-4.1575
X6.0512Y-3.9803
X6.0512Y-4.0394
X6.0551Y-4.6417
X6.0551Y-4.7126
X6.0787Y-3.4803
X6.0787Y-4.0709
X6.0787Y-4.185
X6.0787Y-4.2466
X6.0984Y-3.437
X6.1063Y-4.2677
X6.126Y-3.9429
X6.1319Y-3.4173
X6.1358Y-3.6772
X6.1358Y-3.7402
X6.1378Y-4.0709
X6.1378Y-4.185
X6.1378Y-4.2466
X6.1614Y-3.4862
X6.1614Y-3.5591
X6.1614Y-3.7244
X6.1693Y-4.0866
X6.1732Y-4.187
X6.189Y-3.6575
X6.189Y-3.6811
X6.2165Y-3.6575
X6.2165Y-3.6811
X6.2539Y-3.8406
X6.2598Y-3.5394
X6.2638Y-4.0787
X6.2681Y-4.0499
X6.2756Y-3.6732
X6.2815Y-3.813
X6.2862Y-4.0318
X6.2953Y-4.0079
X6.3071Y-3.9882
X6.332Y-3.997
X6.332Y-4.0226
X6.3356Y-4.4783
X6.378Y-4.4882
X6.3819Y-3.9803
X6.3819Y-4.0394
X6.4409Y-4.2131
X6.4409Y-4.1654
X6.4449Y-3.7244
X6.4449Y-3.8583
X6.4862Y-3.8406
X6.5315Y-3.8622
X6.5315Y-3.9213
X6.5315Y-3.9803
X6.5315Y-4.0394
X6.5315Y-4.0984
X6.5315Y-4.1535
X6.5315Y-4.2165
X6.5472Y-4.6496
X6.6024Y-4.6339
T0
M30
